<svg width="28" height="30" viewBox="0 0 28 30" fill="none" xmlns="http://www.w3.org/2000/svg">
<path fill-rule="evenodd" clip-rule="evenodd" d="M26.25 0.5C27.2446 0.5 28.1984 0.81607 28.9016 1.37868C29.6049 1.94129 30 2.70435 30 3.5V18.5H17.8125C17.0666 18.5 16.3512 18.7371 15.8238 19.159C15.2963 19.581 15 20.1533 15 20.75V30.5H3.75C2.75544 30.5 1.80161 30.1839 1.09835 29.6213C0.395088 29.0587 0 28.2956 0 27.5V3.5C0 2.70435 0.395088 1.94129 1.09835 1.37868C1.80161 0.81607 2.75544 0.5 3.75 0.5H26.25ZM29.9194 21.5C29.7687 22.0683 29.415 22.5894 28.9012 23L20.625 29.621C20.1118 30.032 19.4604 30.315 18.75 30.4355V21.5H29.9194ZM11.25 14H9.375C8.87772 14 8.40081 14.158 8.04918 14.4393C7.69754 14.7206 7.5 15.1022 7.5 15.5C7.5 15.8978 7.69754 16.2794 8.04918 16.5607C8.40081 16.842 8.87772 17 9.375 17H11.25C11.7473 17 12.2242 16.842 12.5758 16.5607C12.9275 16.2794 13.125 15.8978 13.125 15.5C13.125 15.1022 12.9275 14.7206 12.5758 14.4393C12.2242 14.158 11.7473 14 11.25 14ZM20.625 8H9.375C8.87772 8 8.40081 8.15804 8.04918 8.43934C7.69754 8.72064 7.5 9.10218 7.5 9.5C7.5 9.89782 7.69754 10.2794 8.04918 10.5607C8.40081 10.842 8.87772 11 9.375 11H20.625C21.1223 11 21.5992 10.842 21.9508 10.5607C22.3025 10.2794 22.5 9.89782 22.5 9.5C22.5 9.10218 22.3025 8.72064 21.9508 8.43934C21.5992 8.15804 21.1223 8 20.625 8Z" fill="#5363DD"/>
</svg>
