<svg width="47" height="44" viewBox="0 0 47 44" fill="none" xmlns="http://www.w3.org/2000/svg">
<path d="M47 20.4634C46.9953 17.2295 46.9694 14.4841 46.7744 12.2292C46.5464 9.61132 46.0788 7.42463 45.0354 5.60972C44.5801 4.81397 44.002 4.08532 43.3199 3.44723C41.3623 1.61472 38.8713 0.785359 35.7129 0.389379C32.6274 -1.31773e-06 28.67 -1.41608e-06 23.6246 -1.41608e-06H23.3754C18.3276 -1.41608e-06 14.3749 -1.31773e-06 11.287 0.389379C8.131 0.785359 5.63765 1.61472 3.68245 3.44723C1.94815 5.07074 1.05045 7.09024 0.57575 9.59592C0.10575 12.0598 0.0211502 15.122 0.00470022 18.9257C2.19408e-07 19.8936 0 20.9166 0 21.9989V22.1177C0 26.8431 1.05053e-07 30.5433 0.41595 33.4339C0.83895 36.3884 1.7249 38.7225 3.68245 40.5528C5.63765 42.3853 8.131 43.2146 11.287 43.6106C14.0318 43.956 17.5615 43.9956 21.8597 44C22.2947 44 22.712 43.8382 23.0196 43.5503C23.3272 43.2623 23.5 42.8717 23.5 42.4645C23.5 42.0572 23.3272 41.6667 23.0196 41.3787C22.712 41.0907 22.2947 40.929 21.8597 40.929C17.5004 40.9246 14.2598 40.8894 11.7241 40.5704C8.93 40.2184 7.24505 39.5496 5.99955 38.3837C4.75405 37.2177 4.042 35.6382 3.666 33.0203C3.28295 30.3585 3.27825 26.8651 3.27825 21.9989V20.2742L5.46845 22.0649C6.42849 22.8512 7.67186 23.2666 8.94679 23.227C10.2217 23.1874 11.4329 22.6957 12.3351 21.8515L21.7116 13.0739C22.4391 12.3925 23.4001 11.9733 24.4254 11.89C25.4506 11.8067 26.4744 12.0647 27.3164 12.6186L27.9697 13.0475C29.1841 13.8466 30.6523 14.2362 32.134 14.1527C33.6157 14.0692 35.0233 13.5175 36.1265 12.5878L42.3141 7.37403C42.9368 8.59937 43.3081 10.2075 43.5055 12.4778C43.6912 14.6161 43.717 17.2119 43.7194 20.4634C43.7194 20.8706 43.8922 21.2612 44.1998 21.5492C44.5074 21.8371 44.9247 21.9989 45.3597 21.9989C45.7947 21.9989 46.212 21.8371 46.5196 21.5492C46.8272 21.2612 47 20.8706 47 20.4634Z" fill="url(#paint0_linear_218_2)"/>
<path fill-rule="evenodd" clip-rule="evenodd" d="M36.425 24.1988C31.4406 24.1988 28.9473 24.1988 27.3986 25.6485C25.85 27.0982 25.85 29.4323 25.85 34.0983C25.85 38.7643 25.85 41.0983 27.3986 42.5481C28.9473 43.9978 31.4406 43.9978 36.425 43.9978C41.4093 43.9978 43.9027 43.9978 45.4513 42.5481C47 41.0983 47 38.7643 47 34.0983C47 29.4323 47 27.0982 45.4513 25.6485C43.9027 24.1988 41.4093 24.1988 36.425 24.1988ZM38.1875 38.4981C38.1875 38.9357 38.0018 39.3553 37.6713 39.6647C37.3407 39.9742 36.8924 40.148 36.425 40.148C35.9576 40.148 35.5093 39.9742 35.1787 39.6647C34.8482 39.3553 34.6625 38.9357 34.6625 38.4981V35.7482H31.725C31.2576 35.7482 30.8093 35.5744 30.4787 35.265C30.1482 34.9555 29.9625 34.5359 29.9625 34.0983C29.9625 33.6607 30.1482 33.241 30.4787 32.9316C30.8093 32.6222 31.2576 32.4484 31.725 32.4484H34.6625V29.6985C34.6625 29.2609 34.8482 28.8413 35.1787 28.5318C35.5093 28.2224 35.9576 28.0486 36.425 28.0486C36.8924 28.0486 37.3407 28.2224 37.6713 28.5318C38.0018 28.8413 38.1875 29.2609 38.1875 29.6985V32.4484H41.125C41.5924 32.4484 42.0407 32.6222 42.3713 32.9316C42.7018 33.241 42.8875 33.6607 42.8875 34.0983C42.8875 34.5359 42.7018 34.9555 42.3713 35.265C42.0407 35.5744 41.5924 35.7482 41.125 35.7482H38.1875V38.4981Z" fill="url(#paint1_linear_218_2)"/>
<defs>
<linearGradient id="paint0_linear_218_2" x1="-20" y1="23" x2="76" y2="17" gradientUnits="userSpaceOnUse">
<stop stop-color="#F76A7B"/>
<stop offset="1" stop-color="#5363DD"/>
</linearGradient>
<linearGradient id="paint1_linear_218_2" x1="16.85" y1="34.5483" x2="60.05" y2="31.8481" gradientUnits="userSpaceOnUse">
<stop stop-color="#F76A7B"/>
<stop offset="1" stop-color="#5363DD"/>
</linearGradient>
</defs>
</svg>
