<svg width="30" height="30" viewBox="0 0 30 30" fill="none" xmlns="http://www.w3.org/2000/svg">
<path d="M25.6654 0.352113L24.3143 2.04225C19.5857 8.14554 20.2612 22.6995 24.3143 27.9577L25.6654 29.6479C26.0407 30.1174 26.6411 30.1174 27.0164 29.6479L29.7185 26.1737C30.0938 25.7042 30.0938 24.9531 29.7185 24.4836L27.1666 21.2911H23.5638C22.588 20.0704 22.588 9.92958 23.5638 8.70892H27.1666L29.6435 5.51643C30.0188 5.04695 30.0188 4.29578 29.6435 3.82629L27.0164 0.352113C26.6411 -0.117371 26.0407 -0.117371 25.6654 0.352113ZM4.64908 0.352113L3.29804 2.04225C-1.43063 8.14554 -0.755107 22.6995 3.29804 27.9577L4.64908 29.6479C5.02438 30.1174 5.62484 30.1174 6.00013 29.6479L8.70223 26.1737C9.07752 25.7042 9.07752 24.9531 8.70223 24.4836L6.15025 21.2911H2.62251C1.64676 20.0704 1.64676 9.92958 2.62251 8.70892H6.22531L8.70223 5.51643C9.07752 5.04695 9.07752 4.29578 8.70223 3.82629L6.00013 0.352113C5.62484 -0.117371 5.02438 -0.117371 4.64908 0.352113Z" fill="white"/>
<path d="M15.2322 9.92957L19.2853 15L15.2322 20.0704V9.92957Z" fill="white"/>
<path d="M8.25195 13.1221H16.5084V16.8779H8.25195V13.1221Z" fill="white"/>
</svg>
