<svg width="30" height="30" viewBox="0 0 30 30" fill="none" xmlns="http://www.w3.org/2000/svg">
<path d="M2.14295 18.7786C2.09139 18.7043 2.04183 18.6273 1.99094 18.555C0.695808 16.6301 0.00278257 14.3634 0.000100412 12.0434C-0.0213281 5.39393 5.58892 0 12.5264 0C18.5773 0 23.625 4.1176 24.8076 9.58385C24.985 10.394 25.0748 11.2208 25.0754 12.0501C25.0754 18.7063 19.6808 24.2449 12.7433 24.2449C11.6405 24.2449 10.1545 23.9134 9.33957 23.6898C8.52462 23.4661 7.71703 23.1708 7.5081 23.0911C7.29918 23.0114 6.97239 22.9297 6.7119 23.0047L1.52755 24.5034C1.48197 24.5168 1.43362 24.5179 1.38748 24.5065C1.34133 24.4952 1.29905 24.4717 1.26497 24.4386C1.23089 24.4054 1.20623 24.3638 1.19354 24.318C1.18084 24.2722 1.18056 24.2239 1.19273 24.1779L2.37933 19.6585C2.4617 19.3237 2.47241 19.2608 2.14295 18.7786Z" fill="white"/>
<path d="M11.2138 25.6726C11.7292 25.755 12.2496 25.8009 12.7714 25.8098C15.6127 25.8098 18.296 25.0599 20.4723 23.6536C21.8644 22.7991 23.0729 21.6765 24.0274 20.351C25.7738 18.036 26.7261 15.0936 26.7261 12.0146C26.7261 11.805 26.7187 11.6035 26.7113 11.4013C26.7087 11.3416 26.7244 11.2826 26.7565 11.2322C26.7886 11.1819 26.8354 11.1426 26.8905 11.1198C26.9457 11.097 27.0066 11.0917 27.0648 11.1047C27.1231 11.1176 27.176 11.1483 27.2162 11.1923C28.8197 12.9467 29.789 15.1878 29.9693 17.5577C30.1497 19.9275 29.5308 22.2895 28.2113 24.2663C28.0459 24.5188 27.9522 24.7136 27.981 24.8436L28.9245 29.6824C28.9332 29.7284 28.9297 29.7759 28.9143 29.8201C28.8989 29.8643 28.8722 29.9038 28.8369 29.9345C28.8015 29.9651 28.7587 29.986 28.7127 29.995C28.6668 30.004 28.6193 30.0008 28.5749 29.9857L24.0214 28.3625C23.8833 28.3079 23.7358 28.2811 23.5873 28.2836C23.4389 28.2862 23.2924 28.318 23.1562 28.3772C21.7935 28.9129 20.2861 29.2424 18.7788 29.2424C15.8774 29.2519 13.0825 28.1496 10.9688 26.1621C10.9251 26.1195 10.8961 26.0642 10.886 26.0041C10.8759 25.944 10.8851 25.8822 10.9124 25.8278C10.9397 25.7733 10.9836 25.7288 11.0378 25.701C11.092 25.6731 11.1536 25.6631 11.2138 25.6726Z" fill="white"/>
</svg>
