<svg width="19" height="15" viewBox="0 0 19 15" fill="none" xmlns="http://www.w3.org/2000/svg">
<path d="M4.37066 6.91406L4.22222 10C4.20023 10.4492 4.42564 10.8659 4.89844 11.25C5.37124 11.6341 6.01722 11.9385 6.83637 12.1631C7.65553 12.3877 8.5434 12.5 9.5 12.5C10.4566 12.5 11.3445 12.3877 12.1636 12.1631C12.9828 11.9385 13.6288 11.6341 14.1016 11.25C14.5744 10.8659 14.7998 10.4492 14.7778 10L14.6293 6.91406L9.89583 8.68164C9.77488 8.72721 9.64294 8.75 9.5 8.75C9.35706 8.75 9.22512 8.72721 9.10417 8.68164L4.37066 6.91406ZM-4.76837e-07 3.75C-4.76837e-07 3.89974 0.0604741 4.00065 0.181423 4.05273L9.41753 7.49023C9.43953 7.49674 9.46701 7.5 9.5 7.5C9.53299 7.5 9.56047 7.49674 9.58247 7.49023L14.9592 5.47852C15.1956 5.69987 15.3908 6.06283 15.5447 6.56738C15.6986 7.07194 15.7921 7.65299 15.8251 8.31055C15.4787 8.54492 15.3056 8.89974 15.3056 9.375C15.3056 9.82422 15.465 10.1725 15.7839 10.4199L15.3056 14.6484C15.2946 14.7396 15.3166 14.821 15.3715 14.8926C15.421 14.9642 15.487 15 15.5694 15H17.1528C17.2352 15 17.3012 14.9642 17.3507 14.8926C17.4057 14.821 17.4277 14.7396 17.4167 14.6484L16.9384 10.4199C17.2572 10.1725 17.4167 9.82422 17.4167 9.375C17.4167 8.89974 17.238 8.53841 16.8806 8.29102C16.8202 6.94336 16.5508 5.86914 16.0725 5.06836L18.8186 4.05273C18.9395 4.00065 19 3.89974 19 3.75C19 3.60026 18.9395 3.49935 18.8186 3.44727L9.58247 0.00976562C9.56047 0.00325521 9.53299 0 9.5 0C9.46701 0 9.43953 0.00325521 9.41753 0.00976562L0.181423 3.44727C0.0604741 3.49935 -4.76837e-07 3.60026 -4.76837e-07 3.75Z" fill="#1B1B1B"/>
</svg>
