<svg width="322" height="207" viewBox="0 0 322 207" fill="none" xmlns="http://www.w3.org/2000/svg">
<g clip-path="url(#clip0_394_10564)">
<path d="M322 0H0V207H322V0Z" fill="white"/>
<path d="M307.433 43.5555V159.929C307.433 178.59 290.454 191.177 269.941 193.717C265.007 194.328 260.044 194.761 254.83 195.034C254.459 195.055 254.087 195.073 253.714 195.091C252.784 195.137 251.846 195.176 250.898 195.211C250.5 195.227 250.101 195.239 249.699 195.253C247.477 195.324 245.202 195.371 242.856 195.393H242.855C242.401 195.398 241.943 195.401 241.484 195.403C241.168 195.406 240.85 195.407 240.532 195.408H240.512C240.51 195.409 240.507 195.409 240.504 195.408H240.398C240.351 195.409 240.304 195.409 240.258 195.408C232.899 195.394 224.812 195.164 215.55 194.759C214.709 194.722 213.858 194.683 212.998 194.644C212.569 194.624 212.139 194.605 211.705 194.583C211.443 194.571 211.182 194.56 210.919 194.546C210.45 194.525 209.979 194.501 209.504 194.479C209.208 194.464 208.912 194.449 208.613 194.435C208.586 194.434 208.557 194.433 208.53 194.43C207.995 194.404 207.453 194.376 206.91 194.349C205.548 194.281 204.163 194.209 202.754 194.133C194.129 193.675 184.557 193.108 173.784 192.457C171.947 192.346 169.987 192.253 167.918 192.18C167.913 192.179 167.908 192.179 167.902 192.179C165.774 192.078 163.514 191.998 161.141 191.94C161.14 191.94 161.14 191.94 161.14 191.94C160.199 191.916 159.242 191.895 158.267 191.878H158.265C156.944 191.853 155.591 191.834 154.211 191.819C153.278 191.809 152.333 191.802 151.376 191.798C151.375 191.798 151.375 191.798 151.374 191.798C140.12 191.737 127.287 191.965 114.438 192.285C113.482 192.309 112.525 192.333 111.568 192.357C110.971 192.373 110.375 192.388 109.78 192.404C109.019 192.424 108.26 192.444 107.501 192.465C98.7175 192.702 90.0609 192.967 82.0342 193.191C80.969 193.221 79.9155 193.25 78.8737 193.278C78.4805 193.29 78.0909 193.299 77.7024 193.31H77.7012C76.7317 193.335 75.7739 193.362 74.8277 193.385C74.5465 193.393 74.2665 193.401 73.9877 193.407C72.5854 193.44 71.211 193.475 69.867 193.506C65.2844 193.611 61.0634 193.687 57.3347 193.718C36.6287 193.884 19.8416 178.591 19.8416 159.93V43.5555C19.8416 24.8951 36.6637 8.67036 57.3347 9.76836C76.531 10.7876 104.767 14.8219 134.201 12.3514C169.209 9.41286 235.654 6.91536 269.941 9.76836C290.56 11.4829 307.433 24.8951 307.433 43.5555Z" fill="#DAEBE8"/>
<path d="M212.445 165.408C212.445 165.408 231.161 101.502 248.954 107.052C266.746 112.6 226.573 147.194 221.735 165.963L212.445 165.408Z" fill="#CCD39C"/>
<path d="M271.131 161.255C261.347 165.652 266.589 180.296 254.21 180.074C241.828 179.846 242.631 178.91 238.146 185.054C238.146 185.054 237.067 190.28 232.589 192.089C214.923 199.225 183.598 178.49 199.392 159.834C200.533 158.488 202.455 157.644 204.609 156.818C216.297 152.345 221.333 156.884 227.64 141.027C233.949 125.166 251.547 142.078 259.51 139.607C267.472 137.135 274.08 133.219 282.364 140.138C290.651 147.062 280.917 156.864 271.131 161.255Z" fill="#ACC9C5"/>
<g opacity="0.5">
<g opacity="0.5">
<g opacity="0.5">
<path opacity="0.5" d="M209.741 177.64L209.224 177.171C209.439 176.951 231.303 155.042 284.376 142.176L284.549 142.84C231.677 155.658 209.955 177.422 209.741 177.64Z" fill="#68A1BF"/>
</g>
</g>
<g opacity="0.5">
<g opacity="0.5">
<path opacity="0.5" d="M254.949 153.221C253.953 152.728 253.397 152.387 253.372 152.371L253.757 151.796C253.874 151.869 265.591 159.024 279.58 155.536L279.757 156.198C268.485 159.011 258.662 155.057 254.949 153.221Z" fill="#68A1BF"/>
</g>
</g>
<g opacity="0.5">
<g opacity="0.5">
<path opacity="0.5" d="M265.497 167.147C261.47 164.391 259.74 161.136 258.998 158.891C258.19 156.446 258.341 154.671 258.348 154.596L259.055 154.656C259.049 154.725 258.533 161.543 265.908 166.589L265.497 167.147Z" fill="#68A1BF"/>
</g>
</g>
</g>
<path d="M103.116 100.024C101.765 100.693 101.143 100.478 100.871 99.9675C100.599 99.4567 100.78 98.8447 102.131 98.1753C104.592 96.9558 106.273 97.2911 106.273 97.2911C106.273 97.2911 105.611 98.7873 103.116 100.024Z" fill="#ACC9C5"/>
<path d="M100.455 134.113L100.17 134.074C100.176 134.032 100.787 129.772 99.6613 123.421C98.6218 117.562 95.851 108.675 88.5442 99.6075L88.7705 99.4376C96.117 108.556 98.9018 117.494 99.946 123.388C101.078 129.777 100.462 134.071 100.455 134.113Z" fill="#ACC9C5"/>
<path d="M95.8254 110.769L95.592 110.607C101.705 102.45 98.9182 91.9924 98.889 91.8878L99.1667 91.8169C99.197 91.9215 102.02 102.503 95.8254 110.769Z" fill="#ACC9C5"/>
<path d="M91.7666 106.045C88.8522 105.886 86.7312 104.361 86.7079 104.343L86.8817 104.122C86.9086 104.141 89.6269 106.094 93.1036 105.738L93.1339 106.013C92.6626 106.062 92.2052 106.068 91.7666 106.045Z" fill="#ACC9C5"/>
<path d="M88.4426 98.055C89.8835 99.4579 89.9698 100.203 89.5463 100.607C89.1239 101.01 88.3516 100.92 86.9108 99.5175C84.2858 96.9626 83.783 94.9961 83.783 94.9961C83.783 94.9961 85.7791 95.4618 88.4426 98.055Z" fill="#ACC9C5"/>
<path d="M87.5292 103.49C89.3422 104.408 89.656 105.093 89.3795 105.601C89.103 106.11 88.3388 106.248 86.527 105.329C83.2253 103.656 82.131 101.927 82.131 101.927C82.131 101.927 84.1785 101.792 87.5292 103.49Z" fill="#ACC9C5"/>
<path d="M94.9585 101.797C95.221 103.239 94.8243 103.749 94.2375 103.848C93.6518 103.947 93.0976 103.599 92.8351 102.157C92.3568 99.5298 93.1863 98.0808 93.1863 98.0808C93.1863 98.0808 94.472 99.1316 94.9585 101.797Z" fill="#ACC9C5"/>
<path d="M99.8375 90.7278C100.203 92.6707 99.8363 93.3311 99.2506 93.4334C98.665 93.5358 98.0816 93.0408 97.7176 91.0979C97.0538 87.5587 97.7923 85.6631 97.7923 85.6631C97.7923 85.6631 99.1631 87.1368 99.8375 90.7278Z" fill="#ACC9C5"/>
<path d="M109.713 144.701C109.713 144.701 80.3461 90.2824 65.3323 98.5219C50.3184 106.76 93.3895 130.782 101.418 146.885L109.713 144.701Z" fill="#ACC9C5"/>
<path d="M180.865 90.4387C180.865 90.4387 191.251 103.563 197.38 122.28L176.779 120.967L172.019 97.6747L180.865 90.4387Z" fill="#FFB27D"/>
<path d="M126.295 183.544C123.43 187.233 119.251 190.183 114.437 192.284C113.481 192.307 112.524 192.332 111.567 192.356C110.97 192.372 110.374 192.387 109.779 192.403C109.018 192.423 108.259 192.442 107.5 192.464C98.7164 192.701 90.0597 192.966 82.0331 193.189C80.9854 192.726 79.9821 192.205 79.0289 191.622V191.621C78.2157 191.125 77.4387 190.583 76.7061 189.996C76.0516 189.471 75.5032 188.89 75.0436 188.278C72.2354 184.542 72.7406 179.665 72.7406 179.665C69.7177 170.773 70.3209 172.169 55.4832 168.097C44.8479 165.172 47.8929 156.32 46.7787 148.348V148.346C46.7577 148.198 46.7356 148.051 46.7111 147.905V147.904C46.2327 144.92 45.1197 142.081 42.4259 139.744C39.5676 137.268 36.8819 134.268 34.7936 131.12C34.7936 131.119 34.7924 131.119 34.7924 131.119C34.6197 130.857 34.4506 130.596 34.2861 130.332C30.2517 123.888 28.8342 116.966 33.6152 112.734L33.6176 112.732C33.7307 112.632 33.8462 112.536 33.9664 112.439C34.8041 111.761 35.8144 111.159 37.0126 110.646C49.4912 105.31 55.8846 112.293 64.4362 118.03C69.1624 121.202 79.6309 118.352 88.3074 118.734H88.3179C88.4416 118.738 88.5652 118.744 88.6877 118.752C94.6751 119.082 99.7454 121.035 101.38 127.705C101.616 128.668 101.78 129.73 101.866 130.9V130.905C101.88 131.093 101.893 131.28 101.908 131.463V131.464C102.263 135.936 102.907 139.265 103.823 141.834V141.835C104.484 143.687 105.286 145.145 106.224 146.35L106.225 146.351C107.468 147.95 108.948 149.109 110.654 150.16C112.265 151.153 114.074 152.052 116.074 153.138C117.017 153.65 118.001 154.206 119.027 154.833C120.393 155.667 121.834 156.631 123.344 157.795C124.126 158.399 124.875 158.995 125.554 159.603L125.556 159.604C126.834 160.74 127.866 161.91 128.421 163.218C128.589 163.613 128.744 164.006 128.89 164.394C131.707 171.973 130.25 178.459 126.295 183.544Z" fill="#CCD39C"/>
<path d="M109.374 180.799L110.166 180.421C109.993 180.084 92.2134 146.315 33.845 112.37L33.3877 113.1C91.5367 146.918 109.201 180.463 109.374 180.799Z" fill="#C2C68E"/>
<path d="M85.6264 138.479C97.4447 136.008 102.004 131.389 102.193 131.194L101.546 130.614C101.501 130.66 96.9547 135.239 85.4386 137.646L85.6264 138.479Z" fill="#C2C68E"/>
<path d="M79.5399 145.72C83.9405 143.202 86.9167 137.719 88.1452 129.863C89.0657 123.979 88.69 118.761 88.6854 118.709L87.8034 118.77C87.8185 118.973 89.2069 139.199 79.0884 144.987L79.5399 145.72Z" fill="#C2C68E"/>
<path d="M64.7337 135.849C66.1068 135.612 66.8978 135.402 66.9328 135.391L66.6902 134.571C66.5245 134.617 49.8668 139.031 34.517 129.967L34.0562 130.693C46.4252 137.998 59.619 136.735 64.7337 135.849Z" fill="#C2C68E"/>
<path d="M46.914 148.739C52.752 146.869 56.0397 143.597 57.771 141.183C59.6552 138.554 60.1452 136.387 60.165 136.296L59.2994 136.119C59.2807 136.203 57.3219 144.507 46.634 147.931L46.914 148.739Z" fill="#C2C68E"/>
<path d="M161.139 191.94C160.197 191.916 159.241 191.895 158.265 191.878H158.264C156.942 191.853 155.59 191.834 154.21 191.819C153.277 191.809 152.332 191.802 151.375 191.798C151.374 191.798 151.374 191.798 151.373 191.798C140.119 191.737 127.286 191.966 114.437 192.285C113.48 192.309 112.524 192.333 111.567 192.357C110.215 189.474 106.23 180.763 102.566 170.678V170.677C102.255 169.821 101.947 168.958 101.642 168.083V168.082C101.044 166.371 100.463 164.63 99.911 162.884C99.407 161.29 98.9286 159.695 98.4853 158.105V158.104C98.1773 157.008 97.888 155.916 97.6185 154.834C97.223 153.249 96.8706 151.687 96.5731 150.161C96.369 149.115 96.1881 148.086 96.0376 147.083C95.7961 145.473 95.6281 143.922 95.5476 142.45V142.449C95.3936 139.665 95.5523 137.165 96.117 135.09V135.089C96.2255 134.687 96.3503 134.303 96.4903 133.935V133.934C96.558 133.754 96.6315 133.579 96.7073 133.408C97.8331 130.874 99.4256 129.018 101.38 127.706C110.753 121.409 128.442 127.614 142.782 131.32C146.411 132.257 149.206 135.522 151.359 140.099V140.1C152.033 141.533 152.643 143.093 153.197 144.753C153.699 146.257 154.153 147.84 154.565 149.48C154.622 149.705 154.677 149.932 154.731 150.161C155.099 151.678 155.43 153.243 155.73 154.834C155.895 155.706 156.05 156.588 156.194 157.473C156.347 158.401 156.491 159.334 156.624 160.27C156.845 161.828 157.041 163.391 157.213 164.944C158.104 172.949 158.387 180.709 158.459 186.093C158.488 188.195 158.485 189.934 158.474 191.184C159.332 191.423 160.228 191.676 161.139 191.94Z" fill="#92BCB5"/>
<path d="M242.857 195.402C242.089 195.407 241.315 195.408 240.529 195.407H240.51C240.507 195.408 240.505 195.408 240.501 195.407H240.395C240.349 195.408 240.302 195.407 240.255 195.407C232.897 195.393 224.81 195.163 215.548 194.758C214.706 194.721 213.856 194.682 212.996 194.643C212.567 194.623 212.136 194.604 211.702 194.582C211.441 194.57 211.18 194.559 210.917 194.545C210.448 194.524 209.977 194.5 209.502 194.478C209.206 194.463 208.909 194.448 208.611 194.434C208.584 194.433 208.555 194.431 208.528 194.429C207.992 194.403 207.451 194.375 206.907 194.348C205.546 194.28 204.161 194.208 202.752 194.132C193.741 189.702 181.857 188.245 174.152 187.777C173.544 187.74 172.939 187.708 172.335 187.678C167.867 187.467 163.011 187.055 158.46 186.092C147.536 183.779 138.355 178.281 140.429 164.712C140.651 163.259 141.002 161.711 141.496 160.064C141.853 158.87 142.284 157.622 142.797 156.321C142.987 155.832 143.191 155.336 143.406 154.832C143.925 153.612 144.508 152.346 145.163 151.035C145.163 151.035 146.525 150.62 149.31 150.159C150.703 149.929 152.453 149.686 154.567 149.479C159.614 148.982 166.737 148.682 176.038 149.207C177.868 149.309 180.11 149.633 182.648 150.159C187.192 151.1 192.68 152.691 198.434 154.833C200.272 155.517 202.138 156.257 204.008 157.051C205.681 157.759 207.358 158.511 209.021 159.302L209.022 159.303C211.782 160.615 214.506 162.036 217.126 163.558C219.039 164.67 220.897 165.833 222.669 167.046C222.874 167.186 223.078 167.327 223.281 167.47C227.873 170.676 231.86 174.214 234.732 178.01C236.22 179.973 237.522 182.079 238.669 184.336C240.373 187.685 241.738 191.364 242.853 195.393H242.855C242.855 195.396 242.856 195.399 242.857 195.402Z" fill="#366F90"/>
<path d="M215.549 194.758C214.708 194.721 213.857 194.682 212.997 194.643C212.568 194.623 212.137 194.604 211.703 194.582C211.442 194.57 211.181 194.559 210.918 194.545C210.449 194.524 209.978 194.5 209.503 194.478C209.207 194.463 208.91 194.448 208.612 194.434C208.585 194.433 208.556 194.431 208.529 194.429C207.993 194.403 207.452 194.375 206.908 194.348C205.547 194.28 204.162 194.208 202.753 194.132C194.128 193.674 184.556 193.107 173.783 192.456C171.946 192.345 169.986 192.252 167.917 192.179C167.911 192.178 167.907 192.178 167.901 192.178C165.773 192.077 163.513 191.997 161.14 191.938C161.139 191.938 161.139 191.938 161.139 191.938C160.197 191.915 159.241 191.893 158.265 191.877H158.264C156.942 191.852 155.59 191.833 154.21 191.818C144.769 189.287 134.408 187.159 126.295 183.544C117.362 179.561 111.154 173.774 111.9 163.649C112.006 162.198 112.256 160.658 112.662 159.019V159.018C112.991 157.689 113.423 156.294 113.964 154.833C114.204 154.181 114.468 153.516 114.752 152.837C114.752 152.837 115.186 152.949 116.074 153.138C117.807 153.505 121.263 154.16 126.604 154.833C130.81 155.362 136.18 155.904 142.794 156.322C143.569 156.372 144.36 156.419 145.168 156.464C148.967 156.679 152.647 157.014 156.193 157.471C161.427 158.141 166.38 159.076 171.019 160.266H171.029C173.893 161.001 176.638 161.831 179.262 162.759C181.027 163.385 182.736 164.052 184.394 164.764H184.395C184.396 164.765 184.396 164.765 184.398 164.764H184.399C186.013 165.458 187.571 166.193 189.081 166.969C189.081 166.969 189.082 166.969 189.083 166.97C191.181 168.046 193.178 169.202 195.074 170.436C199.941 173.604 204.136 177.283 207.635 181.456C207.636 181.456 207.636 181.457 207.636 181.457C208.586 182.59 209.483 183.756 210.329 184.961C211.854 187.129 213.14 189.345 214.225 191.648C214.705 192.667 215.145 193.702 215.549 194.758Z" fill="#366F90"/>
<path d="M120.261 89.4622C120.261 89.4622 138.57 73.9203 159.151 78.4372C168.979 80.5938 176.481 87.2695 179.962 100.626C183.77 115.238 183.327 137.114 189.593 151.904C189.593 151.904 161.099 170.604 115.982 172.881C109.743 173.196 108.714 168.065 108.892 157.893C109.299 134.675 110.654 104.493 120.261 89.4622Z" fill="#764678"/>
<path d="M106.999 92.9351L128.169 96.7724C128.169 96.7724 155.3 102.595 165.592 103.772C179.928 105.411 185.553 93.9149 185.553 93.9149C185.553 93.9149 177.848 81.8808 159.151 78.4383C156.067 77.8702 153.033 76.9859 149.946 76.9522C115 76.5652 106.999 92.9351 106.999 92.9351Z" fill="#764678"/>
<path d="M129.302 101.471C130.155 99.342 125.834 95.7499 119.651 93.4479C113.468 91.1459 107.765 91.0057 106.912 93.1346C106.06 95.2636 110.381 98.8556 116.564 101.158C122.747 103.46 128.45 103.6 129.302 101.471Z" fill="#331832"/>
<path d="M159.066 78.2989L159.06 78.0817C159.086 78.0806 161.63 77.9951 162.657 76.5394C163.19 75.7834 163.228 74.7833 162.771 73.5649C162.556 72.9934 162.356 72.4736 162.173 71.9989C160.91 68.7206 160.438 67.4944 161.464 65.223L161.672 65.3108C160.682 67.5 161.11 68.6149 162.385 71.9224C162.568 72.3983 162.769 72.918 162.983 73.4918C163.466 74.7788 163.42 75.8464 162.843 76.662C161.75 78.21 159.174 78.2966 159.066 78.2989Z" fill="#EF8062"/>
<path d="M161.568 65.2668C161.568 65.2668 159.936 68.7735 161.634 73.1261C163.331 77.4776 159.738 80.8076 156.634 78.6442C153.531 76.4809 151.762 82.6965 147.307 76.9455C144.255 73.0046 161.568 65.2668 161.568 65.2668Z" fill="#EF8062"/>
<path d="M142.818 75.2782L146.283 70.5082L147.295 69.1144L153.25 60.9165L150.548 70.1055L148.925 75.6202L148.468 77.1739C148.09 78.4597 151.569 81.0157 148.602 82.2881C145.206 83.745 139.027 81.0934 137.685 77.5721C137.685 77.5721 141.699 76.8206 142.818 75.2782Z" fill="#FFB27D"/>
<path d="M146.307 70.3518C146.298 70.4036 146.29 70.4553 146.284 70.5082C145.867 73.5615 148.902 75.6326 148.902 75.6326L148.925 75.6202L150.548 70.1055C149.605 69.5407 148.233 68.8803 147.296 69.1143C146.806 69.2358 146.437 69.6015 146.307 70.3518Z" fill="#331832"/>
<path d="M162.457 64.3079C163.741 58.3359 160.712 52.6811 155.693 51.6776C150.673 50.6742 145.563 54.702 144.279 60.674C142.995 66.646 146.023 72.3008 151.043 73.3043C156.063 74.3077 161.173 70.2799 162.457 64.3079Z" fill="#FFB27D"/>
<path d="M148.136 63.5232C149.14 62.9655 149.364 61.5267 148.637 60.3094C147.91 59.0921 146.507 58.5575 145.503 59.1151C144.499 59.6728 144.275 61.1117 145.002 62.3289C145.729 63.5462 147.133 64.0809 148.136 63.5232Z" fill="#FFB27D"/>
<path d="M154.225 62.7761C154.289 62.7727 154.35 62.7412 154.389 62.685C154.453 62.5916 154.427 62.4656 154.33 62.4026C154.273 62.3666 153.029 61.398 151.53 62.4431C151.436 62.5095 151.41 62.6344 151.477 62.7266C151.543 62.8188 151.662 62.8211 151.771 62.7783C152.852 62.3531 154.049 62.7131 154.097 62.7423C154.137 62.7682 154.181 62.7783 154.225 62.7761Z" fill="#080435"/>
<path d="M152.118 64.6402C152 65.1127 152.193 65.5627 152.549 65.6448C152.905 65.727 153.288 65.4108 153.406 64.9394C153.524 64.4681 153.332 64.0169 152.976 63.9348C152.62 63.8516 152.236 64.1677 152.118 64.6402Z" fill="#080435"/>
<path d="M161.382 65.2904C161.442 65.3107 161.511 65.3039 161.568 65.2668C161.665 65.2038 161.691 65.0778 161.625 64.9844C161.587 64.9293 160.82 63.5782 159.02 63.9933C158.907 64.0192 158.834 64.126 158.859 64.2363C158.884 64.3465 158.993 64.3915 159.111 64.3915C160.279 64.3949 161.244 65.1678 161.275 65.2128C161.302 65.2499 161.34 65.2769 161.382 65.2904Z" fill="#080435"/>
<path d="M158.697 66.24C158.402 66.6338 158.402 67.1198 158.698 67.3268C158.995 67.5338 159.474 67.3819 159.769 66.9893C160.064 66.5955 160.064 66.1095 159.768 65.9025C159.473 65.6955 158.993 65.8463 158.697 66.24Z" fill="#080435"/>
<path d="M159.132 54.414C159.132 54.414 158.13 58.1265 153.133 57.7946C148.138 57.4627 144.36 58.7756 144.286 62.2811C144.213 65.7866 150.491 76.8757 144.151 78.4372C137.811 79.9987 140.173 72.6648 133.68 72.5895C127.188 72.5141 124.646 65.2657 133.09 60.4496C138.776 57.2062 139.302 43.9582 155.297 47.7259C171.292 51.4935 162.723 62.7097 162.723 62.7097C162.723 62.7097 158.232 58.5551 159.132 54.414Z" fill="#EF8062"/>
<path d="M143.107 78.6903L143.084 78.5632C144.194 78.3686 144.975 77.8634 145.405 77.0602C146.929 74.2151 143.925 68.0377 141.731 63.5264C141.31 62.6602 140.912 61.8412 140.575 61.1077C139.404 58.5584 139.827 55.8821 141.681 54.1214C143.742 52.1662 146.934 51.8028 150.014 53.1731C152.989 54.4983 155.273 54.2992 156.661 53.8998C158.167 53.4667 158.982 52.7107 158.99 52.7039L159.084 52.7962C159.052 52.8277 155.737 55.8607 149.956 53.2912C146.928 51.9446 143.793 52.2967 141.775 54.2137C139.935 55.9619 139.531 58.5202 140.697 61.0559C141.033 61.7883 141.43 62.6062 141.852 63.4713C144.057 68.0062 147.077 74.2173 145.523 77.1198C145.075 77.9602 144.261 78.4878 143.107 78.6903Z" fill="white"/>
<path d="M156.928 67.4696C156.983 67.4438 157.038 67.4134 157.093 67.3875C157.166 66.51 157.394 65.5886 157.767 64.6909C157.73 64.6448 157.633 64.5503 157.485 64.4389C157.121 65.4424 156.94 66.4864 156.928 67.4696ZM156.794 66.5629C156.732 66.9116 156.693 67.2604 156.673 67.6035C156.581 69.2483 156.995 70.7276 157.917 71.577C157.925 71.5826 157.928 71.5871 157.936 71.5939C158.317 71.937 158.75 72.1575 159.223 72.2531C159.549 72.315 159.882 72.3274 160.232 72.2756C160.573 72.2261 160.914 72.1249 161.254 71.9708C161.536 71.8459 161.818 71.6873 162.093 71.4915C162.908 70.9245 163.666 70.0774 164.275 69.03C166.01 66.0611 166.032 62.3801 164.327 60.8198C164.218 60.7185 164.103 60.6251 163.984 60.5486C163.588 60.2775 163.141 60.129 162.665 60.0986C162.454 60.0851 162.234 60.093 162.015 60.1234C161.763 60.1605 161.511 60.2246 161.258 60.318C161.121 60.3698 160.984 60.4305 160.844 60.4991C159.775 61.0189 158.751 62.0291 157.968 63.3634C157.904 63.4714 157.843 63.5794 157.787 63.6885C157.781 63.6964 157.779 63.7088 157.772 63.7211C157.772 63.7211 157.772 63.7211 157.767 63.72C157.649 63.9461 157.541 64.1779 157.441 64.4108C157.137 65.1161 156.921 65.8474 156.794 66.5629ZM164.313 68.0749C164.196 68.3314 164.059 68.5845 163.916 68.8331C163.36 69.7883 162.677 70.5656 161.951 71.0978C161.69 71.2913 161.425 71.4488 161.158 71.5759C160.83 71.7323 160.498 71.8346 160.172 71.8819C159.447 71.973 158.788 71.7941 158.26 71.3385C158.239 71.3261 158.223 71.3104 158.204 71.2946C157.317 70.4779 156.946 69.0109 157.093 67.3875C157.166 66.51 157.394 65.5886 157.767 64.6909C157.869 64.449 157.98 64.2094 158.108 63.972C158.178 63.8348 158.251 63.702 158.33 63.5659C159.083 62.2665 160.067 61.3024 161.083 60.8265C161.415 60.6713 161.747 60.5678 162.078 60.5171C162.297 60.4879 162.503 60.4823 162.702 60.5059C162.815 60.5115 162.92 60.5284 163.025 60.5543C163.03 60.5554 163.03 60.5554 163.035 60.5554C163.314 60.6229 163.57 60.7399 163.808 60.9109C163.889 60.9683 163.968 61.0335 164.046 61.1033C165.48 62.4173 165.559 65.4053 164.322 68.0535C164.32 68.0625 164.319 68.067 164.313 68.0749Z" fill="#764678"/>
<g opacity="0.3">
<path opacity="0.3" d="M155.556 62.6764C156.3 59.4402 155.056 56.4218 152.777 55.9347C150.498 55.4476 148.047 57.6761 147.303 60.9123C146.559 64.1485 147.804 67.1669 150.083 67.654C152.362 68.1411 154.813 65.9126 155.556 62.6764Z" fill="white"/>
</g>
<g opacity="0.3">
<path opacity="0.3" d="M164.623 67.0709C165.445 63.8217 164.451 60.7972 162.404 60.3155C160.356 59.8338 158.03 62.0774 157.208 65.3267C156.386 68.5759 157.379 71.6004 159.427 72.0821C161.474 72.5638 163.801 70.3202 164.623 67.0709Z" fill="white"/>
</g>
<path d="M147.079 60.9379C146.909 61.8953 146.903 62.8538 147.047 63.7358C147.277 65.1015 147.869 66.294 148.794 67.0467C148.853 67.1007 148.917 67.1502 148.981 67.1963C149.407 67.5113 149.875 67.716 150.361 67.8139C150.633 67.8679 150.917 67.8882 151.206 67.8702C151.439 67.86 151.682 67.8263 151.928 67.77C153.467 67.3932 154.849 66.132 155.724 64.3005C155.804 64.134 155.88 63.963 155.947 63.7898C156.044 63.5513 156.128 63.3117 156.203 63.0698C156.8 61.1134 156.681 59.0434 155.929 57.4954C155.598 56.7968 155.131 56.2073 154.547 55.782C153.677 55.1565 152.662 54.9585 151.59 55.215C150.204 55.5514 148.941 56.6179 148.072 58.1659C147.979 58.3302 147.889 58.5034 147.804 58.6778C147.716 58.8645 147.632 59.0524 147.564 59.238C147.341 59.7983 147.181 60.3675 147.079 60.9379ZM153.096 66.8205C152.69 67.086 152.261 67.2784 151.823 67.3864C151.657 67.4247 151.489 67.4494 151.328 67.4629C150.572 67.527 149.853 67.329 149.227 66.8847C149.16 66.834 149.091 66.7834 149.028 66.7294C148.205 66.042 147.673 64.9677 147.463 63.7414C147.226 62.4105 147.364 60.8952 147.907 59.4732C147.985 59.2628 148.076 59.0546 148.171 58.851C148.309 58.563 148.461 58.2941 148.625 58.0365C148.74 57.8543 148.862 57.6765 148.995 57.5145C148.996 57.51 148.996 57.5055 149.002 57.5021C149.221 57.2141 149.463 56.952 149.713 56.7214C150.316 56.1634 150.995 55.7719 151.692 55.602C152.167 55.4828 152.637 55.4726 153.084 55.5649C153.515 55.6493 153.923 55.8304 154.298 56.0981C154.817 56.4773 155.233 56.997 155.533 57.6124C156.272 59.0839 156.386 61.0999 155.793 63.009C155.717 63.2554 155.63 63.495 155.528 63.7324C155.477 63.8685 155.416 64.0035 155.352 64.1374C154.804 65.2827 154.016 66.213 153.137 66.7947C153.126 66.8025 153.111 66.8138 153.096 66.8205Z" fill="#764678"/>
<path d="M158.01 64.8473C157.925 64.8304 157.846 64.7854 157.788 64.7145C157.754 64.6729 156.934 63.738 155.178 63.711C154.973 63.6998 154.794 63.54 154.796 63.3353C154.797 63.1305 154.973 62.9651 155.184 62.9719C157.312 62.9685 158.343 64.197 158.391 64.2476C158.521 64.4085 158.495 64.6448 158.328 64.7696C158.236 64.845 158.118 64.8686 158.01 64.8473Z" fill="#764678"/>
<path d="M154.149 70.9728C152.43 70.9728 151.065 69.5936 150.998 69.5261C150.884 69.4091 150.89 69.2235 151.012 69.1133C151.134 69.003 151.326 69.0075 151.44 69.1268C151.457 69.1436 153.117 70.8165 154.879 70.2799C155.037 70.2337 155.209 70.317 155.259 70.4711C155.309 70.6252 155.22 70.7895 155.061 70.8378C154.749 70.9323 154.445 70.9728 154.149 70.9728Z" fill="#331832"/>
<path d="M254.83 195.034C254.459 195.055 254.087 195.073 253.714 195.091C252.784 195.137 251.846 195.176 250.898 195.211L249.467 179.949L247.683 160.923L247.249 156.307V156.305L247.135 155.091L247.112 154.833L247.069 154.375L246.75 150.961L250.721 152.858L251.563 153.26L253.105 153.997L253.14 154.831L253.166 155.451V155.477L253.362 160.118L254.202 180.072L254.83 195.034Z" fill="#331832"/>
<path d="M82.8416 150.963L82.4788 154.833L82.3166 156.567V156.568L81.8814 161.189L79.0289 191.62V191.621L78.8738 193.276C78.4806 193.287 78.0909 193.296 77.7024 193.308H77.7013C76.7318 193.332 75.7739 193.359 74.8278 193.383L75.0436 188.277L76.2138 160.445V160.444L76.4098 155.801V155.8L76.4506 154.833L76.4856 153.998L82.8416 150.963Z" fill="#331832"/>
<path d="M163.707 164.963C221.74 164.963 268.786 160.428 268.786 154.833C268.786 149.238 221.74 144.702 163.707 144.702C105.673 144.702 58.6274 149.238 58.6274 154.833C58.6274 160.428 105.673 164.963 163.707 164.963Z" fill="#68A1BF"/>
<path d="M268.786 150.16H58.6285V154.833H268.786V150.16Z" fill="#68A1BF"/>
<path d="M163.707 160.291C221.74 160.291 268.786 155.755 268.786 150.16C268.786 144.565 221.74 140.03 163.707 140.03C105.673 140.03 58.6274 144.565 58.6274 150.16C58.6274 155.755 105.673 160.291 163.707 160.291Z" fill="#B8D5DC"/>
<path d="M88.4672 157.547C88.4556 157.547 88.4451 157.547 88.4334 157.546C79.5994 156.672 72.5376 155.665 67.4439 154.552C67.2689 154.513 67.1581 154.345 67.1977 154.176C67.2374 154.006 67.4101 153.898 67.5886 153.938C72.6566 155.046 79.6927 156.05 88.5011 156.921C88.6807 156.937 88.8102 157.093 88.7916 157.266C88.7741 157.427 88.6329 157.547 88.4672 157.547Z" fill="#444092"/>
<path d="M250.966 156.122C250.809 156.122 250.67 156.011 250.644 155.855C250.616 155.683 250.739 155.522 250.916 155.495C251.019 155.48 261.211 153.929 265.04 152.515C265.207 152.457 265.397 152.534 265.461 152.697C265.525 152.859 265.441 153.042 265.272 153.104C261.38 154.54 251.439 156.053 251.018 156.116C251 156.121 250.983 156.122 250.966 156.122Z" fill="#444092"/>
<path d="M102.487 137.204L88.8522 136.75L73.3986 137.122L73.3589 138.243L88.3062 137.617C89.8089 137.666 90.9802 138.994 90.9231 140.58C90.8659 142.166 89.6024 143.413 88.1009 143.363L73.1932 142.867L73.1641 143.696L102.221 144.663C104.171 144.728 105.812 143.11 105.886 141.05C105.958 138.991 104.437 137.269 102.487 137.204Z" fill="#366F90"/>
<path d="M92.2495 140.598C92.323 138.538 90.8017 136.816 88.8522 136.75L73.3986 137.122L73.3589 138.243L88.3062 137.617C89.8089 137.666 90.9802 138.994 90.923 140.58C90.8659 142.167 89.6024 143.413 88.1009 143.363L73.1932 142.867L73.1641 143.696L88.5862 144.209C90.5345 144.274 92.176 142.658 92.2495 140.598Z" fill="#366F90"/>
<path d="M88.3069 137.621L73.3596 138.244C74.7083 138.454 75.1143 139.776 75.2998 140.481C75.6778 141.911 74.5543 142.733 73.1939 142.852L73.1927 142.872L88.1004 143.368C89.6031 143.417 90.8666 142.172 90.9226 140.584C90.9809 138.998 89.8084 137.671 88.3069 137.621Z" fill="#E4ECFF"/>
<path d="M87.3869 141.615L75.3539 141.214L75.3574 141.137L87.3904 141.537L87.3869 141.615Z" fill="#331832"/>
<path d="M90.7995 143.423C90.747 143.423 90.6956 143.401 90.6641 143.362C90.614 143.299 90.635 143.216 90.7085 143.173C90.7201 143.166 91.8961 142.486 92.0875 140.581C92.2776 138.689 90.6921 137.961 90.6758 137.954C90.5965 137.919 90.5661 137.836 90.6081 137.77C90.6501 137.703 90.7493 137.679 90.8286 137.713C90.9021 137.746 92.6194 138.535 92.4118 140.604C92.2064 142.65 90.943 143.37 90.8893 143.399C90.8613 143.415 90.8298 143.423 90.7995 143.423Z" fill="#331832"/>
<path d="M75.299 140.52L75.2979 140.44L84.5414 140.302L84.5425 140.381L75.299 140.52Z" fill="#331832"/>
<path d="M95.6095 143.089C95.6072 143.089 95.606 143.089 95.6037 143.089L92.6894 142.992C92.6322 142.99 92.5809 142.959 92.5529 142.911C92.5249 142.863 92.5261 142.804 92.5552 142.756C92.5599 142.748 93.0639 141.909 93.3579 140.779C93.6402 139.692 92.8737 138.561 92.8655 138.549C92.8317 138.501 92.8294 138.437 92.8585 138.386C92.8877 138.334 92.939 138.309 93.0055 138.306L95.7705 138.399C95.8219 138.401 95.8685 138.426 95.8977 138.465C97.6255 140.851 95.7507 143.012 95.7309 143.034C95.7017 143.068 95.6562 143.089 95.6095 143.089ZM92.9624 142.687L95.5337 142.773C95.8079 142.432 97.055 140.685 95.6784 138.709L93.289 138.629C93.52 139.054 93.9085 139.952 93.674 140.856C93.457 141.687 93.1374 142.355 92.9624 142.687Z" fill="#331832"/>
<path d="M73.5047 143.773L87.1477 143.786L102.578 144.686L102.577 145.809L87.6622 144.67C86.1595 144.669 84.9392 145.955 84.938 147.543C84.9357 149.13 86.1537 150.419 87.6564 150.42L102.573 150.436L102.572 151.265L73.4977 151.235C71.547 151.233 69.9662 149.561 69.9685 147.5C69.9697 145.44 71.554 143.77 73.5047 143.773Z" fill="#EF8062"/>
<path d="M83.6104 147.515C83.6127 145.454 85.1959 143.784 87.1477 143.787L102.578 144.686L102.577 145.809L87.6622 144.671C86.1595 144.67 84.9392 145.955 84.938 147.543C84.9357 149.13 86.1537 150.419 87.6564 150.421L102.573 150.436L102.572 151.265L87.1407 151.25C85.1877 151.249 83.608 149.576 83.6104 147.515Z" fill="#EF8062"/>
<path d="M87.6609 144.675L102.576 145.81C101.22 145.973 100.766 147.28 100.554 147.978C100.123 149.394 101.215 150.254 102.57 150.42V150.439L87.6528 150.424C86.1501 150.423 84.9321 149.133 84.9345 147.546C84.938 145.959 86.1583 144.673 87.6609 144.675Z" fill="#E4ECFF"/>
<path d="M84.945 150.825C84.9123 150.825 84.8797 150.816 84.8505 150.796C84.798 150.759 83.566 149.886 83.4482 147.522C83.328 145.132 85.0792 144.282 85.1538 144.246C85.232 144.208 85.3312 144.242 85.3708 144.318C85.4093 144.396 85.3767 144.49 85.2962 144.529C85.2297 144.56 83.664 145.33 83.7737 147.507C83.8833 149.708 85.029 150.533 85.0407 150.541C85.1142 150.591 85.1305 150.689 85.078 150.759C85.0453 150.802 84.9963 150.825 84.945 150.825Z" fill="#331832"/>
<path d="M81.571 149.891C81.5698 149.891 81.5698 149.891 81.5698 149.891L80.7368 149.889C80.2865 149.888 79.8817 149.649 79.6798 149.263C79.3263 148.586 78.8597 147.231 79.6973 145.769C79.8992 145.415 80.2923 145.196 80.724 145.196C80.7252 145.196 80.7252 145.196 80.7263 145.196L81.3843 145.197C81.7518 145.197 82.0913 145.357 82.3188 145.636C82.544 145.913 82.6222 146.266 82.5347 146.606C82.4378 146.982 82.4262 147.336 82.4962 147.659C82.551 147.906 82.621 148.159 82.7027 148.411C82.8158 148.76 82.7528 149.129 82.5277 149.424C82.3025 149.72 81.9525 149.891 81.571 149.891ZM80.724 145.51C80.4113 145.51 80.1267 145.666 79.982 145.92C79.2167 147.258 79.6472 148.501 79.9703 149.122C80.1162 149.401 80.4102 149.576 80.7357 149.577L81.5687 149.578C81.5698 149.578 81.5698 149.578 81.5698 149.578C81.8475 149.578 82.1007 149.454 82.264 149.239C82.4262 149.025 82.4728 148.759 82.3912 148.506C82.306 148.245 82.2348 147.983 82.1765 147.725C82.0948 147.355 82.1088 146.953 82.2162 146.531C82.2792 146.285 82.222 146.03 82.0598 145.829C81.8953 145.627 81.6492 145.511 81.382 145.511L80.724 145.51C80.7252 145.51 80.724 145.51 80.724 145.51Z" fill="#331832"/>
<path d="M265.336 107.729C264.241 106.105 261.954 105.109 261.779 103.178C261.714 102.462 261.961 101.675 261.574 101.06C261.149 100.385 260.181 100.278 259.366 100.357C258.47 100.443 257.521 100.707 256.969 101.394C256.274 102.259 256.429 103.476 256.209 104.55C255.681 107.137 253.038 108.728 250.627 109.97C249.375 110.616 248.06 111.301 247.299 112.456C246.011 114.412 246.722 116.954 246.615 119.269C246.53 121.104 245.883 122.913 244.778 124.409C244.127 125.29 243.453 126.155 242.719 126.974C241.424 128.421 241.972 130.353 243.857 130.628C244.91 130.782 245.94 130.392 246.369 129.724C247.703 127.639 251.615 127.459 253.072 127.257C254.529 127.055 256.057 126.358 256.607 125.041C257.125 123.801 256.643 122.384 256.853 121.062C257.145 119.23 258.691 117.857 260.143 116.642C261.389 115.599 262.635 114.556 263.881 113.514C264.459 113.031 265.045 112.537 265.447 111.91C266.247 110.661 266.168 108.963 265.336 107.729ZM261.634 112.043C260.309 113.462 258.214 113.595 256.481 114.274C255.135 114.803 253.97 115.443 252.455 115.374C251.474 115.329 250.271 115.042 250.241 113.913C250.189 111.962 252.943 111.619 254.372 111.536C255.261 111.484 256.176 111.42 256.972 111.039C257.562 110.757 258.062 110.307 258.396 109.761C258.623 109.386 258.78 108.962 259.098 108.654C259.308 108.45 259.58 108.31 259.868 108.234C260.709 108.012 261.68 108.39 262.127 109.111C262.689 110.023 262.369 111.256 261.634 112.043Z" fill="white"/>
<path d="M235.595 132.505C235.595 132.505 237.634 146.309 239.123 146.436C240.613 146.563 246.196 146.851 247.898 146.436C249.6 146.021 250.539 132.306 250.069 131.975C249.599 131.646 234.972 130.931 235.595 132.505Z" fill="#EF8062"/>
<path d="M249.626 140.856L248.962 139.6C250.794 138.7 253.479 136.945 253.721 135.865C253.755 135.717 253.73 135.614 253.636 135.501C252.449 134.071 249.706 135.643 249.677 135.659L248.909 134.46C249.066 134.367 252.77 132.203 254.777 134.619C255.146 135.065 255.275 135.598 255.149 136.161C254.676 138.279 250.465 140.443 249.626 140.856Z" fill="#EF8062"/>
<path d="M240.345 139.232C239.857 136.675 242.315 135.657 244.2 135.657C246.083 135.657 247.491 136.972 247.491 138.789C247.491 140.605 245.639 142.521 243.756 142.521C241.871 142.521 240.684 141.019 240.345 139.232Z" fill="#E06E57"/>
<path d="M243.354 142.08C241.621 142.08 240.252 140.763 239.863 138.727C239.686 137.797 239.874 137.004 240.422 136.369C241.256 135.404 242.712 135.06 243.797 135.06C245.751 135.06 247.169 136.41 247.169 138.269C247.17 140.157 245.245 142.08 243.354 142.08ZM243.798 135.217C242.751 135.217 241.346 135.546 240.548 136.47C240.032 137.067 239.856 137.817 240.024 138.699C240.477 141.076 242.041 141.923 243.355 141.923C245.164 141.923 247.008 140.079 247.008 138.27C247.007 136.501 245.658 135.217 243.798 135.217Z" fill="white"/>
<path d="M81.1732 126.998C81.1732 126.998 82.0307 124.026 85.4467 123.969C85.4478 123.97 85.1678 127.987 81.1732 126.998Z" fill="#366F90"/>
<path d="M82.7168 128.973C82.6177 129.028 82.4893 129.021 82.396 128.946C82.3283 128.891 80.7288 127.575 80.3963 125.597C80.3718 125.45 80.4745 125.31 80.6285 125.287C80.7813 125.263 80.926 125.363 80.9505 125.511C81.2503 127.293 82.7425 128.52 82.7577 128.532C82.8755 128.628 82.8918 128.799 82.7915 128.914C82.7693 128.937 82.7437 128.958 82.7168 128.973Z" fill="#331832"/>
<path d="M86.7965 126.952C87.3752 127.253 87.8687 127.755 88.1919 128.264C89.3597 130.098 89.46 132.792 88.3925 134.684C87.2574 136.698 84.399 137.617 82.18 137.029C80.0824 136.475 78.4164 134.635 78.1282 132.557C77.8832 130.787 78.7512 129.147 80.6482 128.76C81.3109 128.625 82.0645 128.741 82.6595 128.363C83.5824 127.775 84.4072 126.729 85.5937 126.667C86.0149 126.645 86.4232 126.757 86.7965 126.952Z" fill="#EF8062"/>
<path d="M208.717 194.455L208.508 194.412C208.529 194.316 210.58 184.63 205.169 176.899C202.61 173.245 198.368 170.768 195.26 169.335C191.888 167.778 189.084 167.078 189.056 167.071L189.109 166.871C189.137 166.878 191.956 167.581 195.349 169.146C198.483 170.591 202.761 173.09 205.347 176.785C210.809 184.589 208.738 194.357 208.717 194.455Z" fill="#331832"/>
<path d="M178.886 28.3534H171.674C170.174 28.3534 168.957 29.5268 168.957 30.9735V37.9272C168.957 39.3739 170.174 40.5473 171.674 40.5473H173.5C173.859 40.5473 174.176 40.7768 174.276 41.1098L175.279 44.4589L176.374 41.0918C176.481 40.7667 176.792 40.5462 177.146 40.5462H178.885C180.385 40.5462 181.602 39.3728 181.602 37.926V30.9713C181.602 29.5256 180.387 28.3534 178.886 28.3534Z" fill="#EF8062"/>
<path d="M178.903 31.6451C177.389 30.2186 175.954 31.5169 175.34 32.2402C175.17 32.4393 174.862 32.454 174.675 32.2717C174.447 32.0501 174.117 31.8094 173.791 31.6327C172.828 31.1074 171.514 31.1175 170.715 32.4607C169.969 33.7128 171.695 35.4836 173.188 36.639C173.91 37.197 174.74 37.6548 175.336 37.953C175.793 38.1813 176.356 38.0553 176.66 37.6548C176.934 37.2948 177.504 36.5445 177.927 35.9955C179.117 34.4508 180.035 32.7127 178.903 31.6451Z" fill="#E9F9F6"/>
<path d="M142.185 144.316L147.104 135.807C147.131 134.257 147.533 132.167 145.944 132.402C136.983 133.728 127.518 129.332 124.951 124.735C123.161 121.53 123.423 110.469 124.633 104.093C125.252 100.829 124.134 98.6479 120.048 96.5554C120.048 96.5554 116.53 94.6901 112.195 93.978C110.458 93.6922 108.733 94.3661 108.285 96.0086C107.584 98.5803 106.677 102.581 106.243 107.289C105.214 118.47 106.254 128.737 111.515 135.957C117.971 144.819 136.229 146.586 136.229 146.586C137.955 146.763 142.157 145.989 142.185 144.316Z" fill="#FFB27D"/>
<path d="M115.994 135.884C115.696 135.884 115.383 135.837 115.059 135.742C114.184 135.486 113.335 134.905 112.669 134.108C111.274 132.437 111.124 130.313 112.334 129.373C113.541 128.432 115.663 129.026 117.06 130.698C118.454 132.369 118.605 134.493 117.395 135.432C117.009 135.731 116.528 135.884 115.994 135.884ZM113.023 133.831C113.633 134.561 114.402 135.09 115.191 135.321C115.949 135.544 116.629 135.461 117.108 135.089C118.123 134.301 117.941 132.455 116.704 130.974C115.466 129.493 113.632 128.929 112.62 129.715C111.606 130.503 111.787 132.349 113.023 133.831Z" fill="#E9845C"/>
<path d="M142.553 134.157C142.553 134.157 154.518 127.328 159.525 129.123C164.531 130.919 169.519 136.863 166.171 136.385C162.822 135.907 158.719 134.157 158.719 134.157C158.719 134.157 165.431 139.812 163.558 141.328C161.686 142.845 156.37 137.251 156.37 137.251C156.37 137.251 164.642 143.078 162.392 143.958C160.141 144.839 154.015 140.744 154.015 140.744C154.015 140.744 163.056 144.964 160.417 145.928C157.778 146.892 152.955 142.646 151.081 144.162C149.209 145.679 140.464 148.344 136.229 146.59L142.553 134.157Z" fill="#FFB27D"/>
<path d="M158.599 134.268C158.587 134.254 157.358 133.063 154.916 133.359L154.875 133.042C157.488 132.73 158.783 133.994 158.837 134.047L158.599 134.268Z" fill="#F69B6E"/>
<path d="M156.294 137.393C156.266 137.379 153.494 136.032 151.619 136.667L151.508 136.367C153.522 135.683 156.325 137.05 156.444 137.109L156.294 137.393Z" fill="#F69B6E"/>
<path d="M153.89 140.848C153.878 140.833 152.508 139.374 149.757 139.826L149.702 139.511C152.637 139.03 154.081 140.572 154.14 140.639L153.89 140.848Z" fill="#F69B6E"/>
<path d="M166.102 147.434L211.38 147.768C212.329 147.774 213.174 147.2 213.48 146.34L223.104 119.313C223.588 117.952 222.539 116.535 221.038 116.525L177.494 116.204C175.51 116.189 173.739 117.393 173.098 119.191L164.034 144.646C163.55 146.006 164.6 147.422 166.102 147.434Z" fill="#EF8062"/>
<path d="M168.944 147.455L214.222 147.789C215.171 147.796 216.017 147.221 216.322 146.361L225.946 119.334C226.43 117.973 225.381 116.557 223.88 116.547L180.336 116.225C178.352 116.21 176.581 117.414 175.94 119.213L166.877 144.667C166.392 146.027 167.441 147.444 168.944 147.455Z" fill="#EF8062"/>
<path d="M200.801 131.146C200.809 130.117 199.582 129.689 198.507 129.681C197.433 129.673 195.67 130.789 195.67 132.231C195.67 133.787 196.929 133.999 198.003 134.007C199.076 134.013 200.79 132.455 200.801 131.146Z" fill="#DAEBE8"/>
<path d="M152.315 143.503L214.276 143.96L214.245 147.789L150.997 147.322C150.262 147.317 149.669 146.737 149.675 146.028V146.01C149.686 144.614 150.868 143.492 152.315 143.503Z" fill="#EF8062"/>
<path d="M172.303 129.864C172.326 129.783 174.61 121.767 176.069 119.281C177.5 116.841 179.257 116.358 179.275 116.353L179.199 116.079C179.123 116.099 177.311 116.588 175.813 119.141C174.336 121.657 172.112 129.458 172.019 129.789L172.303 129.864Z" fill="#764678"/>
<path d="M165.501 143.741C167.18 143.754 167.603 143.04 167.62 143.01L171.24 132.851L170.962 132.759L167.352 142.895C167.349 142.895 166.965 143.468 165.503 143.457L165.501 143.741Z" fill="#764678"/>
<path d="M272.443 81.6244H194.865C190.024 81.6244 186.065 77.8061 186.065 73.1385V44.892C186.065 40.2244 190.024 36.4061 194.865 36.4061H272.443C277.284 36.4061 281.244 40.2244 281.244 44.892V73.1374C281.244 77.805 277.283 81.6244 272.443 81.6244Z" fill="#ACC9C5"/>
<path d="M281.386 76.9894H202.158C197.1 76.9894 192.962 72.999 192.962 68.1221V37.7213C192.962 32.8444 197.1 28.854 202.158 28.854H281.386C286.444 28.854 290.582 32.8444 290.582 37.7213V68.1233C290.581 73.0001 286.442 76.9894 281.386 76.9894Z" fill="#ECF8F6"/>
<path d="M235.806 51.3405C235.806 55.1216 234.493 58.6068 232.283 61.3957C229.142 65.3613 224.187 67.9196 218.612 67.9196C212.135 67.9196 205.543 64.6391 202.006 59.6463C200.358 57.3198 199.372 54.621 199.372 51.7106C199.372 42.5542 206.907 34.7614 218.612 34.7614C228.108 34.7614 235.806 42.1841 235.806 51.3405Z" fill="#58A1C7"/>
<path d="M232.283 61.3957C229.142 65.3614 224.187 67.9196 218.612 67.9196C212.135 67.9196 205.543 64.6391 202.006 59.6464C204.52 58.6372 207.579 57.7474 211.291 57.1219C211.291 57.1219 211.293 57.1219 211.294 57.1207C213.048 56.826 214.79 56.8699 216.602 56.9036C217.133 56.9149 217.655 56.9374 218.169 56.9734C218.701 57.0105 219.223 57.0611 219.737 57.1241C225.006 57.7586 229.287 59.6419 232.283 61.3957Z" fill="#EF8062"/>
<path d="M214.3 55.4714L215.908 52.2404L216.376 51.2999L219.127 45.7683L218.489 51.5688L218.105 55.0507L217.984 56.1532C217.901 56.9013 218.347 57.1252 218.82 57.8519C219.011 58.1467 220.251 59.9456 218.458 60.4226C216.224 61.0177 212.512 59.1052 211.293 57.1207C211.303 57.1207 213.781 56.5154 214.3 55.4714Z" fill="#FFB27D"/>
<path d="M224.252 44.2743C224.252 44.2743 224.417 45.7312 223.768 47.4367C223.118 49.1422 221.926 44.5533 221.926 44.5533L224.252 44.2743Z" fill="#5C305D"/>
<path d="M223.911 47.9763C223.967 44.509 221.595 41.659 218.612 41.6106C215.63 41.5622 213.167 44.3338 213.111 47.801C213.055 51.2683 215.427 54.1183 218.409 54.1667C221.391 54.2151 223.855 51.4436 223.911 47.9763Z" fill="#FFB27D"/>
<path d="M213.25 46.0102L215.875 46.1205C216.453 46.1441 217.018 45.9247 217.397 45.504C218.049 44.7795 218.75 44.46 221.149 44.8908C224.186 45.4365 226.472 43.9683 227.038 42.4743C227.616 40.9488 226.217 39.6607 224.567 40.1917C222.919 40.7227 223.859 38.9778 222.413 38.5717C219.713 37.8146 218.882 39.7901 216.635 39.4008C213.689 38.8912 208.055 40.3042 209.799 45.6862L213.25 46.0102Z" fill="#331832"/>
<path d="M218.832 47.6719C218.862 47.6584 218.887 47.6325 218.894 47.5987C218.908 47.5425 218.871 47.4851 218.812 47.4716C218.777 47.4637 217.992 47.2095 217.459 47.979C217.425 48.0274 217.436 48.0926 217.485 48.1264C217.536 48.1601 217.593 48.1399 217.638 48.1005C218.084 47.7056 218.733 47.6719 218.762 47.6786C218.786 47.6831 218.811 47.6809 218.832 47.6719Z" fill="#080435"/>
<path d="M218.156 48.9442C218.188 49.1939 218.365 49.3795 218.553 49.357C218.741 49.3357 218.868 49.1152 218.838 48.8643C218.806 48.6146 218.629 48.4289 218.441 48.4514C218.253 48.4739 218.126 48.6944 218.156 48.9442Z" fill="#080435"/>
<path d="M222.885 47.9328C222.91 47.9317 222.935 47.9171 222.951 47.8889C222.978 47.8417 222.969 47.7764 222.93 47.7416C222.908 47.7213 222.42 47.1948 221.808 47.7056C221.769 47.7382 221.758 47.8023 221.783 47.8518C221.809 47.9013 221.857 47.9047 221.9 47.8844C222.339 47.6864 222.814 47.8968 222.832 47.9137C222.85 47.9261 222.867 47.9328 222.885 47.9328Z" fill="#080435"/>
<path d="M221.733 48.862C221.663 49.105 221.754 49.3413 221.937 49.3897C222.121 49.4392 222.325 49.2817 222.395 49.0387C222.465 48.7957 222.374 48.5594 222.191 48.5111C222.009 48.4616 221.803 48.619 221.733 48.862Z" fill="#080435"/>
<path d="M209.801 45.6874C209.801 45.6874 211.016 49.6575 213.507 50.2909C213.507 50.2909 211.894 47.1668 216.474 46.0564C216.473 46.0564 212.603 44.8909 209.801 45.6874Z" fill="#5C305D"/>
<path d="M213.056 48.2467C213.547 48.6562 214.251 48.645 214.631 48.2231C215.01 47.8001 214.92 47.1251 214.429 46.7167C213.938 46.3072 213.233 46.3185 212.854 46.7403C212.475 47.1622 212.566 47.8372 213.056 48.2467Z" fill="#FFB27D"/>
<path d="M216.473 46.0564C216.473 46.0564 215.649 49.1254 216.217 49.8083C216.785 50.4911 221.093 51.3641 223.236 50.8984C222.963 52.9054 221.228 54.4658 219.128 54.5051C218.434 54.5186 217.733 54.4196 217.054 54.2025C215.67 53.7604 214.377 52.9976 213.986 51.6443C213.867 51.2325 214.751 48.9285 214.751 48.9285C214.751 48.9285 215.159 47.5605 214.429 46.7145C214.43 46.7156 215.531 46.0114 216.473 46.0564Z" fill="#5C305D"/>
<path d="M221.993 51.8703C221.993 51.8703 220.262 52.0672 218.468 51.6385C218.468 51.6385 218.485 53.3013 220.376 53.2394C221.477 53.2045 221.993 51.8703 221.993 51.8703Z" fill="white"/>
<path d="M224.322 39.9048C223.475 39.8103 223.506 39.1083 223.506 39.1016L223.655 39.1094C223.654 39.1331 223.633 39.6854 224.34 39.7642L224.322 39.9048Z" fill="#331832"/>
<path d="M222.141 44.1877L222.131 44.1168C222.165 44.1123 225.558 43.6466 225.94 42.0524C226.048 41.6013 226.015 41.2874 225.84 41.0917C225.559 40.7778 224.952 40.8251 224.418 40.8689C224.336 40.8757 224.256 40.8824 224.177 40.8869L224.173 40.8161C224.25 40.8116 224.329 40.8048 224.412 40.7981C224.964 40.7553 225.59 40.7036 225.896 41.0444C226.087 41.2582 226.126 41.5923 226.013 42.0671C225.617 43.7107 222.283 44.1697 222.141 44.1877Z" fill="white"/>
<path d="M217.179 40.0724C216.614 40.0724 215.978 39.9959 215.277 39.8002L215.298 39.7327C218.406 40.5978 220.199 39.097 220.216 39.0813L220.266 39.1342C220.25 39.1465 219.148 40.0724 217.179 40.0724Z" fill="white"/>
<path d="M260.65 41.9962H244.217C243.773 41.9962 243.41 41.6452 243.41 41.2177V41.1446C243.41 40.716 243.774 40.3661 244.217 40.3661H260.65C261.094 40.3661 261.457 40.7171 261.457 41.1446V41.2177C261.457 41.6452 261.094 41.9962 260.65 41.9962Z" fill="#ACC9C5"/>
<path d="M266.264 45.9607H244.255C243.789 45.9607 243.409 45.594 243.409 45.1451C243.409 44.6962 243.789 44.3295 244.255 44.3295H266.264C266.729 44.3295 267.11 44.6962 267.11 45.1451C267.11 45.594 266.729 45.9607 266.264 45.9607Z" fill="#ACC9C5"/>
<path d="M281.649 41.9962H265.216C264.772 41.9962 264.409 41.6452 264.409 41.2177V41.1446C264.409 40.716 264.773 40.3661 265.216 40.3661H281.649C282.093 40.3661 282.456 40.7171 282.456 41.1446V41.2177C282.457 41.6452 282.093 41.9962 281.649 41.9962Z" fill="#ACC9C5"/>
<path d="M260.65 54.7638H244.217C243.773 54.7638 243.41 54.4128 243.41 53.9853V53.9122C243.41 53.4835 243.774 53.1337 244.217 53.1337H260.65C261.094 53.1337 261.457 53.4847 261.457 53.9122V53.9853C261.457 54.4139 261.094 54.7638 260.65 54.7638Z" fill="#ACC9C5"/>
<path d="M260.65 62.9121H244.217C243.773 62.9121 243.41 62.5611 243.41 62.1336V62.0605C243.41 61.6319 243.774 61.282 244.217 61.282H260.65C261.094 61.282 261.457 61.633 261.457 62.0605V62.1336C261.457 62.5622 261.094 62.9121 260.65 62.9121Z" fill="#ACC9C5"/>
<path d="M253.646 58.7294H244.032C243.69 58.7294 243.41 58.4594 243.41 58.1298V57.6989C243.41 57.3692 243.69 57.0992 244.032 57.0992H253.646C253.988 57.0992 254.268 57.3692 254.268 57.6989V58.1298C254.268 58.4594 253.988 58.7294 253.646 58.7294Z" fill="#ACC9C5"/>
<path d="M263.941 58.7294H256.326C255.861 58.7294 255.48 58.3627 255.48 57.9138C255.48 57.4649 255.861 57.0981 256.326 57.0981H263.941C264.406 57.0981 264.787 57.4649 264.787 57.9138C264.787 58.3627 264.406 58.7294 263.941 58.7294Z" fill="#ACC9C5"/>
<path d="M281.689 58.7294H266.708C266.286 58.7294 265.941 58.3964 265.941 57.9892V57.8384C265.941 57.4311 266.286 57.0981 266.708 57.0981H281.689C282.112 57.0981 282.457 57.4311 282.457 57.8384V57.9892C282.457 58.3964 282.112 58.7294 281.689 58.7294Z" fill="#ACC9C5"/>
<path d="M281.648 54.7638H265.216C264.772 54.7638 264.409 54.4128 264.409 53.9853V53.9122C264.409 53.4835 264.773 53.1337 265.216 53.1337H281.648C282.093 53.1337 282.456 53.4847 282.456 53.9122V53.9853C282.457 54.4139 282.093 54.7638 281.648 54.7638Z" fill="#ACC9C5"/>
<path d="M202.703 16.0662H192.704C190.624 16.0662 188.937 17.6929 188.937 19.6988V29.34C188.937 31.3459 190.624 32.9727 192.704 32.9727H195.236C195.735 32.9727 196.174 33.291 196.313 33.7534L197.703 38.3974L199.221 33.7298C199.368 33.2798 199.801 32.9727 200.29 32.9727H202.703C204.783 32.9727 206.47 31.347 206.47 29.34V19.6988C206.47 17.6918 204.783 16.0662 202.703 16.0662Z" fill="#764678"/>
<path d="M200.896 21.0409C200.896 19.6909 199.761 18.5974 198.362 18.5974C196.962 18.5974 195.828 19.692 195.828 21.0409C195.828 22.3909 196.964 23.4844 198.362 23.4844C199.761 23.4855 200.896 22.3909 200.896 21.0409Z" fill="white"/>
<path d="M193.746 29.8766H202.978C204.192 29.8766 204.978 28.6346 204.415 27.5951C203.613 26.1101 201.92 24.4474 198.361 24.4474C194.803 24.4474 193.11 26.1101 192.307 27.5951C191.746 28.6346 192.53 29.8766 193.746 29.8766Z" fill="white"/>
<path d="M192.891 20.4526L192.99 22.0163C192.999 22.1648 193.131 22.2773 193.285 22.2683L194.823 22.1783C194.977 22.1693 195.109 22.2818 195.118 22.4303C195.127 22.5788 195.011 22.7059 194.857 22.7149L193.319 22.8049C193.165 22.8139 193.048 22.9411 193.058 23.0896L193.158 24.6702C193.167 24.8187 193.051 24.9458 192.897 24.9548L192.859 24.9571C192.705 24.9661 192.574 24.8536 192.564 24.7051L192.464 23.1244C192.455 22.9759 192.323 22.8634 192.169 22.8724L190.631 22.9624C190.477 22.9714 190.345 22.8589 190.336 22.7104C190.327 22.5619 190.443 22.4348 190.597 22.4258L192.135 22.3358C192.289 22.3268 192.406 22.1997 192.396 22.0512L192.297 20.4874C192.288 20.3389 192.404 20.2118 192.558 20.2028L192.596 20.2006C192.75 20.1916 192.882 20.3052 192.891 20.4526Z" fill="white"/>
<path d="M233.849 75.582C233.849 75.582 228.958 75.636 228.486 76.3257C227.964 77.0884 228.22 82.6887 229.601 85.9782C230.379 87.831 231.128 87.813 232.153 87.5138L236.66 86.1975L233.849 75.582Z" fill="#73B3CE"/>
<path d="M233.371 75.8103C233.696 75.5133 236.599 74.286 237.593 72.0832C238.665 69.7072 237.829 66.2883 239.698 66.2411C241.511 66.195 242.669 72.5287 242.738 72.9112C242.74 72.9213 242.75 72.9281 242.76 72.9258C243.126 72.8527 247.906 72.0101 249.41 72.6333C251.087 73.3286 250.275 75.087 250.275 75.087C250.787 75.1297 252.921 75.9093 251.13 78.3123C251.122 78.3236 251.125 78.3393 251.137 78.3483C251.496 78.6442 253.384 79.9324 250.703 81.6637C250.703 81.6637 252.256 83.3422 250.244 84.3738C248.233 85.4055 237.574 86.6711 236.66 86.1997C234.443 85.0567 231.959 77.0985 233.371 75.8103Z" fill="#FFC371"/>
<path d="M106.996 72.6963H62.6979C59.8699 72.6963 57.5564 70.4654 57.5564 67.7384V50.7408C57.5564 48.0138 59.8699 45.783 62.6979 45.783H106.995C109.823 45.783 112.137 48.0138 112.137 50.7408V67.7384C112.137 70.4654 109.823 72.6963 106.996 72.6963Z" fill="#ACC9C5"/>
<g opacity="0.5">
<path opacity="0.5" d="M123.141 54.2824H90.349C88.256 54.2824 86.5433 52.6309 86.5433 50.6126V38.0295C86.5433 36.0112 88.256 34.3597 90.349 34.3597H123.141C125.234 34.3597 126.946 36.0112 126.946 38.0295V50.6126C126.946 52.6309 125.235 54.2824 123.141 54.2824Z" fill="#ACC9C5"/>
</g>
<path d="M111.078 69.4192H65.0971C62.1617 69.4192 59.7607 67.104 59.7607 64.2735V46.629C59.7607 43.7985 62.1617 41.4833 65.0971 41.4833H111.078C114.013 41.4833 116.414 43.7985 116.414 46.629V64.2724C116.414 67.1029 114.013 69.4192 111.078 69.4192Z" fill="#DAEBE8"/>
<path d="M111.504 69.5823H64.6695C61.8683 69.5823 59.5898 67.3852 59.5898 64.6841V46.2172C59.5898 43.5161 61.8683 41.319 64.6695 41.319H111.504C114.305 41.319 116.584 43.5161 116.584 46.2172V64.6841C116.584 67.3852 114.305 69.5823 111.504 69.5823ZM64.6695 41.6475C62.0562 41.6475 59.9305 43.6972 59.9305 46.2172V64.6841C59.9305 67.2041 62.0562 69.2538 64.6695 69.2538H111.504C114.118 69.2538 116.243 67.2041 116.243 64.6841V46.2172C116.243 43.6972 114.118 41.6475 111.504 41.6475H64.6695Z" fill="#ACC9C5"/>
<path d="M97.6126 48.8576H86.3963C86.0253 48.8576 85.7231 48.5662 85.7231 48.2084V48.0746C85.7231 47.7157 86.0253 47.4243 86.3963 47.4243H97.6126C97.9836 47.4243 98.2858 47.7157 98.2858 48.0746V48.2084C98.2858 48.5662 97.9836 48.8576 97.6126 48.8576ZM86.3963 47.7528C86.2131 47.7528 86.0638 47.8979 86.0638 48.0746V48.2084C86.0638 48.3851 86.2131 48.5291 86.3963 48.5291H97.6126C97.7958 48.5291 97.9451 48.3851 97.9451 48.2084V48.0746C97.9451 47.8979 97.7958 47.7528 97.6126 47.7528H86.3963Z" fill="#ACC9C5"/>
<path d="M101.372 51.543H86.4662C86.0567 51.543 85.7242 51.2223 85.7242 50.8275C85.7242 50.4326 86.0567 50.1108 86.4662 50.1108H101.372C101.781 50.1108 102.115 50.4326 102.115 50.8275C102.115 51.2223 101.781 51.543 101.372 51.543ZM86.4662 50.4382C86.2446 50.4382 86.0637 50.6126 86.0637 50.8263C86.0637 51.0401 86.2446 51.2145 86.4662 51.2145H101.372C101.594 51.2145 101.774 51.0401 101.774 50.8263C101.774 50.6115 101.593 50.4382 101.372 50.4382H86.4662Z" fill="#ACC9C5"/>
<path d="M111.834 48.8576H100.618C100.246 48.8576 99.9437 48.5662 99.9437 48.2084V48.0746C99.9437 47.7157 100.246 47.4243 100.618 47.4243H111.834C112.205 47.4243 112.508 47.7157 112.508 48.0746V48.2084C112.508 48.5662 112.205 48.8576 111.834 48.8576ZM100.618 47.7528C100.435 47.7528 100.284 47.8979 100.284 48.0746V48.2084C100.284 48.3851 100.435 48.5291 100.618 48.5291H111.834C112.018 48.5291 112.167 48.3851 112.167 48.2084V48.0746C112.167 47.8979 112.018 47.7528 111.834 47.7528H100.618Z" fill="#ACC9C5"/>
<path d="M97.6126 57.5043H86.3963C86.0253 57.5043 85.7231 57.2129 85.7231 56.8552V56.7213C85.7231 56.3624 86.0253 56.071 86.3963 56.071H97.6126C97.9836 56.071 98.2858 56.3624 98.2858 56.7213V56.8552C98.2858 57.2129 97.9836 57.5043 97.6126 57.5043ZM86.3963 56.3995C86.2131 56.3995 86.0638 56.5447 86.0638 56.7213V56.8552C86.0638 57.0318 86.2131 57.1758 86.3963 57.1758H97.6126C97.7958 57.1758 97.9451 57.0318 97.9451 56.8552V56.7213C97.9451 56.5447 97.7958 56.3995 97.6126 56.3995H86.3963Z" fill="#ACC9C5"/>
<path d="M97.6126 63.0236H86.3963C86.0253 63.0236 85.7231 62.7322 85.7231 62.3733V62.2395C85.7231 61.8817 86.0253 61.5903 86.3963 61.5903H97.6126C97.9836 61.5903 98.2858 61.8817 98.2858 62.2395V62.3733C98.2858 62.7322 97.9836 63.0236 97.6126 63.0236ZM86.3963 61.9188C86.2131 61.9188 86.0638 62.0628 86.0638 62.2395V62.3733C86.0638 62.55 86.2131 62.6951 86.3963 62.6951H97.6126C97.7958 62.6951 97.9451 62.55 97.9451 62.3733V62.2395C97.9451 62.0628 97.7958 61.9188 97.6126 61.9188H86.3963Z" fill="#ACC9C5"/>
<path d="M92.8596 60.1897H86.2808C85.9728 60.1897 85.7231 59.949 85.7231 59.652V59.2953C85.7231 58.9983 85.9728 58.7576 86.2808 58.7576H92.8596C93.1676 58.7576 93.4173 58.9983 93.4173 59.2953V59.652C93.4173 59.949 93.1676 60.1897 92.8596 60.1897ZM86.2808 59.0861C86.1618 59.0861 86.0638 59.1806 86.0638 59.2965V59.6531C86.0638 59.7678 86.1618 59.8623 86.2808 59.8623H92.8596C92.9798 59.8623 93.0778 59.7678 93.0778 59.6531V59.2965C93.0778 59.1806 92.9798 59.0861 92.8596 59.0861H86.2808Z" fill="#ACC9C5"/>
<path d="M99.8142 60.1897H94.6237C94.2235 60.1897 93.8969 59.8758 93.8969 59.49C93.8969 59.0715 94.2235 58.7576 94.6237 58.7576H99.8142C100.214 58.7576 100.541 59.0726 100.541 59.4585C100.541 59.8758 100.216 60.1897 99.8142 60.1897ZM94.6248 59.0861C94.4113 59.0861 94.2387 59.2526 94.2387 59.4585C94.2387 59.6947 94.4113 59.8623 94.6248 59.8623H99.8153C100.029 59.8623 100.202 59.6958 100.202 59.49C100.202 59.2526 100.029 59.0861 99.8153 59.0861H94.6248Z" fill="#ACC9C5"/>
<path d="M111.86 60.1897H101.632C101.275 60.1897 100.983 59.9096 100.983 59.5653V59.3831C100.983 59.0388 101.274 58.7576 101.632 58.7576H111.86C112.217 58.7576 112.508 59.0377 112.508 59.3831V59.5653C112.508 59.9107 112.217 60.1897 111.86 60.1897ZM101.631 59.0861C101.46 59.0861 101.323 59.2188 101.323 59.3831V59.5653C101.323 59.7285 101.46 59.8623 101.631 59.8623H111.859C112.028 59.8623 112.167 59.7296 112.167 59.5653V59.3831C112.167 59.2188 112.029 59.0861 111.859 59.0861H101.631Z" fill="#ACC9C5"/>
<path d="M111.834 57.5043H100.618C100.246 57.5043 99.9437 57.2129 99.9437 56.8552V56.7213C99.9437 56.3624 100.246 56.071 100.618 56.071H111.834C112.205 56.071 112.508 56.3624 112.508 56.7213V56.8552C112.508 57.2129 112.205 57.5043 111.834 57.5043ZM100.618 56.3995C100.435 56.3995 100.284 56.5447 100.284 56.7213V56.8552C100.284 57.0318 100.435 57.1758 100.618 57.1758H111.834C112.018 57.1758 112.167 57.0318 112.167 56.8552V56.7213C112.167 56.5447 112.018 56.3995 111.834 56.3995H100.618Z" fill="#ACC9C5"/>
<path d="M73.0718 62.712C70.8225 62.712 68.7307 61.8468 67.1825 60.2752C65.7393 58.8127 64.9448 56.8946 64.9448 54.8752C64.9448 50.5541 68.5907 47.0385 73.0718 47.0385C77.553 47.0385 81.1988 50.5541 81.1988 54.8752C81.1988 56.8946 80.4043 58.8116 78.9612 60.2752C77.413 61.8457 75.3212 62.712 73.0718 62.712ZM73.0718 47.3658C68.7785 47.3658 65.2855 50.7341 65.2855 54.8752C65.2855 56.8102 66.0462 58.6473 67.4287 60.0491C68.9127 61.5543 70.917 62.3846 73.0718 62.3846C75.2278 62.3846 77.231 61.5543 78.7162 60.0491C80.0987 58.6473 80.8593 56.8102 80.8593 54.8752C80.8593 50.7341 77.3652 47.3658 73.0718 47.3658Z" fill="#ACC9C5"/>
<path d="M73.0718 54.8753C74.3695 54.8753 75.4215 53.8609 75.4215 52.6095C75.4215 51.3582 74.3695 50.3438 73.0718 50.3438C71.7742 50.3438 70.7222 51.3582 70.7222 52.6095C70.7222 53.8609 71.7742 54.8753 73.0718 54.8753Z" fill="#ACC9C5"/>
<path d="M78.8387 60.1616C77.3909 61.6319 75.3411 62.5477 73.0719 62.5477C70.8016 62.5477 68.7541 61.6319 67.3051 60.1616C67.7542 58.3469 69.1005 56.8687 70.8669 56.1869C71.5482 55.9237 72.2925 55.7786 73.0707 55.7786C73.8489 55.7786 74.5944 55.9226 75.2746 56.1869C77.0432 56.8687 78.3895 58.3469 78.8387 60.1616Z" fill="#ACC9C5"/>
</g>
<defs>
<clipPath id="clip0_394_10564">
<rect width="322" height="207" fill="white"/>
</clipPath>
</defs>
</svg>
