<svg width="40" height="40" viewBox="0 0 40 40" fill="none" xmlns="http://www.w3.org/2000/svg">
<path d="M16.4705 0C13.9744 0 11.5805 0.991581 9.81544 2.7566C8.05042 4.52163 7.05884 6.91552 7.05884 9.41164C7.05884 11.9078 8.05042 14.3016 9.81544 16.0667C11.5805 17.8317 13.9744 18.8233 16.4705 18.8233C18.9666 18.8233 21.3605 17.8317 23.1255 16.0667C24.8905 14.3016 25.8821 11.9078 25.8821 9.41164C25.8821 6.91552 24.8905 4.52163 23.1255 2.7566C21.3605 0.991581 18.9666 0 16.4705 0Z" fill="#5363DD"/>
<path d="M4.72699 21.1762C4.10732 21.1737 3.49326 21.2936 2.92002 21.5289C2.34678 21.7643 1.82563 22.1105 1.38647 22.5477C0.947314 22.9849 0.59878 23.5044 0.360857 24.0766C0.122935 24.6488 0.00030473 25.2623 0 25.882C0 29.8608 1.95997 32.8607 5.02346 34.816C8.03989 36.7383 12.1057 37.6466 16.4704 37.6466C18.5409 37.6466 20.5433 37.4418 22.3997 37.023C22.2585 36.0042 22.4373 34.9454 22.9362 34.0184L22.9644 33.9666L23.1597 33.6443L24.5408 31.6184C25.0485 30.8596 25.7712 30.2696 26.6163 29.9242C27.4614 29.5787 28.3905 29.4936 29.2843 29.6796L29.3502 29.6937L29.7125 29.7925L30.969 30.2114C31.3502 29.7989 31.684 29.3451 31.9643 28.8584C32.2584 28.3502 32.4725 27.8608 32.6231 27.3832L31.4937 26.3126C30.8704 25.7142 30.4173 24.961 30.1808 24.13C29.9444 23.299 29.933 22.4201 30.1478 21.5832C29.5459 21.3146 28.8941 21.1759 28.2349 21.1762H4.72699Z" fill="#5363DD"/>
<path d="M32.5526 21.7997L33.4914 19.5856C33.9314 18.5456 34.9855 17.9809 36.0208 18.1974L36.2419 18.2539L37.4184 18.6303C38.5854 19.0044 39.4772 20.0021 39.7666 21.2562C40.4513 24.2373 39.6301 27.8678 37.2984 32.1454C34.9714 36.4183 32.4232 38.9853 29.6491 39.8512C28.5715 40.1877 27.4138 39.9453 26.5432 39.2136L26.315 39.0018L25.4209 38.1054C25.0453 37.7187 24.8026 37.2223 24.7282 36.6884C24.6537 36.1545 24.7513 35.6107 25.0068 35.136L25.1386 34.9195L26.4844 32.9431C26.7291 32.57 27.0801 32.2788 27.492 32.1073C27.9039 31.9357 28.3578 31.8916 28.795 31.9807L29.0303 32.0443L31.5173 32.8748C32.5079 32.1219 33.3361 31.1807 33.9973 30.0396C34.5643 29.0631 34.9384 28.0749 35.1102 27.0726L35.1808 26.569L33.1126 24.6044C32.7788 24.279 32.5414 23.8678 32.4268 23.416C32.3122 22.9642 32.3248 22.4895 32.4632 22.0444L32.5502 21.7997H32.5526Z" fill="#5363DD"/>
</svg>
