<svg width="30" height="30" viewBox="0 0 30 30" fill="none" xmlns="http://www.w3.org/2000/svg">
<path fill-rule="evenodd" clip-rule="evenodd" d="M11.1267 17.3475C11.1267 16.1596 11.5348 15.0204 12.2612 14.1805C12.9875 13.3405 13.9727 12.8687 14.9999 12.8687C16.0272 12.8687 17.0124 13.3405 17.7387 14.1805C18.4651 15.0204 18.8732 16.1596 18.8732 17.3475C18.8732 18.5353 18.4651 19.6745 17.7387 20.5145C17.0124 21.3544 16.0272 21.8263 14.9999 21.8263C13.9727 21.8263 12.9875 21.3544 12.2612 20.5145C11.5348 19.6745 11.1267 18.5353 11.1267 17.3475Z" fill="white"/>
<path fill-rule="evenodd" clip-rule="evenodd" d="M15 8.797C13.5376 8.7972 12.1082 9.29878 10.8923 10.2383C9.6765 11.1779 8.72888 12.5132 8.16929 14.0755C7.6097 15.6377 7.46327 17.3568 7.74851 19.0153C8.03375 20.6738 8.73785 22.1972 9.7718 23.393C9.87264 23.5058 9.95306 23.6406 10.0084 23.7896C10.0637 23.9387 10.0927 24.099 10.0939 24.2612C10.095 24.4234 10.0682 24.5842 10.0151 24.7343C9.96189 24.8844 9.8834 25.0207 9.78417 25.1354C9.68494 25.25 9.56697 25.3406 9.43712 25.402C9.30728 25.4633 9.16817 25.4941 9.02791 25.4927C8.88765 25.4912 8.74905 25.4574 8.6202 25.3933C8.49135 25.3292 8.37483 25.2361 8.27743 25.1194C6.94786 23.5819 6.04241 21.6231 5.67559 19.4906C5.30877 17.3581 5.49705 15.1477 6.21662 13.1389C6.93618 11.1301 8.15472 9.41317 9.71815 8.2052C11.2816 6.99723 13.1197 6.35248 15 6.35248C16.8803 6.35248 18.7184 6.99723 20.2818 8.2052C21.8452 9.41317 23.0637 11.1301 23.7833 13.1389C24.5029 15.1477 24.6912 17.3581 24.3243 19.4906C23.9575 21.6231 23.0521 23.5819 21.7225 25.1194C21.5223 25.3352 21.2574 25.4526 20.9837 25.447C20.7101 25.4415 20.449 25.3133 20.2554 25.0895C20.0619 24.8657 19.951 24.5637 19.9462 24.2473C19.9414 23.9308 20.0429 23.6246 20.2295 23.393C21.2641 22.1972 21.9686 20.6735 22.2541 19.0145C22.5396 17.3556 22.3931 15.6361 21.8333 14.0734C21.2735 12.5107 20.3254 11.1752 19.1091 10.2357C17.8927 9.29616 16.4627 8.79655 15 8.797Z" fill="white"/>
<path fill-rule="evenodd" clip-rule="evenodd" d="M15 2.44522C12.4511 2.44524 9.95952 3.31925 7.84023 4.95673C5.72094 6.59421 4.06915 8.92161 3.09374 11.6446C2.11834 14.3676 1.86313 17.364 2.36038 20.2547C2.85763 23.1454 4.08502 25.8007 5.88733 27.8849C5.99111 27.9967 6.07436 28.1315 6.13209 28.2814C6.18983 28.4312 6.22087 28.5929 6.22337 28.757C6.22587 28.921 6.19978 29.0839 6.14666 29.236C6.09353 29.3881 6.01445 29.5262 5.91414 29.6422C5.81383 29.7582 5.69435 29.8497 5.56282 29.9111C5.43129 29.9725 5.2904 30.0027 5.14856 29.9998C5.00673 29.9969 4.86685 29.961 4.73728 29.8943C4.6077 29.8275 4.49108 29.7312 4.39437 29.6112C2.29631 27.1856 0.867428 24.095 0.288428 20.7302C-0.290572 17.3655 0.00631784 13.8778 1.14155 10.7082C2.27678 7.5386 4.19937 4.82947 6.66617 2.92341C9.13296 1.01736 12.0332 0 15 0C17.9668 0 20.867 1.01736 23.3338 2.92341C25.8006 4.82947 27.7232 7.5386 28.8584 10.7082C29.9937 13.8778 30.2906 17.3655 29.7116 20.7302C29.1326 24.095 27.7037 27.1856 25.6056 29.6112C25.4054 29.827 25.1405 29.9445 24.8669 29.9389C24.5932 29.9333 24.3321 29.8051 24.1386 29.5813C23.945 29.3575 23.8342 29.0556 23.8293 28.7391C23.8245 28.4227 23.9261 28.1164 24.1127 27.8849C25.915 25.8007 27.1424 23.1454 27.6396 20.2547C28.1369 17.364 27.8817 14.3676 26.9063 11.6446C25.9309 8.92161 24.2791 6.59421 22.1598 4.95673C20.0405 3.31925 17.5489 2.44524 15 2.44522Z" fill="white"/>
</svg>
