<svg width="22" height="22" viewBox="0 0 22 22" fill="none" xmlns="http://www.w3.org/2000/svg">
<path d="M3.90325 16.122C4.23742 16.044 4.59663 16.0754 4.90184 16.2093C5.20706 16.3432 5.43328 16.5687 5.53075 16.836C5.62822 17.1033 5.58894 17.3907 5.42157 17.6349C5.25419 17.879 4.97243 18.06 4.63825 18.138C3.982 18.2913 3.5095 18.453 3.20631 18.6C3.51869 18.7501 4.01219 18.9181 4.69731 19.0746C6.21325 19.4211 8.38281 19.65 10.8333 19.65C13.2837 19.65 15.4533 19.4211 16.9692 19.0746C17.6556 18.9181 18.1478 18.7501 18.4602 18.6C18.1583 18.453 17.6858 18.2913 17.0296 18.138C16.7007 18.0566 16.4249 17.8751 16.2617 17.6325C16.0986 17.39 16.0611 17.1058 16.1573 16.8414C16.2536 16.5769 16.4758 16.3533 16.7762 16.2188C17.0766 16.0842 17.4311 16.0494 17.7633 16.122C18.64 16.3267 19.4433 16.5892 20.0601 16.9263C20.6311 17.2402 21.3333 17.7873 21.3333 18.6C21.3333 19.4221 20.614 19.9734 20.0339 20.2873C19.4065 20.6254 18.5862 20.889 17.6898 21.0937C15.8811 21.5085 13.4583 21.75 10.8333 21.75C8.20825 21.75 5.78538 21.5085 3.97675 21.0937C3.08031 20.889 2.26 20.6254 1.63263 20.2873C1.0525 19.9723 0.333252 19.4221 0.333252 18.6C0.333252 17.7873 1.03544 17.2402 1.60638 16.9263C2.22325 16.5892 3.0265 16.3267 3.90325 16.122ZM10.8333 0.75C13.444 0.75 15.9478 1.57969 17.7938 3.05653C19.6399 4.53338 20.677 6.53642 20.677 8.625C20.677 11.3214 18.8395 13.5138 16.9364 15.072C16.1798 15.6851 15.3669 16.252 14.5043 16.7677C13.7247 17.236 11.9423 18.1138 11.9423 18.1138C11.6043 18.2676 11.2221 18.3484 10.8333 18.3484C10.4444 18.3484 10.0622 18.2676 9.72419 18.1138C8.83926 17.704 7.9839 17.2546 7.16219 16.7677C6.29928 16.2523 5.48627 15.6854 4.73013 15.072C2.827 13.5138 0.989502 11.3214 0.989502 8.625C0.989502 6.53642 2.02661 4.53338 3.87267 3.05653C5.71873 1.57969 8.22253 0.75 10.8333 0.75ZM10.8333 6.525C10.1371 6.525 9.46938 6.74625 8.9771 7.14008C8.48481 7.5339 8.20825 8.06805 8.20825 8.625C8.20825 9.18195 8.48481 9.7161 8.9771 10.1099C9.46938 10.5037 10.1371 10.725 10.8333 10.725C11.5294 10.725 12.1971 10.5037 12.6894 10.1099C13.1817 9.7161 13.4583 9.18195 13.4583 8.625C13.4583 8.06805 13.1817 7.5339 12.6894 7.14008C12.1971 6.74625 11.5294 6.525 10.8333 6.525Z" fill="#F76A7B"/>
</svg>
