<svg width="15" height="15" viewBox="0 0 15 15" fill="none" xmlns="http://www.w3.org/2000/svg">
<path d="M13.125 3H11.25C11.25 1.3425 9.57188 0 7.5 0C5.42812 0 3.75 1.3425 3.75 3H1.875C0.84375 3 0 3.675 0 4.5V13.5C0 14.325 0.84375 15 1.875 15H13.125C14.1563 15 15 14.325 15 13.5V4.5C15 3.675 14.1563 3 13.125 3ZM5.625 6C5.625 6.4125 5.20313 6.75 4.6875 6.75C4.17187 6.75 3.75 6.4125 3.75 6V4.5H5.625V6ZM7.5 1.5C8.53125 1.5 9.375 2.175 9.375 3H5.625C5.625 2.175 6.46875 1.5 7.5 1.5ZM11.25 6C11.25 6.4125 10.8281 6.75 10.3125 6.75C9.79687 6.75 9.375 6.4125 9.375 6V4.5H11.25V6Z" fill="#1B1B1B"/>
</svg>
