<svg width="24" height="20" viewBox="0 0 24 20" fill="none" xmlns="http://www.w3.org/2000/svg">
<path fill-rule="evenodd" clip-rule="evenodd" d="M22.6752 0H1.3248C0.5928 0 0 0.494 0 1.104V18.896C0 19.506 0.5928 20 1.3248 20H12.8184V12.255H9.6912V9.237H12.8184V7.01C12.8184 4.426 14.712 3.02 17.478 3.02C18.8028 3.02 19.9404 3.102 20.2728 3.139V5.839H18.3552C16.8504 5.839 16.56 6.435 16.56 7.309V9.236H20.1468L19.6788 12.254H16.5588V20H22.6752C23.4072 20 24 19.506 24 18.896V1.104C24 0.494 23.4072 0 22.6752 0Z" fill="white"/>
</svg>
