<svg width="35" height="35" viewBox="0 0 35 35" fill="none" xmlns="http://www.w3.org/2000/svg">
<path d="M2.38889 30.7221C1.85371 30.7221 1.40478 30.5408 1.04212 30.1781C0.679451 29.8155 0.498747 29.3672 0.500007 28.8333C0.500007 28.2981 0.68134 27.8491 1.04401 27.4865C1.40667 27.1238 1.85497 26.9431 2.38889 26.9444H9.94445C10.4796 26.9444 10.9286 27.1257 11.2912 27.4884C11.6539 27.851 11.8346 28.2993 11.8333 28.8333C11.8333 29.3684 11.652 29.8174 11.2893 30.18C10.9267 30.5427 10.4784 30.7234 9.94445 30.7221H2.38889ZM2.38889 8.05548C1.85371 8.05548 1.40478 7.87415 1.04212 7.51148C0.679451 7.14882 0.498747 6.70052 0.500007 6.16659C0.500007 5.63141 0.68134 5.18248 1.04401 4.81982C1.40667 4.45715 1.85497 4.27645 2.38889 4.27771H17.5C18.0352 4.27771 18.4841 4.45904 18.8468 4.82171C19.2094 5.18437 19.3901 5.63267 19.3889 6.16659C19.3889 6.70178 19.2076 7.15071 18.8449 7.51337C18.4822 7.87604 18.0339 8.05674 17.5 8.05548H2.38889ZM17.5 34.4999C16.9648 34.4999 16.5159 34.3186 16.1532 33.9559C15.7906 33.5933 15.6099 33.145 15.6111 32.611V25.0555C15.6111 24.5203 15.7924 24.0714 16.1551 23.7087C16.5178 23.346 16.9661 23.1653 17.5 23.1666C18.0352 23.1666 18.4841 23.3479 18.8468 23.7106C19.2094 24.0733 19.3901 24.5216 19.3889 25.0555V26.9444H32.6111C33.1463 26.9444 33.5952 27.1257 33.9579 27.4884C34.3205 27.851 34.5013 28.2993 34.5 28.8333C34.5 29.3684 34.3187 29.8174 33.956 30.18C33.5933 30.5427 33.145 30.7234 32.6111 30.7221H19.3889V32.611C19.3889 33.1462 19.2076 33.5951 18.8449 33.9578C18.4822 34.3205 18.0339 34.5012 17.5 34.4999ZM9.94445 23.1666C9.40926 23.1666 8.96034 22.9853 8.59767 22.6226C8.235 22.2599 8.0543 21.8116 8.05556 21.2777V19.3888H2.38889C1.85371 19.3888 1.40478 19.2075 1.04212 18.8448C0.679451 18.4821 0.498747 18.0338 0.500007 17.4999C0.500007 16.9647 0.68134 16.5158 1.04401 16.1531C1.40667 15.7905 1.85497 15.6098 2.38889 15.611H8.05556V13.7221C8.05556 13.187 8.23689 12.738 8.59956 12.3754C8.96223 12.0127 9.41052 11.832 9.94445 11.8333C10.4796 11.8333 10.9286 12.0146 11.2912 12.3773C11.6539 12.7399 11.8346 13.1882 11.8333 13.7221V21.2777C11.8333 21.8129 11.652 22.2618 11.2893 22.6245C10.9267 22.9871 10.4784 23.1678 9.94445 23.1666ZM17.5 19.3888C16.9648 19.3888 16.5159 19.2075 16.1532 18.8448C15.7906 18.4821 15.6099 18.0338 15.6111 17.4999C15.6111 16.9647 15.7924 16.5158 16.1551 16.1531C16.5178 15.7905 16.9661 15.6098 17.5 15.611H32.6111C33.1463 15.611 33.5952 15.7924 33.9579 16.155C34.3205 16.5177 34.5013 16.966 34.5 17.4999C34.5 18.0351 34.3187 18.484 33.956 18.8467C33.5933 19.2094 33.145 19.3901 32.6111 19.3888H17.5ZM25.0556 11.8333C24.5204 11.8333 24.0714 11.6519 23.7088 11.2893C23.3461 10.9266 23.1654 10.4783 23.1667 9.94437V2.38882C23.1667 1.85363 23.348 1.40471 23.7107 1.04204C24.0733 0.679374 24.5216 0.498671 25.0556 0.49993C25.5907 0.49993 26.0397 0.681264 26.4023 1.04393C26.765 1.4066 26.9457 1.85489 26.9444 2.38882V4.27771H32.6111C33.1463 4.27771 33.5952 4.45904 33.9579 4.82171C34.3205 5.18437 34.5013 5.63267 34.5 6.16659C34.5 6.70178 34.3187 7.15071 33.956 7.51337C33.5933 7.87604 33.145 8.05674 32.6111 8.05548H26.9444V9.94437C26.9444 10.4796 26.7631 10.9285 26.4004 11.2911C26.0378 11.6538 25.5895 11.8345 25.0556 11.8333Z" fill="white"/>
</svg>
