<svg width="329" height="329" viewBox="0 0 329 329" fill="none" xmlns="http://www.w3.org/2000/svg">
<path d="M186.504 104.425L181.042 117.506C181.042 117.506 176.127 126.487 173.995 134.107C173.094 137.325 172.186 140.74 175.857 142.674C179.522 144.609 181.365 144.22 181.687 144.22C181.713 144.22 181.74 144.22 181.766 144.22C184.063 144.24 186.063 142.681 186.609 140.45L194.084 109.702L186.504 104.425Z" fill="#FFBE9D"/>
<path d="M217.041 101.154C217.245 98.7921 218.66 96.4036 220.917 95.6864L223.516 97.18C226.253 98.4434 227.701 101.957 226.648 104.78C230.043 106.714 231.208 111.709 229.023 114.946C230.708 115.729 231.432 117.789 231.405 119.644C231.379 121.5 230.78 123.309 230.616 125.158C230.484 126.586 230.616 128.04 230.352 129.455C230.089 130.863 229.326 132.304 227.99 132.837C226.589 133.403 224.917 132.784 223.904 131.666C222.891 130.554 222.424 129.04 222.18 127.553C221.483 123.263 222.391 118.782 221.312 114.571C220.719 112.275 219.568 110.176 218.601 108.011C217.633 105.846 216.837 103.517 217.041 101.154Z" fill="#263238"/>
<path d="M218.291 100.852C221.233 100.832 224.108 99.108 225.516 96.522C226.924 93.9361 226.806 90.5869 225.22 88.1062C224.983 87.7311 224.687 87.3561 224.273 87.1982C223.397 86.8494 222.489 87.5601 221.818 88.2181C220.199 89.7973 218.581 91.3765 216.962 92.9491" fill="#263238"/>
<path d="M218.153 94.7783C221.805 93.0544 224.667 88.9616 225.733 85.0662C226.799 81.1709 225.575 73.288 224.523 69.3861C223.246 64.6419 221.272 70.7482 219.66 71.2482C218.699 71.5443 218.028 72.4524 217.739 73.4197C217.449 74.3869 217.482 75.4068 217.515 76.4135C217.725 82.5395 217.943 88.6589 218.153 94.7783Z" fill="#263238"/>
<path d="M208.823 56.0879C202.723 52.8111 197.828 54.7456 195.446 56.6077C193.064 58.4699 191.629 61.3059 190.754 64.2011C189.879 67.0963 189.497 70.1099 188.787 73.0512C188.188 75.5187 188.194 75.6766 187.846 78.1901C187.497 80.7037 187.609 85.1913 188.899 87.3824C190.136 89.488 191.471 91.3633 193.511 92.699C194.248 93.1794 195.117 93.686 195.952 93.4163C196.558 93.2254 196.972 92.6727 197.341 92.1529C203.96 82.704 209.172 72.2747 212.764 61.3124" fill="#263238"/>
<path d="M215.62 63.1417L205.052 58.8844L202.282 59.1937C196.057 59.1871 191.734 66.0303 191.669 71.0706C191.596 76.6702 191.728 83.5134 192.603 87.6456C194.353 95.9561 200.828 96.6997 200.828 96.6997C200.828 96.6865 200.749 98.9698 200.683 101.753C200.565 106.761 204.644 110.86 209.658 110.755C214.435 110.656 218.258 106.767 218.278 101.99L218.41 65.9974C218.357 64.4643 217.146 63.2272 215.62 63.1417Z" fill="#FFBE9D"/>
<path d="M193.353 77.4005C193.491 77.5321 194.274 76.8939 195.432 76.8347C196.584 76.7623 197.466 77.315 197.584 77.1702C197.643 77.1044 197.492 76.861 197.11 76.6109C196.735 76.3609 196.097 76.1306 195.38 76.1701C194.663 76.2096 194.07 76.5057 193.735 76.7952C193.386 77.0781 193.281 77.3413 193.353 77.4005Z" fill="#263238"/>
<path d="M200.933 82.9738C200.933 82.908 200.209 82.8225 199.038 82.7303C198.742 82.7172 198.459 82.6711 198.4 82.4737C198.321 82.2632 198.426 81.9407 198.551 81.592C198.795 80.8616 199.045 80.0983 199.315 79.3022C200.367 76.0385 201.111 73.367 200.979 73.3275C200.848 73.288 199.887 75.8937 198.834 79.1574C198.584 79.9602 198.341 80.73 198.11 81.4604C198.018 81.8026 197.841 82.1908 198.018 82.6251C198.11 82.8422 198.334 82.9935 198.525 83.033C198.716 83.0791 198.88 83.0791 199.032 83.0791C200.203 83.0725 200.933 83.0396 200.933 82.9738Z" fill="#263238"/>
<path d="M200.821 96.6931C200.821 96.6931 206.474 96.7721 211.889 93.1399C211.889 93.1399 209.191 99.0948 200.769 98.7329L200.821 96.6931Z" fill="#EB996E"/>
<path d="M201.67 85.4742C202.105 84.7965 202.782 84.4872 203.532 84.4872C204.052 84.4872 204.579 84.7043 204.888 85.1386C205.204 85.5729 205.263 86.2243 204.973 86.7047C204.644 87.2442 203.967 87.435 203.394 87.3232C202.822 87.2113 202.335 86.8494 201.868 86.4875C201.736 86.3888 201.604 86.2835 201.525 86.1322C201.453 85.994 201.572 85.6124 201.67 85.4742Z" fill="#EB996E"/>
<path d="M204.375 83.5989C204.184 83.5989 204.25 84.8491 203.217 85.7966C202.19 86.7441 200.848 86.6718 200.841 86.8428C200.828 86.9218 201.15 87.0731 201.716 87.06C202.269 87.0534 203.072 86.8297 203.704 86.2572C204.329 85.6782 204.579 84.9346 204.592 84.4214C204.618 83.895 204.46 83.5923 204.375 83.5989Z" fill="#263238"/>
<path d="M194.044 70.6955C194.261 70.9456 195.044 70.6363 195.998 70.5771C196.952 70.485 197.775 70.6626 197.946 70.3797C198.018 70.2415 197.88 69.9849 197.512 69.7546C197.15 69.5243 196.558 69.3532 195.9 69.4058C195.242 69.4585 194.682 69.7283 194.366 70.0112C194.044 70.2941 193.945 70.5705 194.044 70.6955Z" fill="#263238"/>
<path d="M208.671 76.8741C208.54 77.0189 207.717 76.4267 206.559 76.4399C205.401 76.4399 204.559 77.0452 204.434 76.907C204.368 76.8478 204.506 76.5912 204.868 76.3148C205.23 76.0451 205.848 75.7753 206.566 75.7687C207.29 75.7621 207.895 76.0187 208.25 76.2885C208.612 76.5583 208.737 76.8083 208.671 76.8741Z" fill="#263238"/>
<path d="M208.796 70.1231C208.599 70.3863 207.796 70.1231 206.836 70.1231C205.875 70.0902 205.066 70.3205 204.875 70.0507C204.789 69.9191 204.914 69.6559 205.27 69.3993C205.618 69.1492 206.197 68.9387 206.855 68.9452C207.513 68.9584 208.086 69.1887 208.428 69.4519C208.77 69.7217 208.882 69.9915 208.796 70.1231Z" fill="#263238"/>
<path d="M206.27 57.9895C208.948 56.9104 213.041 57.2723 215.337 59.0226C217.633 60.7663 219.068 63.497 219.594 66.333C220.121 69.169 219.417 73.3736 218.666 76.1635C214.337 70.5837 209.876 64.1484 205.697 58.4501L206.27 57.9895Z" fill="#263238"/>
<path d="M204.217 55.4562C189.537 53.3901 190.892 75.591 190.892 75.591C192.36 67.4121 203.743 58.8515 203.743 58.8515L206.059 58.4633L204.217 55.4562Z" fill="#263238"/>
<path d="M217.495 80.1444C217.462 79.5193 218.114 78.0125 218.726 77.8875C220.358 77.5519 223.332 77.5321 223.569 81.7104C223.891 87.4219 218.094 86.5665 218.074 86.402C218.055 86.2769 217.594 82.3026 217.495 80.1444Z" fill="#FFBE9D"/>
<path d="M218.93 84.145C218.956 84.1253 219.035 84.2108 219.206 84.2766C219.377 84.3424 219.66 84.3753 219.95 84.2503C220.542 83.9937 220.996 83.0067 220.963 81.9802C220.95 81.4604 220.812 80.9735 220.601 80.5721C220.404 80.1641 220.114 79.8878 219.811 79.8483C219.509 79.7957 219.298 79.9865 219.239 80.151C219.173 80.3155 219.213 80.4273 219.186 80.4405C219.173 80.4537 219.061 80.355 219.094 80.1115C219.114 79.9996 219.173 79.8549 219.298 79.743C219.43 79.6246 219.627 79.5588 219.838 79.5654C220.279 79.5719 220.7 79.9536 220.923 80.3944C221.173 80.8353 221.345 81.3814 221.358 81.9671C221.384 83.1186 220.858 84.2306 220.048 84.5135C219.653 84.6385 219.311 84.5398 219.127 84.4148C218.949 84.2766 218.91 84.1516 218.93 84.145Z" fill="#EB996E"/>
<path d="M224.207 66.4909C222.746 62.5758 219.798 59.345 216.35 56.9762C214.501 55.7063 212.448 54.6403 210.224 54.3771C208 54.1139 205.579 54.7522 204.098 56.4367L203.684 56.8578C206.211 62.4508 207.987 67.1884 211.238 72.3997C212.429 74.3145 212.948 80.8287 213.231 83.0659C214.212 90.7053 218.397 93.9756 218.397 93.9756C227.451 93.9821 225.668 70.406 224.207 66.4909Z" fill="#263238"/>
<path d="M219.785 93.0807C219.798 93.1267 220.246 93.0346 220.91 92.7254C221.568 92.4161 222.43 91.8436 223.187 91.008C223.943 90.1723 224.437 89.2643 224.68 88.58C224.93 87.8891 224.977 87.435 224.93 87.4284C224.812 87.3824 224.358 89.1458 222.884 90.7382C221.443 92.3503 219.726 92.9622 219.785 93.0807Z" fill="#455A64"/>
<path d="M220.864 100.509C220.864 100.615 222.075 100.516 223.226 99.6409C224.391 98.7789 224.819 97.6406 224.72 97.6143C224.615 97.5551 224.062 98.5289 222.99 99.3251C221.93 100.134 220.838 100.398 220.864 100.509Z" fill="#455A64"/>
<path d="M224.674 107.524C224.766 107.59 225.286 107.011 225.845 106.234C226.398 105.458 226.78 104.78 226.687 104.714C226.595 104.648 226.076 105.227 225.516 106.004C224.964 106.78 224.588 107.458 224.674 107.524Z" fill="#455A64"/>
<path d="M227.622 116.17C227.707 116.242 228.109 115.92 228.523 115.446C228.938 114.972 229.208 114.531 229.122 114.459C229.036 114.387 228.635 114.709 228.221 115.183C227.806 115.65 227.536 116.097 227.622 116.17Z" fill="#455A64"/>
<path d="M225.878 79.414C225.891 79.3877 225.503 79.164 224.799 78.7823C224.444 78.5981 224.01 78.3612 223.529 78.0585C223.042 77.7624 222.476 77.4466 221.884 77.0321C220.68 76.2556 219.305 75.2357 217.857 74.0118C216.429 72.7682 214.936 71.314 213.508 69.6559C212.1 67.9846 210.902 66.2803 209.902 64.6682C208.928 63.043 208.139 61.5296 207.56 60.2136C207.244 59.5687 207.027 58.9568 206.809 58.4304C206.586 57.904 206.428 57.4434 206.296 57.0618C206.033 56.3051 205.868 55.8839 205.842 55.8971C205.816 55.9037 205.928 56.338 206.145 57.1144C206.25 57.5026 206.395 57.9764 206.599 58.5159C206.796 59.0555 207 59.6806 207.296 60.3386C207.843 61.6809 208.612 63.2206 209.58 64.8722C210.573 66.5041 211.777 68.2412 213.199 69.9257C214.64 71.6036 216.153 73.0643 217.614 74.3014C219.088 75.5187 220.489 76.5254 221.726 77.2755C222.325 77.6769 222.911 77.973 223.411 78.2559C223.911 78.5389 224.352 78.756 224.72 78.9271C225.457 79.2627 225.865 79.4403 225.878 79.414Z" fill="#455A64"/>
<path d="M211.751 72.5774C211.731 72.5971 211.882 72.788 212.172 73.1235C212.461 73.4591 212.902 73.9197 213.475 74.4593C214.62 75.545 216.324 76.9202 218.403 78.1507C220.482 79.3745 222.516 80.2036 224.016 80.684C224.766 80.9208 225.384 81.0919 225.812 81.1775C226.24 81.2696 226.483 81.3091 226.49 81.2827C226.503 81.2169 225.569 80.9603 224.108 80.4142C222.641 79.8746 220.66 79.0126 218.607 77.8019C216.561 76.5912 214.85 75.2686 213.666 74.2421C212.481 73.2222 211.803 72.5313 211.751 72.5774Z" fill="#455A64"/>
<path d="M190.445 79.868C190.478 79.8615 190.366 79.4206 190.208 78.6178C190.05 77.8151 189.879 76.6438 189.826 75.1897C189.714 72.301 190.3 68.1688 192.557 64.3261C194.821 60.4834 198.143 57.9566 200.716 56.6538C202.012 55.9892 203.118 55.5681 203.894 55.3181C204.671 55.068 205.112 54.9496 205.099 54.9167C205.099 54.9035 204.98 54.9167 204.77 54.9562C204.559 55.0022 204.243 55.0483 203.848 55.1667C203.052 55.3707 201.914 55.7589 200.591 56.3972C197.946 57.654 194.524 60.1938 192.215 64.1221C189.912 68.0504 189.359 72.2747 189.55 75.1962C189.636 76.6702 189.853 77.848 190.057 78.6442C190.149 79.0455 190.261 79.3482 190.32 79.5522C190.386 79.7628 190.432 79.868 190.445 79.868Z" fill="#455A64"/>
<path d="M208.783 79.2232C207.619 79.085 206.414 79.3022 205.368 79.8351C205.033 80.0062 204.664 80.3221 204.763 80.684C204.842 80.9801 205.184 81.1117 205.48 81.1775C206.803 81.4867 208.184 81.5262 209.52 81.2893C209.961 81.2104 210.461 81.0459 210.593 80.6182C210.705 80.2628 210.481 79.868 210.165 79.6641C209.843 79.4667 209.158 79.2429 208.783 79.2232Z" fill="#F9A991"/>
<path d="M196.689 79.9009C195.498 79.4009 194.097 79.4403 192.939 79.9996C192.8 80.0654 192.669 80.1378 192.57 80.2563C192.471 80.3747 192.425 80.5392 192.485 80.6774C192.557 80.855 192.767 80.9208 192.952 80.9669C194.057 81.2235 195.228 81.1906 196.314 80.8814C196.551 80.8156 196.808 80.7169 196.913 80.4931C197.025 80.2628 197.031 80.0523 196.689 79.9009Z" fill="#F9A991"/>
<path d="M211.909 257.785L212.916 309.049L200.499 310.379L191.965 258.186L198.67 249.75L211.909 257.785Z" fill="#FFBE9D"/>
<path d="M198.973 307.845L198.979 308.681C198.979 308.681 184.852 314.544 184.734 317.242L212.909 316.774V307.385C208.757 309.398 203.835 309.707 198.973 307.845Z" fill="#FF725E"/>
<path d="M212.948 317.432V315.32L185.694 315.794C185.694 315.794 184.582 316.59 184.733 317.472L212.948 317.432Z" fill="#263238"/>
<path d="M223.22 256.1L246.112 266.293L243.361 278.512C243.361 278.512 214.574 269.931 205.132 268.023C195.716 266.122 180.457 263.687 176.147 254.554L223.22 256.1Z" fill="#FFBE9D"/>
<path d="M241.164 278.742L241.96 278.959C241.96 278.959 243.796 293.962 246.329 294.791L253.35 267.832L244.408 265.345C245.23 269.833 244.217 274.603 241.164 278.742Z" fill="#FF725E"/>
<path d="M253.356 267.832L251.178 267.359L245.243 293.369C245.243 293.369 245.454 294.705 246.335 294.791L253.356 267.832Z" fill="#263238"/>
<path d="M176.259 254.916C176.259 254.916 176.311 255.153 176.502 255.561C176.686 255.975 177.042 256.548 177.601 257.199C178.713 258.515 180.661 260.075 183.247 261.7C184.563 262.503 186.089 263.2 187.78 263.825C189.465 264.477 191.36 264.871 193.301 265.371C197.203 266.358 201.486 267.477 205.98 268.668C214.956 271.037 223.075 273.182 228.997 274.748C231.925 275.491 234.301 276.097 235.992 276.531C236.795 276.722 237.433 276.873 237.9 276.985C238.334 277.084 238.571 277.13 238.571 277.117C238.578 277.104 238.347 277.031 237.92 276.906C237.453 276.775 236.827 276.597 236.031 276.38C234.353 275.919 231.985 275.274 229.07 274.478C223.194 272.879 215.067 270.662 206.079 268.286C201.585 267.102 197.301 265.99 193.386 265.023C191.425 264.529 189.557 264.154 187.892 263.522C186.221 262.917 184.688 262.239 183.391 261.469C180.805 259.884 178.844 258.37 177.713 257.107C176.568 255.83 176.305 254.889 176.259 254.916Z" fill="#EB996E"/>
<path d="M200.769 102.266C200.98 101.779 189.886 111.413 186.918 119.618C184.97 124.987 181.384 143.398 181.299 143.444L180.213 154.564L211.08 156.742L211.909 154.564L214.192 148.366L217.37 139.003C217.37 139.003 224.977 127.185 226.49 122.098C228.366 115.782 225.26 109.307 225.26 109.307L218.278 101.424L200.769 102.266Z" fill="#FF725E"/>
<path d="M218.272 101.99C218.272 101.99 219.983 98.8119 218.93 97.4301C218.088 96.3312 203.23 97.7064 200.197 98.3513C198.414 98.7263 200.23 102.701 200.23 102.701L218.272 101.99Z" fill="#FF725E"/>
<path d="M200.19 102.319C200.183 102.345 200.434 102.411 200.894 102.516C201.355 102.622 202.026 102.734 202.862 102.845C204.526 103.069 206.862 103.227 209.428 103.102C212.001 102.97 214.304 102.576 215.936 102.187C216.752 101.99 217.41 101.812 217.857 101.661C218.305 101.516 218.548 101.424 218.542 101.398C218.522 101.339 217.522 101.595 215.877 101.911C214.238 102.233 211.949 102.576 209.409 102.707C206.862 102.832 204.553 102.72 202.894 102.569C201.23 102.411 200.203 102.253 200.19 102.319Z" fill="#263238"/>
<g opacity="0.3">
<g opacity="0.3">
<g opacity="0.3">
<path opacity="0.3" d="M209.777 102.845C212.212 102.635 215.067 102.339 217.443 101.76C213.909 103.648 209.606 104.629 205.632 104.128C204.145 103.938 202.579 103.523 201.598 102.391C203.862 103.28 207.342 103.056 209.777 102.845Z" fill="black"/>
</g>
</g>
</g>
<g opacity="0.3">
<g opacity="0.3">
<g opacity="0.3">
<path opacity="0.3" d="M185.55 144.892C186.602 147.668 188.886 149.952 191.662 151.018C194.439 152.077 197.663 151.893 200.302 150.524C203.322 148.958 205.388 146.069 207.731 143.602C210.468 140.726 213.686 138.351 216.522 135.568C219.351 132.784 221.858 129.442 222.615 125.546C218.404 130.396 213.85 134.1 208.422 137.015C201.124 140.937 193.103 141.483 185.55 144.892Z" fill="black"/>
</g>
</g>
</g>
<path d="M187.102 85.4478C187.102 85.4478 186.708 84.8292 185.911 85.961C185.115 87.0993 183.299 95.3901 183.299 95.3901L186.51 104.424L190.669 108.728L187.102 85.4478Z" fill="#FFBE9D"/>
<path d="M186.504 104.425C186.497 104.425 186.471 104.372 186.425 104.267C186.372 104.142 186.313 103.984 186.24 103.793C186.076 103.345 185.846 102.74 185.563 101.983C184.977 100.384 184.161 98.1407 183.181 95.4363L183.167 95.4034L183.174 95.3705C183.516 93.7913 183.918 92.0542 184.385 90.2118C184.622 89.2906 184.878 88.3431 185.181 87.3758C185.345 86.8955 185.484 86.4086 185.767 85.9217C185.918 85.6979 186.082 85.4874 186.319 85.3031C186.438 85.2176 186.582 85.1386 186.76 85.1321C186.944 85.1255 187.122 85.211 187.234 85.3689L187.254 85.3952L187.26 85.4282C187.326 85.8427 187.392 86.2901 187.458 86.7376C188.366 92.7978 189.188 98.2789 189.794 102.286C190.076 104.254 190.3 105.859 190.465 107.004C190.537 107.537 190.59 107.965 190.629 108.287C190.662 108.583 190.675 108.735 190.669 108.741C190.656 108.741 190.623 108.59 190.57 108.3C190.511 107.978 190.438 107.557 190.346 107.024C190.162 105.879 189.899 104.28 189.576 102.319C188.951 98.3184 188.096 92.8372 187.155 86.7836C187.089 86.3362 187.017 85.8887 186.958 85.4742L186.977 85.5334C186.885 85.4018 186.688 85.4084 186.504 85.5532C186.319 85.6914 186.161 85.8887 186.023 86.0927C185.786 86.4941 185.628 87.0008 185.47 87.4679C185.168 88.422 184.911 89.3696 184.668 90.2842C184.194 92.12 183.779 93.8505 183.424 95.4297L183.418 95.3574C184.358 98.0749 185.141 100.332 185.701 101.944C185.957 102.714 186.161 103.326 186.319 103.78C186.379 103.977 186.431 104.135 186.471 104.267C186.497 104.365 186.51 104.425 186.504 104.425Z" fill="#EB996E"/>
<path d="M196.446 100.852L196.926 130.113L204.756 122.02L220.575 126.579C220.575 126.579 200.756 149.563 194.084 150.189C192.235 150.36 189.353 149.024 188.26 148.274C186.267 146.905 185.194 144.549 185.418 142.141L188.576 108.392L196.446 100.852Z" fill="#FFBE9D"/>
<path d="M185.753 138.528L188.714 109.063C188.714 109.063 185.832 95.1723 185.825 93.5141C185.812 91.8625 185.569 85.7102 187.102 84.9141C187.102 84.9141 186.924 81.7228 188.174 81.8083C189.425 81.8938 189.589 83.6178 189.589 83.6178C189.589 83.6178 189.819 81.9662 190.497 81.8478C191.556 81.657 191.971 83.1967 191.971 83.1967C191.971 83.1967 193.221 82.644 193.899 84.8614C193.899 84.8614 197.288 95.7711 197.781 96.5343C198.275 97.2976 200.071 95.6987 200.071 95.6987C200.071 95.6987 202.295 92.2771 202.703 92.1784C203.111 92.0797 203.907 92.1521 203.907 92.1521C203.907 92.1521 202.012 97.5542 200.92 99.0018C199.828 100.449 197.182 105.227 197.182 105.227L196.919 130.112" fill="#FFBE9D"/>
<path d="M196.92 130.113C196.92 130.113 196.907 129.962 196.907 129.665C196.907 129.356 196.907 128.922 196.9 128.363C196.907 127.205 196.913 125.52 196.92 123.368C196.953 119.032 196.999 112.814 197.058 105.227V105.194L197.071 105.168C198.163 103.234 199.289 101.174 200.67 99.1146C201.388 98.1341 201.861 96.9563 202.361 95.7785C202.848 94.5941 203.316 93.3636 203.763 92.1134L203.881 92.3042C203.671 92.2845 203.447 92.2779 203.23 92.2779C203.118 92.2779 203.013 92.2845 202.908 92.2977C202.855 92.3043 202.802 92.3108 202.756 92.324C202.704 92.3437 202.717 92.3437 202.671 92.3766C202.368 92.6596 202.085 93.0544 201.809 93.4228C201.256 94.1795 200.723 94.9757 200.19 95.7916L200.177 95.8114L200.164 95.8246C199.894 96.0614 199.611 96.272 199.308 96.4694C198.999 96.6536 198.683 96.851 198.275 96.8971C198.078 96.9234 197.801 96.8576 197.67 96.6471C197.565 96.4694 197.492 96.2983 197.433 96.1338C197.295 95.7982 197.183 95.4561 197.058 95.1139C196.578 93.7453 196.124 92.3503 195.663 90.9356C195.209 89.5143 194.748 88.0733 194.288 86.6191C194.051 85.9019 193.847 85.132 193.577 84.4411C193.432 84.099 193.242 83.7766 192.965 83.5528C192.709 83.3225 192.327 83.2436 192.031 83.3489L191.866 83.4081L191.82 83.2502C191.754 83.0264 191.649 82.783 191.511 82.5658C191.366 82.3421 191.175 82.1381 190.945 82.0526C190.833 82.0131 190.708 81.9868 190.59 82.0065C190.465 82.0131 190.392 82.0526 190.3 82.1447C189.971 82.5198 189.827 83.1186 189.734 83.6515L189.563 84.6385L189.432 83.645C189.366 83.1712 189.201 82.6777 188.892 82.3355C188.603 82.0131 188.037 81.8223 187.767 82.1316C187.477 82.4474 187.366 82.9672 187.306 83.441C187.247 83.9279 187.227 84.428 187.247 84.9149L187.254 85.007L187.168 85.0597C186.76 85.3031 186.55 85.869 186.405 86.3757C186.26 86.9021 186.175 87.4482 186.115 87.9943C185.99 89.0866 185.957 90.1789 185.951 91.258C185.957 91.7976 185.957 92.3371 185.964 92.8701C185.964 93.4163 185.984 93.9229 186.069 94.4493C186.221 95.4955 186.405 96.5286 186.589 97.5419C187.333 101.608 188.116 105.458 188.846 109.044L188.853 109.064V109.083C187.938 117.947 187.181 125.31 186.648 130.468C186.379 133.034 186.161 135.048 186.01 136.436C185.931 137.114 185.872 137.64 185.832 138.002C185.793 138.358 185.76 138.535 185.76 138.535C185.76 138.535 185.767 138.351 185.793 137.996C185.826 137.627 185.872 137.101 185.931 136.423C186.063 135.035 186.254 133.015 186.497 130.449C187.004 125.29 187.721 117.92 188.589 109.057V109.096C187.846 105.51 187.063 101.668 186.306 97.5946C186.122 96.5747 185.938 95.5416 185.78 94.4888C185.694 93.9624 185.668 93.4031 185.668 92.8767C185.661 92.3371 185.661 91.7976 185.655 91.258C185.661 90.1723 185.694 89.0669 185.819 87.9614C185.879 87.4087 185.971 86.8494 186.122 86.2967C186.194 86.0203 186.293 85.744 186.425 85.4808C186.563 85.2242 186.74 84.9544 187.037 84.7899L186.958 84.9346C186.938 84.4214 186.951 83.9213 187.017 83.4081C187.05 83.1515 187.096 82.8948 187.175 82.6448C187.247 82.3948 187.366 82.1381 187.57 81.921C187.767 81.6907 188.155 81.6183 188.412 81.7039C188.695 81.7631 188.951 81.921 189.136 82.1316C189.511 82.5527 189.682 83.0791 189.754 83.6186L189.451 83.6121C189.563 83.033 189.662 82.4408 190.103 81.9276C190.208 81.8026 190.412 81.7039 190.577 81.7039C190.741 81.6775 190.919 81.7104 191.077 81.7697C191.393 81.8947 191.623 82.1447 191.787 82.4013C191.945 82.6514 192.057 82.908 192.136 83.1712L191.926 83.0725C192.373 82.908 192.853 83.033 193.176 83.316C193.505 83.5923 193.715 83.9542 193.873 84.3227C194.169 85.0728 194.347 85.7966 194.59 86.527C195.051 87.9812 195.512 89.4222 195.966 90.8435C196.426 92.2582 196.88 93.6597 197.354 95.0218C197.479 95.3574 197.591 95.6995 197.723 96.0285C197.788 96.1996 197.854 96.351 197.926 96.4826C197.992 96.5878 198.111 96.6207 198.262 96.6076C198.565 96.5813 198.874 96.397 199.164 96.2259C199.453 96.0417 199.729 95.8311 199.986 95.614L199.96 95.6403C200.493 94.8244 201.032 94.0282 201.592 93.2649C201.881 92.8833 202.138 92.5082 202.506 92.1661C202.539 92.1266 202.657 92.0674 202.717 92.0542C202.783 92.041 202.842 92.0345 202.901 92.0279C203.019 92.0147 203.138 92.0081 203.256 92.0081C203.487 92.0081 203.71 92.0147 203.941 92.0345L204.125 92.0476L204.066 92.2187C203.612 93.4821 203.144 94.706 202.651 95.8969C202.401 96.4957 202.144 97.0813 201.874 97.6472C201.605 98.2131 201.295 98.7856 200.92 99.2791C199.545 101.306 198.407 103.378 197.315 105.3L197.328 105.241C197.222 112.834 197.143 119.052 197.084 123.382C197.045 125.533 197.018 127.218 196.999 128.376C196.986 128.942 196.972 129.376 196.966 129.679C196.933 129.962 196.92 130.113 196.92 130.113Z" fill="#EB996E"/>
<path d="M220.516 106.997C215.304 105.116 212.001 107.557 207.579 113.176C203.158 118.795 201.42 122.724 201.42 122.724L217.166 132.863C217.166 132.863 227.017 119.453 227.701 116.861C228.392 114.255 226.398 109.116 220.516 106.997Z" fill="#FF725E"/>
<path d="M194.005 94.5349C193.972 94.548 193.702 93.9558 193.38 92.9557C193.051 91.9555 192.682 90.554 192.412 88.9682C192.143 87.389 192.018 85.9414 191.972 84.8952C191.926 83.849 191.939 83.1975 191.978 83.1975C192.024 83.1975 192.083 83.8424 192.182 84.882C192.287 85.9217 192.445 87.3561 192.715 88.9221C192.985 90.4882 193.314 91.8897 193.584 92.8964C193.853 93.9032 194.044 94.5217 194.005 94.5349Z" fill="#EB996E"/>
<path d="M191.09 94.7783C191.05 94.7849 190.899 94.1861 190.688 93.2057C190.485 92.2253 190.221 90.8632 189.998 89.3498C189.774 87.8364 189.655 86.448 189.616 85.4479C189.576 84.4477 189.603 83.8226 189.642 83.8226C189.688 83.8226 189.741 84.4411 189.833 85.4347C189.925 86.4283 190.083 87.7969 190.3 89.3103C190.524 90.7645 190.735 92.0805 190.899 93.1728C191.057 94.1598 191.129 94.7717 191.09 94.7783Z" fill="#EB996E"/>
<path d="M188.05 94.6138C188.017 94.627 187.807 94.1138 187.576 93.2518C187.346 92.3898 187.122 91.1791 187.01 89.8236C186.899 88.4681 186.905 87.2376 186.945 86.3493C186.991 85.4611 187.063 84.9149 187.103 84.9215C187.201 84.9281 187.096 87.1192 187.313 89.7973C187.425 91.1396 187.616 92.3371 187.787 93.2057C187.958 94.0677 188.096 94.6007 188.05 94.6138Z" fill="#EB996E"/>
<path d="M197.347 136.851C197.255 136.831 197.624 135.278 197.512 133.337C197.413 131.396 196.88 129.889 196.972 129.863C197.038 129.83 197.716 131.324 197.815 133.324C197.933 135.318 197.42 136.877 197.347 136.851Z" fill="#EB996E"/>
<path d="M227.787 115.979C227.787 115.979 227.846 116.519 227.596 117.479C227.352 118.44 226.707 119.743 225.701 121.223C223.714 124.198 220.832 128.33 217.285 132.949L217.199 133.061L217.087 132.982C215.14 131.692 213.034 130.297 210.863 128.863C207.336 126.52 204 124.296 201.052 122.335L200.94 122.263L201.013 122.151C203.473 118.157 205.862 114.986 207.612 112.827C208.487 111.748 209.205 110.912 209.705 110.353C209.942 110.09 210.139 109.879 210.284 109.715C210.415 109.57 210.488 109.504 210.494 109.504C210.501 109.511 210.442 109.59 210.317 109.741C210.178 109.912 210.001 110.129 209.771 110.406C209.297 110.985 208.599 111.834 207.737 112.926C206.027 115.111 203.677 118.295 201.243 122.289L201.203 122.098C204.158 124.053 207.5 126.264 211.027 128.6C213.199 130.041 215.298 131.436 217.245 132.732L217.048 132.765C220.601 128.165 223.516 124.059 225.543 121.111C226.569 119.651 227.227 118.381 227.497 117.446C227.773 116.519 227.76 115.979 227.787 115.979Z" fill="#263238"/>
<path d="M212.205 156.874L211.685 161.381C211.685 161.381 219.614 176.364 219.614 184.404C219.614 192.445 223.273 256.442 223.273 256.442C223.273 256.442 180.272 258.89 175.725 254.692C171.179 250.494 171.179 250.494 171.179 250.494L155.795 246.296L179.792 158.729V154.038L212.205 156.874Z" fill="#263238"/>
<path d="M182.792 178.561C182.786 178.561 182.773 178.621 182.753 178.739C182.733 178.884 182.7 179.055 182.667 179.266C182.595 179.759 182.503 180.437 182.378 181.286C182.128 183.075 181.772 185.609 181.338 188.721C180.443 194.992 179.108 203.644 177.384 213.159C175.653 222.674 173.87 231.248 172.508 237.433C171.824 240.499 171.264 242.993 170.876 244.756C170.692 245.599 170.547 246.263 170.435 246.75C170.396 246.961 170.356 247.132 170.33 247.27C170.31 247.388 170.304 247.447 170.31 247.447C170.317 247.447 170.336 247.388 170.369 247.276C170.409 247.138 170.455 246.967 170.514 246.763C170.639 246.276 170.81 245.618 171.027 244.789C171.468 243.072 172.074 240.578 172.784 237.492C174.219 231.313 176.048 222.746 177.778 213.225C179.502 203.704 180.792 195.038 181.621 188.754C182.036 185.609 182.345 183.062 182.536 181.299C182.628 180.443 182.7 179.766 182.746 179.266C182.766 179.055 182.779 178.877 182.792 178.739C182.792 178.627 182.799 178.561 182.792 178.561Z" fill="#455A64"/>
<path d="M213.672 186.576C213.659 186.569 213.6 186.747 213.495 187.083C213.383 187.458 213.238 187.945 213.06 188.556C212.672 189.879 212.133 191.721 211.475 193.978C210.119 198.551 208.152 204.835 205.757 211.698C203.348 218.561 200.966 224.707 199.177 229.122C198.288 231.294 197.558 233.07 197.038 234.347C196.801 234.932 196.61 235.406 196.459 235.768C196.334 236.097 196.268 236.268 196.281 236.275C196.295 236.281 196.38 236.117 196.531 235.801C196.696 235.446 196.913 234.985 197.176 234.406C197.729 233.195 198.505 231.425 199.433 229.227C201.289 224.832 203.723 218.699 206.132 211.83C208.533 204.954 210.461 198.65 211.744 194.057C212.389 191.761 212.889 189.892 213.212 188.603C213.363 187.984 213.482 187.491 213.574 187.109C213.653 186.767 213.686 186.582 213.672 186.576Z" fill="#455A64"/>
<path d="M179.364 160.848C179.364 160.861 179.805 160.888 180.614 160.927C181.424 160.967 182.588 161.013 184.036 161.052C186.925 161.144 190.925 161.223 195.34 161.23C199.762 161.236 203.763 161.177 206.652 161.098C208.099 161.059 209.264 161.019 210.073 160.986C210.882 160.953 211.323 160.927 211.323 160.914C211.323 160.901 210.876 160.901 210.067 160.907C209.191 160.92 208.04 160.934 206.645 160.96C203.756 160.999 199.762 161.046 195.347 161.032C190.938 161.026 186.944 160.967 184.049 160.907C182.654 160.881 181.503 160.861 180.628 160.842C179.818 160.835 179.364 160.835 179.364 160.848Z" fill="#455A64"/>
<path d="M167.764 127.909C167.468 126.191 166.533 124.619 165.303 123.388C164.092 122.184 162.552 121.263 160.868 121C159.078 120.717 157.177 121.204 155.742 122.316C154.887 122.974 154.209 123.849 153.762 124.836C153.222 124.02 152.505 123.322 151.663 122.809C150.11 121.868 148.169 121.605 146.418 122.092C144.773 122.552 143.345 123.638 142.286 124.974C141.2 126.336 140.457 128.007 140.358 129.744C140.233 131.922 140.786 134.271 142.016 136.074C143.313 137.976 145.319 139.463 147.359 140.536C150.787 142.345 155.295 144.595 155.295 144.595C155.295 144.595 158.828 141.628 162.026 139.437C163.928 138.134 165.757 136.436 166.829 134.396C167.856 132.449 168.139 130.06 167.764 127.909Z" fill="#FF725E"/>
<g opacity="0.3">
<g opacity="0.3">
<g opacity="0.3">
<g opacity="0.3">
<path opacity="0.3" d="M167.764 127.909C167.468 126.191 166.533 124.619 165.303 123.388C164.092 122.184 162.552 121.263 160.868 121C159.078 120.717 157.177 121.204 155.742 122.316C154.887 122.974 154.209 123.849 153.762 124.836C153.222 124.02 152.505 123.322 151.663 122.809C150.11 121.868 148.169 121.605 146.418 122.092C144.773 122.552 143.345 123.638 142.286 124.974C141.2 126.336 140.457 128.007 140.358 129.744C140.233 131.922 140.786 134.271 142.016 136.074C143.313 137.976 145.319 139.463 147.359 140.536C150.787 142.345 155.295 144.595 155.295 144.595C155.295 144.595 158.828 141.628 162.026 139.437C163.928 138.134 165.757 136.436 166.829 134.396C167.856 132.449 168.139 130.06 167.764 127.909Z" fill="black"/>
</g>
</g>
</g>
</g>
<path d="M165.849 126.744C165.553 125.027 164.619 123.454 163.388 122.223C162.177 121.019 160.638 120.098 158.953 119.835C157.163 119.552 155.262 120.039 153.827 121.151C152.972 121.809 152.294 122.684 151.847 123.665C151.307 122.849 150.59 122.151 149.748 121.638C148.195 120.697 146.254 120.434 144.504 120.921C142.859 121.381 141.431 122.467 140.371 123.803C139.286 125.165 138.542 126.836 138.443 128.573C138.318 130.751 138.871 133.1 140.101 134.903C141.398 136.805 143.405 138.292 145.444 139.364C148.873 141.174 153.11 143.483 153.11 143.483C153.11 143.483 156.913 140.457 160.111 138.266C162.013 136.963 163.842 135.265 164.915 133.225C165.935 131.291 166.218 128.896 165.849 126.744Z" fill="#FF725E"/>
<path d="M166.836 134.383C166.829 134.383 166.797 134.344 166.724 134.265C166.639 134.16 166.54 134.035 166.428 133.896C166.139 133.528 165.77 133.054 165.323 132.475L165.355 132.495C162.789 131.942 158.354 130.975 153.294 129.981C149.294 129.185 145.668 128.521 143.036 128.047C141.766 127.817 140.713 127.626 139.924 127.487C139.588 127.422 139.312 127.369 139.082 127.33C138.891 127.29 138.785 127.27 138.792 127.257C138.792 127.251 138.897 127.257 139.088 127.284C139.325 127.316 139.601 127.356 139.937 127.402C140.733 127.527 141.786 127.698 143.062 127.902C145.701 128.343 149.333 128.988 153.334 129.777C158.394 130.777 162.822 131.778 165.382 132.383L165.402 132.39L165.415 132.403C165.849 132.995 166.198 133.475 166.474 133.857C166.579 134.008 166.671 134.133 166.75 134.245C166.816 134.331 166.843 134.383 166.836 134.383Z" fill="white"/>
<path d="M152.992 129.975C152.979 129.981 152.9 129.85 152.761 129.613C152.59 129.297 152.406 128.961 152.202 128.593C151.972 128.159 151.702 127.639 151.439 127.047C151.307 126.751 151.182 126.428 151.064 126.099C151.005 125.928 150.952 125.764 150.893 125.579C150.866 125.487 150.84 125.382 150.873 125.257C150.899 125.125 151.038 125.027 151.163 125.013C151.426 124.987 151.603 125.171 151.709 125.336C151.807 125.494 151.899 125.645 151.985 125.803C152.156 126.112 152.307 126.422 152.432 126.724C152.689 127.33 152.84 127.902 152.933 128.382C153.018 128.869 153.038 129.271 153.031 129.547C153.025 129.823 152.998 129.975 152.992 129.975C152.952 129.975 153.005 129.363 152.794 128.415C152.689 127.942 152.525 127.389 152.261 126.803C152.13 126.507 151.985 126.211 151.814 125.902C151.636 125.619 151.472 125.198 151.189 125.217C151.064 125.224 151.044 125.356 151.09 125.527C151.143 125.698 151.202 125.862 151.255 126.033C151.367 126.362 151.492 126.678 151.617 126.974C151.867 127.566 152.123 128.093 152.334 128.534C152.511 128.915 152.683 129.258 152.834 129.58C152.946 129.823 153.005 129.968 152.992 129.975Z" fill="white"/>
<path d="M152.979 130.001C152.952 129.988 153.189 129.488 153.768 128.83C154.058 128.501 154.42 128.119 154.854 127.738C155.071 127.547 155.308 127.356 155.578 127.178C155.709 127.093 155.854 127.007 156.005 126.935C156.163 126.876 156.328 126.77 156.571 126.876C156.598 126.895 156.617 126.915 156.637 126.928L156.611 126.908C156.683 126.961 156.683 127.033 156.676 127.073C156.67 127.099 156.657 127.139 156.644 127.159C156.617 127.205 156.598 127.237 156.571 127.277C156.519 127.343 156.466 127.409 156.407 127.468C156.295 127.586 156.183 127.705 156.071 127.81C155.841 128.027 155.617 128.224 155.4 128.409C154.959 128.777 154.551 129.086 154.196 129.33C153.492 129.817 152.992 130.027 152.979 130.001C152.972 129.988 153.09 129.922 153.288 129.791C153.492 129.659 153.775 129.468 154.117 129.205C154.459 128.948 154.86 128.626 155.288 128.257C155.499 128.073 155.722 127.876 155.946 127.659C156.058 127.553 156.163 127.441 156.269 127.323C156.321 127.264 156.374 127.205 156.42 127.145C156.44 127.112 156.466 127.086 156.479 127.06C156.492 127.047 156.486 127.04 156.492 127.027C156.486 127.027 156.525 127.04 156.545 127.027C156.565 127.02 156.545 127.033 156.551 127.027L156.499 127.06C156.492 127.053 156.486 127.053 156.479 127.047C156.407 127.007 156.229 127.053 156.104 127.112C155.966 127.178 155.828 127.257 155.703 127.336C155.446 127.507 155.209 127.691 154.992 127.869C154.558 128.238 154.189 128.6 153.887 128.909C153.59 129.225 153.367 129.494 153.222 129.685C153.071 129.896 152.998 130.008 152.979 130.001Z" fill="white"/>
<path d="M156.545 138.43C156.538 138.443 156.367 138.331 156.071 138.114C155.775 137.897 155.347 137.581 154.88 137.121C154.413 136.66 153.9 136.028 153.624 135.186C153.492 134.765 153.42 134.291 153.485 133.811C153.518 133.574 153.577 133.324 153.702 133.094C153.827 132.87 154.031 132.653 154.308 132.58C154.578 132.508 154.893 132.561 155.091 132.784C155.295 133.015 155.262 133.35 155.124 133.574C154.992 133.811 154.716 133.942 154.466 133.949C154.216 133.962 153.979 133.877 153.781 133.745C153.4 133.469 153.216 133.061 153.084 132.699C152.959 132.33 152.893 131.962 152.88 131.633C152.854 130.968 153.005 130.435 153.143 130.1C153.216 129.929 153.281 129.804 153.334 129.718C153.387 129.639 153.413 129.593 153.42 129.6C153.472 129.606 152.952 130.323 153.025 131.626C153.044 131.942 153.117 132.291 153.242 132.646C153.373 132.995 153.558 133.37 153.887 133.594C154.196 133.817 154.736 133.844 154.946 133.475C155.051 133.304 155.065 133.067 154.933 132.923C154.808 132.771 154.564 132.725 154.36 132.784C153.933 132.909 153.735 133.409 153.683 133.844C153.624 134.291 153.683 134.739 153.801 135.14C154.051 135.949 154.532 136.568 154.979 137.035C155.9 137.937 156.578 138.397 156.545 138.43Z" fill="white"/>
<path d="M153.136 129.179C153.189 129.192 152.834 130.547 152.34 132.199C151.847 133.85 151.406 135.173 151.347 135.16C151.294 135.147 151.649 133.791 152.143 132.14C152.636 130.488 153.077 129.159 153.136 129.179Z" fill="white"/>
<path d="M153.117 143.483C153.11 143.477 153.196 143.405 153.36 143.273C153.558 143.115 153.795 142.931 154.084 142.7C154.762 142.181 155.663 141.477 156.769 140.621C157.92 139.746 159.276 138.72 160.776 137.581C161.151 137.298 161.539 137.002 161.934 136.706C162.342 136.417 162.704 136.094 163.053 135.712C163.744 134.962 164.395 134.114 164.902 133.159C165.843 131.212 166.145 129.093 165.981 127.231C165.796 125.362 164.974 123.796 164.099 122.697C163.204 121.592 162.217 120.94 161.493 120.625C161.131 120.467 160.835 120.361 160.631 120.309C160.427 120.25 160.322 120.21 160.329 120.203C160.329 120.197 160.44 120.217 160.644 120.269C160.855 120.309 161.151 120.401 161.526 120.552C162.27 120.855 163.289 121.493 164.211 122.612C165.112 123.724 165.968 125.303 166.172 127.224C166.349 129.119 166.053 131.271 165.086 133.265C164.566 134.245 163.901 135.094 163.197 135.857C162.849 136.232 162.454 136.588 162.046 136.864C161.651 137.16 161.263 137.45 160.881 137.733C159.374 138.858 158.012 139.871 156.848 140.74C155.729 141.569 154.814 142.253 154.13 142.76C153.834 142.977 153.584 143.154 153.387 143.299C153.216 143.424 153.117 143.49 153.117 143.483Z" fill="#263238"/>
<path d="M148.418 131.6C148.418 131.6 150.893 130.685 152.255 130.218C153.617 129.751 156.828 126.757 156.828 126.757C156.828 126.757 157.552 128.659 156.815 130.087C156.078 131.514 154.479 132.561 154.479 132.561L153.294 134.693L148.418 131.6Z" fill="#AE7461"/>
<path d="M144.043 113.663C144.043 113.663 161.052 87.3363 161.862 88.1457C162.671 88.955 170.33 95.6008 170.33 95.6008L158.789 113.084L144.043 113.663Z" fill="#E0E0E0"/>
<path d="M143.102 101.01C143.102 101.01 145.701 100.345 147.056 103.977C147.056 103.977 146.392 102.194 146.319 101.082C146.24 99.8054 146.609 98.2723 146.609 98.2723L143.102 101.01Z" fill="#263238"/>
<path d="M154.13 149.807C154.13 149.807 154.104 149.59 154.084 149.182C154.058 148.741 154.025 148.142 153.985 147.392C153.9 145.806 153.781 143.562 153.63 140.799C153.294 135.239 152.801 127.534 151.274 119.17C149.754 110.801 147.228 103.471 144.786 98.4631C143.582 95.9561 142.464 93.9953 141.635 92.6727C141.24 92.0016 140.891 91.5081 140.674 91.1593C140.45 90.8106 140.345 90.6263 140.345 90.6263C140.345 90.6263 140.477 90.7974 140.707 91.1396C140.931 91.4817 141.292 91.9687 141.7 92.6332C142.543 93.9427 143.688 95.8969 144.911 98.4039C147.399 103.398 149.952 110.748 151.472 119.137C152.998 127.52 153.472 135.232 153.768 140.792C153.913 143.576 153.998 145.833 154.058 147.392C154.084 148.149 154.104 148.747 154.117 149.188C154.137 149.59 154.13 149.807 154.13 149.807Z" fill="#263238"/>
<path d="M136.996 99.3712C135.574 99.0882 134.015 99.6409 133.081 100.753C136.864 102.444 141.398 101.951 145.214 100.332L136.996 99.3712Z" fill="#FF725E"/>
<g opacity="0.3">
<g opacity="0.3">
<g opacity="0.3">
<path opacity="0.3" d="M136.996 99.3712C135.574 99.0882 134.015 99.6409 133.081 100.753C136.864 102.444 141.398 101.951 145.214 100.332L136.996 99.3712Z" fill="black"/>
</g>
</g>
</g>
<path d="M148.886 89.4419C148.155 90.4421 147.543 91.7581 147.747 92.9754L146.037 99.7002C147.662 98.6408 148.879 96.976 149.399 95.1139C149.912 93.2386 149.728 91.1856 148.886 89.4419Z" fill="#FF725E"/>
<g opacity="0.3">
<g opacity="0.3">
<g opacity="0.3">
<path opacity="0.3" d="M148.886 89.4419C148.155 90.4421 147.543 91.7581 147.747 92.9754L146.037 99.7002C147.662 98.6408 148.879 96.976 149.399 95.1139C149.912 93.2386 149.728 91.1856 148.886 89.4419Z" fill="black"/>
</g>
</g>
</g>
<path d="M133.469 96.6602C133.469 96.6602 139.608 102.753 144.701 100.588C149.794 98.4236 147.01 89.5933 147.241 88.3168C147.464 87.0468 147.385 87.3298 146.53 87.2705C145.675 87.2113 142.681 86.2243 139.516 90.396C139.509 90.396 133.864 91.8371 133.469 96.6602Z" fill="#FF725E"/>
<path d="M135.18 98.1144C135.173 98.1144 135.14 98.0617 135.101 97.9367C135.061 97.8183 135.015 97.6275 135.048 97.3906C135.074 97.1471 135.186 96.8708 135.357 96.5747C135.528 96.2786 135.818 95.9825 136.206 95.7851C136.594 95.5679 137.101 95.5679 137.575 95.5219C137.812 95.4955 138.055 95.4363 138.239 95.2784C138.43 95.1271 138.562 94.8968 138.7 94.6533C138.838 94.4164 139.003 94.1466 139.253 93.9624C139.496 93.7716 139.792 93.6466 140.115 93.6005C140.431 93.5479 140.773 93.6005 141.069 93.7189C141.365 93.8242 141.661 93.9558 141.931 93.89C142.207 93.8308 142.398 93.561 142.674 93.3702C142.964 93.1662 143.345 93.1531 143.648 93.2583C144.293 93.4821 144.615 94.0677 144.865 94.5546C145.385 95.5613 145.596 96.5812 145.648 97.4235C145.701 98.2723 145.596 98.9632 145.491 99.4238C145.431 99.6541 145.385 99.8318 145.339 99.9502C145.3 100.069 145.273 100.128 145.267 100.128C145.214 100.121 145.629 99.1146 145.504 97.4366C145.438 96.6076 145.214 95.6206 144.701 94.6401C144.451 94.1598 144.128 93.6268 143.589 93.4492C143.326 93.3636 143.023 93.3768 142.793 93.5413C142.556 93.6992 142.358 94.0019 141.983 94.094C141.608 94.173 141.286 94.015 141.003 93.9163C140.72 93.8045 140.431 93.765 140.148 93.8045C139.562 93.8834 139.115 94.2651 138.864 94.7586C138.726 94.9955 138.575 95.2455 138.351 95.4297C138.121 95.614 137.838 95.6732 137.588 95.6995C137.081 95.739 136.634 95.7258 136.265 95.9232C135.522 96.2851 135.219 96.9826 135.127 97.4103C135.061 97.8578 135.213 98.1078 135.18 98.1144Z" fill="#263238"/>
<path d="M147.366 87.3298C147.379 87.3758 146.879 87.3495 146.293 87.7706C146.01 87.9812 145.708 88.3036 145.543 88.7445C145.352 89.1722 145.451 89.7249 145.247 90.2973C145.142 90.5934 144.905 90.7974 144.714 90.9685C144.517 91.1396 144.365 91.3238 144.247 91.5278C144.023 91.9358 143.964 92.3766 143.99 92.7319C144.043 93.4557 144.385 93.8176 144.346 93.8374C144.339 93.844 144.247 93.7716 144.135 93.5873C144.023 93.4097 143.885 93.1267 143.846 92.7451C143.8 92.37 143.846 91.8963 144.082 91.4423C144.201 91.2185 144.379 91.0014 144.576 90.8237C144.773 90.6461 144.964 90.4684 145.05 90.225C145.234 89.738 145.148 89.159 145.359 88.6787C145.55 88.2049 145.892 87.8627 146.201 87.6588C146.524 87.4482 146.826 87.3627 147.03 87.3363C147.247 87.3034 147.366 87.3232 147.366 87.3298Z" fill="#263238"/>
<path d="M143.99 93.1925C143.957 93.2254 143.595 92.7319 142.779 92.2516C142.372 92.0213 141.839 91.7976 141.227 91.7647C140.615 91.7318 139.917 91.8831 139.358 92.3174C139.075 92.5345 138.884 92.8109 138.687 93.1004C138.496 93.3834 138.233 93.6729 137.904 93.7782C137.588 93.89 137.285 93.9098 137.042 94.015C136.792 94.1137 136.581 94.2651 136.436 94.4362C136.134 94.7849 136.114 95.1994 136.173 95.4429C136.232 95.6995 136.344 95.8048 136.331 95.818C136.324 95.8245 136.298 95.7982 136.246 95.7456C136.199 95.6929 136.14 95.6008 136.094 95.4626C136.002 95.206 135.995 94.7454 136.318 94.344C136.476 94.1466 136.7 93.9756 136.969 93.8571C137.239 93.7321 137.555 93.6992 137.831 93.6005C138.424 93.4228 138.595 92.6201 139.226 92.1595C139.832 91.6857 140.588 91.5344 141.233 91.5804C141.891 91.6265 142.437 91.8765 142.852 92.1332C143.266 92.3964 143.549 92.6727 143.734 92.8701C143.918 93.0609 144.003 93.186 143.99 93.1925Z" fill="#263238"/>
<path d="M145.319 89.7841C145.293 89.8104 145.128 89.5538 144.707 89.4814C144.503 89.4485 144.24 89.4748 144.023 89.6262C143.911 89.7051 143.799 89.817 143.648 89.9091C143.49 90.0012 143.299 90.0276 143.128 90.0407C142.431 89.9881 142.016 90.4882 141.832 90.8764C141.641 91.2646 141.549 91.5344 141.516 91.5212C141.496 91.5146 141.529 91.2383 141.7 90.8106C141.786 90.6 141.924 90.35 142.167 90.1394C142.286 90.0341 142.431 89.9486 142.602 89.896C142.773 89.8433 142.951 89.8433 143.115 89.8302C143.28 89.817 143.431 89.7973 143.549 89.7249C143.674 89.6591 143.786 89.5472 143.918 89.4617C144.194 89.2774 144.51 89.2709 144.734 89.3301C145.214 89.4683 145.346 89.7841 145.319 89.7841Z" fill="#263238"/>
<g opacity="0.3">
<g opacity="0.3">
<g opacity="0.3">
<path opacity="0.3" d="M145.023 88.501C144.688 88.2641 144.234 88.2575 143.826 88.3168C143.049 88.422 142.26 88.7445 141.819 89.3893C141.582 89.738 141.424 90.1855 141.049 90.3697C140.773 90.5013 140.45 90.4553 140.147 90.4684C139.621 90.5013 139.108 90.7382 138.752 91.1264C138.384 91.5278 138.18 92.0674 137.752 92.3964C137.423 92.6464 137.002 92.7451 136.627 92.9162C136.088 93.1662 135.634 93.5873 135.351 94.1072C135.14 94.4888 135.028 94.956 135.193 95.3574C135.357 95.7587 135.89 96.0154 136.259 95.7785L136.285 95.7324C136.042 95.1271 136.278 94.3704 136.825 94.015C137.318 93.6926 137.983 93.686 138.43 93.3044C138.72 93.0609 138.871 92.6925 139.114 92.3964C139.417 92.0279 139.865 91.7778 140.345 91.7186C140.707 91.6726 141.22 91.7844 141.523 91.5804C141.523 91.5804 141.72 90.8698 141.911 90.5934C142.641 89.5012 142.891 90.1197 143.418 89.896C143.707 89.7709 143.977 89.4946 144.293 89.4419C144.609 89.3893 144.944 89.4156 145.221 89.5735C145.504 89.2906 145.365 88.7445 145.023 88.501Z" fill="black"/>
</g>
</g>
</g>
<g opacity="0.3">
<g opacity="0.3">
<g opacity="0.3">
<path opacity="0.3" d="M145.372 99.8252C145.53 99.0224 145.727 98.2262 145.819 97.4103C145.911 96.5944 145.898 95.7587 145.661 94.9757C145.425 94.1927 144.931 93.4689 144.234 93.0478C143.53 92.6267 142.602 92.5609 141.891 92.9754C141.713 93.0807 141.549 93.2123 141.352 93.2715C140.97 93.3899 140.562 93.232 140.167 93.2057C139.654 93.1794 139.141 93.3965 138.805 93.7847C138.443 94.1993 138.272 94.8112 137.772 95.0481C137.561 95.1468 137.331 95.1665 137.107 95.2192C136.884 95.2784 136.653 95.3903 136.568 95.6074C137.285 95.739 138.062 95.489 138.568 94.9626C138.798 94.7257 138.97 94.4427 139.18 94.1927C139.391 93.9427 139.66 93.7124 139.983 93.6531C140.509 93.5544 141.023 93.9098 141.562 93.89C142.286 93.8637 142.885 93.1728 143.602 93.2452C144.168 93.3044 144.563 93.8111 144.839 94.3111C145.385 95.3179 145.694 96.4496 145.734 97.588" fill="black"/>
</g>
</g>
</g>
<path d="M149.346 109.787C146.622 107.28 142.372 105.563 138.66 105.431C140.259 106.609 141.891 107.8 143.766 108.688C145.642 109.583 147.649 110.077 149.346 109.787Z" fill="#263238"/>
<path d="M148.688 108.024C148.168 104.05 149.859 99.7594 152.946 97.1998C153.13 101.312 151.695 105.221 148.688 108.024Z" fill="#263238"/>
<path d="M151.268 118.749C151.347 114.735 153.61 110.695 157.032 108.596C156.295 112.485 154.15 116.032 151.268 118.749Z" fill="#263238"/>
<path d="M161.855 90.8566C161.855 90.8566 164.421 91.6265 163.711 95.4429C163.711 95.4429 164.059 93.5676 164.573 92.5872C165.165 91.4554 166.27 90.3302 166.27 90.3302L161.855 90.8566Z" fill="#263238"/>
<path d="M152.755 136.292C152.755 136.292 152.775 136.094 152.834 135.712C152.9 135.305 152.985 134.752 153.097 134.061C153.334 132.626 153.689 130.554 154.222 128.014C154.755 125.474 155.492 122.46 156.512 119.184C157.019 117.545 157.598 115.834 158.223 114.071C158.861 112.314 159.526 110.498 160.21 108.642C161.526 104.912 162.559 101.273 163.289 97.9236C164.02 94.5743 164.448 91.5081 164.671 88.9287C164.895 86.3428 164.921 84.2437 164.908 82.7961C164.908 82.0723 164.875 81.5065 164.869 81.1248C164.862 80.7432 164.862 80.5392 164.862 80.5392C164.862 80.5392 164.882 80.7366 164.908 81.1182C164.928 81.4999 164.974 82.0658 164.987 82.7896C165.027 84.2437 165.02 86.3493 164.816 88.9419C164.612 91.5344 164.198 94.6072 163.474 97.9696C162.75 101.332 161.723 104.977 160.401 108.715C159.717 110.577 159.052 112.393 158.414 114.143C157.789 115.9 157.21 117.604 156.696 119.243C155.663 122.513 154.92 125.514 154.367 128.047C153.814 130.58 153.439 132.646 153.176 134.074C153.051 134.765 152.952 135.311 152.88 135.719C152.801 136.094 152.755 136.292 152.755 136.292Z" fill="#263238"/>
<path d="M155.847 82.1579C155.847 82.1579 157.96 90.5474 163.441 91.3238C168.922 92.1003 171.1 83.0988 171.949 82.125C172.797 81.1511 172.58 81.3551 171.876 80.855C171.179 80.3615 169.119 77.973 164.257 79.9075C164.257 79.9075 158.677 78.2296 155.847 82.1579Z" fill="#FF725E"/>
<path d="M156.565 84.2832C156.558 84.2832 156.558 84.2174 156.591 84.0924C156.617 83.974 156.677 83.7897 156.828 83.5923C156.979 83.3949 157.216 83.2173 157.512 83.0528C157.815 82.8883 158.21 82.783 158.644 82.8159C159.091 82.829 159.526 83.0922 159.953 83.2962C160.171 83.3949 160.407 83.4673 160.651 83.4344C160.894 83.4015 161.125 83.2765 161.368 83.1383C161.612 83.0001 161.888 82.8619 162.197 82.829C162.506 82.7896 162.822 82.8356 163.118 82.9606C163.414 83.0791 163.684 83.3028 163.875 83.5528C164.072 83.7963 164.257 84.0595 164.527 84.145C164.79 84.2372 165.099 84.099 165.435 84.0792C165.79 84.0529 166.119 84.2372 166.329 84.4872C166.764 85.0136 166.737 85.6782 166.705 86.2243C166.626 87.3561 166.29 88.3365 165.889 89.0866C165.494 89.8433 165.046 90.3763 164.724 90.7185C164.553 90.883 164.421 91.0146 164.323 91.0935C164.224 91.1725 164.171 91.212 164.171 91.2054C164.125 91.1725 165.007 90.5276 165.764 89.0208C166.132 88.2773 166.454 87.31 166.514 86.2112C166.547 85.6716 166.547 85.0531 166.178 84.6188C165.994 84.4082 165.731 84.2635 165.448 84.2832C165.165 84.2898 164.836 84.4543 164.467 84.3424C164.105 84.2174 163.915 83.9147 163.724 83.6844C163.54 83.441 163.316 83.2567 163.046 83.1449C162.506 82.908 161.921 83.0067 161.46 83.3028C161.217 83.4344 160.96 83.5726 160.677 83.6121C160.388 83.6515 160.111 83.5594 159.888 83.4476C159.434 83.2173 159.052 82.9738 158.637 82.9541C157.815 82.8751 157.196 83.316 156.894 83.6384C156.598 84.0069 156.598 84.2964 156.565 84.2832Z" fill="#263238"/>
<path d="M172.567 81.342C172.554 81.388 172.146 81.1051 171.422 81.1643C171.067 81.1972 170.646 81.3156 170.277 81.6052C169.896 81.8749 169.698 82.3948 169.224 82.783C168.981 82.9804 168.672 83.0396 168.422 83.0857C168.165 83.1317 167.935 83.2107 167.731 83.3291C167.329 83.566 167.047 83.9082 166.889 84.224C166.56 84.8754 166.665 85.3558 166.625 85.3558C166.619 85.3558 166.573 85.2439 166.573 85.0333C166.573 84.8228 166.599 84.507 166.764 84.1648C166.915 83.8161 167.204 83.441 167.639 83.1712C167.856 83.0396 168.119 82.9409 168.382 82.8948C168.645 82.8422 168.895 82.7896 169.099 82.6251C169.507 82.3026 169.738 81.7631 170.165 81.4604C170.573 81.1511 171.041 81.0393 171.416 81.0195C171.797 81.0064 172.1 81.0853 172.291 81.1709C172.482 81.2564 172.574 81.3354 172.567 81.342Z" fill="#263238"/>
<path d="M166.652 84.6188C166.612 84.632 166.553 84.02 166.099 83.1844C165.869 82.7764 165.527 82.3092 165.02 81.9671C164.513 81.6249 163.836 81.3946 163.132 81.4736C162.783 81.513 162.467 81.6512 162.151 81.8026C161.842 81.9473 161.467 82.0592 161.131 81.9736C160.802 81.9013 160.532 81.7697 160.269 81.7302C160.006 81.6907 159.749 81.7104 159.532 81.7762C159.091 81.9144 158.861 82.2632 158.789 82.5066C158.71 82.7567 158.749 82.908 158.73 82.908C158.723 82.908 158.71 82.8751 158.697 82.8027C158.683 82.7303 158.683 82.6185 158.71 82.4869C158.762 82.2237 158.993 81.8223 159.48 81.6446C159.717 81.5591 159.999 81.5262 160.289 81.5657C160.585 81.6052 160.868 81.7368 161.164 81.7894C161.763 81.9473 162.322 81.3485 163.105 81.2696C163.869 81.1775 164.592 81.4341 165.125 81.8091C165.665 82.1908 166.007 82.6843 166.224 83.1186C166.441 83.5528 166.547 83.9411 166.599 84.2043C166.658 84.4675 166.665 84.6188 166.652 84.6188Z" fill="#263238"/>
<path d="M169.547 82.3882C169.514 82.4013 169.501 82.0921 169.178 81.8091C169.021 81.6775 168.784 81.5591 168.52 81.5854C168.382 81.592 168.231 81.6315 168.053 81.6315C167.869 81.6315 167.691 81.5525 167.54 81.4736C166.968 81.0656 166.356 81.2827 165.994 81.5196C165.625 81.7565 165.415 81.9407 165.388 81.9144C165.375 81.8947 165.546 81.6775 165.908 81.4012C166.092 81.2696 166.343 81.1248 166.652 81.0722C166.81 81.0459 166.981 81.0459 167.152 81.0919C167.323 81.138 167.481 81.2235 167.626 81.3025C167.77 81.3814 167.915 81.4341 168.053 81.4407C168.198 81.4472 168.349 81.4143 168.507 81.4078C168.836 81.3946 169.113 81.5525 169.277 81.717C169.619 82.0592 169.567 82.4013 169.547 82.3882Z" fill="#263238"/>
<g opacity="0.3">
<g opacity="0.3">
<g opacity="0.3">
<path opacity="0.3" d="M169.955 81.138C169.791 80.7563 169.402 80.526 169.027 80.3615C168.31 80.0523 167.468 79.9207 166.751 80.2431C166.369 80.4142 166.001 80.7234 165.586 80.684C165.283 80.6511 165.033 80.4471 164.763 80.3023C164.296 80.0589 163.737 79.9996 163.23 80.151C162.711 80.3023 162.257 80.6642 161.717 80.7234C161.302 80.7695 160.894 80.6313 160.486 80.5853C159.901 80.5195 159.289 80.6511 158.776 80.9472C158.401 81.1643 158.058 81.5065 157.993 81.9342C157.927 82.3619 158.249 82.8554 158.684 82.8422L158.723 82.8159C158.828 82.1776 159.421 81.6512 160.072 81.6249C160.658 81.5986 161.237 81.9407 161.816 81.8486C162.191 81.7894 162.513 81.5525 162.868 81.4209C163.322 81.263 163.829 81.2827 164.27 81.4736C164.606 81.6249 164.987 81.9868 165.349 81.9605C165.349 81.9605 165.889 81.4604 166.191 81.3156C167.382 80.7563 167.277 81.4143 167.843 81.4999C168.159 81.5459 168.534 81.4472 168.83 81.5591C169.126 81.6775 169.402 81.8684 169.554 82.1513C169.962 82.0526 170.126 81.513 169.955 81.138Z" fill="black"/>
</g>
</g>
</g>
<g opacity="0.3">
<g opacity="0.3">
<g opacity="0.3">
<path opacity="0.3" d="M164.408 91.008C164.961 90.4026 165.54 89.817 166.033 89.1722C166.533 88.5208 166.955 87.8035 167.152 87.0073C167.349 86.2112 167.31 85.3426 166.922 84.6188C166.533 83.895 165.777 83.362 164.954 83.3489C164.75 83.3489 164.54 83.3752 164.342 83.3291C163.954 83.237 163.691 82.8883 163.362 82.6645C162.941 82.375 162.381 82.2961 161.895 82.454C161.375 82.6251 160.908 83.0528 160.361 83.0001C160.131 82.9804 159.921 82.8685 159.703 82.8027C159.48 82.7369 159.223 82.7172 159.039 82.8554C159.585 83.3357 160.381 83.5199 161.085 83.3357C161.401 83.2502 161.697 83.0988 162.006 82.9935C162.316 82.8883 162.664 82.829 162.974 82.9475C163.474 83.1317 163.737 83.7042 164.204 83.9674C164.836 84.3161 165.704 84.0332 166.283 84.4675C166.737 84.8096 166.816 85.4545 166.79 86.0203C166.737 87.1653 166.422 88.2904 165.862 89.2906" fill="black"/>
</g>
</g>
</g>
<path d="M162.671 101.595C161.631 98.042 158.881 94.3769 155.769 92.3503C156.532 94.1861 157.315 96.0483 158.46 97.7788C159.605 99.5093 161.065 100.964 162.671 101.595Z" fill="#263238"/>
<path d="M163.013 99.7462C164.619 96.0746 168.284 93.2715 172.251 92.6727C170.291 96.2917 167.04 98.8974 163.013 99.7462Z" fill="#263238"/>
<path d="M157.611 116.005C158.782 112.163 162.059 108.892 165.928 107.813C164.158 111.353 161.125 114.176 157.611 116.005Z" fill="#263238"/>
<path d="M149.741 85.1715C149.741 85.1715 152.656 84.9478 153.426 89.1064C153.426 89.1064 153.044 87.06 153.183 85.8624C153.34 84.4806 154.025 82.9014 154.025 82.9014L149.741 85.1715Z" fill="#455A64"/>
<path d="M152.755 132.172C152.755 132.172 152.768 131.975 152.821 131.6C152.873 131.199 152.946 130.652 153.038 129.968C153.229 128.514 153.505 126.474 153.84 123.961C154.156 121.421 154.492 118.394 154.696 115.018C154.887 111.643 154.985 107.919 154.926 104.023C154.86 100.121 154.545 96.4102 154.077 93.0609C153.59 89.7117 152.939 86.7376 152.255 84.2701C151.57 81.8026 150.879 79.8549 150.373 78.5191C150.123 77.848 149.899 77.3413 149.767 76.986C149.629 76.6373 149.563 76.4464 149.563 76.4464C149.563 76.4464 149.656 76.6241 149.807 76.9663C149.952 77.315 150.189 77.8151 150.452 78.4862C150.985 79.8154 151.702 81.7631 152.399 84.2306C153.104 86.6981 153.768 89.6788 154.268 93.0346C154.749 96.3904 155.071 100.108 155.137 104.017C155.196 107.925 155.091 111.649 154.887 115.032C154.676 118.414 154.327 121.447 153.992 123.98C153.65 126.52 153.34 128.567 153.123 129.981C153.018 130.666 152.932 131.205 152.867 131.613C152.794 131.975 152.755 132.172 152.755 132.172Z" fill="#455A64"/>
<path d="M143.49 82.2632C142.016 81.6907 140.24 81.9868 139.029 83.0067C142.773 85.5334 147.734 85.8559 152.136 84.8425L143.49 82.2632Z" fill="#FF725E"/>
<g opacity="0.3">
<g opacity="0.3">
<g opacity="0.3">
<path opacity="0.3" d="M143.49 82.2632C142.016 81.6907 140.24 81.9868 139.029 83.0067C142.773 85.5334 147.734 85.8559 152.136 84.8425L143.49 82.2632Z" fill="black"/>
</g>
</g>
</g>
<path d="M158.13 73.8408C157.157 74.7751 156.255 76.0714 156.242 77.4203L153.136 84.3095C155.077 83.4805 156.703 81.921 157.611 80.0194C158.519 78.1112 158.709 75.874 158.13 73.8408Z" fill="#FF725E"/>
<g opacity="0.3">
<g opacity="0.3">
<g opacity="0.3">
<path opacity="0.3" d="M158.13 73.8408C157.157 74.7751 156.255 76.0714 156.242 77.4203L153.136 84.3095C155.077 83.4805 156.703 81.921 157.611 80.0194C158.519 78.1112 158.709 75.874 158.13 73.8408Z" fill="black"/>
</g>
</g>
</g>
<path d="M140.22 78.6836C140.22 78.6836 145.661 86.3822 151.537 85.0202C157.413 83.6581 156.091 73.6499 156.578 72.3274C157.058 71.0048 156.913 71.2943 156.012 71.064C155.104 70.8337 152.077 69.215 147.892 73.0906C147.885 73.0972 141.549 73.5841 140.22 78.6836Z" fill="#FF725E"/>
<path d="M141.786 80.5655C141.779 80.5655 141.753 80.4997 141.74 80.3615C141.72 80.2299 141.707 80.0194 141.786 79.7628C141.858 79.5061 142.036 79.2298 142.273 78.9468C142.516 78.6639 142.878 78.4007 143.332 78.2625C143.793 78.1046 144.332 78.1967 144.852 78.2428C145.115 78.2559 145.385 78.2428 145.615 78.1112C145.852 77.9796 146.036 77.7624 146.234 77.5255C146.425 77.2952 146.655 77.0452 146.958 76.8873C147.254 76.7294 147.596 76.6504 147.945 76.657C148.293 76.6636 148.649 76.782 148.945 76.9662C149.241 77.1373 149.53 77.3347 149.846 77.315C150.155 77.3018 150.412 77.0452 150.741 76.8939C151.083 76.7294 151.498 76.7886 151.8 76.9531C152.445 77.315 152.682 77.9993 152.86 78.5652C153.228 79.743 153.268 80.8748 153.163 81.7894C153.057 82.7106 152.82 83.4344 152.623 83.9082C152.518 84.145 152.432 84.3227 152.366 84.4411C152.301 84.5596 152.261 84.6188 152.255 84.6188C152.235 84.6122 152.366 84.3556 152.551 83.8753C152.722 83.3949 152.939 82.6777 153.024 81.7696C153.11 80.8682 153.057 79.7628 152.689 78.6178C152.511 78.0585 152.268 77.4203 151.715 77.1242C151.445 76.9794 151.116 76.9333 150.833 77.0715C150.544 77.1965 150.281 77.4795 149.866 77.5124C149.458 77.5321 149.142 77.2953 148.853 77.1373C148.57 76.9597 148.267 76.861 147.951 76.8544C147.635 76.8478 147.326 76.9136 147.063 77.0518C146.793 77.19 146.589 77.4071 146.392 77.6374C146.194 77.8677 145.99 78.1046 145.714 78.2559C145.438 78.4073 145.122 78.4204 144.852 78.4007C144.299 78.3415 143.819 78.2493 143.385 78.3941C142.516 78.6441 142.056 79.335 141.878 79.7825C141.7 80.2694 141.819 80.5655 141.786 80.5655Z" fill="#263238"/>
<path d="M156.9 71.2877C156.907 71.3338 156.38 71.2088 155.663 71.5575C155.314 71.7286 154.933 72.0181 154.669 72.459C154.387 72.8867 154.387 73.4986 154.058 74.0711C153.886 74.3606 153.604 74.5448 153.36 74.6896C153.117 74.8409 152.913 75.0054 152.755 75.2094C152.439 75.6108 152.288 76.0714 152.248 76.453C152.169 77.2426 152.472 77.6901 152.426 77.7032C152.419 77.7098 152.334 77.6111 152.248 77.394C152.162 77.1834 152.07 76.8544 152.103 76.4399C152.123 76.0319 152.268 75.5318 152.603 75.091C152.768 74.8738 153.005 74.6764 153.248 74.5185C153.492 74.3606 153.735 74.2092 153.873 73.9592C154.163 73.4657 154.183 72.8274 154.498 72.3537C154.794 71.8799 155.216 71.5838 155.591 71.4193C155.972 71.2548 156.314 71.2153 156.538 71.2285C156.775 71.2351 156.9 71.2811 156.9 71.2877Z" fill="#263238"/>
<path d="M152.169 76.9465C152.13 76.9728 151.833 76.3741 151.05 75.7029C150.656 75.3739 150.129 75.0383 149.471 74.8804C148.82 74.7291 148.037 74.762 147.352 75.1239C147.01 75.3015 146.747 75.5647 146.484 75.8411C146.227 76.1109 145.892 76.3675 145.517 76.4135C145.155 76.4728 144.832 76.4399 144.543 76.5057C144.253 76.5649 144.003 76.6899 143.806 76.8478C143.411 77.1637 143.319 77.6111 143.339 77.8875C143.358 78.1704 143.457 78.3086 143.437 78.3217C143.437 78.3217 143.306 78.2033 143.26 77.9006C143.214 77.6111 143.293 77.111 143.714 76.7425C143.918 76.5649 144.194 76.4201 144.503 76.3477C144.819 76.2688 145.161 76.2951 145.477 76.2359C146.155 76.1569 146.49 75.3278 147.247 74.9462C147.984 74.558 148.82 74.5317 149.504 74.7027C150.195 74.8804 150.741 75.2423 151.136 75.5976C151.531 75.9529 151.787 76.3017 151.945 76.5517C152.116 76.7886 152.182 76.9399 152.169 76.9465Z" fill="#263238"/>
<path d="M154.242 73.5381C154.215 73.5644 154.084 73.2551 153.643 73.0906C153.432 73.0183 153.143 72.9919 152.88 73.117C152.741 73.1762 152.603 73.2815 152.426 73.3473C152.241 73.4196 152.031 73.4131 151.847 73.3933C151.103 73.2025 150.557 73.6697 150.287 74.0513C150.004 74.433 149.866 74.7093 149.833 74.6896C149.813 74.6764 149.906 74.3935 150.169 73.9658C150.3 73.7552 150.498 73.5183 150.794 73.3407C150.939 73.2551 151.116 73.1828 151.307 73.163C151.498 73.1367 151.689 73.1696 151.866 73.1893C152.044 73.2091 152.215 73.2157 152.36 73.163C152.511 73.1104 152.649 73.0183 152.807 72.9459C153.136 72.8011 153.472 72.8538 153.702 72.959C154.176 73.1828 154.261 73.5447 154.242 73.5381Z" fill="#263238"/>
<g opacity="0.3">
<g opacity="0.3">
<g opacity="0.3">
<path opacity="0.3" d="M154.163 72.1102C153.847 71.7878 153.36 71.7023 152.913 71.6825C152.064 71.6496 151.149 71.847 150.557 72.459C150.235 72.788 149.985 73.242 149.544 73.3604C149.221 73.446 148.886 73.3341 148.557 73.3012C147.984 73.2354 147.392 73.3999 146.938 73.7486C146.471 74.1105 146.148 74.6501 145.622 74.9199C145.221 75.1304 144.753 75.1502 144.313 75.2686C143.687 75.4331 143.122 75.8082 142.72 76.3083C142.424 76.6767 142.214 77.1571 142.312 77.6177C142.418 78.0783 142.937 78.4533 143.372 78.2691L143.405 78.2296C143.26 77.5387 143.655 76.7689 144.306 76.4859C144.898 76.2293 145.609 76.3543 146.162 76.0253C146.517 75.8148 146.754 75.4463 147.07 75.1765C147.464 74.8343 147.991 74.6567 148.517 74.683C148.919 74.7027 149.445 74.9199 149.807 74.7554C149.807 74.7554 150.156 74.0316 150.412 73.7684C151.406 72.7353 151.551 73.446 152.162 73.3012C152.498 73.2222 152.84 72.9788 153.189 72.9788C153.538 72.9788 153.893 73.0709 154.156 73.2946C154.525 73.038 154.479 72.4261 154.163 72.1102Z" fill="black"/>
</g>
</g>
</g>
<g opacity="0.3">
<g opacity="0.3">
<g opacity="0.3">
<path opacity="0.3" d="M152.4 84.3227C152.722 83.4936 153.084 82.6711 153.334 81.8157C153.584 80.9603 153.735 80.0589 153.623 79.1771C153.512 78.2888 153.13 77.4203 152.452 76.8412C151.774 76.2622 150.794 76.0122 149.952 76.3214C149.741 76.4004 149.537 76.5122 149.32 76.5386C148.886 76.5978 148.484 76.3477 148.057 76.2425C147.517 76.1174 146.918 76.2556 146.484 76.6044C146.017 76.986 145.714 77.6045 145.142 77.7624C144.898 77.8282 144.642 77.8019 144.392 77.8217C144.142 77.8414 143.872 77.9204 143.74 78.1375C144.49 78.4139 145.365 78.2888 146.01 77.8217C146.3 77.6111 146.537 77.3413 146.813 77.111C147.089 76.8807 147.418 76.6899 147.774 76.6833C148.359 76.6767 148.846 77.1505 149.425 77.236C150.202 77.3479 150.978 76.7162 151.735 76.9334C152.327 77.1044 152.663 77.723 152.86 78.3086C153.255 79.4864 153.373 80.7629 153.202 82" fill="black"/>
</g>
</g>
</g>
<path d="M154.735 96.7852C152.531 93.8111 148.675 91.3304 145.056 90.5079C146.412 91.9621 147.787 93.436 149.458 94.6665C151.136 95.8903 153.011 96.7523 154.735 96.7852Z" fill="#455A64"/>
<path d="M154.268 93.765C154.498 89.7644 156.972 85.8624 160.48 83.9279C159.894 88.0075 157.749 91.5739 154.268 93.765Z" fill="#455A64"/>
<path d="M155.012 106.109C155.841 102.181 158.822 98.6342 162.579 97.2195C161.125 100.898 158.354 103.984 155.012 106.109Z" fill="#455A64"/>
<path d="M151.781 168.685C151.774 168.685 151.788 168.593 151.807 168.428C151.84 168.218 151.88 167.974 151.932 167.691C152.051 167.053 152.196 166.125 152.353 164.98C152.676 162.691 152.979 159.506 153.189 155.972C153.4 152.445 153.577 149.241 153.794 146.938C153.9 145.786 154.005 144.852 154.091 144.207C154.13 143.918 154.163 143.681 154.196 143.47C154.222 143.299 154.242 143.214 154.248 143.214C154.255 143.214 154.255 143.306 154.242 143.477C154.222 143.687 154.202 143.931 154.176 144.22C154.11 144.865 154.031 145.8 153.946 146.951C153.762 149.261 153.61 152.459 153.4 155.992C153.189 159.526 152.867 162.717 152.505 165.007C152.321 166.152 152.156 167.079 152.018 167.711C151.959 167.994 151.899 168.231 151.86 168.441C151.814 168.599 151.788 168.685 151.781 168.685Z" fill="#263238"/>
<path d="M155.426 163.171C155.42 163.171 155.407 163.098 155.393 162.954C155.38 162.769 155.36 162.565 155.341 162.335C155.301 161.796 155.249 161.013 155.209 160.045C155.124 158.111 155.084 155.439 155.058 152.491C155.031 149.544 155.012 146.872 154.966 144.938C154.939 144.023 154.92 143.26 154.9 142.648C154.893 142.411 154.887 142.207 154.88 142.023C154.88 141.878 154.88 141.806 154.887 141.806C154.893 141.806 154.906 141.878 154.92 142.023C154.933 142.207 154.953 142.411 154.972 142.641C155.012 143.181 155.064 143.964 155.104 144.931C155.189 146.866 155.229 149.537 155.255 152.485C155.281 155.433 155.301 158.104 155.347 160.039C155.374 160.953 155.393 161.717 155.413 162.329C155.42 162.565 155.426 162.769 155.433 162.954C155.439 163.092 155.433 163.171 155.426 163.171Z" fill="#263238"/>
<path d="M144.043 113.663C144.043 113.663 152.959 132.659 153.176 133.041L150.057 159.236L158.098 153.242L159.032 129.797L170.33 95.6008L144.043 113.663Z" fill="#E0E0E0"/>
<path d="M159.052 130.455C159.065 130.481 158.749 130.652 158.223 130.909C157.703 131.166 156.973 131.501 156.157 131.857C155.347 132.212 154.604 132.521 154.064 132.732C153.525 132.942 153.182 133.061 153.169 133.034C153.156 133.008 153.479 132.844 154.005 132.594C154.531 132.344 155.262 132.015 156.078 131.659C156.887 131.304 157.631 130.988 158.164 130.771C158.703 130.56 159.039 130.429 159.052 130.455Z" fill="#263238"/>
<path d="M156.255 131.83C156.249 131.83 156.229 131.771 156.203 131.653C156.176 131.534 156.13 131.357 156.091 131.126C155.999 130.666 155.88 129.994 155.782 129.165C155.683 128.33 155.597 127.336 155.571 126.224C155.558 125.671 155.564 125.086 155.584 124.48C155.597 124.178 155.617 123.869 155.63 123.559C155.643 123.401 155.67 123.224 155.762 123.066C155.854 122.908 156.012 122.776 156.216 122.75C156.433 122.73 156.617 122.882 156.696 123.033C156.788 123.184 156.834 123.349 156.874 123.493C156.959 123.796 157.032 124.099 157.098 124.395C157.223 124.987 157.295 125.573 157.334 126.125C157.413 127.237 157.321 128.244 157.183 129.073C157.045 129.902 156.841 130.56 156.683 131.001C156.611 131.225 156.532 131.389 156.486 131.508C156.44 131.62 156.407 131.679 156.4 131.679C156.38 131.672 156.473 131.429 156.604 130.981C156.736 130.534 156.913 129.883 157.038 129.06C157.157 128.238 157.229 127.244 157.144 126.145C157.104 125.599 157.025 125.027 156.9 124.441C156.834 124.151 156.762 123.855 156.676 123.559C156.604 123.27 156.479 122.941 156.236 122.96C155.979 122.987 155.841 123.289 155.834 123.579C155.821 123.888 155.801 124.191 155.788 124.494C155.768 125.092 155.755 125.671 155.768 126.224C155.782 127.33 155.847 128.323 155.933 129.152C156.012 129.981 156.111 130.652 156.176 131.113C156.229 131.567 156.269 131.824 156.255 131.83Z" fill="#263238"/>
<path d="M156.229 131.876C156.222 131.883 156.17 131.863 156.071 131.811C155.972 131.758 155.828 131.692 155.65 131.58C155.288 131.37 154.775 131.041 154.202 130.567C153.63 130.087 152.979 129.468 152.373 128.678C152.071 128.284 151.774 127.856 151.505 127.389C151.373 127.152 151.235 126.915 151.116 126.665C151.057 126.54 150.985 126.422 150.939 126.27C150.893 126.132 150.866 125.935 150.978 125.777C151.222 125.461 151.656 125.56 151.88 125.737C152.117 125.915 152.294 126.112 152.492 126.297C152.873 126.672 153.229 127.053 153.558 127.428C154.209 128.172 154.735 128.896 155.143 129.521C155.551 130.146 155.847 130.672 156.038 131.047C156.137 131.232 156.203 131.376 156.249 131.482C156.295 131.58 156.315 131.633 156.308 131.639C156.295 131.646 156.183 131.449 155.966 131.087C155.755 130.731 155.439 130.218 155.018 129.606C154.597 128.994 154.064 128.29 153.413 127.56C153.09 127.191 152.735 126.823 152.353 126.448C152.163 126.27 151.965 126.06 151.761 125.908C151.57 125.75 151.274 125.731 151.149 125.895C151.031 126.066 151.176 126.343 151.301 126.579C151.419 126.83 151.551 127.066 151.682 127.297C151.945 127.757 152.235 128.178 152.531 128.573C153.117 129.356 153.748 129.981 154.301 130.468C154.86 130.955 155.354 131.297 155.696 131.528C156.038 131.745 156.242 131.863 156.229 131.876Z" fill="#263238"/>
<path d="M155.189 141.279C155.176 141.279 155.17 141.148 155.163 140.904C155.163 140.661 155.17 140.312 155.183 139.884C155.216 139.022 155.301 137.831 155.459 136.528C155.617 135.219 155.821 134.048 155.992 133.199C156.078 132.778 156.157 132.436 156.216 132.205C156.275 131.968 156.315 131.843 156.328 131.843C156.354 131.85 156.269 132.376 156.137 133.225C155.999 134.074 155.821 135.252 155.663 136.555C155.505 137.858 155.4 139.042 155.328 139.897C155.262 140.753 155.222 141.286 155.189 141.279Z" fill="#263238"/>
<path d="M156.716 138.437C156.657 138.443 156.492 136.903 156.347 135.002C156.203 133.1 156.13 131.561 156.183 131.554C156.242 131.547 156.407 133.087 156.551 134.989C156.696 136.89 156.775 138.437 156.716 138.437Z" fill="#263238"/>
<path d="M158.525 103.99C158.578 104.017 156.564 108.649 154.031 114.341C151.498 120.039 149.399 124.632 149.346 124.612C149.294 124.586 151.307 119.953 153.84 114.262C156.38 108.57 158.473 103.971 158.525 103.99Z" fill="#263238"/>
<path d="M145.648 134.883L139.009 133.916L135.923 145.517L148.451 146.767L145.648 134.883Z" fill="#AE7461"/>
<path d="M161.361 133.081C159.96 132.817 158.94 134.127 158.308 134.278C157.677 134.429 152.307 133.844 152.307 133.844L148.425 131.593L145.346 134.962L147.07 146.741C147.07 146.741 158.953 147.043 160.328 146.135C161.704 145.227 162.454 141.806 163.105 140.733C163.757 139.667 163.5 138.417 163.151 137.397C162.802 136.377 163.684 133.521 161.361 133.081Z" fill="#AE7461"/>
<path d="M158.387 134.324C158.381 134.383 156.795 134.291 154.841 134.12C152.886 133.949 151.307 133.771 151.314 133.712C151.32 133.653 152.906 133.745 154.86 133.916C156.815 134.081 158.394 134.265 158.387 134.324Z" fill="#6F4439"/>
<path d="M163.191 136.153C163.21 136.153 163.23 136.417 163.144 136.818C163.052 137.226 162.829 137.772 162.421 138.266C162.013 138.759 161.519 139.088 161.144 139.259C160.763 139.43 160.506 139.457 160.499 139.437C160.466 139.378 161.486 139.101 162.263 138.134C163.052 137.186 163.125 136.134 163.191 136.153Z" fill="#6F4439"/>
<path d="M162.598 141.779C162.645 141.799 162.381 142.293 161.809 142.608C161.236 142.937 160.684 142.904 160.684 142.852C160.677 142.793 161.177 142.727 161.704 142.431C162.237 142.141 162.552 141.74 162.598 141.779Z" fill="#6F4439"/>
<path d="M125.514 37.8153C124.369 29.7153 117.19 23.8525 109.024 24.346L108.215 24.3921C99.4965 25.4317 95.5024 33.4198 96.7855 42.1054L99.8123 71.1693L100.043 79.8286L120.612 84.5925L119.934 67.9846C119.934 67.9846 128.271 66.1685 127.863 57.7527C127.659 53.6862 126.58 45.3494 125.514 37.8153Z" fill="#AE7461"/>
<path d="M119.993 67.9714C119.993 67.9714 114.644 68.6162 108.781 65.4118C108.781 65.4118 111.735 71.3075 120.085 70.0441L119.993 67.9714Z" fill="#6F4439"/>
<path d="M123.448 45.3165C123.507 45.9481 123.02 46.5206 122.362 46.5996C121.704 46.6719 121.118 46.2245 121.059 45.5928C121 44.9611 121.487 44.3887 122.145 44.3097C122.803 44.2308 123.388 44.6848 123.448 45.3165Z" fill="#263238"/>
<path d="M123.948 42.0396C123.81 42.2041 122.855 41.5856 121.566 41.6711C120.276 41.7369 119.368 42.4542 119.217 42.3094C119.144 42.2436 119.276 41.9541 119.671 41.6251C120.059 41.3027 120.737 40.9671 121.539 40.921C122.342 40.875 123.04 41.1316 123.448 41.4145C123.869 41.6843 124.02 41.9607 123.948 42.0396Z" fill="#263238"/>
<path d="M111.985 46.0666C112.044 46.6983 111.558 47.2707 110.9 47.3497C110.242 47.4221 109.656 46.9746 109.597 46.3429C109.537 45.7113 110.024 45.1388 110.682 45.0598C111.34 44.9809 111.926 45.4349 111.985 46.0666Z" fill="#263238"/>
<path d="M111.261 43.0464C111.123 43.2109 110.169 42.5923 108.879 42.6779C107.59 42.7437 106.682 43.4609 106.53 43.3096C106.458 43.2438 106.59 42.9542 106.984 42.6252C107.373 42.3028 108.05 41.9672 108.853 41.9212C109.656 41.8751 110.353 42.1317 110.761 42.4147C111.176 42.6976 111.327 42.9674 111.261 43.0464Z" fill="#263238"/>
<path d="M116.532 52.3505C116.519 52.2781 117.315 52.0873 118.611 51.8438C118.94 51.7912 119.25 51.7056 119.289 51.4753C119.355 51.2319 119.19 50.8831 119.013 50.5081C118.657 49.7251 118.276 48.9091 117.887 48.0537C116.315 44.5598 115.157 41.6711 115.302 41.6119C115.446 41.5527 116.828 44.336 118.401 47.83C118.782 48.692 119.144 49.5145 119.486 50.3041C119.631 50.6726 119.875 51.0871 119.736 51.5872C119.664 51.8372 119.434 52.0346 119.223 52.1004C119.013 52.1794 118.828 52.1926 118.67 52.2123C117.348 52.3636 116.539 52.4229 116.532 52.3505Z" fill="#263238"/>
<path d="M112.782 53.4691C112.992 53.4428 113.078 54.8443 114.341 55.7721C115.598 56.6999 117.085 56.4498 117.111 56.6472C117.137 56.7328 116.795 56.9367 116.164 56.996C115.545 57.0552 114.63 56.9104 113.861 56.3445C113.091 55.7787 112.729 54.9825 112.643 54.41C112.545 53.8244 112.683 53.4691 112.782 53.4691Z" fill="#263238"/>
<path d="M111.288 37.96C111.182 38.3219 109.88 38.2298 108.373 38.5062C106.859 38.7496 105.668 39.2694 105.445 38.9668C105.346 38.822 105.537 38.4798 106.011 38.1048C106.478 37.7363 107.241 37.3678 108.149 37.2099C109.051 37.0586 109.893 37.1507 110.459 37.3415C111.038 37.5323 111.334 37.7889 111.288 37.96Z" fill="#263238"/>
<path d="M123.25 38.3219C123.04 38.6312 122.132 38.3811 121.059 38.4272C119.986 38.4404 119.092 38.743 118.868 38.4469C118.769 38.3022 118.894 37.9995 119.269 37.6968C119.644 37.3941 120.283 37.1309 121.02 37.1112C121.756 37.0915 122.408 37.3152 122.803 37.5981C123.197 37.8811 123.342 38.1772 123.25 38.3219Z" fill="#263238"/>
<path d="M124.467 34.0054C124.467 34.0054 121.934 28.873 119.315 27.7939C116.15 26.4911 115.032 29.9456 112.051 29.3007C109.07 28.6559 106.05 27.4057 103.194 29.8535C100.069 32.5315 101.707 34.1765 101.727 37.9205C101.819 53.1006 99.3121 57.5487 98.0948 50.4686C97.9632 49.6922 95.7589 49.2052 95.2391 45.9218C94.568 41.6711 94.0876 36.4861 94.8575 33.3935C95.5089 30.7878 96.8578 28.9323 99.3582 26.8267C103.3 23.5038 108.972 23.0958 112.847 23.2471C116.729 23.4051 124.421 27.386 124.467 34.0054Z" fill="#263238"/>
<path d="M98.6212 50.212C98.4896 48.9157 97.3118 47.9616 96.0221 48.159C94.4627 48.4025 92.7716 49.3961 93.0677 52.6334C93.6007 58.3712 99.2529 56.6538 99.2463 56.4893C99.2463 56.3774 98.8647 52.6071 98.6212 50.212Z" fill="#AE7461"/>
<path d="M97.7988 54.4495C97.7725 54.4363 97.7067 54.5285 97.5422 54.6206C97.3843 54.7127 97.1079 54.7917 96.7986 54.7061C96.1735 54.5416 95.5748 53.627 95.4497 52.5939C95.3839 52.0741 95.4497 51.5675 95.5945 51.1398C95.7327 50.7055 95.9761 50.3831 96.2722 50.3041C96.5683 50.2054 96.8052 50.3699 96.8908 50.5212C96.9829 50.6726 96.9566 50.791 96.9895 50.7976C97.0092 50.8108 97.1013 50.6923 97.0355 50.4554C97.0026 50.3436 96.9237 50.212 96.7789 50.1199C96.6276 50.0212 96.4236 49.9817 96.213 50.0277C95.7722 50.1001 95.4103 50.541 95.2523 51.0147C95.0681 51.4885 94.9826 52.061 95.0549 52.6466C95.1997 53.7981 95.8906 54.8246 96.7394 54.9891C97.154 55.0549 97.4764 54.9035 97.6409 54.7522C97.8054 54.5877 97.8251 54.4561 97.7988 54.4495Z" fill="#6F4439"/>
<path d="M125.672 27.7742C124.783 27.1096 123.573 27.0175 122.691 26.3529C121.092 25.1356 121.013 22.3523 119.138 21.6285C118.026 21.2008 116.775 21.7337 115.591 21.6153C113.67 21.4245 112.926 19.9703 110.011 19.9703C106.221 19.9703 105.017 22.7997 105.017 22.7997C105.017 22.7997 102.931 21.6745 100.654 23.2208C98.9436 24.3855 98.8384 26.7082 98.8384 26.7082C98.8384 26.7082 98.2396 26.4055 96.4235 27.8466C95.272 28.7612 94.3311 30.7352 93.9165 32.1499C93.298 34.2555 94.2192 36.4729 95.1207 38.4798C95.6076 39.5655 96.2129 40.7565 97.3381 41.1316C98.7133 41.5922 100.22 40.5131 100.753 39.1642C101.286 37.8153 102.128 36.4598 102.78 35.1635C103.905 32.9132 105.056 30.8141 104.102 29.3797C105.412 28.952 106.84 28.9191 108.149 29.3468C109.472 29.7811 110.623 30.6233 111.933 31.0839C113.242 31.5445 114.9 31.5116 115.788 30.4457C116.453 32.0446 118.848 32.5513 120.105 31.3669C121.138 33.0579 123.566 33.8344 125.264 32.8079C126.948 31.7748 127.257 28.9652 125.672 27.7742Z" fill="#263238"/>
<path d="M94.535 37.1309C94.5876 37.1046 94.8179 37.6376 95.2061 38.4469C95.4101 38.8417 95.6865 39.3089 96.1537 39.605C96.6274 39.9011 97.2788 39.9274 97.9368 39.8024C98.5948 39.6774 99.1871 39.4076 99.6608 39.072C100.128 38.7299 100.49 38.3285 100.779 37.9863C101.358 37.2954 101.694 36.8348 101.74 36.8677C101.773 36.8941 101.516 37.3941 100.97 38.1377C100.694 38.5062 100.345 38.9339 99.8516 39.3287C99.3581 39.7103 98.7133 40.013 98.0026 40.1446C97.3052 40.2762 96.5419 40.2499 95.9892 39.8748C95.4364 39.4997 95.1732 38.9668 94.989 38.5522C94.6403 37.6837 94.5021 37.1507 94.535 37.1309Z" fill="#455A64"/>
<path d="M94.7587 41.5659C94.7982 41.5198 95.1338 41.9475 95.897 42.191C96.2721 42.3094 96.7524 42.3752 97.2723 42.3028C97.7855 42.237 98.3382 42.0265 98.8515 41.6975C99.8845 41.0329 100.543 40.0854 101.01 39.4142C101.47 38.7299 101.747 38.2956 101.793 38.3219C101.832 38.3417 101.628 38.8154 101.22 39.5392C100.806 40.2499 100.154 41.2632 99.0423 41.9804C98.4896 42.3291 97.8908 42.5529 97.3183 42.6121C96.7459 42.6713 96.226 42.5726 95.8247 42.4147C95.0022 42.0923 94.7258 41.5724 94.7587 41.5659Z" fill="#455A64"/>
<path d="M94.9826 44.8624C95.0221 44.8164 95.3774 45.1717 96.1078 45.3296C96.8316 45.5073 97.9173 45.3757 98.8582 44.6979C99.8057 44.0399 100.418 43.1516 100.852 42.5265C101.286 41.8883 101.549 41.4869 101.595 41.5066C101.635 41.5264 101.444 41.9738 101.062 42.6516C100.674 43.3161 100.069 44.2702 99.0556 44.9809C98.5489 45.3296 97.9962 45.5599 97.4632 45.6455C96.9303 45.731 96.4368 45.6784 96.0551 45.5599C95.2589 45.323 94.9497 44.8822 94.9826 44.8624Z" fill="#455A64"/>
<path d="M122.763 287.217L118.032 303.285C118.032 303.285 134.035 313.116 133.475 316.162L99.5818 308.819L105.846 283.506L122.763 287.217Z" fill="#FF725E"/>
<path d="M107.899 299.653C107.202 299.68 106.576 300.265 106.57 300.91C106.563 301.555 107.202 302.154 107.899 302.14C108.597 302.127 109.373 301.443 109.301 300.798C109.228 300.153 108.439 299.495 107.761 299.66" fill="#E0E0E0"/>
<g opacity="0.6">
<g opacity="0.6">
<g opacity="0.6">
<g opacity="0.6">
<g opacity="0.6">
<g opacity="0.6">
<g opacity="0.6">
<g opacity="0.6">
<g opacity="0.6">
<g opacity="0.6">
<g opacity="0.6">
<g opacity="0.6">
<g opacity="0.6">
<g opacity="0.6">
<g opacity="0.6">
<path opacity="0.6" d="M99.5818 308.826L100.319 306.299L132.534 314.287C132.534 314.287 133.89 315.221 133.469 316.176L99.5818 308.826Z" fill="white"/>
</g>
</g>
</g>
</g>
</g>
</g>
</g>
</g>
</g>
</g>
</g>
</g>
</g>
</g>
</g>
<path d="M118.624 303.246C118.578 303.397 117.736 303.292 116.795 303.608C115.848 303.904 115.255 304.476 115.124 304.384C114.979 304.318 115.459 303.456 116.604 303.088C117.743 302.713 118.697 303.114 118.624 303.246Z" fill="#263238"/>
<path d="M121.835 305.378C121.835 305.536 121.052 305.641 120.329 306.167C119.585 306.674 119.263 307.345 119.105 307.306C118.94 307.299 119.059 306.371 119.973 305.733C120.875 305.088 121.868 305.233 121.835 305.378Z" fill="#263238"/>
<path d="M122.849 309.767C122.691 309.767 122.651 308.951 123.29 308.201C123.921 307.444 124.783 307.286 124.823 307.424C124.882 307.569 124.27 307.911 123.757 308.536C123.23 309.148 123.02 309.786 122.849 309.767Z" fill="#263238"/>
<path d="M119.263 299.476C119.157 299.601 118.453 299.226 117.499 299.081C116.552 298.916 115.749 299.054 115.696 298.903C115.63 298.772 116.486 298.357 117.598 298.541C118.723 298.712 119.374 299.37 119.263 299.476Z" fill="#263238"/>
<path d="M110.978 291.494L110.452 308.135C110.452 308.135 128.507 314.195 128.731 317.281L93.9164 317.538L93.594 291.58L110.978 291.494Z" fill="#FF725E"/>
<path d="M99.6739 306.819C99.0028 306.997 98.5422 307.701 98.7001 308.332C98.858 308.964 99.6279 309.405 100.306 309.24C100.983 309.076 101.562 308.24 101.326 307.635C101.089 307.023 100.154 306.556 99.5423 306.865" fill="#E0E0E0"/>
<g opacity="0.6">
<g opacity="0.6">
<g opacity="0.6">
<g opacity="0.6">
<g opacity="0.6">
<g opacity="0.6">
<g opacity="0.6">
<g opacity="0.6">
<g opacity="0.6">
<g opacity="0.6">
<g opacity="0.6">
<g opacity="0.6">
<g opacity="0.6">
<g opacity="0.6">
<g opacity="0.6">
<path opacity="0.6" d="M93.9165 317.544L93.9955 314.925L127.349 315.656C127.349 315.656 128.902 316.268 128.738 317.281L93.9165 317.544Z" fill="white"/>
</g>
</g>
</g>
</g>
</g>
</g>
</g>
</g>
</g>
</g>
</g>
</g>
</g>
</g>
</g>
<path d="M111.011 307.97C111.005 308.128 110.156 308.207 109.327 308.72C108.478 309.214 108.05 309.898 107.899 309.839C107.741 309.813 107.991 308.865 109.011 308.26C110.018 307.648 111.051 307.826 111.011 307.97Z" fill="#263238"/>
<path d="M114.676 309.346C114.716 309.497 113.979 309.773 113.406 310.444C112.814 311.102 112.669 311.82 112.505 311.82C112.347 311.846 112.222 310.925 112.952 310.102C113.67 309.267 114.67 309.194 114.676 309.346Z" fill="#263238"/>
<path d="M116.775 313.386C116.624 313.419 116.38 312.636 116.808 311.767C117.229 310.898 118.032 310.55 118.104 310.681C118.203 310.813 117.69 311.28 117.348 311.997C116.992 312.701 116.946 313.366 116.775 313.386Z" fill="#263238"/>
<path d="M110.682 304.167C110.61 304.312 109.833 304.101 108.873 304.167C107.912 304.22 107.162 304.522 107.076 304.384C106.978 304.272 107.701 303.68 108.833 303.614C109.965 303.549 110.761 304.042 110.682 304.167Z" fill="#263238"/>
<path d="M110.399 303.378C110.366 303.378 110.333 303.851 110.314 304.68C110.294 305.509 110.281 306.7 110.281 308.141V308.247L110.393 308.286C112.189 308.924 114.387 309.714 116.723 310.622C119.763 311.8 122.46 312.984 124.375 313.905C125.27 314.346 126.027 314.715 126.632 315.018C127.165 315.287 127.461 315.425 127.481 315.399C127.494 315.379 127.224 315.195 126.718 314.886C126.211 314.577 125.461 314.156 124.513 313.662C122.618 312.682 119.934 311.445 116.881 310.267C114.531 309.352 112.321 308.589 110.504 307.99L110.616 308.135C110.583 306.694 110.544 305.503 110.504 304.674C110.472 303.845 110.432 303.378 110.399 303.378Z" fill="#263238"/>
<path d="M87.593 169.422L87.7575 180.18L92.3504 231.353C92.3504 231.353 90.3632 256.238 89.1196 270.293C88.0405 282.493 90.4356 303.68 90.4356 303.68L112.59 303.358L119.434 232.478L123.678 188.274L131.929 168.066L87.593 169.422Z" fill="#263238"/>
<path d="M138.674 165.079L142.115 227.747L121.197 293.843L120.217 297.08L106.932 294.304L114.834 167.527L138.674 165.079Z" fill="#263238"/>
<path d="M123.625 188.807C123.632 188.807 123.638 188.905 123.638 189.103C123.638 189.32 123.638 189.609 123.632 189.978C123.618 190.767 123.599 191.893 123.572 193.327C123.526 196.235 123.368 200.447 123.132 205.651C122.625 216.054 121.592 230.412 119.894 246.217C118.223 262.035 116.328 276.314 114.939 286.645C114.235 291.797 113.663 295.968 113.262 298.877C113.058 300.305 112.9 301.417 112.788 302.2C112.729 302.562 112.689 302.851 112.656 303.062C112.623 303.259 112.604 303.358 112.597 303.351C112.59 303.351 112.597 303.252 112.617 303.055C112.643 302.844 112.669 302.555 112.709 302.186C112.801 301.403 112.939 300.285 113.11 298.857C113.479 295.942 114.005 291.764 114.656 286.612C115.972 276.274 117.821 261.989 119.493 246.178C121.197 230.372 122.27 216.028 122.849 205.632C123.125 200.433 123.329 196.229 123.421 193.314C123.48 191.873 123.526 190.748 123.559 189.965C123.579 189.596 123.592 189.307 123.605 189.096C123.612 188.905 123.618 188.807 123.625 188.807Z" fill="#455A64"/>
<path d="M132.054 116.176L138.022 128.152L139.924 139.437L131.929 137.39L132.054 116.176Z" fill="#FF725E"/>
<g opacity="0.3">
<g opacity="0.3">
<path opacity="0.3" d="M132.054 116.176L138.022 128.152L139.924 139.437L131.929 137.39L132.054 116.176Z" fill="black"/>
</g>
</g>
<path d="M122.276 184.622C122.27 184.622 122.256 184.694 122.355 184.766C122.447 184.839 122.651 184.891 122.862 184.78C123.086 184.661 123.184 184.391 123.224 184.122C123.263 183.839 123.309 183.543 123.355 183.22C123.54 181.891 123.763 180.049 123.987 178.015C124.211 175.982 124.395 174.133 124.5 172.797C124.612 171.462 124.652 170.633 124.592 170.626C124.533 170.619 124.395 171.442 124.211 172.771C124.027 174.1 123.803 175.943 123.579 177.976C123.355 180.009 123.171 181.858 123.066 183.194C122.987 183.845 123.059 184.457 122.783 184.648C122.645 184.74 122.487 184.727 122.408 184.694C122.316 184.668 122.289 184.615 122.276 184.622Z" fill="#455A64"/>
<path d="M119.783 171.633C119.783 171.613 119.664 171.573 119.447 171.613C119.23 171.646 118.914 171.777 118.657 172.074C118.401 172.35 118.203 172.85 118.42 173.357C118.624 173.844 119.164 174.245 119.822 174.271C120.506 174.298 121.039 173.837 121.237 173.376C121.46 172.909 121.355 172.383 121.099 172.087C120.849 171.784 120.52 171.652 120.296 171.646C120.065 171.633 119.954 171.699 119.96 171.718C119.947 171.771 120.487 171.692 120.862 172.238C121.039 172.495 121.079 172.876 120.895 173.232C120.723 173.587 120.309 173.909 119.842 173.89C119.368 173.876 118.934 173.567 118.776 173.219C118.605 172.87 118.71 172.488 118.894 172.232C119.276 171.692 119.796 171.692 119.783 171.633Z" fill="#455A64"/>
<path d="M133.39 172.738C133.495 172.771 133.811 172.113 133.949 171.238C134.094 170.369 134.002 169.652 133.89 169.652C133.771 169.652 133.679 170.343 133.541 171.179C133.41 172.021 133.278 172.705 133.39 172.738Z" fill="#455A64"/>
<path d="M130.949 172.764C131.06 172.784 131.297 172.074 131.468 171.179C131.646 170.284 131.699 169.54 131.587 169.521C131.475 169.501 131.238 170.211 131.067 171.106C130.889 172.008 130.837 172.745 130.949 172.764Z" fill="#455A64"/>
<path d="M106.379 173.028C106.491 173.047 106.695 172.574 106.833 171.962C106.971 171.35 106.991 170.837 106.879 170.817C106.767 170.797 106.563 171.271 106.425 171.883C106.287 172.495 106.267 173.001 106.379 173.028Z" fill="#455A64"/>
<path d="M103.971 173.83C104.076 173.863 104.464 172.962 104.629 171.784C104.8 170.606 104.688 169.646 104.576 169.646C104.458 169.646 104.392 170.587 104.221 171.731C104.063 172.876 103.859 173.804 103.971 173.83Z" fill="#455A64"/>
<path d="M87.4022 181.628C87.3957 181.647 87.626 181.753 88.0734 181.865C88.5208 181.983 89.192 182.069 90.0211 182.029C91.6726 181.957 93.9757 181.167 95.7325 179.43C97.4762 177.686 98.2987 175.64 98.7198 174.179C98.9304 173.442 99.0554 172.837 99.1146 172.416C99.1804 171.995 99.1936 171.758 99.1673 171.758C99.1015 171.745 98.9238 172.672 98.4369 174.107C97.95 175.528 97.1011 177.502 95.4298 179.173C93.7519 180.832 91.574 181.628 89.9948 181.766C88.3892 181.911 87.422 181.549 87.4022 181.628Z" fill="#455A64"/>
<path d="M120.078 78.3152L125.553 84.632L132.929 110.998L134.811 141.457L143.628 186.477L139.088 187.872L135.18 164.73L119.861 86.4086L120.078 78.3152Z" fill="#FF725E"/>
<path d="M97.95 67.8924L94.9824 73.2157L78.5587 88.2904C74.7884 95.5613 75.2095 100.661 77.8481 108.419L89.9355 147.642L84.9545 189.425L131.844 188.82C131.844 188.82 137.285 171.6 134.508 155.953C132.12 142.47 126.336 110.978 126.336 110.978C118.993 94.8507 109.379 80.6182 97.95 67.8924Z" fill="#FF725E"/>
<path d="M98.2329 68.2083L98.6606 65.1486L116.867 80.0918L120.223 75.3081L120.427 82.0065L121.184 86.0664C121.184 86.0664 127.639 105.754 128.54 109.899C129.442 114.038 132.054 141.088 132.054 141.088L116.571 98.2854L98.2329 68.2083Z" fill="#E0E0E0"/>
<path d="M116.223 80.4997C116.256 80.5195 115.927 81.0524 115.532 82.0723C115.144 83.0857 114.722 84.6254 114.801 86.5138L114.821 87.0008L114.532 86.606C113.124 84.7043 111.347 82.4145 109.314 80.0457C106.675 76.9663 104.109 74.3408 102.207 72.4787C101.28 71.5904 100.516 70.86 99.9306 70.3007C99.3911 69.7875 99.095 69.498 99.1147 69.4782C99.1344 69.4585 99.4569 69.7151 100.029 70.1889C100.602 70.6692 101.411 71.3798 102.385 72.2879C104.333 74.104 106.945 76.7096 109.59 79.8022C111.63 82.1776 113.393 84.4872 114.775 86.4217L114.505 86.5138C114.459 84.5662 114.94 83.0067 115.38 81.9934C115.604 81.4867 115.815 81.1051 115.966 80.855C116.117 80.6182 116.21 80.4931 116.223 80.4997Z" fill="#263238"/>
<path d="M119.381 86.0664C119.282 86.0993 118.828 85.0268 118.361 83.6647C117.894 82.3026 117.598 81.1775 117.69 81.1446C117.789 81.1117 118.243 82.1842 118.71 83.5463C119.177 84.9017 119.48 86.0335 119.381 86.0664Z" fill="#263238"/>
<path d="M132.054 141.082C132.041 141.082 131.975 140.878 131.857 140.476C131.738 140.049 131.574 139.463 131.37 138.733C130.955 137.18 130.363 134.989 129.639 132.297C128.205 126.83 126.244 119.328 124.073 111.038C121.941 102.74 120.013 95.2258 118.611 89.7512C117.933 87.0468 117.387 84.8491 116.999 83.2896C116.821 82.5461 116.683 81.9605 116.578 81.5262C116.486 81.1248 116.44 80.9077 116.453 80.9077C116.466 80.9011 116.532 81.1117 116.65 81.5065C116.769 81.9342 116.933 82.5198 117.137 83.2502C117.552 84.803 118.144 86.9942 118.868 89.6854C120.302 95.1534 122.263 102.661 124.434 110.945C126.566 119.243 128.494 126.757 129.896 132.232C130.574 134.936 131.12 137.134 131.508 138.693C131.686 139.437 131.824 140.022 131.929 140.457C132.021 140.865 132.067 141.082 132.054 141.082Z" fill="#263238"/>
<path d="M130.718 137.39C130.712 137.397 130.672 137.344 130.6 137.239C130.514 137.121 130.409 136.969 130.278 136.778C129.988 136.344 129.587 135.745 129.073 134.982C128.021 133.39 126.527 131.12 124.671 128.317C120.96 122.638 115.841 114.795 110.13 106.043L110.084 105.971L110.11 105.885C110.334 105.221 110.577 104.51 110.821 103.799C111.261 102.51 111.696 101.233 112.123 99.9831L112.4 100.194C111.13 101.049 109.88 101.891 108.669 102.714L108.485 102.839L108.406 102.628C105.129 94.3375 101.812 87.2771 99.3187 82.3092C98.075 79.822 97.0486 77.848 96.3379 76.4991C95.9958 75.8411 95.7194 75.3213 95.522 74.9462C95.4365 74.7817 95.3707 74.6501 95.318 74.5382C95.272 74.4461 95.2522 74.4001 95.2588 74.3935C95.2654 74.3935 95.2917 74.433 95.3443 74.5185C95.4036 74.6238 95.4825 74.7488 95.5746 74.9067C95.7852 75.2752 96.0747 75.7884 96.4432 76.4333C97.1867 77.769 98.2527 79.7233 99.5226 82.1974C102.076 87.1455 105.438 94.1927 108.735 102.49L108.465 102.405C109.682 101.582 110.926 100.74 112.196 99.8778L112.643 99.5751L112.466 100.088C112.038 101.339 111.604 102.615 111.169 103.905C110.926 104.622 110.682 105.333 110.459 105.991L110.439 105.833C116.111 114.61 121.197 122.474 124.882 128.172C126.691 131.001 128.159 133.291 129.185 134.903C129.672 135.68 130.06 136.298 130.337 136.739C130.455 136.936 130.554 137.094 130.626 137.219C130.692 137.325 130.725 137.384 130.718 137.39Z" fill="#263238"/>
<path d="M121 161.552C121.006 161.546 120.98 161.684 120.914 161.954C120.842 162.256 120.75 162.658 120.631 163.164C120.362 164.276 119.98 165.842 119.506 167.803L119.486 167.882L119.401 167.889C114.189 168.218 105.997 168.698 96.8051 169.205L96.2458 169.238L95.9563 169.251L96.0682 168.981C96.8446 167.106 97.6013 165.283 98.3251 163.539L98.5225 163.783C98.4567 163.072 98.4962 163.585 98.483 163.427H98.4896H98.5093H98.5488L98.6212 163.421L98.7725 163.408L99.0752 163.381L99.674 163.329C100.069 163.296 100.464 163.256 100.852 163.223C101.628 163.158 102.398 163.085 103.142 163.02C104.635 162.888 106.07 162.763 107.432 162.644C110.143 162.414 112.551 162.204 114.571 162.033C116.552 161.875 118.151 161.743 119.289 161.651C119.815 161.618 120.237 161.585 120.559 161.565C120.848 161.546 121.006 161.546 121 161.552C121 161.565 120.855 161.585 120.566 161.625C120.25 161.664 119.829 161.71 119.302 161.769C118.164 161.888 116.571 162.052 114.591 162.256C112.571 162.454 110.169 162.684 107.465 162.947C106.109 163.079 104.675 163.21 103.175 163.355C102.424 163.427 101.661 163.493 100.885 163.566C100.497 163.599 100.102 163.638 99.7069 163.671L99.1081 163.724L98.8054 163.75L98.6541 163.763L98.5751 163.77H98.5357H98.5159H98.5028C98.483 163.612 98.5159 164.125 98.4501 163.414L98.6475 163.658C97.9303 165.401 97.1736 167.231 96.3972 169.099L96.2195 168.843L96.7788 168.81C105.964 168.303 114.163 167.876 119.381 167.632L119.276 167.718C119.802 165.803 120.217 164.276 120.513 163.191C120.658 162.677 120.769 162.276 120.855 161.967C120.947 161.71 120.993 161.559 121 161.552Z" fill="#263238"/>
<path d="M131.778 138.97C131.804 138.963 131.909 139.378 132.08 140.128C132.251 140.878 132.482 141.97 132.745 143.326C133.271 146.037 133.903 149.794 134.429 153.972C134.956 158.15 135.278 161.954 135.443 164.704C135.528 166.079 135.581 167.198 135.594 167.968C135.614 168.738 135.614 169.165 135.588 169.165C135.561 169.165 135.515 168.744 135.449 167.974C135.384 167.145 135.291 166.046 135.18 164.724C134.949 161.98 134.587 158.19 134.061 154.018C133.535 149.846 132.942 146.089 132.488 143.372C132.265 142.062 132.08 140.977 131.942 140.154C131.811 139.397 131.758 138.97 131.778 138.97Z" fill="#263238"/>
<g opacity="0.3">
<g opacity="0.3">
<g opacity="0.3">
<path opacity="0.3" d="M98.233 169.113L97.3315 170.817L119.381 169.968L120.631 163.164L119.388 167.658L98.233 169.113Z" fill="black"/>
</g>
</g>
</g>
<g opacity="0.3">
<g opacity="0.3">
<g opacity="0.3">
<path opacity="0.3" d="M100.74 84.6056L107.438 105.885L110.136 103.115L109.057 108.004L122.138 124.652L110.439 105.839L112.123 99.9765L108.728 102.49L100.74 84.6056Z" fill="black"/>
</g>
</g>
</g>
<g opacity="0.3">
<g opacity="0.3">
<g opacity="0.3">
<path opacity="0.3" d="M81.2827 112.465C84.5661 120.171 90.0144 132.574 94.3901 140.062C95.7521 142.391 97.1537 145.115 99.2659 146.8C102.273 149.188 105.418 150.07 109.241 150.439C118.21 151.307 127.29 151.143 136.18 149.675C136.18 149.34 136.18 148.998 136.18 148.662C136.18 148.662 102.115 140.773 101.398 140.351C100.681 139.917 81.2827 112.465 81.2827 112.465Z" fill="black"/>
</g>
</g>
</g>
<path d="M77.0652 103.977L93.6665 136.403C96.5025 141.944 103.938 147.807 108.478 147.807L141.622 148.682L141.727 132.212L113.505 129.448L97.5882 97.2985C97.5882 97.2985 93.5152 82.5658 83.7241 85.9151C73.9331 89.2774 77.0652 103.977 77.0652 103.977Z" fill="#FF725E"/>
<path d="M97.5947 97.305C97.5947 97.305 97.7066 97.4959 97.904 97.8775C98.1014 98.2723 98.3909 98.8316 98.7594 99.5686C99.5095 101.062 100.602 103.247 101.997 106.03C104.787 111.63 108.781 119.657 113.63 129.402L113.518 129.323C121.822 130.126 131.403 131.054 141.74 132.054L141.891 132.067V132.219C141.858 137.522 141.825 143.029 141.786 148.688V148.866L141.608 148.859C140.102 148.813 138.483 148.774 136.858 148.721C126.507 148.425 116.585 148.136 107.524 147.872H107.504L107.484 147.866C103.504 146.754 100.003 144.582 97.371 141.838C96.055 140.47 94.9298 138.97 94.0349 137.397C93.1598 135.811 92.4097 134.239 91.6201 132.732C88.5341 126.678 85.8165 121.342 83.5661 116.913C81.3224 112.492 79.5458 108.985 78.3219 106.57C77.7231 105.372 77.2559 104.444 76.9401 103.806C76.7888 103.497 76.6703 103.26 76.5914 103.089C76.5124 102.931 76.4795 102.845 76.4795 102.845C76.4795 102.845 76.5321 102.924 76.6177 103.082C76.7098 103.247 76.8282 103.484 76.9927 103.786C77.3217 104.418 77.8021 105.333 78.4206 106.524C79.6642 108.932 81.4737 112.426 83.7504 116.828C86.0205 121.243 88.7643 126.566 91.8701 132.613C92.6531 134.114 93.423 135.699 94.2916 137.259C95.1799 138.812 96.2919 140.279 97.5947 141.634C100.194 144.332 103.655 146.464 107.577 147.556L107.537 147.55C116.591 147.807 126.514 148.083 136.871 148.372C138.496 148.418 140.115 148.465 141.621 148.511L141.444 148.682C141.483 143.029 141.523 137.522 141.556 132.212L141.707 132.376C131.37 131.357 121.789 130.409 113.485 129.587L113.406 129.58L113.374 129.508C108.57 119.743 104.609 111.702 101.845 106.083C100.477 103.286 99.4108 101.095 98.6738 99.5883C98.3185 98.8448 98.0422 98.2789 97.8513 97.8841C97.6803 97.509 97.5947 97.305 97.5947 97.305Z" fill="#263238"/>
<path d="M96.0615 92.245C96.0089 92.2911 95.4101 91.3304 94.0744 90.1526C92.7584 88.9813 90.5804 87.6588 87.9023 87.2179C85.2177 86.7836 82.737 87.3627 81.1183 88.0601C79.4733 88.751 78.6114 89.4748 78.5719 89.4156C78.5587 89.4025 78.7627 89.2116 79.1707 88.909C79.5786 88.6063 80.1971 88.2181 81.0196 87.8364C82.6449 87.0666 85.1914 86.4349 87.955 86.8823C90.7186 87.3298 92.936 88.7313 94.2389 89.9749C94.8969 90.5934 95.3706 91.1659 95.6601 91.5739C95.9431 91.9884 96.0747 92.2319 96.0615 92.245Z" fill="#263238"/>
<path d="M295.896 317.544C295.896 317.636 237.064 317.715 164.507 317.715C91.9226 317.715 33.104 317.636 33.104 317.544C33.104 317.452 91.9226 317.373 164.507 317.373C237.064 317.373 295.896 317.452 295.896 317.544Z" fill="#263238"/>
</svg>
