<svg width="28" height="26" viewBox="0 0 28 26" fill="none" xmlns="http://www.w3.org/2000/svg">
<path d="M14.5676 14.8322L13.2432 13.9597C12.8649 13.6107 12.2973 13.2617 12.2973 12.5638C12.2973 11.8658 12.8649 11.3423 13.4324 10.8188C14.9459 9.77181 16.6486 8.55034 16.6486 5.93289C16.6486 3.31544 14.9459 1.91946 14 1.22148H16.2703L18.5405 0H10.7838C8.89189 0 6.24324 0.348993 4.16216 1.91946C2.64865 3.14094 1.89189 4.88591 1.89189 6.45638C1.89189 9.07383 4.16216 11.8658 8.13514 11.8658H9.27027C9.08108 12.2148 8.89189 12.5638 8.89189 13.0872C8.89189 14.1342 9.45946 14.8322 10.027 15.3557C8.32432 15.5302 5.2973 15.7047 2.83784 16.9262C0.567567 18.1477 0 19.8926 0 21.1141C0 23.7315 2.64865 26 7.94595 26C14.3784 26 17.7838 22.6846 17.7838 19.5436C17.7838 17.2752 16.2703 16.2282 14.5676 14.8322ZM9.83784 10.9933C6.62162 10.9933 5.10811 7.15436 5.10811 4.88591C5.10811 4.01342 5.2973 3.14094 5.86487 2.26846C6.43243 1.57047 7.56757 1.04698 8.51351 1.04698C11.5405 1.04698 13.2432 4.88591 13.2432 7.32886C13.2432 8.02685 13.2432 9.07383 12.2973 9.77181C11.7297 10.4698 10.5946 10.9933 9.83784 10.9933ZM9.83784 24.7785C5.86486 24.7785 3.21622 23.0336 3.21622 20.5906C3.21622 18.1477 5.67568 17.2752 6.43243 17.1007C7.94595 16.5772 10.027 16.5772 10.4054 16.5772H11.3514C14.1892 18.4966 15.3243 19.3691 15.3243 21.1141C15.3243 23.2081 13.4324 24.7785 9.83784 24.7785ZM22.3243 12.2148H18.5405V10.4698H22.3243V7.15436L24.2162 6.97987V10.4698H28V12.2148H24.2162V15.7047H22.3243V12.2148Z" fill="white"/>
</svg>
