<svg width="21" height="24" viewBox="0 0 21 24" fill="none" xmlns="http://www.w3.org/2000/svg">
<path d="M12.2928 23.9999C10.2756 23.9999 8.5692 23.4832 7.17368 22.4499C5.77817 21.4165 4.77387 20.1749 4.16077 18.7249L1.02681 11.3749C0.882722 11.0415 0.914422 10.7289 1.12191 10.4369C1.3294 10.1449 1.62154 9.99921 1.99834 9.99988C2.35856 9.99988 2.81785 10.1125 3.3762 10.3379C3.93455 10.5632 4.33079 10.9422 4.56494 11.4749L6.07896 14.9999H6.88947V3.24988C6.88947 2.89988 7.02023 2.60388 7.28175 2.36188C7.54328 2.11988 7.8628 1.99921 8.24031 1.99988C8.61855 1.99988 8.93843 2.12088 9.19995 2.36288C9.46147 2.60488 9.59187 2.90055 9.59115 3.24988V11.9999H10.6718V1.24988C10.6718 0.899881 10.8026 0.603881 11.0641 0.361881C11.3256 0.119881 11.6452 -0.00078599 12.0227 -0.000119323C12.4009 -0.000119323 12.7208 0.120881 12.9823 0.362881C13.2438 0.604881 13.3742 0.900547 13.3735 1.24988V11.9999H14.4542V2.74988C14.4542 2.39988 14.5849 2.10388 14.8465 1.86188C15.108 1.61988 15.4275 1.49921 15.805 1.49988C16.1833 1.49988 16.5031 1.62088 16.7647 1.86288C17.0262 2.10488 17.1566 2.40055 17.1559 2.74988V11.9999H18.2365V5.74988C18.2365 5.39988 18.3673 5.10388 18.6288 4.86188C18.8904 4.61988 19.2099 4.49921 19.5874 4.49988C19.9656 4.49988 20.2855 4.62088 20.547 4.86288C20.8085 5.10488 20.939 5.40055 20.9382 5.74988V15.9999C20.9382 18.2332 20.1007 20.1249 18.4257 21.6749C16.7506 23.2249 14.7063 23.9999 12.2928 23.9999Z" fill="#5363DD"/>
</svg>
