<svg width="26" height="25" viewBox="0 0 26 25" fill="none" xmlns="http://www.w3.org/2000/svg">
<path d="M13.1719 25C16.4871 25 19.6665 23.683 22.0107 21.3388C24.3549 18.9946 25.6719 15.8152 25.6719 12.5C25.6719 9.18479 24.3549 6.00537 22.0107 3.66117C19.6665 1.31696 16.4871 0 13.1719 0C9.85667 0 6.67725 1.31696 4.33304 3.66117C1.98884 6.00537 0.671875 9.18479 0.671875 12.5C0.671875 15.8152 1.98884 18.9946 4.33304 21.3388C6.67725 23.683 9.85667 25 13.1719 25ZM14.625 10.2937L13.0625 17.6453C12.9531 18.1766 13.1078 18.4781 13.5375 18.4781C13.8406 18.4781 14.2984 18.3687 14.6094 18.0937L14.4719 18.7438C14.0234 19.2844 13.0344 19.6781 12.1828 19.6781C11.0844 19.6781 10.6172 19.0187 10.9203 17.6172L12.0734 12.1984C12.1734 11.7406 12.0828 11.575 11.625 11.4641L10.9203 11.3375L11.0484 10.7422L14.625 10.2937ZM13.1719 8.59375C12.7575 8.59375 12.36 8.42913 12.067 8.1361C11.774 7.84308 11.6094 7.44565 11.6094 7.03125C11.6094 6.61685 11.774 6.21942 12.067 5.9264C12.36 5.63337 12.7575 5.46875 13.1719 5.46875C13.5863 5.46875 13.9837 5.63337 14.2767 5.9264C14.5698 6.21942 14.7344 6.61685 14.7344 7.03125C14.7344 7.44565 14.5698 7.84308 14.2767 8.1361C13.9837 8.42913 13.5863 8.59375 13.1719 8.59375Z" fill="white"/>
</svg>
