<svg width="58" height="58" viewBox="0 0 58 58" fill="none" xmlns="http://www.w3.org/2000/svg">
<g filter="url(#filter0_d_237_15)">
<circle cx="29" cy="24" r="22" fill="url(#paint0_linear_237_15)"/>
<circle cx="29" cy="24" r="22" fill="#5363DD"/>
<circle cx="29" cy="24" r="21.5" stroke="white" stroke-opacity="0.4"/>
<circle cx="29" cy="24" r="21.5" stroke="#E8E8E8" stroke-opacity="0.32"/>
</g>
<g clip-path="url(#clip0_237_15)">
<path d="M20.7302 26.6246C21.2156 26.6246 21.6091 26.2311 21.6091 25.7457C21.6091 25.2603 21.2156 24.8668 20.7302 24.8668C20.2448 24.8668 19.8513 25.2603 19.8513 25.7457C19.8513 26.2311 20.2448 26.6246 20.7302 26.6246Z" fill="#F8F8F8"/>
<path d="M24.9219 26.6246C25.4073 26.6246 25.8008 26.2311 25.8008 25.7457C25.8008 25.2603 25.4073 24.8668 24.9219 24.8668C24.4365 24.8668 24.043 25.2603 24.043 25.7457C24.043 26.2311 24.4365 26.6246 24.9219 26.6246Z" fill="#F8F8F8"/>
<path d="M21.2906 28.6156C21.5644 29.1175 22.118 29.5648 22.8266 29.5648C23.5351 29.5648 24.0883 29.1175 24.3621 28.6156C24.4359 28.4804 24.3383 28.3347 24.2293 28.4179C23.3258 29.1222 22.3226 29.1175 21.4226 28.4179C21.3141 28.3351 21.2164 28.4808 21.2906 28.6156" fill="#F8F8F8"/>
<path d="M34.359 18.5938C31.9113 18.5938 31.6727 19.5727 31.6727 19.5727C31.6727 19.5727 28.5 19.4816 28.5 24.3242C28.5 19.482 25.3273 19.5727 25.3273 19.5727C25.3273 19.5727 25.0887 18.5938 22.641 18.5938C18.8508 18.5938 16.7812 21.0664 16.7812 24.3242V34.2188H40.2188V24.3242C40.2188 21.0664 38.1492 18.5938 34.359 18.5938ZM18.302 24.3402C20.6535 24.3402 24.4848 21.2816 24.4848 21.2816C24.4848 21.2816 25.9328 23.9816 27.3305 24.3402C27.3305 24.3402 28.0082 24.4645 28.0082 25.5367C28.0082 26.8254 27.1047 27.048 27.1047 27.048C27.0934 28.9922 24.4383 30.948 22.8273 30.948C21.2145 30.948 18.5152 28.9918 18.5152 27.048C18.5152 27.048 17.6445 26.8254 17.6445 25.5367C17.6445 24.5156 18.302 24.3402 18.302 24.3402V24.3402ZM28.3047 33.8281H17.1715V31.3957C17.1715 31.0004 18.1828 30.4953 20.1055 30.2477C20.9996 30.9129 22.0309 31.3387 22.8273 31.3387C23.5977 31.3387 24.593 30.9313 25.4676 30.2895C27.2 30.5473 28.3051 31.0211 28.3051 31.3957V33.8281H28.3047ZM29.6695 24.3402C31.0672 23.9816 32.5152 21.2816 32.5152 21.2816C32.5152 21.2816 36.3469 24.3402 38.698 24.3402C38.698 24.3402 39.3555 24.5156 39.3555 25.5367C39.3555 26.8254 38.4848 27.048 38.4848 27.048C38.4848 28.9922 35.7855 30.948 34.1727 30.948C32.5617 30.948 29.9066 28.9918 29.8953 27.048C29.8953 27.048 28.9918 26.8254 28.9918 25.5367C28.9918 24.4645 29.6695 24.3402 29.6695 24.3402ZM39.8285 33.8281H28.6953V31.3957C28.6953 31.0211 29.8004 30.5473 31.5328 30.2895C32.4074 30.9313 33.4027 31.3387 34.173 31.3387C34.9695 31.3387 36.0008 30.9129 36.8949 30.2477C38.8176 30.4957 39.8289 31.0008 39.8289 31.3957V33.8281H39.8285Z" fill="#F8F8F8"/>
<path d="M36.2698 26.6246C36.7552 26.6246 37.1487 26.2311 37.1487 25.7457C37.1487 25.2603 36.7552 24.8668 36.2698 24.8668C35.7844 24.8668 35.3909 25.2603 35.3909 25.7457C35.3909 26.2311 35.7844 26.6246 36.2698 26.6246Z" fill="#F8F8F8"/>
<path d="M32.0781 26.6246C32.5635 26.6246 32.957 26.2311 32.957 25.7457C32.957 25.2603 32.5635 24.8668 32.0781 24.8668C31.5927 24.8668 31.1992 25.2603 31.1992 25.7457C31.1992 26.2311 31.5927 26.6246 32.0781 26.6246Z" fill="#F8F8F8"/>
<path d="M32.6383 28.6156C32.9117 29.1175 33.4652 29.5648 34.1738 29.5648C34.8824 29.5648 35.4355 29.1175 35.7097 28.6156C35.7836 28.4804 35.6859 28.3347 35.5777 28.4179C34.6777 29.1175 33.6746 29.1222 32.7711 28.4179C32.6617 28.3351 32.564 28.4808 32.6383 28.6156" fill="#F8F8F8"/>
<path d="M28.4989 20.1555C28.968 19.7328 35.5211 16.3203 34.1781 12.7649C32.9301 9.46136 28.8742 10.9438 28.4989 12.5938C27.9832 10.8352 24.0289 9.52386 22.8219 12.766C21.4781 16.3805 28.0305 19.6246 28.4989 20.1555Z" fill="#F8F8F8"/>
</g>
<defs>
<filter id="filter0_d_237_15" x="0" y="0" width="58" height="58" filterUnits="userSpaceOnUse" color-interpolation-filters="sRGB">
<feFlood flood-opacity="0" result="BackgroundImageFix"/>
<feColorMatrix in="SourceAlpha" type="matrix" values="0 0 0 0 0 0 0 0 0 0 0 0 0 0 0 0 0 0 127 0" result="hardAlpha"/>
<feOffset dy="5"/>
<feGaussianBlur stdDeviation="3.5"/>
<feColorMatrix type="matrix" values="0 0 0 0 0.6512 0 0 0 0 0.66896 0 0 0 0 0.74 0 0 0 0.32 0"/>
<feBlend mode="normal" in2="BackgroundImageFix" result="effect1_dropShadow_237_15"/>
<feBlend mode="normal" in="SourceGraphic" in2="effect1_dropShadow_237_15" result="shape"/>
</filter>
<linearGradient id="paint0_linear_237_15" x1="-1.08163" y1="-10.6923" x2="56.8865" y2="-6.41674" gradientUnits="userSpaceOnUse">
<stop stop-color="#F5963C"/>
<stop offset="1" stop-color="#F33B67"/>
</linearGradient>
<clipPath id="clip0_237_15">
<rect width="25" height="25" fill="white" transform="translate(16 10)"/>
</clipPath>
</defs>
</svg>
