<svg width="30" height="30" viewBox="0 0 30 30" fill="none" xmlns="http://www.w3.org/2000/svg">
<path d="M16.875 2.67857C16.875 1.96817 16.6775 1.28686 16.3258 0.784535C15.9742 0.282206 15.4973 0 15 0C14.5027 0 14.0258 0.282206 13.6742 0.784535C13.3225 1.28686 13.125 1.96817 13.125 2.67857C13.125 3.38897 13.3225 4.07028 13.6742 4.57261C14.0258 5.07494 14.5027 5.35714 15 5.35714C15.4973 5.35714 15.9742 5.07494 16.3258 4.57261C16.6775 4.07028 16.875 3.38897 16.875 2.67857ZM6.75 11.7857C7.24728 11.7857 7.72419 11.5035 8.07583 11.0012C8.42746 10.4988 8.625 9.81754 8.625 9.10714C8.625 8.39674 8.42746 7.71544 8.07583 7.21311C7.72419 6.71078 7.24728 6.42857 6.75 6.42857C6.25272 6.42857 5.77581 6.71078 5.42417 7.21311C5.07254 7.71544 4.875 8.39674 4.875 9.10714C4.875 9.81754 5.07254 10.4988 5.42417 11.0012C5.77581 11.5035 6.25272 11.7857 6.75 11.7857ZM1.5 25.7143C0.670312 25.7143 0 26.6719 0 27.8571C0 29.0424 0.670312 30 1.5 30H28.5C29.3297 30 30 29.0424 30 27.8571C30 26.6719 29.3297 25.7143 28.5 25.7143H1.5ZM23.25 11.7857C23.7473 11.7857 24.2242 11.5035 24.5758 11.0012C24.9275 10.4988 25.125 9.81754 25.125 9.10714C25.125 8.39674 24.9275 7.71544 24.5758 7.21311C24.2242 6.71078 23.7473 6.42857 23.25 6.42857C22.7527 6.42857 22.2758 6.71078 21.9242 7.21311C21.5725 7.71544 21.375 8.39674 21.375 9.10714C21.375 9.81754 21.5725 10.4988 21.9242 11.0012C22.2758 11.5035 22.7527 11.7857 23.25 11.7857ZM9.375 18.8504L10.6359 22.192C10.9312 22.9754 11.6109 23.2634 12.1594 22.8482C12.7078 22.433 12.9094 21.4554 12.6188 20.6719L10.9172 16.1518C10.9969 16.0379 11.0672 15.9107 11.1187 15.7634L12.375 12.4219V16.0714C12.375 17.2567 13.0453 18.2143 13.875 18.2143H16.125C16.9547 18.2143 17.625 17.2567 17.625 16.0714V12.4219L18.8859 15.7634C18.9422 15.9107 19.0078 16.0379 19.0875 16.1518L17.3859 20.6719C17.0906 21.4554 17.2969 22.4263 17.8453 22.8482C18.3938 23.2701 19.0734 22.9754 19.3688 22.192L20.625 18.8504V21.4286C20.625 22.6138 21.2953 23.5714 22.125 23.5714H24.375C25.2047 23.5714 25.875 22.6138 25.875 21.4286V18.8504L27.1359 22.192C27.4313 22.9754 28.1109 23.2634 28.6594 22.8482C29.2078 22.433 29.4094 21.4554 29.1188 20.6719L27.3422 15.9643C26.625 14.0558 25.2281 12.8638 23.7094 12.8638H22.7906C22.0266 12.8638 21.2953 13.1652 20.6625 13.7076L19.0875 9.53571C18.3703 7.62723 16.9734 6.43527 15.4547 6.43527H14.5406C13.0219 6.43527 11.6297 7.62723 10.9078 9.53571L9.33281 13.7076C8.7 13.1652 7.96875 12.8638 7.20469 12.8638H6.29062C4.77187 12.8638 3.37969 14.0558 2.65781 15.9643L0.885937 20.6652C0.590625 21.4487 0.796875 22.4196 1.34531 22.8415C1.89375 23.2634 2.57344 22.9687 2.86875 22.1853L4.125 18.8504V21.4286C4.125 22.6138 4.79531 23.5714 5.625 23.5714H7.875C8.70469 23.5714 9.375 22.6138 9.375 21.4286V18.8504Z" fill="white"/>
</svg>
