<svg width="41" height="41" viewBox="0 0 41 41" fill="none" xmlns="http://www.w3.org/2000/svg">
<path d="M34.3455 6.65459C31.1323 3.4204 26.8913 1.40863 22.3538 0.966101C17.8164 0.523575 13.2666 1.67803 9.48909 4.23043C5.71154 6.78283 2.94288 10.5732 1.66042 14.9481C0.377963 19.3231 0.662083 24.0084 2.4638 28.1963C2.65158 28.5855 2.7132 29.0236 2.64005 29.4496L0.916715 37.7333C0.85032 38.0509 0.863878 38.3801 0.956171 38.6911C1.04846 39.0022 1.2166 39.2854 1.44546 39.5154C1.63308 39.7017 1.85647 39.848 2.10216 39.9456C2.34785 40.0432 2.61076 40.0901 2.87505 40.0833H3.26671L11.6484 38.3992C12.0744 38.3479 12.5064 38.4087 12.9017 38.5754C17.0896 40.3771 21.7749 40.6613 26.1498 39.3788C30.5247 38.0963 34.3151 35.3277 36.8675 31.5501C39.4199 27.7726 40.5744 23.2229 40.1319 18.6854C39.6893 14.1479 37.6776 9.90696 34.4434 6.69375L34.3455 6.65459ZM12.6667 22.4583C12.2794 22.4583 11.9008 22.3435 11.5787 22.1283C11.2567 21.9131 11.0057 21.6073 10.8575 21.2494C10.7092 20.8916 10.6704 20.4978 10.746 20.118C10.8216 19.7381 11.0081 19.3891 11.282 19.1153C11.5558 18.8414 11.9048 18.6549 12.2847 18.5793C12.6645 18.5037 13.0583 18.5425 13.4161 18.6907C13.774 18.839 14.0798 19.09 14.295 19.412C14.5102 19.7341 14.625 20.1127 14.625 20.5C14.625 21.0194 14.4187 21.5175 14.0515 21.8848C13.6842 22.252 13.1861 22.4583 12.6667 22.4583ZM20.5 22.4583C20.1127 22.4583 19.7341 22.3435 19.4121 22.1283C19.09 21.9131 18.839 21.6073 18.6908 21.2494C18.5426 20.8916 18.5038 20.4978 18.5793 20.118C18.6549 19.7381 18.8414 19.3891 19.1153 19.1153C19.3892 18.8414 19.7381 18.6549 20.118 18.5793C20.4979 18.5037 20.8916 18.5425 21.2495 18.6907C21.6073 18.839 21.9132 19.09 22.1283 19.412C22.3435 19.7341 22.4584 20.1127 22.4584 20.5C22.4584 21.0194 22.2521 21.5175 21.8848 21.8848C21.5175 22.252 21.0194 22.4583 20.5 22.4583ZM28.3334 22.4583C27.9461 22.4583 27.5674 22.3435 27.2454 22.1283C26.9233 21.9131 26.6723 21.6073 26.5241 21.2494C26.3759 20.8916 26.3371 20.4978 26.4127 20.118C26.4882 19.7381 26.6748 19.3891 26.9486 19.1153C27.2225 18.8414 27.5714 18.6549 27.9513 18.5793C28.3312 18.5037 28.725 18.5425 29.0828 18.6907C29.4406 18.839 29.7465 19.09 29.9617 19.412C30.1769 19.7341 30.2917 20.1127 30.2917 20.5C30.2917 21.0194 30.0854 21.5175 29.7181 21.8848C29.3509 22.252 28.8528 22.4583 28.3334 22.4583Z" fill="url(#paint0_linear_285_497)"/>
<path d="M34.3455 6.65459C31.1323 3.4204 26.8913 1.40863 22.3538 0.966101C17.8164 0.523575 13.2666 1.67803 9.48909 4.23043C5.71154 6.78283 2.94288 10.5732 1.66042 14.9481C0.377963 19.3231 0.662083 24.0084 2.4638 28.1963C2.65158 28.5855 2.7132 29.0236 2.64005 29.4496L0.916715 37.7333C0.85032 38.0509 0.863878 38.3801 0.956171 38.6911C1.04846 39.0022 1.2166 39.2854 1.44546 39.5154C1.63308 39.7017 1.85647 39.848 2.10216 39.9456C2.34785 40.0432 2.61076 40.0901 2.87505 40.0833H3.26671L11.6484 38.3992C12.0744 38.3479 12.5064 38.4087 12.9017 38.5754C17.0896 40.3771 21.7749 40.6613 26.1498 39.3788C30.5247 38.0963 34.3151 35.3277 36.8675 31.5501C39.4199 27.7726 40.5744 23.2229 40.1319 18.6854C39.6893 14.1479 37.6776 9.90696 34.4434 6.69375L34.3455 6.65459ZM12.6667 22.4583C12.2794 22.4583 11.9008 22.3435 11.5787 22.1283C11.2567 21.9131 11.0057 21.6073 10.8575 21.2494C10.7092 20.8916 10.6704 20.4978 10.746 20.118C10.8216 19.7381 11.0081 19.3891 11.282 19.1153C11.5558 18.8414 11.9048 18.6549 12.2847 18.5793C12.6645 18.5037 13.0583 18.5425 13.4161 18.6907C13.774 18.839 14.0798 19.09 14.295 19.412C14.5102 19.7341 14.625 20.1127 14.625 20.5C14.625 21.0194 14.4187 21.5175 14.0515 21.8848C13.6842 22.252 13.1861 22.4583 12.6667 22.4583ZM20.5 22.4583C20.1127 22.4583 19.7341 22.3435 19.4121 22.1283C19.09 21.9131 18.839 21.6073 18.6908 21.2494C18.5426 20.8916 18.5038 20.4978 18.5793 20.118C18.6549 19.7381 18.8414 19.3891 19.1153 19.1153C19.3892 18.8414 19.7381 18.6549 20.118 18.5793C20.4979 18.5037 20.8916 18.5425 21.2495 18.6907C21.6073 18.839 21.9132 19.09 22.1283 19.412C22.3435 19.7341 22.4584 20.1127 22.4584 20.5C22.4584 21.0194 22.2521 21.5175 21.8848 21.8848C21.5175 22.252 21.0194 22.4583 20.5 22.4583ZM28.3334 22.4583C27.9461 22.4583 27.5674 22.3435 27.2454 22.1283C26.9233 21.9131 26.6723 21.6073 26.5241 21.2494C26.3759 20.8916 26.3371 20.4978 26.4127 20.118C26.4882 19.7381 26.6748 19.3891 26.9486 19.1153C27.2225 18.8414 27.5714 18.6549 27.9513 18.5793C28.3312 18.5037 28.725 18.5425 29.0828 18.6907C29.4406 18.839 29.7465 19.09 29.9617 19.412C30.1769 19.7341 30.2917 20.1127 30.2917 20.5C30.2917 21.0194 30.0854 21.5175 29.7181 21.8848C29.3509 22.252 28.8528 22.4583 28.3334 22.4583Z" fill="#5363DD"/>
<defs>
<linearGradient id="paint0_linear_285_497" x1="-6.35879" y1="-10.4618" x2="45.4886" y2="-6.63195" gradientUnits="userSpaceOnUse">
<stop stop-color="#F5963C"/>
<stop offset="1" stop-color="#F33B67"/>
</linearGradient>
</defs>
</svg>
