<svg width="28" height="36" viewBox="0 0 28 36" fill="none" xmlns="http://www.w3.org/2000/svg">
<path d="M13.9978 22.7368C17.3553 22.7368 20.0655 20.1979 20.0655 17.0526V5.68421C20.0655 2.53895 17.3553 0 13.9978 0C10.6404 0 7.93019 2.53895 7.93019 5.68421V17.0526C7.93019 20.1979 10.6404 22.7368 13.9978 22.7368ZM25.9511 17.0526C24.9601 17.0526 24.1308 17.7347 23.969 18.6632C23.1398 23.1158 18.9936 26.5263 13.9978 26.5263C9.00214 26.5263 4.85591 23.1158 4.02667 18.6632C3.95534 18.2175 3.71645 17.8103 3.35305 17.515C2.98964 17.2198 2.52561 17.0558 2.04457 17.0526C0.810811 17.0526 -0.160014 18.0758 0.0220154 19.2126C1.01307 24.8968 5.86719 29.3495 11.9753 30.1642V34.1053C11.9753 35.1474 12.8854 36 13.9978 36C15.1103 36 16.0204 35.1474 16.0204 34.1053V30.1642C18.9966 29.7659 21.76 28.4895 23.9094 26.5202C26.0588 24.5509 27.4824 21.9912 27.9737 19.2126C28.1759 18.0758 27.1849 17.0526 25.9511 17.0526Z" fill="#5363DD"/>
</svg>
