<svg width="14" height="14" viewBox="0 0 14 14" fill="none" xmlns="http://www.w3.org/2000/svg">
<path d="M14 6.5634C14 10.1883 10.8658 13.1268 7 13.1268C6.3067 13.1278 5.61626 13.0313 4.94637 12.8399C4.43537 13.1174 3.262 13.65 1.288 13.9969C1.113 14.0269 0.98 13.8319 1.04913 13.6575C1.35888 12.8736 1.63887 11.8291 1.72287 10.8765C0.651 9.72321 0 8.21363 0 6.5634C0 2.93853 3.13425 0 7 0C10.8658 0 14 2.93853 14 6.5634ZM3.9375 3.75051C3.82147 3.75051 3.71019 3.79991 3.62814 3.88783C3.54609 3.97575 3.5 4.09499 3.5 4.21933C3.5 4.34367 3.54609 4.46291 3.62814 4.55083C3.71019 4.63875 3.82147 4.68814 3.9375 4.68814H10.0625C10.1785 4.68814 10.2898 4.63875 10.3719 4.55083C10.4539 4.46291 10.5 4.34367 10.5 4.21933C10.5 4.09499 10.4539 3.97575 10.3719 3.88783C10.2898 3.79991 10.1785 3.75051 10.0625 3.75051H3.9375ZM3.9375 6.09459C3.82147 6.09459 3.71019 6.14398 3.62814 6.2319C3.54609 6.31982 3.5 6.43906 3.5 6.5634C3.5 6.68774 3.54609 6.80698 3.62814 6.8949C3.71019 6.98282 3.82147 7.03222 3.9375 7.03222H10.0625C10.1785 7.03222 10.2898 6.98282 10.3719 6.8949C10.4539 6.80698 10.5 6.68774 10.5 6.5634C10.5 6.43906 10.4539 6.31982 10.3719 6.2319C10.2898 6.14398 10.1785 6.09459 10.0625 6.09459H3.9375ZM3.9375 8.43866C3.82147 8.43866 3.71019 8.48805 3.62814 8.57597C3.54609 8.66389 3.5 8.78314 3.5 8.90747C3.5 9.03181 3.54609 9.15106 3.62814 9.23898C3.71019 9.3269 3.82147 9.37629 3.9375 9.37629H7.4375C7.55353 9.37629 7.66481 9.3269 7.74686 9.23898C7.82891 9.15106 7.875 9.03181 7.875 8.90747C7.875 8.78314 7.82891 8.66389 7.74686 8.57597C7.66481 8.48805 7.55353 8.43866 7.4375 8.43866H3.9375Z" fill="#F76A7B"/>
</svg>
