<svg width="14" height="14" viewBox="0 0 14 14" fill="none" xmlns="http://www.w3.org/2000/svg">
<path d="M2.34325 10.2145C2.43407 10.3122 2.50367 10.4302 2.54707 10.56C2.59048 10.6898 2.60663 10.8283 2.59437 10.9656C2.53288 11.6009 2.41629 12.2287 2.24612 12.8408C3.46675 12.538 4.21225 12.1873 4.55088 12.0035C4.74294 11.8993 4.96413 11.8746 5.17212 11.9341C5.76838 12.1045 6.38292 12.1902 7 12.1892C10.4965 12.1892 13.125 9.55725 13.125 6.5634C13.125 3.57049 10.4965 0.937629 7 0.937629C3.5035 0.937629 0.875 3.57049 0.875 6.5634C0.875 7.93984 1.41487 9.21689 2.34325 10.2145ZM1.91187 13.876C1.70456 13.92 1.49657 13.9603 1.288 13.9969C1.113 14.0269 0.98 13.8319 1.04913 13.6575C1.12682 13.4612 1.19803 13.2619 1.26262 13.0602L1.26525 13.0509C1.48225 12.3758 1.659 11.5994 1.72375 10.8765C0.650125 9.72321 0 8.21363 0 6.5634C0 2.93853 3.13425 0 7 0C10.8658 0 14 2.93853 14 6.5634C14 10.1883 10.8658 13.1268 7 13.1268C6.3067 13.1278 5.61626 13.0313 4.94637 12.8399C4.49137 13.0865 3.51225 13.5356 1.91187 13.876Z" fill="#F76A7B"/>
<path d="M3.5 4.2193C3.5 4.09497 3.54609 3.97572 3.62814 3.8878C3.71019 3.79988 3.82147 3.75049 3.9375 3.75049H10.0625C10.1785 3.75049 10.2898 3.79988 10.3719 3.8878C10.4539 3.97572 10.5 4.09497 10.5 4.2193C10.5 4.34364 10.4539 4.46288 10.3719 4.5508C10.2898 4.63872 10.1785 4.68812 10.0625 4.68812H3.9375C3.82147 4.68812 3.71019 4.63872 3.62814 4.5508C3.54609 4.46288 3.5 4.34364 3.5 4.2193ZM3.5 6.56337C3.5 6.43904 3.54609 6.31979 3.62814 6.23187C3.71019 6.14395 3.82147 6.09456 3.9375 6.09456H10.0625C10.1785 6.09456 10.2898 6.14395 10.3719 6.23187C10.4539 6.31979 10.5 6.43904 10.5 6.56337C10.5 6.68771 10.4539 6.80696 10.3719 6.89488C10.2898 6.9828 10.1785 7.03219 10.0625 7.03219H3.9375C3.82147 7.03219 3.71019 6.9828 3.62814 6.89488C3.54609 6.80696 3.5 6.68771 3.5 6.56337ZM3.5 8.90745C3.5 8.78311 3.54609 8.66386 3.62814 8.57594C3.71019 8.48802 3.82147 8.43863 3.9375 8.43863H7.4375C7.55353 8.43863 7.66481 8.48802 7.74686 8.57594C7.82891 8.66386 7.875 8.78311 7.875 8.90745C7.875 9.03178 7.82891 9.15103 7.74686 9.23895C7.66481 9.32687 7.55353 9.37626 7.4375 9.37626H3.9375C3.82147 9.37626 3.71019 9.32687 3.62814 9.23895C3.54609 9.15103 3.5 9.03178 3.5 8.90745Z" fill="#F76A7B"/>
</svg>
