<svg width="355" height="355" viewBox="0 0 355 355" fill="none" xmlns="http://www.w3.org/2000/svg">
<g opacity="0.85">
<path d="M322.333 153.488C322.801 150.08 317.995 147.282 314.381 146.991C312.656 146.849 310.866 147.119 309.24 146.544C305.705 145.309 304.292 140.743 300.841 139.288C298.264 138.201 295.296 139.167 292.79 140.424C290.283 141.68 287.82 143.264 285.022 143.441C282.594 143.597 279.953 142.696 277.83 143.881C276.247 144.769 275.416 146.594 273.953 147.666C272.526 148.717 270.659 148.944 268.891 149.036C267.116 149.135 265.284 149.15 263.673 149.888C262.061 150.626 260.726 152.33 261.06 154.077L322.333 153.488Z" fill="#F5F5F5"/>
<path d="M207.071 117.888L207.71 118.953C208.428 120.153 209.478 121.112 210.728 121.737L211.843 122.29L210.778 122.929C209.578 123.646 208.619 124.697 207.994 125.947L207.441 127.062L206.802 125.997C206.085 124.797 205.034 123.838 203.784 123.213L202.669 122.66L203.734 122.021C204.934 121.303 205.893 120.253 206.518 119.003L207.071 117.888Z" fill="#E0E0E0"/>
<path d="M27.2213 185.303L27.8603 186.368C28.5774 187.568 29.6282 188.526 30.8778 189.151L31.9925 189.705L30.9275 190.344C29.7276 191.061 28.7691 192.112 28.1443 193.361L27.5905 194.476L26.9515 193.411C26.2344 192.211 25.1836 191.253 23.934 190.628L22.8193 190.074L23.8843 189.435C25.0842 188.718 26.0427 187.667 26.6675 186.418L27.2213 185.303Z" fill="#E0E0E0"/>
<path d="M119.514 65.5117L120.061 70.9503C120.189 72.2567 120.721 73.5205 121.687 74.408C121.708 74.4293 121.729 74.4435 121.751 74.4648C122.674 75.2955 123.895 75.7286 125.145 75.7925L129.44 76.0126L125.024 76.8007C123.881 77.0066 122.802 77.5249 121.999 78.3627C121.914 78.455 121.822 78.5473 121.744 78.6396C120.97 79.52 120.537 80.6418 120.437 81.8062L119.947 87.2306L119.408 82.0973C119.273 80.8051 118.74 79.5555 117.789 78.668C117.732 78.6183 117.675 78.5615 117.619 78.5118C116.759 77.7592 115.666 77.3332 114.53 77.2125L109.986 76.7368L114.239 76.2185C115.496 76.0623 116.71 75.5369 117.576 74.6068C117.626 74.55 117.682 74.4932 117.732 74.4364C118.513 73.556 118.939 72.4129 119.046 71.2414L119.514 65.5117Z" fill="#E0E0E0"/>
<path d="M30.3312 63.9L30.7359 67.9044C30.8353 68.8629 31.2258 69.793 31.9358 70.4533C31.95 70.4675 31.9642 70.4817 31.9855 70.4959C32.6671 71.1136 33.5688 71.426 34.4847 71.4757L37.6513 71.639L34.3924 72.2212C33.5475 72.3703 32.7594 72.7537 32.163 73.3714C32.0991 73.4353 32.0352 73.5063 31.9713 73.5773C31.4033 74.2234 31.0838 75.0541 31.0057 75.9132L30.6436 79.9105L30.246 76.1333C30.1466 75.1819 29.7561 74.2589 29.0532 73.6057C29.0106 73.5702 28.968 73.5276 28.9254 73.4921C28.2935 72.9383 27.4841 72.6188 26.6463 72.5336L23.3022 72.1857L26.4333 71.8023C27.3634 71.6887 28.2509 71.2982 28.8899 70.6166C28.9254 70.574 28.968 70.5314 29.0035 70.4888C29.5786 69.8356 29.8981 68.9978 29.9691 68.1387L30.3312 63.9Z" fill="#E0E0E0"/>
<path d="M298.882 183.84L299.286 187.845C299.386 188.803 299.776 189.733 300.486 190.394C300.5 190.408 300.515 190.422 300.536 190.436C301.217 191.054 302.119 191.366 303.035 191.416L306.202 191.579L302.943 192.162C302.098 192.311 301.31 192.694 300.713 193.312C300.649 193.376 300.586 193.447 300.522 193.518C299.954 194.164 299.634 194.994 299.556 195.854L299.194 199.851L298.796 196.074C298.697 195.122 298.306 194.199 297.604 193.546C297.561 193.511 297.518 193.468 297.476 193.432C296.844 192.879 296.034 192.559 295.197 192.474L291.853 192.126L294.984 191.743C295.914 191.629 296.801 191.239 297.44 190.557C297.476 190.514 297.518 190.472 297.554 190.429C298.129 189.776 298.448 188.938 298.519 188.079L298.882 183.84Z" fill="#E0E0E0"/>
<path d="M335.163 105.754L335.567 109.759C335.667 110.717 336.057 111.647 336.767 112.308C336.781 112.322 336.796 112.336 336.817 112.35C337.498 112.968 338.4 113.28 339.316 113.33L342.483 113.493L339.224 114.076C338.379 114.225 337.591 114.608 336.994 115.226C336.93 115.29 336.867 115.361 336.803 115.432C336.235 116.078 335.915 116.909 335.837 117.768L335.475 121.765L335.077 117.988C334.978 117.036 334.587 116.113 333.885 115.46C333.842 115.425 333.799 115.382 333.757 115.347C333.125 114.793 332.315 114.473 331.478 114.388L328.134 114.04L331.265 113.657C332.195 113.543 333.082 113.153 333.721 112.471C333.757 112.428 333.799 112.386 333.835 112.343C334.41 111.69 334.729 110.852 334.8 109.993L335.163 105.754Z" fill="#E0E0E0"/>
<path d="M236.593 35.0385L236.913 35.571C237.275 36.1674 237.793 36.6502 238.425 36.9626L238.986 37.2395L238.454 37.559C237.857 37.9211 237.374 38.4394 237.062 39.0713L236.785 39.6322L236.466 39.0997C236.103 38.5033 235.585 38.0205 234.953 37.7081L234.392 37.4312L234.925 37.1117C235.521 36.7496 236.004 36.2313 236.316 35.5994L236.593 35.0385Z" fill="#E0E0E0"/>
<path d="M194.938 89.7298L195.257 90.2623C195.619 90.8587 196.137 91.3415 196.769 91.6539L197.33 91.9308L196.798 92.2503C196.201 92.6124 195.719 93.1307 195.406 93.7626L195.129 94.3235L194.81 93.791C194.448 93.1946 193.929 92.7118 193.297 92.3994L192.737 92.1225L193.269 91.803C193.865 91.4409 194.348 90.9226 194.661 90.2907L194.938 89.7298Z" fill="#E0E0E0"/>
<path d="M323.675 42.5006L323.994 43.0331C324.356 43.6295 324.875 44.1123 325.506 44.4247L326.067 44.7016L325.535 45.0211C324.938 45.3832 324.456 45.9015 324.143 46.5334L323.866 47.0943L323.547 46.5618C323.185 45.9654 322.666 45.4826 322.035 45.1702L321.474 44.8933L322.006 44.5738C322.603 44.2117 323.085 43.6934 323.398 43.0615L323.675 42.5006Z" fill="#E0E0E0"/>
<path d="M139.387 129.667L139.707 130.2C140.069 130.796 140.587 131.279 141.219 131.591L141.78 131.868L141.247 132.188C140.651 132.55 140.168 133.068 139.856 133.7L139.579 134.261L139.259 133.729C138.897 133.132 138.379 132.649 137.747 132.337L137.186 132.06L137.719 131.74C138.315 131.378 138.798 130.86 139.11 130.228L139.387 129.667Z" fill="#E0E0E0"/>
<path d="M182.953 81.2524C200.19 81.2524 214.164 67.2785 214.164 50.0408C214.164 32.8031 200.19 18.8292 182.953 18.8292C165.715 18.8292 151.741 32.8031 151.741 50.0408C151.741 67.2785 165.715 81.2524 182.953 81.2524Z" fill="#EBEBEB"/>
<path d="M187.241 78.3201C170.002 78.3201 156.03 64.3473 156.03 47.1085C156.03 37.3389 160.524 28.6201 167.553 22.8975C158.11 28.2651 151.741 38.4039 151.741 50.0408C151.741 67.2796 165.714 81.2524 182.953 81.2524C190.422 81.2524 197.273 78.6254 202.648 74.2518C198.097 76.8362 192.843 78.3201 187.241 78.3201Z" fill="#E0E0E0"/>
<path d="M205.42 42.9587C206.025 39.2394 203.501 35.7334 199.782 35.1278C196.063 34.5222 192.557 37.0464 191.951 40.7657C191.345 44.4851 193.87 47.991 197.589 48.5966C201.308 49.2022 204.814 46.678 205.42 42.9587Z" fill="#F5F5F5"/>
<path d="M208.016 59.2353C208.016 61.8126 205.929 63.9 203.351 63.9C200.774 63.9 198.687 61.8126 198.687 59.2353C198.687 56.658 200.774 54.5706 203.351 54.5706C205.921 54.5635 208.016 56.658 208.016 59.2353Z" fill="#F5F5F5"/>
<path d="M211.076 41.7906C211.062 41.7977 211.005 41.6628 210.891 41.4001C210.778 41.1445 210.643 40.7469 210.423 40.2641C210.011 39.2843 209.358 37.8856 208.378 36.2526C206.461 33.0008 203.024 28.8331 198.054 25.8156C193.084 22.791 187.809 21.655 184.032 21.4491C182.136 21.3355 180.596 21.3923 179.531 21.4775C178.998 21.5059 178.586 21.5698 178.309 21.584C178.032 21.6053 177.883 21.6124 177.876 21.6053C177.876 21.5911 178.018 21.5627 178.295 21.513C178.572 21.4704 178.984 21.3852 179.516 21.3355C180.574 21.2006 182.129 21.1083 184.046 21.1864C187.852 21.3284 193.212 22.436 198.246 25.4961C203.28 28.5562 206.724 32.802 208.598 36.1177C209.549 37.7791 210.181 39.1991 210.55 40.2073C210.749 40.7043 210.863 41.1019 210.955 41.3717C211.055 41.6415 211.09 41.7835 211.076 41.7906Z" fill="white"/>
<path d="M211.58 55.0818C211.466 55.0463 212.325 53.1009 212.404 50.5378C212.51 47.9747 211.793 45.9796 211.907 45.9512C211.949 45.937 212.183 46.4127 212.404 47.2363C212.631 48.0599 212.815 49.2385 212.773 50.552C212.723 51.8584 212.453 53.0299 212.169 53.8322C211.885 54.6416 211.623 55.096 211.58 55.0818Z" fill="white"/>
<path d="M83.9149 108.594C84.3835 105.186 79.5768 102.389 75.9629 102.098C74.2376 101.956 72.4484 102.226 70.8225 101.651C67.2867 100.415 65.8738 95.85 62.4232 94.3945C59.8459 93.3082 56.8781 94.2738 54.3718 95.5305C51.8726 96.7872 49.4018 98.3705 46.6044 98.548C44.1762 98.7042 41.535 97.8025 39.4121 98.9882C37.8288 99.8757 36.9981 101.7 35.5355 102.772C34.1084 103.823 32.2411 104.05 30.4732 104.143C28.6982 104.242 26.8664 104.256 25.2547 104.995C23.643 105.733 22.3082 107.437 22.6419 109.184L83.9149 108.594Z" fill="#EBEBEB"/>
<path d="M113.579 31.7867C113.912 29.3443 110.462 27.3279 107.87 27.122C106.635 27.0226 105.35 27.2143 104.178 26.8025C101.644 25.915 100.628 22.6419 98.1504 21.5982C96.2973 20.8172 94.1673 21.513 92.371 22.4147C90.5747 23.3164 88.7997 24.4524 86.7975 24.5802C85.0509 24.6938 83.1623 24.0477 81.6358 24.8997C80.4998 25.5316 79.9034 26.8451 78.8526 27.619C77.8302 28.3787 76.4883 28.5349 75.2174 28.6059C73.9465 28.6769 72.6259 28.6911 71.4686 29.2165C70.3113 29.749 69.3528 30.9702 69.5942 32.2198L113.579 31.7867Z" fill="#F5F5F5"/>
<path d="M309.127 86.3005C309.461 83.8581 306.01 81.8417 303.419 81.6358C302.183 81.5364 300.898 81.7281 299.727 81.3163C297.192 80.4288 296.177 77.1557 293.699 76.112C291.846 75.331 289.716 76.0268 287.919 76.9285C286.123 77.8302 284.348 78.9662 282.346 79.094C280.599 79.2076 278.711 78.5615 277.184 79.4135C276.048 80.0454 275.452 81.3589 274.401 82.1328C273.379 82.8925 272.037 83.0487 270.766 83.1197C269.495 83.1907 268.174 83.2049 267.017 83.7303C265.86 84.2628 264.901 85.484 265.142 86.7336L309.127 86.3005Z" fill="#EBEBEB"/>
<path d="M345.216 295.388C345.216 295.488 270.119 295.573 177.507 295.573C84.8591 295.573 9.78369 295.488 9.78369 295.388C9.78369 295.289 84.8591 295.204 177.507 295.204C270.119 295.197 345.216 295.282 345.216 295.388Z" fill="#263238"/>
<path d="M299.173 295.857C299.123 295.878 298.839 295.183 298.356 294.082C297.873 292.982 297.163 291.476 296.255 289.879C295.346 288.281 294.423 286.904 293.727 285.917C293.031 284.937 292.577 284.341 292.619 284.305C292.655 284.277 293.18 284.809 293.933 285.761C294.686 286.712 295.658 288.083 296.574 289.694C297.49 291.306 298.165 292.847 298.591 293.983C299.024 295.119 299.215 295.843 299.173 295.857Z" fill="#263238"/>
<path d="M298.669 273.755C298.697 273.748 298.782 274.053 298.924 274.6C299.066 275.153 299.258 275.949 299.478 276.943C299.925 278.923 300.493 281.671 301.054 284.717C301.615 287.763 302.063 290.539 302.354 292.548C302.496 293.557 302.609 294.366 302.673 294.934C302.737 295.495 302.758 295.814 302.737 295.814C302.709 295.821 302.638 295.509 302.531 294.955C302.418 294.323 302.268 293.528 302.098 292.591C301.722 290.518 301.239 287.798 300.692 284.788C300.124 281.785 299.613 279.073 299.223 276.999C299.045 276.062 298.903 275.267 298.782 274.635C298.69 274.074 298.647 273.762 298.669 273.755Z" fill="#263238"/>
<path d="M308.033 284.121C308.147 284.17 306.862 286.584 306.393 289.865C305.889 293.145 306.415 295.829 306.294 295.843C306.251 295.85 306.067 295.197 305.939 294.103C305.811 293.01 305.783 291.476 306.024 289.815C306.273 288.154 306.748 286.691 307.189 285.683C307.629 284.675 307.998 284.099 308.033 284.121Z" fill="#263238"/>
<path d="M326.181 269.168C327.424 269.708 328.339 270.858 328.794 272.129C329.255 273.4 329.291 274.791 329.142 276.14C328.844 278.746 327.367 281.373 325.776 283.453C323.582 281.543 323.078 278.206 322.929 276.495C322.695 273.79 323.909 268.77 326.181 269.168Z" fill="#FF725E"/>
<path d="M328.325 287.749C327.977 286.279 328.588 284.667 329.717 283.659C330.846 282.651 332.422 282.225 333.934 282.346C334.63 282.403 335.383 282.601 335.787 283.176C336.164 283.716 336.121 284.462 335.816 285.044C335.511 285.626 334.992 286.059 334.438 286.407C332.529 287.586 330.47 288.395 328.325 287.749Z" fill="#FF725E"/>
<path d="M325.514 295.729C325.5 295.729 325.528 295.537 325.592 295.197C325.663 294.82 325.748 294.338 325.855 293.748C326.096 292.541 326.408 290.809 327.346 289.133C328.269 287.458 329.568 286.222 330.661 285.612C331.201 285.299 331.677 285.115 332.01 285.015C332.174 284.958 332.309 284.937 332.401 284.916C332.493 284.895 332.536 284.887 332.543 284.895C332.557 284.937 331.783 285.079 330.732 285.725C329.682 286.357 328.425 287.578 327.516 289.226C326.593 290.873 326.266 292.577 325.99 293.777C325.855 294.38 325.748 294.87 325.663 295.211C325.578 295.545 325.528 295.729 325.514 295.729Z" fill="#263238"/>
<path d="M325.599 273.08C325.606 273.08 325.613 273.158 325.627 273.315C325.634 273.485 325.649 273.712 325.67 273.982C325.698 274.564 325.734 275.409 325.769 276.453C325.84 278.54 325.89 281.423 325.876 284.604C325.862 287.791 325.783 290.674 325.698 292.754C325.656 293.798 325.613 294.643 325.578 295.225C325.556 295.502 325.542 295.722 325.535 295.893C325.521 296.049 325.514 296.127 325.507 296.127C325.499 296.127 325.5 296.049 325.5 295.893C325.5 295.722 325.507 295.495 325.507 295.218C325.521 294.615 325.542 293.777 325.563 292.747C325.613 290.66 325.67 287.784 325.684 284.596C325.698 281.416 325.663 278.533 325.634 276.446C325.62 275.423 325.606 274.585 325.599 273.975C325.599 273.698 325.599 273.478 325.592 273.3C325.585 273.158 325.592 273.08 325.599 273.08Z" fill="#263238"/>
<path d="M324.534 289.332C324.037 286.18 321.914 283.333 319.039 281.955C318.307 281.607 317.349 281.373 316.745 281.92C316.142 282.466 316.277 283.446 316.575 284.206C317.803 287.358 321.098 289.588 324.484 289.545" fill="#FF725E"/>
<path d="M319.394 284.426C319.401 284.412 319.564 284.49 319.855 284.632C320.004 284.703 320.182 284.788 320.38 284.909C320.579 285.029 320.814 285.15 321.048 285.328C321.289 285.498 321.552 285.676 321.815 285.903C322.084 286.116 322.354 286.371 322.631 286.641C323.171 287.195 323.717 287.862 324.179 288.629C324.633 289.403 324.967 290.191 325.201 290.937C325.308 291.313 325.407 291.668 325.457 292.009C325.528 292.35 325.556 292.669 325.592 292.96C325.634 293.251 325.62 293.514 325.627 293.748C325.634 293.983 325.62 294.181 325.613 294.345C325.592 294.671 325.571 294.849 325.556 294.849C325.514 294.849 325.585 294.125 325.457 292.974C325.421 292.69 325.386 292.371 325.308 292.044C325.251 291.711 325.145 291.363 325.038 290.993C324.804 290.269 324.47 289.495 324.023 288.736C323.568 287.983 323.036 287.323 322.51 286.769C322.241 286.499 321.985 286.244 321.722 286.031C321.474 285.803 321.211 285.619 320.984 285.441C320.033 284.767 319.372 284.461 319.394 284.426Z" fill="#263238"/>
<path d="M177.117 328.325C177.06 328.34 176.811 327.544 176.364 326.273C175.917 325.003 175.242 323.277 174.362 321.424C173.474 319.578 172.544 317.966 171.841 316.823C171.138 315.68 170.67 314.984 170.712 314.956C170.748 314.928 171.287 315.567 172.061 316.681C172.828 317.796 173.801 319.401 174.695 321.268C175.59 323.135 176.229 324.896 176.612 326.195C177.003 327.495 177.159 328.318 177.117 328.325Z" fill="#263238"/>
<path d="M179.083 327.232C178.984 327.246 178.317 323.448 177.599 318.747C176.882 314.04 176.378 310.22 176.478 310.206C176.577 310.192 177.244 313.99 177.961 318.698C178.686 323.391 179.183 327.218 179.083 327.232Z" fill="#263238"/>
<path d="M182.953 312.634C183.01 312.656 182.733 313.515 182.378 314.928C182.023 316.34 181.632 318.314 181.433 320.522C181.242 322.73 181.277 324.747 181.377 326.202C181.469 327.658 181.59 328.552 181.533 328.56C181.504 328.567 181.455 328.347 181.37 327.942C181.284 327.537 181.199 326.955 181.114 326.224C180.951 324.768 180.865 322.73 181.064 320.494C181.263 318.257 181.703 316.269 182.129 314.864C182.335 314.161 182.527 313.6 182.683 313.216C182.832 312.826 182.924 312.62 182.953 312.634Z" fill="#263238"/>
<path d="M28.4355 278.831C28.4568 278.817 28.613 279.009 28.8757 279.371C29.1384 279.726 29.4934 280.273 29.891 280.961C30.6933 282.339 31.6447 284.348 32.3192 286.691C32.9937 289.034 33.2635 291.242 33.3203 292.832C33.3487 293.628 33.3416 294.274 33.3061 294.721C33.2777 295.168 33.2494 295.41 33.221 295.41C33.1571 295.41 33.1784 294.423 33.0577 292.854C32.937 291.277 32.6316 289.112 31.9642 286.797C31.2897 284.483 30.3951 282.488 29.6567 281.089C28.9254 279.69 28.3858 278.867 28.4355 278.831Z" fill="#263238"/>
<path d="M36.3449 273.968C36.3733 273.968 36.4301 274.259 36.5153 274.791C36.6005 275.324 36.7141 276.098 36.8348 277.049C37.0833 278.959 37.3744 281.607 37.63 284.54C37.8785 287.472 38.0418 290.127 38.127 292.059C38.1696 293.024 38.1909 293.798 38.198 294.338C38.2051 294.877 38.198 295.175 38.1696 295.175C38.1412 295.175 38.1057 294.877 38.056 294.345C38.0063 293.727 37.9424 292.967 37.8714 292.073C37.7081 290.07 37.5022 287.458 37.2679 284.575C37.0052 281.693 36.7638 279.087 36.5792 277.085C36.5011 276.183 36.4301 275.423 36.3733 274.813C36.3307 274.266 36.3236 273.968 36.3449 273.968Z" fill="#263238"/>
<path d="M45.1845 283.638C45.2981 283.702 43.6367 285.924 42.8557 289.176C42.0392 292.421 42.4652 295.161 42.3445 295.161C42.3019 295.168 42.1386 294.501 42.0818 293.393C42.0179 292.286 42.096 290.738 42.5007 289.091C42.9125 287.444 43.5586 286.038 44.1266 285.086C44.7017 284.128 45.1561 283.609 45.1845 283.638Z" fill="#263238"/>
<path d="M52.8525 312.826C54.095 313.366 55.0109 314.516 55.4653 315.787C55.9197 317.058 55.9623 318.449 55.8132 319.798C55.515 322.404 54.0382 325.031 52.4478 327.111C50.2539 325.201 49.7498 321.864 49.6007 320.153C49.3664 317.448 50.5805 312.421 52.8525 312.826Z" fill="#FF725E"/>
<path d="M54.9967 331.4C54.6488 329.93 55.2594 328.318 56.3883 327.31C57.5172 326.302 59.0934 325.876 60.6057 325.997C61.3015 326.053 62.0541 326.252 62.4588 326.827C62.8351 327.367 62.7925 328.112 62.4872 328.694C62.1819 329.277 61.6636 329.71 61.1098 330.058C59.1999 331.243 57.1409 332.046 54.9967 331.4Z" fill="#FF725E"/>
<path d="M52.1852 339.38C52.171 339.38 52.1994 339.188 52.2633 338.847C52.3343 338.471 52.4195 337.988 52.526 337.399C52.7674 336.192 53.0798 334.46 54.017 332.784C54.94 331.108 56.2393 329.873 57.3327 329.262C57.8723 328.95 58.348 328.765 58.6817 328.666C58.845 328.609 58.9799 328.588 59.0722 328.567C59.1645 328.545 59.2071 328.538 59.2142 328.545C59.2284 328.588 58.4545 328.73 57.4037 329.376C56.3529 330.008 55.0962 331.229 54.1874 332.876C53.2644 334.524 52.9378 336.228 52.6609 337.427C52.526 338.031 52.4195 338.521 52.3343 338.862C52.2491 339.202 52.1994 339.387 52.1852 339.38Z" fill="#263238"/>
<path d="M52.2632 316.731C52.2703 316.731 52.2774 316.809 52.2916 316.965C52.2987 317.136 52.3129 317.363 52.3342 317.633C52.3626 318.215 52.3981 319.06 52.4336 320.103C52.5046 322.191 52.5543 325.073 52.5401 328.254C52.5259 331.442 52.4478 334.325 52.3626 336.405C52.32 337.449 52.2774 338.294 52.2419 338.876C52.2206 339.153 52.2064 339.373 52.1993 339.543C52.1851 339.699 52.178 339.778 52.1709 339.778C52.1638 339.778 52.1638 339.699 52.1638 339.543C52.1638 339.373 52.1709 339.146 52.1709 338.869C52.1851 338.265 52.2064 337.427 52.2277 336.398C52.2774 334.311 52.3342 331.435 52.3484 328.247C52.3626 325.066 52.3271 322.184 52.2987 320.096C52.2845 319.074 52.2703 318.236 52.2632 317.626C52.2632 317.349 52.2632 317.129 52.2561 316.951C52.2561 316.816 52.2632 316.731 52.2632 316.731Z" fill="#263238"/>
<path d="M51.2053 332.99C50.7083 329.838 48.5854 326.99 45.7099 325.613C44.9786 325.265 44.0201 325.031 43.4166 325.578C42.8131 326.124 42.948 327.104 43.2462 327.864C44.4745 331.016 47.7689 333.246 51.1556 333.203" fill="#FF725E"/>
<path d="M46.0578 328.084C46.0649 328.07 46.2282 328.148 46.5264 328.29C46.6755 328.361 46.853 328.446 47.0518 328.567C47.2506 328.687 47.4849 328.808 47.7192 328.986C47.9606 329.156 48.2233 329.334 48.486 329.561C48.7558 329.774 49.0256 330.029 49.3025 330.299C49.8421 330.853 50.3888 331.52 50.8503 332.287C51.3047 333.061 51.6384 333.849 51.8727 334.595C51.9792 334.971 52.0786 335.326 52.1283 335.667C52.1993 336.007 52.2277 336.327 52.2632 336.618C52.3058 336.909 52.2916 337.172 52.2987 337.406C52.3058 337.64 52.2916 337.839 52.2845 338.003C52.2632 338.329 52.2419 338.507 52.2277 338.507C52.1851 338.507 52.2561 337.782 52.1283 336.632C52.0928 336.348 52.0573 336.029 51.9792 335.702C51.9224 335.369 51.8159 335.021 51.7094 334.651C51.4751 333.927 51.1414 333.153 50.6941 332.394C50.2397 331.641 49.7072 330.981 49.1818 330.427C48.912 330.157 48.6564 329.902 48.3937 329.689C48.1452 329.461 47.8825 329.277 47.6553 329.099C46.7039 328.418 46.0436 328.119 46.0578 328.084Z" fill="#263238"/>
<g opacity="0.3">
<path opacity="0.3" d="M285.448 298.456C281.11 293.841 274.557 292.129 268.323 291.022C245.759 287.025 222.273 288.281 200.263 294.664L195.278 295.388C204.011 307.288 211.374 317.214 223.65 325.414C235.926 333.615 251.127 338.287 265.618 335.503C274.017 333.892 282.225 329.525 286.762 322.276C291.306 315.02 291.306 304.689 285.448 298.456Z" fill="black"/>
</g>
<path d="M239.284 217.033L217.814 227.512L209.741 208.293C209.741 208.293 208.037 208.754 203.869 200.724C199.702 192.701 192.41 179.168 192.41 179.168C200.071 170.279 211.928 166.005 223.409 168.007L225.112 168.305L239.284 217.033Z" fill="#FFBE9D"/>
<path d="M227.484 179.559C227.597 179.424 232.404 175.022 235.003 180.638C237.601 186.254 231.233 187.809 231.147 187.653C231.062 187.497 227.484 179.559 227.484 179.559Z" fill="#FFBE9D"/>
<path d="M200.042 191.927C199.872 191.941 194.107 193.177 197.068 198.608C200.028 204.04 205.069 199.851 204.998 199.688C204.92 199.531 200.042 191.927 200.042 191.927Z" fill="#FFBE9D"/>
<path d="M229.025 178.011C230.501 183.066 231.893 185.416 232.653 188.903C233.86 194.419 233.235 199.439 229.905 204.175C226.568 208.91 220.377 211.978 214.782 210.621C210.898 209.684 207.661 208.044 205.509 204.778C203.358 201.505 199.858 195.562 198.069 192.076C194.852 185.793 191.38 179.992 191.38 179.992L208.392 167.34L222.074 168.093L229.025 178.011Z" fill="#263238"/>
<path d="M221.875 211.715C221.91 211.857 223.558 211.466 225.283 210.352C227.015 209.237 228.045 207.909 227.924 207.817C227.803 207.703 226.632 208.818 224.971 209.876C223.323 210.948 221.825 211.559 221.875 211.715Z" fill="#263238"/>
<path d="M232.085 186.332C230.246 181.313 227.867 175.718 226.121 170.329C225.467 168.305 224.793 165.252 223.671 163.456C222.542 161.646 221.378 159.793 219.653 158.522C217.487 156.924 214.519 156.399 211.857 157.151C209.194 157.904 206.901 159.906 205.836 162.42C203.493 161.142 200.312 161.461 198.196 163.193C196.088 164.919 195.186 167.943 196.031 170.443C194.093 169.889 191.785 170.769 190.685 172.473C189.584 174.177 189.776 176.563 191.146 178.004C189.918 178.892 189.165 180.397 189.222 181.874C189.279 183.35 190.138 184.749 191.43 185.473C192.942 186.325 194.852 186.247 196.421 186.993C198.232 187.852 199.382 189.847 199.219 191.835" fill="#263238"/>
<path d="M197.557 182.236C197.543 182.25 197.685 182.42 198.026 182.648C198.367 182.875 198.921 183.159 199.702 183.279C200.468 183.4 201.498 183.343 202.499 182.804C203.486 182.278 204.43 181.284 204.806 179.942L204.359 180.035C205.154 181.128 206.695 181.717 208.243 181.54C209.819 181.426 211.374 180.376 212.19 178.913C212.964 177.585 213.199 176.073 213.05 174.731L212.624 175.008C214.384 175.981 216.465 175.846 217.97 175.114C219.525 174.383 220.434 173.048 220.817 171.926C221.215 170.776 221.165 169.796 221.037 169.165C220.909 168.533 220.725 168.227 220.703 168.234C220.661 168.249 220.774 168.575 220.845 169.2C220.909 169.811 220.895 170.748 220.476 171.813C220.064 172.864 219.198 174.049 217.771 174.688C216.379 175.327 214.477 175.413 212.915 174.532L212.432 174.255L212.489 174.809C212.616 176.052 212.389 177.443 211.686 178.65C210.934 179.978 209.599 180.887 208.193 181.007C206.809 181.178 205.46 180.667 204.757 179.744L204.444 179.332L204.317 179.843C204.011 181.029 203.181 181.959 202.3 182.463C201.413 182.981 200.468 183.081 199.744 183.002C198.253 182.832 197.6 182.158 197.557 182.236Z" fill="#455A64"/>
<path d="M196.492 180.028C196.592 179.999 196.017 179.133 196.279 177.614C196.414 176.875 196.805 176.002 197.6 175.356C198.374 174.71 199.538 174.284 200.71 174.447L201.32 174.532L201.001 174.014C200.696 173.524 200.49 172.942 200.39 172.331C200.191 170.954 200.603 169.548 201.384 168.597C202.158 167.624 203.244 167.106 204.167 166.886C206.077 166.46 207.235 167.099 207.256 166.985C207.27 166.957 207.022 166.779 206.482 166.601C205.95 166.438 205.112 166.303 204.089 166.488C203.088 166.673 201.867 167.191 200.965 168.27C200.064 169.328 199.588 170.876 199.808 172.424C199.915 173.112 200.149 173.758 200.504 174.312L200.795 173.879C199.425 173.701 198.125 174.213 197.266 174.972C196.386 175.739 195.995 176.747 195.903 177.557C195.804 178.38 195.967 179.026 196.13 179.431C196.301 179.864 196.464 180.049 196.492 180.028Z" fill="#455A64"/>
<path d="M208.463 174.206C208.52 174.142 208.292 173.9 208.094 173.439C207.895 172.977 207.774 172.296 207.859 171.515C207.945 170.755 208.101 169.946 208.2 169.512C208.342 169.086 208.711 169.143 208.74 169.101C208.761 169.079 208.711 168.966 208.505 168.937C208.321 168.909 207.994 169.044 207.831 169.349C207.668 169.647 207.604 169.953 207.504 170.301C207.412 170.656 207.32 171.053 207.284 171.479C207.185 172.345 207.405 173.162 207.739 173.638C208.065 174.12 208.427 174.262 208.463 174.206Z" fill="#455A64"/>
<path d="M216.039 161.695C216.088 161.646 215.826 161.262 215.187 160.865C214.86 160.673 214.434 160.474 213.902 160.432C213.369 160.375 212.737 160.517 212.226 160.872C211.182 161.596 210.813 162.689 210.65 163.385C210.486 164.102 210.472 164.55 210.55 164.571C210.636 164.592 210.792 164.159 211.047 163.499C211.303 162.846 211.701 161.923 212.545 161.347C213.383 160.751 214.377 160.957 214.988 161.234C215.613 161.497 215.975 161.759 216.039 161.695Z" fill="#455A64"/>
<path d="M224.921 186.567C225.07 186.588 225.439 184.543 225.12 182.051C224.814 179.559 223.962 177.699 223.82 177.756C223.657 177.812 224.246 179.715 224.537 182.136C224.85 184.557 224.743 186.56 224.921 186.567Z" fill="#455A64"/>
<path d="M223.082 189.151C223.238 189.144 223.373 187.703 223.203 185.949C223.039 184.188 222.642 182.811 222.493 182.839C222.329 182.875 222.464 184.28 222.628 186.013C222.791 187.745 222.919 189.158 223.082 189.151Z" fill="#455A64"/>
<path d="M207.554 197.437C207.412 197.472 208.307 199.893 210.643 201.967C212.957 204.061 215.499 204.721 215.52 204.586C215.599 204.423 213.248 203.55 211.04 201.541C208.804 199.567 207.718 197.352 207.554 197.437Z" fill="#455A64"/>
<path d="M203.025 194.675C202.883 194.675 203.145 197.011 204.863 199.233C206.553 201.47 208.754 202.364 208.797 202.222C208.896 202.073 206.93 201.001 205.332 198.878C203.699 196.784 203.195 194.625 203.025 194.675Z" fill="#455A64"/>
<path d="M191.92 178.615C191.941 178.672 191.643 178.814 191.288 179.169C190.926 179.516 190.521 180.12 190.422 180.873C190.33 181.625 190.578 182.314 190.841 182.74C191.103 183.173 191.359 183.386 191.316 183.436C191.295 183.471 190.969 183.329 190.621 182.889C190.273 182.463 189.939 181.696 190.046 180.83C190.159 179.957 190.663 179.303 191.103 178.97C191.558 178.636 191.906 178.572 191.92 178.615Z" fill="white"/>
<path d="M194.93 171.33C194.952 171.38 194.561 171.564 193.951 171.856C193.347 172.154 192.488 172.573 191.842 173.339C191.203 174.099 191.068 175.072 191.21 175.697C191.345 176.336 191.7 176.62 191.65 176.669C191.643 176.705 191.189 176.478 190.961 175.768C190.734 175.079 190.841 173.971 191.565 173.105C192.289 172.26 193.219 171.863 193.858 171.621C194.497 171.38 194.909 171.28 194.93 171.33Z" fill="white"/>
<path d="M201.541 162.775C201.548 162.838 201.029 162.902 200.27 163.215C199.517 163.527 198.523 164.145 197.792 165.146C197.061 166.147 196.769 167.283 196.698 168.093C196.627 168.909 196.72 169.427 196.663 169.434C196.627 169.449 196.436 168.937 196.443 168.078C196.443 167.226 196.713 166.005 197.494 164.926C198.282 163.847 199.368 163.229 200.177 162.966C200.994 162.704 201.534 162.732 201.541 162.775Z" fill="white"/>
<path d="M211.353 158.877C211.402 158.976 210.316 159.558 209.173 160.531C208.023 161.497 207.263 162.462 207.178 162.398C207.1 162.349 207.746 161.248 208.939 160.247C210.124 159.239 211.317 158.792 211.353 158.877Z" fill="white"/>
<path d="M202.087 175.59C202.059 175.611 201.626 175.114 201.313 174.113C201.001 173.134 200.887 171.607 201.526 170.116C202.172 168.632 203.365 167.659 204.288 167.219C205.225 166.758 205.886 166.736 205.893 166.772C205.907 166.836 205.282 166.957 204.416 167.454C203.557 167.936 202.471 168.881 201.867 170.265C201.271 171.657 201.327 173.091 201.569 174.049C201.803 175.022 202.144 175.562 202.087 175.59Z" fill="white"/>
<path d="M211.829 165.984C211.736 166.012 211.58 164.961 212.24 163.918C212.886 162.86 213.902 162.54 213.916 162.64C213.966 162.739 213.128 163.165 212.553 164.116C211.956 165.047 211.935 165.991 211.829 165.984Z" fill="white"/>
<path d="M186.631 278.008C187.681 279.484 195.335 300.827 207.206 309.794C219.085 318.762 230.104 324.513 247.172 323.959C264.241 323.398 273.194 318.797 279.548 316.298C296.695 309.56 290.653 296.304 290.653 296.304L260.74 288.778L220.242 267.272C220.242 267.272 205.644 253.442 200.284 251.518C194.916 249.593 187.916 258.021 186.432 265.54C184.948 273.052 186.631 278.008 186.631 278.008Z" fill="#263238"/>
<path d="M212.723 302.559C212.694 302.559 212.659 302.311 212.623 301.849C212.581 301.395 212.552 300.728 212.552 299.904C212.552 298.264 212.744 295.985 213.312 293.542C213.887 291.093 214.725 288.97 215.449 287.5C215.811 286.762 216.131 286.18 216.372 285.789C216.614 285.399 216.756 285.186 216.777 285.2C216.834 285.228 216.344 286.116 215.691 287.607C215.03 289.098 214.242 291.206 213.674 293.628C213.113 296.049 212.886 298.292 212.815 299.918C212.737 301.544 212.787 302.559 212.723 302.559Z" fill="#455A64"/>
<path d="M208.669 293.301C208.626 293.28 208.946 292.477 209.578 291.221C210.21 289.964 211.168 288.274 212.375 286.506C213.589 284.738 214.81 283.233 215.755 282.19C216.692 281.146 217.331 280.557 217.366 280.585C217.409 280.62 216.841 281.281 215.953 282.36C215.073 283.439 213.887 284.958 212.68 286.719C211.48 288.473 210.494 290.134 209.812 291.348C209.123 292.563 208.719 293.329 208.669 293.301Z" fill="#455A64"/>
<path d="M247.684 122.397L246.654 115.056C246.654 115.056 243.416 112.038 242.65 110.796C241.883 109.553 237.999 109.887 237.999 109.887L236.877 98.2143C236.877 98.2143 236.373 96.1482 234.499 97.4049C232.617 98.6616 233.604 112.372 233.604 112.372L233.164 115.553C233.164 115.553 229.451 110.93 227.342 111.577C225.24 112.23 228.08 114.665 228.521 116.021C228.961 117.377 237.225 125.074 237.225 125.074L244.425 139.508L245.951 139.529L251.02 143.115L255.955 135.702L247.684 122.397Z" fill="#FFBE9D"/>
<path d="M205.488 221.563C205.488 221.563 198.012 226.362 195.591 234.044C194.455 237.665 195.207 253.364 196.358 267.656C196.649 271.248 197.146 285.377 199.971 287.614C200.035 287.664 201.739 289.964 205.964 289.964C213.816 289.964 214.974 284.809 217.352 277.319L216.763 268.401C216.763 268.401 219.944 238.333 218.786 233.128C217.643 227.924 205.488 221.563 205.488 221.563Z" fill="#455A64"/>
<path d="M244.048 195.74L235.869 201.967C235.869 201.967 234.705 211.097 224.005 216.884C218.9 219.638 213.781 217.92 213.781 217.92L205.488 221.57L201.789 250.112L218.985 276.069L221.129 286.023L221.392 289.595C221.392 289.595 220.199 295.566 222.606 302.219C225.013 308.871 227.42 317.306 258.27 317.235C285.207 317.171 292.321 299.641 292.612 297.618C292.903 295.594 285.321 276.488 283.879 271.689C282.431 266.889 267.137 214.931 267.137 214.931L260.996 201.171L244.048 195.74Z" fill="#455A64"/>
<path d="M247.527 158.067L235.869 201.967L251.17 207.412L258.994 211.211L261.571 197.92C261.571 197.92 267.734 163.833 267.777 158.202C267.833 151.131 251.447 125.4 251.447 125.4C251.447 125.4 242.209 124.001 239.412 133.239L247.527 158.067Z" fill="#455A64"/>
<path d="M245.433 306.216C245.426 306.244 245 306.173 244.226 306.024C243.842 305.953 243.367 305.861 242.834 305.698C242.302 305.541 241.677 305.399 241.017 305.151C240.349 304.924 239.625 304.668 238.872 304.32C238.106 304.015 237.325 303.596 236.494 303.177C234.861 302.282 233.143 301.168 231.453 299.84C228.087 297.163 225.51 294.224 223.771 292.023C222.904 290.915 222.237 289.999 221.797 289.353C221.357 288.707 221.122 288.338 221.144 288.324C221.165 288.31 221.442 288.643 221.918 289.268C222.386 289.893 223.089 290.78 223.977 291.86C225.759 294.011 228.343 296.901 231.68 299.549C233.356 300.862 235.053 301.97 236.657 302.879C237.474 303.305 238.24 303.724 239 304.043C239.739 304.398 240.456 304.661 241.109 304.91C241.755 305.179 242.366 305.328 242.891 305.506C243.416 305.683 243.878 305.797 244.261 305.889C245.014 306.074 245.433 306.195 245.433 306.216Z" fill="#263238"/>
<path d="M276.637 252.227C276.652 252.227 276.652 252.377 276.63 252.668C276.609 252.994 276.581 253.413 276.545 253.924C276.467 255.018 276.318 256.587 276.091 258.532C275.643 262.416 274.82 267.755 273.506 273.577C272.186 279.399 270.624 284.575 269.36 288.274C268.728 290.12 268.188 291.611 267.784 292.626C267.592 293.102 267.436 293.493 267.315 293.798C267.201 294.061 267.145 294.203 267.13 294.196C267.116 294.188 267.159 294.046 267.244 293.77C267.35 293.457 267.478 293.067 267.642 292.577C268.004 291.547 268.501 290.049 269.104 288.196C270.304 284.483 271.816 279.307 273.137 273.499C274.451 267.691 275.31 262.373 275.828 258.504C276.084 256.573 276.275 255.004 276.396 253.917C276.46 253.406 276.51 252.994 276.545 252.668C276.595 252.377 276.623 252.227 276.637 252.227Z" fill="#263238"/>
<path d="M270.78 239.114C270.801 239.121 270.702 239.561 270.489 240.349C270.29 241.137 269.956 242.273 269.509 243.658C268.607 246.42 267.13 250.232 264.567 253.903C263.296 255.735 261.933 257.368 260.676 258.823C259.42 260.258 258.284 261.564 257.311 262.672C256.381 263.729 255.614 264.603 255.032 265.256C254.492 265.867 254.18 266.193 254.166 266.179C254.144 266.165 254.414 265.803 254.925 265.164C255.43 264.525 256.175 263.616 257.112 262.501C258.064 261.379 259.185 260.059 260.414 258.603C261.649 257.134 262.998 255.508 264.262 253.69C266.804 250.062 268.302 246.306 269.26 243.573C269.736 242.202 270.105 241.088 270.347 240.307C270.602 239.533 270.751 239.107 270.78 239.114Z" fill="#263238"/>
<path d="M208.115 258.859C208.115 258.958 205.445 259.044 202.144 259.044C198.85 259.044 196.173 258.958 196.173 258.859C196.173 258.759 198.842 258.674 202.144 258.674C205.445 258.674 208.115 258.759 208.115 258.859Z" fill="white"/>
<path d="M270.616 225.255C270.616 225.262 270.56 225.29 270.453 225.34C270.318 225.397 270.155 225.468 269.956 225.553C269.488 225.744 268.841 226.007 268.018 226.341C266.335 227.022 263.9 228.009 260.911 229.266C254.925 231.779 246.725 235.408 237.843 239.781C228.954 244.155 221.03 248.351 215.286 251.383C212.432 252.888 210.117 254.109 208.484 254.968C207.696 255.373 207.079 255.699 206.631 255.927C206.432 256.026 206.276 256.104 206.141 256.168C206.028 256.218 205.971 256.246 205.971 256.239C205.971 256.232 206.021 256.196 206.127 256.132C206.255 256.061 206.404 255.969 206.596 255.856C207.036 255.607 207.647 255.266 208.42 254.833C210.039 253.946 212.34 252.689 215.165 251.141C220.874 248.053 228.783 243.814 237.68 239.44C246.569 235.06 254.798 231.46 260.811 229.01C263.815 227.782 266.264 226.831 267.968 226.192C268.799 225.886 269.452 225.645 269.928 225.468C270.134 225.397 270.304 225.34 270.439 225.29C270.553 225.269 270.609 225.247 270.616 225.255Z" fill="white"/>
<path d="M261.571 195.428C261.55 195.442 261.351 195.144 261.01 194.59C260.676 194.036 260.179 193.241 259.555 192.268C258.916 191.31 258.163 190.152 257.19 188.981C256.232 187.802 255.103 186.56 253.704 185.502C250.907 183.358 247.726 182.562 245.461 182.236C244.318 182.101 243.388 182.001 242.742 181.98C242.096 181.938 241.741 181.902 241.741 181.881C241.741 181.852 242.096 181.838 242.749 181.838C243.402 181.817 244.339 181.874 245.497 181.973C247.783 182.236 251.063 183.003 253.931 185.204C255.359 186.283 256.509 187.561 257.46 188.768C258.426 189.975 259.157 191.146 259.775 192.133C260.371 193.134 260.833 193.944 261.131 194.526C261.436 195.094 261.599 195.42 261.571 195.428Z" fill="white"/>
<path d="M253.917 263.012C253.924 263.027 253.818 263.098 253.605 263.225C253.356 263.374 253.051 263.552 252.682 263.772C251.88 264.248 250.694 264.894 249.21 265.647C246.242 267.159 242.018 269.033 237.183 270.638C232.347 272.235 227.832 273.244 224.552 273.804C222.912 274.081 221.57 274.273 220.647 274.372C220.221 274.415 219.866 274.451 219.582 274.479C219.34 274.5 219.205 274.507 219.205 274.493C219.205 274.479 219.333 274.451 219.575 274.408C219.859 274.358 220.206 274.301 220.632 274.23C221.555 274.088 222.876 273.861 224.509 273.549C227.775 272.931 232.255 271.88 237.076 270.29C241.89 268.692 246.114 266.868 249.103 265.419C250.602 264.695 251.801 264.092 252.625 263.651C253.008 263.453 253.328 263.296 253.584 263.162C253.797 263.048 253.91 262.998 253.917 263.012Z" fill="white"/>
<path d="M276.637 248.024C276.651 248.046 276.502 248.209 276.218 248.5C275.934 248.791 275.508 249.189 274.969 249.679C273.889 250.644 272.349 251.944 270.453 253.115C268.557 254.279 266.704 255.082 265.355 255.614C264.681 255.877 264.127 256.076 263.744 256.204C263.36 256.331 263.14 256.388 263.133 256.367C263.112 256.317 263.935 255.962 265.256 255.373C266.569 254.784 268.387 253.953 270.261 252.803C272.129 251.645 273.684 250.396 274.798 249.48C275.913 248.564 276.595 247.989 276.637 248.024Z" fill="white"/>
<path d="M269.885 278.512C269.892 278.519 269.771 278.625 269.537 278.81C269.267 279.016 268.927 279.271 268.501 279.598C268.053 279.939 267.492 280.351 266.825 280.798C266.158 281.252 265.419 281.785 264.553 282.317C262.856 283.425 260.783 284.653 258.426 285.924C256.054 287.174 253.406 288.459 250.552 289.644C247.69 290.816 244.9 291.782 242.344 292.563C239.774 293.322 237.438 293.919 235.45 294.323C234.463 294.551 233.561 294.7 232.766 294.842C231.978 294.991 231.289 295.097 230.729 295.168C230.196 295.239 229.77 295.296 229.436 295.339C229.138 295.374 228.982 295.388 228.982 295.374C228.982 295.36 229.131 295.324 229.422 295.268C229.756 295.204 230.175 295.126 230.7 295.026C231.254 294.927 231.936 294.806 232.724 294.636C233.512 294.472 234.406 294.309 235.386 294.061C237.36 293.62 239.682 293.003 242.238 292.229C244.787 291.434 247.556 290.461 250.403 289.297C253.243 288.111 255.891 286.847 258.262 285.619C260.62 284.369 262.7 283.169 264.411 282.09C265.277 281.572 266.03 281.053 266.704 280.62C267.379 280.187 267.947 279.797 268.415 279.47C268.856 279.172 269.218 278.931 269.495 278.739C269.743 278.583 269.878 278.505 269.885 278.512Z" fill="white"/>
<path d="M283.879 270.872C283.936 270.957 281.856 272.47 279.229 274.252C276.602 276.034 274.429 277.411 274.372 277.326C274.316 277.241 276.396 275.729 279.023 273.946C281.643 272.164 283.823 270.787 283.879 270.872Z" fill="white"/>
<path d="M290.653 290.56C290.66 290.567 290.617 290.61 290.525 290.695C290.418 290.795 290.29 290.915 290.127 291.072C289.751 291.412 289.225 291.888 288.558 292.492C288.21 292.797 287.834 293.138 287.422 293.514C287.003 293.883 286.506 294.231 285.988 294.636C284.937 295.41 283.808 296.389 282.402 297.241C281.714 297.689 280.989 298.157 280.237 298.647C279.491 299.151 278.646 299.549 277.809 300.032C277.383 300.266 276.957 300.5 276.516 300.742C276.083 300.99 275.636 301.225 275.16 301.43C274.223 301.864 273.258 302.304 272.271 302.758C268.259 304.434 263.687 305.918 258.752 306.848C253.804 307.721 249.004 307.948 244.659 307.799C243.572 307.721 242.515 307.65 241.485 307.579C240.967 307.558 240.47 307.494 239.973 307.416C239.476 307.345 238.993 307.274 238.51 307.21C237.559 307.054 236.622 306.976 235.748 306.77C234.875 306.578 234.03 306.393 233.228 306.216C231.609 305.911 230.21 305.399 228.954 305.044C228.329 304.846 227.739 304.696 227.221 304.505C226.703 304.306 226.227 304.121 225.794 303.951C224.963 303.624 224.303 303.362 223.827 303.177C223.621 303.092 223.451 303.021 223.316 302.964C223.203 302.914 223.146 302.886 223.146 302.879C223.146 302.872 223.21 302.886 223.33 302.929C223.465 302.978 223.643 303.035 223.849 303.106C224.331 303.276 224.992 303.518 225.837 303.816C226.27 303.972 226.745 304.15 227.271 304.334C227.796 304.519 228.386 304.661 229.01 304.846C230.267 305.179 231.666 305.676 233.285 305.96C234.087 306.131 234.925 306.308 235.798 306.486C236.671 306.684 237.601 306.755 238.553 306.897C239.028 306.961 239.511 307.025 240.008 307.096C240.498 307.174 241.002 307.231 241.513 307.252C242.536 307.316 243.587 307.387 244.666 307.458C248.99 307.593 253.761 307.352 258.681 306.486C263.594 305.556 268.138 304.093 272.136 302.446C273.123 301.998 274.081 301.565 275.018 301.139C275.494 300.941 275.941 300.706 276.374 300.465C276.815 300.231 277.241 299.996 277.667 299.762C278.504 299.286 279.349 298.896 280.095 298.399C280.847 297.916 281.572 297.454 282.26 297.014C283.673 296.176 284.809 295.218 285.867 294.465C286.385 294.075 286.89 293.734 287.316 293.372C287.734 293.01 288.125 292.676 288.473 292.378C289.154 291.796 289.694 291.341 290.085 291.015C290.255 290.873 290.397 290.759 290.511 290.667C290.603 290.589 290.653 290.553 290.653 290.56Z" fill="white"/>
<path d="M258.27 201.491C258.277 201.491 258.248 201.548 258.199 201.661C258.135 201.789 258.049 201.945 257.95 202.137C257.716 202.542 257.425 203.174 256.935 203.919C256.019 205.453 254.507 207.561 252.341 209.911C250.183 212.269 247.3 214.782 243.842 217.203C240.378 219.624 236.331 221.911 231.943 224.012C227.548 226.1 223.259 227.867 219.376 229.493C215.492 231.112 212.006 232.603 209.123 233.959C206.241 235.308 203.955 236.494 202.4 237.36C201.612 237.779 201.022 238.141 200.61 238.361C200.419 238.468 200.27 238.553 200.142 238.617C200.035 238.674 199.979 238.702 199.979 238.695C199.979 238.688 200.028 238.652 200.128 238.588C200.248 238.51 200.397 238.418 200.575 238.297C200.973 238.056 201.555 237.673 202.329 237.232C203.862 236.324 206.141 235.102 209.01 233.718C211.878 232.333 215.364 230.814 219.241 229.174C223.117 227.534 227.399 225.759 231.779 223.671C236.153 221.577 240.193 219.305 243.644 216.912C247.094 214.519 249.977 212.042 252.149 209.727C254.322 207.412 255.863 205.339 256.807 203.834C257.318 203.103 257.623 202.485 257.879 202.087C257.993 201.903 258.085 201.754 258.156 201.633C258.234 201.533 258.27 201.484 258.27 201.491Z" fill="white"/>
<path d="M266.534 168.873C266.484 168.923 265.604 168.078 264.021 166.935C263.233 166.353 262.253 165.728 261.124 165.096C259.988 164.479 258.71 163.861 257.318 163.328C255.92 162.81 254.549 162.427 253.293 162.143C252.029 161.88 250.879 161.703 249.906 161.617C247.96 161.433 246.739 161.49 246.739 161.419C246.739 161.39 247.045 161.362 247.591 161.333C248.145 161.298 248.94 161.298 249.927 161.355C250.914 161.404 252.086 161.56 253.364 161.809C254.642 162.079 256.033 162.455 257.453 162.98C258.866 163.52 260.158 164.152 261.294 164.791C262.423 165.451 263.403 166.112 264.177 166.722C264.958 167.326 265.561 167.851 265.945 168.249C266.342 168.632 266.555 168.852 266.534 168.873Z" fill="white"/>
<path d="M261.571 143.569C261.571 143.633 260.605 143.619 259.065 143.775C257.524 143.931 255.408 144.322 253.193 145.131C250.978 145.948 249.111 147.02 247.833 147.893C246.555 148.766 245.83 149.405 245.788 149.356C245.774 149.334 245.937 149.164 246.256 148.859C246.569 148.553 247.059 148.149 247.683 147.68C248.933 146.736 250.815 145.614 253.065 144.783C255.323 143.96 257.481 143.605 259.043 143.512C259.824 143.463 260.463 143.463 260.897 143.491C261.337 143.512 261.578 143.541 261.571 143.569Z" fill="white"/>
<path d="M260.087 199.78C260.101 199.773 260.194 199.922 260.357 200.206C260.535 200.525 260.769 200.944 261.067 201.463C261.351 202.023 261.678 202.712 262.068 203.514C262.444 204.324 262.835 205.254 263.282 206.283C265.015 210.416 267.123 216.238 269.282 222.727C271.426 229.216 273.229 235.138 274.493 239.433C275.125 241.585 275.615 243.324 275.949 244.531C276.105 245.106 276.225 245.568 276.318 245.923C276.396 246.242 276.431 246.413 276.424 246.413C276.417 246.413 276.353 246.256 276.247 245.937C276.133 245.589 275.991 245.128 275.814 244.56C275.43 243.324 274.898 241.606 274.245 239.497C272.924 235.223 271.078 229.316 268.934 222.834C266.782 216.351 264.709 210.522 263.048 206.376C262.615 205.346 262.238 204.402 261.883 203.593C261.521 202.79 261.209 202.102 260.946 201.519C260.676 200.987 260.463 200.561 260.3 200.234C260.144 199.95 260.08 199.787 260.087 199.78Z" fill="#263238"/>
<path d="M200.404 246.427C200.419 246.42 200.483 246.519 200.603 246.704C200.745 246.931 200.916 247.208 201.122 247.541C201.597 248.315 202.236 249.359 203.01 250.623C204.615 253.214 206.915 256.743 209.5 260.613C212.084 264.482 214.413 267.997 216.046 270.581C216.862 271.873 217.508 272.924 217.941 273.655C218.14 273.996 218.296 274.273 218.431 274.507C218.538 274.706 218.595 274.813 218.58 274.82C218.566 274.827 218.495 274.734 218.367 274.55C218.218 274.33 218.034 274.06 217.814 273.733C217.31 272.974 216.635 271.958 215.819 270.723C214.093 268.146 211.764 264.667 209.187 260.818C206.603 256.949 204.331 253.392 202.783 250.758C202.002 249.444 201.398 248.372 200.994 247.612C200.809 247.265 200.66 246.981 200.539 246.739C200.44 246.54 200.39 246.434 200.404 246.427Z" fill="#263238"/>
<path d="M216.628 275.43C216.621 275.53 212.297 275.317 206.972 274.947C201.647 274.578 197.33 274.202 197.337 274.095C197.345 273.996 201.668 274.209 206.993 274.578C212.318 274.948 216.635 275.331 216.628 275.43Z" fill="white"/>
<g opacity="0.3">
<path opacity="0.3" d="M256.019 263.765V263.9C253.051 267.251 250.083 270.602 247.115 273.954C258.838 269.715 267.599 258.263 268.629 245.837C265.228 252.334 260.975 258.376 256.019 263.765Z" fill="black"/>
</g>
<g opacity="0.3">
<path opacity="0.3" d="M245.433 306.216C237.58 304.697 229.188 298.179 223.806 292.264C228.13 299.982 235.606 306.89 244.126 309.29C252.646 311.69 262.096 310.575 269.821 306.251C261.798 307.167 253.285 307.735 245.433 306.216Z" fill="black"/>
</g>
<path d="M261.379 154.177C261.372 154.24 260.733 154.177 259.711 154.24C258.696 154.304 257.29 154.553 255.856 155.149C254.421 155.753 253.264 156.583 252.504 157.265C251.745 157.947 251.34 158.451 251.29 158.408C251.262 158.387 251.588 157.826 252.32 157.073C253.051 156.328 254.223 155.433 255.706 154.808C257.19 154.191 258.653 153.971 259.697 153.978C260.755 153.985 261.386 154.141 261.379 154.177Z" fill="#263238"/>
<path d="M197.764 198.303C197.735 198.339 197.437 198.168 197.117 197.728C196.798 197.302 196.486 196.564 196.535 195.719C196.585 194.874 196.983 194.185 197.345 193.795C197.714 193.397 198.026 193.262 198.055 193.305C198.09 193.354 197.842 193.553 197.551 193.965C197.259 194.363 196.947 195.002 196.904 195.747C196.862 196.493 197.096 197.16 197.338 197.593C197.579 198.033 197.806 198.26 197.764 198.303Z" fill="white"/>
<path d="M232.639 179.282C232.561 179.346 232.049 178.707 231.112 178.636C230.182 178.53 229.557 179.055 229.493 178.977C229.458 178.948 229.564 178.757 229.855 178.558C230.139 178.366 230.622 178.21 231.148 178.26C231.68 178.309 232.12 178.551 232.362 178.799C232.61 179.055 232.674 179.261 232.639 179.282Z" fill="white"/>
<path d="M234.932 122.475C234.897 122.511 234.392 122.106 233.64 121.389C232.88 120.672 231.879 119.635 230.842 118.428C229.806 117.214 228.947 116.064 228.357 115.205C227.768 114.346 227.449 113.785 227.484 113.756C227.527 113.728 227.924 114.232 228.563 115.048C229.202 115.865 230.097 116.987 231.119 118.187C232.149 119.387 233.114 120.444 233.817 121.204C234.534 121.964 234.968 122.432 234.932 122.475Z" fill="white"/>
<path d="M235.685 97.2345C235.699 97.27 235.493 97.3126 235.23 97.5398C234.967 97.7599 234.683 98.193 234.499 98.8036C234.158 100.025 233.817 101.793 233.647 103.738C233.476 105.691 233.533 107.473 233.633 108.758C233.732 110.043 233.853 110.831 233.796 110.845C233.753 110.852 233.54 110.078 233.377 108.786C233.214 107.501 233.107 105.691 233.285 103.71C233.455 101.729 233.839 99.968 234.257 98.7184C234.485 98.0936 234.825 97.6392 235.145 97.4262C235.457 97.2132 235.685 97.2203 235.685 97.2345Z" fill="white"/>
<g opacity="0.3">
<path opacity="0.3" d="M161.412 333.402C160.112 331.712 158.167 330.59 156.91 328.865C153.523 324.229 156.349 317.832 158.763 312.62C161.177 307.416 162.569 300.06 157.769 296.922C154.766 294.955 150.804 295.793 147.304 296.61C123.867 302.041 99.3788 302.886 75.6293 299.08L72.8674 297.923C74.5501 305.463 76.2825 313.153 80.2514 319.784C84.2203 326.415 90.873 331.925 98.5836 332.472C103.809 332.841 108.886 330.952 114.033 329.987C119.181 329.014 125.116 329.192 128.851 332.862C132.813 336.753 133.92 344.087 139.359 345.181C145.231 346.359 149.824 338.691 155.795 339.103C157.663 339.231 159.722 340.133 161.284 339.103C163.073 337.917 162.711 335.092 161.412 333.402Z" fill="black"/>
</g>
<path d="M138.848 328.758L137.804 333.515C137.804 333.515 132.38 341.837 132.649 343.1C132.919 344.364 133.913 343.732 133.913 343.732L137.534 339.032C137.534 339.032 134.368 344.456 134.822 345.543C135.276 346.629 136.27 345.997 136.27 345.997C136.27 345.997 137.129 347.083 138.557 347.083C139.977 347.083 140.978 345.997 140.978 345.997C140.978 345.997 142.788 346.267 143.874 345.82C144.961 345.365 147.219 342.838 149.029 340.211C150.84 337.591 152.011 335.326 152.011 335.326C152.011 335.326 153.459 334.509 154.631 335.78C155.81 337.044 159.338 339.763 160.787 339.486C162.235 339.21 162.051 338.599 162.051 338.599C162.051 338.599 157.435 333.43 156.711 332.159C155.987 330.888 153.133 330.072 151.919 328.9C150.705 327.729 150.641 326.806 150.641 326.806L138.848 328.758Z" fill="#BA7F72"/>
<path d="M146.864 336.668C146.906 336.696 146.658 337.222 146.196 338.052C145.735 338.883 145.067 340.012 144.279 341.226C143.491 342.44 142.731 343.512 142.156 344.265C141.581 345.017 141.198 345.465 141.155 345.436C141.07 345.372 142.398 343.441 143.967 341.027C145.543 338.613 146.771 336.618 146.864 336.668Z" fill="#8B5D54"/>
<path d="M142.788 334.857C142.831 334.879 142.561 335.546 142.05 336.597C141.538 337.648 140.786 339.075 139.87 340.601C138.954 342.128 138.052 343.47 137.371 344.414C136.689 345.358 136.221 345.912 136.185 345.884C136.143 345.855 136.526 345.245 137.158 344.265C137.783 343.285 138.649 341.929 139.558 340.41C140.466 338.89 141.254 337.491 141.822 336.476C142.383 335.461 142.738 334.836 142.788 334.857Z" fill="#8B5D54"/>
<path d="M140.289 334.793C140.374 334.843 139.891 335.851 139.196 337.037C138.507 338.23 137.875 339.153 137.783 339.096C137.697 339.046 138.18 338.038 138.876 336.852C139.572 335.66 140.204 334.737 140.289 334.793Z" fill="#8B5D54"/>
<path d="M149.185 170.776C152.785 179.779 151.28 188.775 151.486 198.062C151.543 200.767 156.584 204.487 157.62 206.986C159.196 210.778 156.988 212.042 159.31 215.428C161.546 218.701 162.505 223.338 160.183 226.547C157.35 230.466 151.55 230.239 146.757 229.621C142.511 211.495 143.299 192.211 149.008 174.49" fill="#263238"/>
<path d="M95.2111 261.209C95.2111 261.209 86.613 250.864 83.1908 249.941C73.9324 247.456 62.4517 250.083 62.4517 260.684C62.4517 271.284 68.0678 286.932 68.0678 286.932C68.0678 286.932 73.9466 309.894 80.9117 315.645C87.8768 321.396 90.9014 322.915 106.649 323.824C122.397 324.733 134.815 320.721 137.236 320.004C139.657 319.287 148.177 312.471 156.974 300.657C165.771 288.849 177.017 276.126 178.537 269.473C180.049 262.821 177.188 252.71 168.22 250.36C159.253 248.017 144.826 260.684 144.826 260.684L106.954 267.201L95.2111 261.209Z" fill="#263238"/>
<path d="M87.2166 269.253C87.1669 269.268 86.8687 268.408 86.393 267.017C85.9173 265.625 85.2712 263.701 84.4689 261.607C83.6666 259.512 82.8572 257.652 82.2182 256.331C81.5792 255.011 81.1319 254.216 81.1887 254.187C81.21 254.173 81.3449 254.358 81.5721 254.705C81.8064 255.046 82.0975 255.565 82.4596 256.218C83.1625 257.517 84.0216 259.377 84.8239 261.479C85.6262 263.58 86.2439 265.526 86.6557 266.946C87.0533 268.352 87.2663 269.239 87.2166 269.253Z" fill="#455A64"/>
<path d="M166.303 254.18C166.296 254.208 166.048 254.166 165.622 254.137C165.196 254.166 164.564 254.23 163.854 254.571C162.42 255.174 160.659 256.495 158.87 258.092C157.073 259.69 155.547 261.252 154.425 262.366C153.31 263.488 152.615 264.177 152.579 264.141C152.558 264.127 152.707 263.928 152.998 263.588C153.282 263.247 153.708 262.771 154.241 262.182C155.313 261.017 156.818 259.42 158.628 257.808C160.432 256.196 162.242 254.89 163.762 254.322C164.507 254.003 165.189 253.974 165.636 253.988C166.076 254.074 166.311 254.166 166.303 254.18Z" fill="#455A64"/>
<path d="M176.257 260.627C176.236 260.641 176.059 260.343 175.76 259.803C175.455 259.264 175.029 258.475 174.447 257.545C173.858 256.615 173.105 255.536 172.061 254.535C171.025 253.541 169.633 252.696 168.014 252.32C166.396 251.936 164.777 251.972 163.35 252.185C161.916 252.398 160.652 252.781 159.608 253.129C158.564 253.477 157.726 253.804 157.144 254.01C156.562 254.223 156.235 254.329 156.228 254.308C156.221 254.286 156.527 254.13 157.095 253.875C157.663 253.619 158.486 253.264 159.53 252.881C160.574 252.504 161.844 252.086 163.307 251.851C164.763 251.617 166.431 251.56 168.107 251.965C169.789 252.355 171.245 253.25 172.303 254.294C173.361 255.337 174.106 256.459 174.674 257.418C175.235 258.376 175.633 259.185 175.895 259.746C176.151 260.3 176.286 260.62 176.257 260.627Z" fill="white"/>
<path d="M91.583 257.261C91.512 257.318 90.6316 255.785 88.5371 253.939C86.4781 252.107 83.0062 250.069 78.7746 249.615C74.5359 249.167 70.7161 250.417 68.3092 251.773C65.8668 253.129 64.6811 254.443 64.6243 254.372C64.6172 254.365 64.6882 254.279 64.8302 254.13C64.9793 253.988 65.1781 253.754 65.4763 253.498C66.0585 252.966 66.9602 252.256 68.1743 251.546C70.5741 250.112 74.4649 248.784 78.803 249.246C83.1411 249.714 86.6627 251.837 88.7004 253.747C89.737 254.705 90.4754 255.586 90.9227 256.232C91.1641 256.544 91.3132 256.814 91.4268 256.985C91.5404 257.155 91.5901 257.254 91.583 257.261Z" fill="white"/>
<path d="M106.117 129.05L93.3936 174.085L95.8715 221.364L93.2729 256.005L79.1226 286.932C79.1226 286.932 73.5278 303.383 94.0894 309.965C114.651 316.546 132.415 314.239 137.023 309.965C141.631 305.691 149.526 245.483 149.526 245.483L162.697 216.87C162.697 216.87 159.395 211.907 149.853 208.626C140.31 205.346 116.625 203.699 116.625 203.699L113.188 174.873L121.162 131.982C121.176 131.968 112.187 128.212 106.117 129.05Z" fill="#FF725E"/>
<path d="M149.072 239.071C149.072 239.071 134.595 267.038 134.268 272.96C133.942 278.881 137.456 329.383 137.456 329.383L152.032 328.233C152.032 328.233 149.398 292.044 150.385 283.815C151.372 275.594 151.699 262.104 155.646 252.888C159.594 243.672 166.367 224.573 162.704 216.862L149.072 239.071Z" fill="#FF725E"/>
<g opacity="0.3">
<path opacity="0.3" d="M149.959 232.362C148.135 230.388 145.167 230.111 142.49 229.962C131.954 229.373 121.417 228.783 110.874 228.194L104.924 233.796C103.603 237.836 103.263 242.188 103.93 246.377C105.137 245.475 106.351 244.574 107.558 243.665C107.721 245.504 108.24 247.307 109.07 248.954C110.987 247.265 112.897 245.582 114.814 243.899C119.167 247.627 124.832 249.799 130.562 249.927C136.292 250.055 142.05 248.145 146.566 244.616C148.447 243.147 150.165 241.336 150.982 239.092C151.812 236.856 151.578 234.115 149.959 232.362Z" fill="black"/>
</g>
<path d="M149.072 239.071C149.079 239.071 149.051 239.135 148.987 239.249C148.916 239.377 148.816 239.547 148.703 239.746C148.433 240.207 148.064 240.839 147.595 241.649C146.651 243.31 145.323 245.745 143.853 248.834C140.914 255.004 137.499 263.872 135.085 274.032C134.922 274.664 134.794 275.303 134.652 275.927C134.588 276.24 134.503 276.559 134.446 276.865C134.41 277.177 134.346 277.475 134.346 277.795C134.261 279.051 134.283 280.308 134.29 281.536C134.325 283.993 134.425 286.371 134.517 288.629C134.744 293.145 134.95 297.213 135.12 300.642C135.291 304.043 135.433 306.798 135.532 308.744C135.568 309.681 135.603 310.419 135.624 310.945C135.632 311.179 135.632 311.371 135.639 311.52C135.639 311.647 135.639 311.718 135.632 311.718C135.624 311.718 135.617 311.655 135.603 311.527C135.589 311.378 135.575 311.186 135.553 310.959C135.518 310.426 135.461 309.695 135.397 308.758C135.269 306.819 135.092 304.058 134.865 300.664C134.652 297.249 134.403 293.173 134.176 288.651C134.07 286.386 133.97 284.014 133.92 281.543C133.913 280.308 133.885 279.051 133.97 277.773C133.977 277.454 134.041 277.127 134.077 276.801C134.133 276.481 134.212 276.169 134.283 275.856C134.425 275.224 134.559 274.593 134.716 273.954C137.137 263.765 140.602 254.89 143.605 248.734C145.103 245.653 146.473 243.232 147.453 241.592C147.943 240.768 148.355 240.15 148.625 239.724C148.752 239.526 148.859 239.369 148.937 239.242C149.022 239.121 149.065 239.064 149.072 239.071Z" fill="#263238"/>
<path d="M131.854 277.276C131.861 277.29 131.762 277.361 131.57 277.496C131.336 277.653 131.052 277.837 130.711 278.064C129.959 278.554 128.851 279.229 127.452 280.024C124.662 281.614 120.693 283.609 116.121 285.377C111.548 287.145 107.26 288.338 104.129 289.041C102.567 289.396 101.289 289.644 100.401 289.786C99.9966 289.85 99.6558 289.9 99.3789 289.943C99.1446 289.978 99.0239 289.985 99.0168 289.971C99.0168 289.957 99.1375 289.921 99.3647 289.865C99.6345 289.801 99.9682 289.73 100.373 289.637C101.246 289.453 102.51 289.162 104.065 288.778C107.175 288.011 111.428 286.783 115.979 285.022C120.53 283.262 124.506 281.309 127.317 279.783C128.723 279.023 129.852 278.384 130.626 277.93C130.988 277.724 131.279 277.56 131.521 277.418C131.734 277.319 131.847 277.262 131.854 277.276Z" fill="#263238"/>
<g opacity="0.3">
<path opacity="0.3" d="M90.7241 290.319C104.527 294.181 119.997 288.842 129.874 278.483C117.796 285.605 104.74 290.163 90.7241 290.319Z" fill="black"/>
</g>
<g opacity="0.3">
<path opacity="0.3" d="M134.091 277.78C133.317 286.4 132.55 300.706 132.65 309.361C132.699 313.643 133.068 317.427 136.235 320.295C135.511 307.906 134.439 290.269 134.091 277.78Z" fill="black"/>
</g>
<path d="M118.726 131.961C118.705 132.06 116.433 131.641 113.65 131.023C110.867 130.406 108.63 129.824 108.652 129.724C108.673 129.625 110.945 130.044 113.728 130.661C116.511 131.279 118.748 131.861 118.726 131.961Z" fill="white"/>
<path d="M118.3 143.534C118.201 143.512 118.627 141.169 119.259 138.301C119.891 135.432 120.48 133.125 120.579 133.146C120.679 133.168 120.253 135.511 119.621 138.379C118.996 141.247 118.407 143.555 118.3 143.534Z" fill="white"/>
<path d="M159.786 235.94C159.764 235.933 159.864 235.606 160.07 235.024C160.297 234.371 160.588 233.547 160.929 232.56C161.617 230.487 162.569 227.541 162.548 224.204C162.505 220.867 161.163 217.977 159.693 216.387C158.224 214.754 156.846 214.335 156.903 214.25C156.91 214.235 156.988 214.264 157.144 214.321C157.294 214.384 157.528 214.455 157.798 214.612C158.359 214.889 159.111 215.4 159.892 216.209C161.454 217.8 162.881 220.767 162.924 224.204C162.945 227.626 161.937 230.594 161.184 232.653C160.801 233.689 160.453 234.513 160.212 235.081C159.956 235.642 159.807 235.947 159.786 235.94Z" fill="white"/>
<path d="M108.68 129.05L111.576 120.018C111.576 120.018 107.828 110.824 108.68 109.972C109.532 109.12 116.511 103.674 116.511 103.674C116.511 103.674 118.314 91.164 119.067 90.7309C119.699 90.3617 121.112 90.3617 121.176 92.9461C121.24 95.5731 121.24 104.697 121.24 104.697C121.24 104.697 125.372 108.786 125.372 111.335C125.372 113.884 123.157 121.893 123.157 121.893L120.033 131.378L108.68 129.05Z" fill="#BA7F72"/>
<path d="M116.397 107.65C116.362 107.679 116.177 107.501 116.049 107.132C115.915 106.763 115.886 106.216 115.95 105.648C116.099 104.505 116.433 103.653 116.511 103.667C116.632 103.688 116.461 104.597 116.319 105.691C116.255 106.237 116.248 106.727 116.305 107.068C116.355 107.416 116.447 107.622 116.397 107.65Z" fill="#8B5D54"/>
<path d="M122.404 110.384C122.297 110.405 121.999 109.134 121.708 107.558C121.424 105.982 121.147 104.725 121.24 104.689C121.339 104.654 121.786 105.904 122.07 107.487C122.368 109.07 122.496 110.362 122.404 110.384Z" fill="#8B5D54"/>
<path d="M113.827 111.051C113.749 111.072 113.266 110.093 112.947 108.744C112.798 108.062 112.805 107.416 112.904 106.969C113.004 106.521 113.146 106.273 113.188 106.287C113.288 106.315 112.996 107.373 113.309 108.673C113.614 109.951 113.948 111.016 113.827 111.051Z" fill="#8B5D54"/>
<path d="M111.193 112.002C111.101 112.052 110.653 111.292 110.455 110.227C110.362 109.695 110.362 109.198 110.426 108.85C110.483 108.495 110.604 108.303 110.646 108.311C110.746 108.339 110.618 109.155 110.824 110.156C111.001 111.165 111.285 111.96 111.193 112.002Z" fill="#8B5D54"/>
<path d="M120.821 92.9816C120.721 92.9532 120.799 92.4278 120.48 91.8953C120.182 91.3557 119.685 91.164 119.706 91.0646C119.713 91.022 119.869 91.0007 120.096 91.0859C120.324 91.1711 120.608 91.3841 120.792 91.7107C120.977 92.0373 121.027 92.3852 120.991 92.6266C120.956 92.868 120.863 92.9958 120.821 92.9816Z" fill="white"/>
<path d="M122.56 120.26C122.51 120.246 122.731 119.443 123.078 118.158C123.419 116.873 123.895 115.084 123.973 113.068C124.051 111.051 123.583 109.248 122.979 108.083C122.39 106.905 121.765 106.33 121.822 106.287C121.836 106.273 122.006 106.394 122.269 106.67C122.532 106.94 122.88 107.373 123.213 107.963C123.895 109.134 124.427 111.009 124.342 113.082C124.257 115.155 123.732 116.958 123.327 118.229C122.915 119.5 122.603 120.274 122.56 120.26Z" fill="white"/>
<path d="M115.276 105.073C115.339 105.151 113.998 106.365 112.208 107.7C110.426 109.042 108.886 110 108.829 109.915C108.772 109.83 110.206 108.744 111.981 107.402C113.763 106.074 115.212 104.995 115.276 105.073Z" fill="white"/>
<path d="M127.814 157.315C136.867 156.221 146.402 161.411 149.178 168.952C152.316 177.457 147.396 186.631 148.191 195.534C148.674 200.987 151.308 206.205 151.493 211.672C151.684 217.359 149.242 223.167 151.074 228.627C151.748 230.636 152.998 232.667 152.43 234.698C151.777 237.062 148.972 238.411 146.445 239.462C140.999 241.741 135.326 244.041 129.277 244.148C123.228 244.254 116.674 241.521 114.8 236.544C112.72 237.935 110.639 239.32 108.552 240.711C108.197 239.284 107.835 237.857 107.48 236.43C106.358 237.673 104.938 238.716 103.326 239.462C102.879 232.951 102.432 226.384 103.568 219.93C104.413 215.151 108.133 209.855 108.9 205.055C110.284 196.443 109.006 188.406 110.888 179.85C112.769 171.295 116.184 160.957 125.592 157.741L127.814 157.315Z" fill="#263238"/>
<path d="M125.961 169.74C125.912 169.733 125.94 169.065 126.089 167.986C126.231 166.914 126.508 165.437 126.948 163.84C127.388 162.242 127.9 160.829 128.318 159.835C128.737 158.834 129.057 158.245 129.099 158.266C129.149 158.287 128.922 158.912 128.56 159.935C128.205 160.95 127.736 162.363 127.303 163.946C126.87 165.529 126.558 166.985 126.352 168.036C126.132 169.086 126.011 169.747 125.961 169.74Z" fill="#455A64"/>
<path d="M143.704 178.437C143.619 178.43 143.988 176.989 143.832 174.653C143.697 172.338 142.88 169.087 140.729 166.232C138.571 163.385 135.653 161.717 133.466 160.964C131.258 160.183 129.774 160.148 129.788 160.062C129.788 160.048 129.88 160.048 130.058 160.055C130.228 160.069 130.491 160.062 130.817 160.112C131.478 160.183 132.422 160.353 133.551 160.716C135.795 161.418 138.812 163.087 141.027 166.005C143.235 168.93 144.031 172.282 144.102 174.632C144.144 175.817 144.059 176.776 143.945 177.429C143.903 177.756 143.832 178.004 143.796 178.175C143.747 178.352 143.718 178.437 143.704 178.437Z" fill="#455A64"/>
<path d="M137.371 187.93C137.349 187.937 137.236 187.589 137.08 186.95C136.923 186.311 136.739 185.367 136.576 184.202C136.221 181.867 136.114 178.601 135.582 175.072C135.042 171.543 133.799 168.483 132.394 166.623C131.009 164.734 129.696 163.996 129.76 163.925C129.767 163.918 129.845 163.96 129.994 164.046C130.136 164.145 130.37 164.266 130.626 164.479C131.158 164.869 131.875 165.529 132.607 166.467C134.098 168.327 135.404 171.444 135.951 175.015C136.49 178.586 136.554 181.845 136.838 184.174C136.966 185.338 137.108 186.283 137.222 186.929C137.328 187.568 137.392 187.923 137.371 187.93Z" fill="#455A64"/>
<path d="M146.459 188.384C146.97 188.42 147.439 189.08 147.872 190.131C148.376 191.189 148.901 192.63 149.675 194.398C150.442 196.166 151.45 198.26 152.565 200.752C153.651 203.259 154.908 206.156 155.611 209.677C155.802 210.543 155.902 211.445 156.001 212.333C156.065 213.227 156.101 214.129 156.079 215.009C156.008 216.756 155.753 218.268 155.526 219.596C155.298 220.916 155.085 222.06 154.972 223.075C154.915 223.593 154.865 224.033 154.858 224.459C154.844 224.893 154.851 225.318 154.887 225.716C155.007 227.335 155.426 228.535 155.831 229.422C156.236 230.31 156.662 230.942 156.477 231.439C156.328 231.893 155.455 232.213 154.027 231.666C152.622 231.14 150.896 229.571 149.874 227.193C149.611 226.604 149.391 225.965 149.214 225.283C149.029 224.594 148.923 223.863 148.837 223.167C148.681 221.747 148.695 220.299 148.745 218.9C148.795 217.508 148.873 216.167 148.83 214.938C148.802 214.328 148.745 213.717 148.681 213.085C148.582 212.446 148.511 211.8 148.355 211.126C147.836 208.449 146.906 205.715 146.161 203.081C145.394 200.454 144.79 197.884 144.592 195.633C144.379 193.376 144.613 191.473 144.989 190.23C145.436 188.966 145.955 188.349 146.459 188.384Z" fill="#263238"/>
<path d="M125.961 169.74C126.004 169.782 125.237 170.414 124.286 171.898C124.058 172.274 123.796 172.686 123.576 173.176C123.327 173.652 123.107 174.191 122.88 174.774C122.454 175.945 122.049 177.315 121.758 178.87C121.169 181.966 120.899 185.729 120.863 189.911C120.814 194.093 120.963 198.686 120.956 203.521C120.927 208.349 120.771 213 119.72 217.09C119.188 219.134 118.435 220.98 117.746 222.713C117.044 224.438 116.383 226.036 115.865 227.527C115.34 229.018 114.97 230.395 114.743 231.623C114.523 232.852 114.473 233.938 114.502 234.811C114.544 235.692 114.63 236.373 114.736 236.82C114.779 237.033 114.807 237.204 114.835 237.339C114.857 237.459 114.864 237.516 114.857 237.516C114.85 237.516 114.828 237.46 114.8 237.346C114.764 237.211 114.722 237.041 114.665 236.835C114.53 236.387 114.424 235.699 114.36 234.811C114.31 233.924 114.338 232.83 114.537 231.581C114.743 230.331 115.105 228.939 115.616 227.434C116.121 225.929 116.774 224.317 117.462 222.592C118.144 220.86 118.875 219.014 119.394 216.997C120.409 212.957 120.558 208.328 120.586 203.507C120.594 198.686 120.452 194.086 120.523 189.897C120.579 185.708 120.87 181.93 121.495 178.814C121.801 177.252 122.227 175.874 122.681 174.696C122.922 174.113 123.15 173.567 123.412 173.091C123.647 172.601 123.923 172.189 124.158 171.813C124.378 171.43 124.662 171.138 124.861 170.861C125.059 170.585 125.272 170.386 125.436 170.215C125.592 170.066 125.713 169.946 125.812 169.846C125.904 169.775 125.954 169.733 125.961 169.74Z" fill="#455A64"/>
<path d="M108.914 230.416C108.907 230.409 108.935 230.352 108.999 230.246C109.077 230.118 109.17 229.962 109.283 229.77C109.418 229.557 109.574 229.302 109.759 229.01C109.937 228.705 110.128 228.343 110.348 227.938C111.215 226.313 112.315 223.87 113.132 220.675C113.962 217.487 114.523 213.589 114.765 209.237C114.885 207.064 114.978 204.771 114.992 202.4C114.978 200.028 114.878 197.572 114.836 195.051C114.729 190.01 114.821 185.189 115.354 180.837C115.872 176.492 116.859 172.615 118.329 169.626C119.067 168.135 119.926 166.886 120.8 165.899C121.027 165.657 121.24 165.423 121.453 165.196C121.68 164.99 121.907 164.798 122.12 164.614C122.525 164.216 122.986 163.967 123.356 163.691C124.151 163.208 124.79 162.874 125.251 162.718C125.464 162.64 125.635 162.576 125.77 162.519C125.89 162.476 125.947 162.455 125.947 162.462C125.947 162.469 125.89 162.498 125.777 162.554C125.642 162.618 125.478 162.689 125.273 162.782C124.818 162.959 124.193 163.307 123.427 163.804C123.072 164.088 122.617 164.344 122.227 164.741C122.021 164.933 121.808 165.125 121.581 165.331C121.375 165.558 121.169 165.792 120.949 166.034C120.104 167.02 119.273 168.263 118.556 169.74C117.136 172.708 116.185 176.556 115.68 180.88C115.169 185.211 115.091 190.01 115.198 195.044C115.24 197.565 115.34 200.021 115.347 202.4C115.325 204.785 115.226 207.072 115.098 209.258C114.836 213.625 114.239 217.544 113.373 220.746C112.521 223.955 111.371 226.405 110.462 228.009C110.228 228.407 110.029 228.769 109.837 229.067C109.638 229.358 109.475 229.607 109.333 229.813C109.205 229.997 109.099 230.147 109.014 230.267C108.964 230.367 108.921 230.416 108.914 230.416Z" fill="#455A64"/>
<path d="M153.609 209.166C153.594 209.187 153.339 209.017 152.884 208.683C152.437 208.357 151.791 207.867 151.01 207.249C149.448 206.014 147.304 204.253 145.287 201.952C143.264 199.652 141.886 197.195 141.219 195.3C140.878 194.355 140.679 193.567 140.58 193.013C140.481 192.46 140.459 192.154 140.481 192.147C140.552 192.133 140.722 193.361 141.46 195.2C142.178 197.039 143.569 199.432 145.564 201.704C147.559 203.976 149.661 205.758 151.173 207.043C151.89 207.647 152.494 208.158 152.977 208.563C153.396 208.939 153.623 209.145 153.609 209.166Z" fill="#455A64"/>
<path d="M129.447 169.917C129.447 169.917 130.171 170.627 131.016 172.232C131.875 173.815 132.734 176.343 133.047 179.559C133.409 182.775 133.104 186.624 133.004 190.855C132.969 192.971 133.026 195.2 133.402 197.465C133.771 199.737 134.424 202.038 135.227 204.345C136.845 208.96 138.819 213.213 140.069 217.296C141.361 221.357 141.915 225.233 141.602 228.464C141.347 231.701 140.353 234.194 139.465 235.756C138.556 237.318 137.825 238.013 137.825 238.013C137.818 238.006 137.854 237.957 137.925 237.857C138.01 237.744 138.116 237.602 138.244 237.424C138.521 237.041 138.911 236.466 139.345 235.685C140.182 234.115 141.127 231.645 141.347 228.443C141.617 225.255 141.041 221.428 139.742 217.395C138.478 213.348 136.505 209.102 134.879 204.466C134.069 202.144 133.416 199.822 133.047 197.529C132.663 195.229 132.621 192.978 132.663 190.855C132.784 186.602 133.111 182.782 132.784 179.595C132.507 176.399 131.698 173.9 130.881 172.31C130.484 171.508 130.107 170.925 129.845 170.528C129.717 170.35 129.617 170.201 129.539 170.088C129.468 169.974 129.44 169.917 129.447 169.917Z" fill="#455A64"/>
<path d="M150.357 191.899C150.343 191.899 150.343 191.693 150.343 191.302C150.35 190.876 150.364 190.308 150.378 189.591C150.406 188.107 150.485 185.956 150.406 183.308C150.314 180.667 150.101 177.493 149.214 174.106C148.326 170.748 146.757 167.113 144.016 164.159C141.283 161.206 137.676 159.402 134.254 158.863C130.803 158.295 127.615 158.898 125.159 159.821C122.695 160.787 120.927 162.043 119.82 163.023C119.55 163.272 119.308 163.492 119.095 163.691C118.89 163.889 118.733 164.074 118.591 164.209C118.322 164.493 118.172 164.635 118.165 164.628C118.158 164.621 118.286 164.457 118.535 164.159C118.662 164.01 118.819 163.818 119.01 163.612C119.216 163.407 119.458 163.172 119.72 162.917C120.807 161.894 122.574 160.588 125.059 159.58C127.537 158.614 130.782 157.968 134.304 158.529C137.811 159.061 141.496 160.9 144.286 163.911C147.084 166.928 148.667 170.62 149.547 174.028C150.428 177.457 150.619 180.652 150.676 183.308C150.719 185.97 150.605 188.122 150.527 189.605C150.485 190.323 150.449 190.891 150.421 191.317C150.392 191.7 150.371 191.899 150.357 191.899Z" fill="white"/>
<path d="M134.304 177.259C134.183 177.287 133.757 174.639 132.394 171.664C131.052 168.682 129.341 166.616 129.44 166.538C129.476 166.509 129.944 166.985 130.59 167.858C131.236 168.724 132.039 170.002 132.727 171.508C133.409 173.02 133.842 174.461 134.069 175.519C134.297 176.577 134.346 177.252 134.304 177.259Z" fill="white"/>
<path d="M139.7 172.566C139.586 172.615 138.975 169.896 136.803 167.375C134.666 164.819 132.081 163.783 132.152 163.676C132.167 163.641 132.82 163.84 133.785 164.386C134.744 164.926 135.986 165.856 137.087 167.141C138.18 168.433 138.897 169.811 139.266 170.847C139.643 171.877 139.735 172.558 139.7 172.566Z" fill="white"/>
<path d="M86.3938 169.904L81.5374 161.348C83.6816 157.862 84.9241 153.759 84.9241 149.364C84.9241 136.726 74.6788 126.48 62.0408 126.48C49.4028 126.48 39.1575 136.726 39.1575 149.364C39.1575 162.002 49.4028 172.247 62.0408 172.247C67.3161 172.247 72.1725 170.458 76.042 167.454L76.0349 167.462L86.3938 169.904Z" fill="#FAFAFA"/>
<path d="M86.3928 169.903C85.9029 169.789 82.6227 169.044 76.0268 167.532L75.9203 167.51L75.9842 167.425L75.9913 167.418L76.0907 167.517C74.7843 168.526 73.2223 169.527 71.3834 170.357C69.5445 171.174 67.4358 171.841 65.107 172.147C63.9426 172.296 62.7285 172.388 61.486 172.331C60.8612 172.296 60.2293 172.281 59.5903 172.225C58.9513 172.125 58.3123 172.033 57.6591 171.934C55.0676 171.422 52.4193 170.435 49.9485 168.902C47.4777 167.375 45.1915 165.295 43.3597 162.746C41.5279 160.204 40.1434 157.18 39.4902 153.9C38.8441 150.626 38.9009 147.112 39.76 143.718C40.6262 140.331 42.245 137.023 44.6661 134.304L45.6033 133.274C45.9086 132.926 46.2778 132.642 46.6115 132.323C46.9594 132.024 47.2718 131.684 47.6481 131.421L48.7486 130.597C49.1036 130.313 49.4941 130.079 49.8846 129.845C50.2751 129.61 50.6585 129.376 51.049 129.142C51.4537 128.943 51.8584 128.744 52.2631 128.553C52.6678 128.368 53.0654 128.141 53.4914 128.006C56.8142 126.685 60.3642 126.181 63.7509 126.43C67.1447 126.671 70.3894 127.644 73.1655 129.213C75.9558 130.768 78.313 132.841 80.1306 135.163C81.9553 137.484 83.2404 140.04 84.0356 142.589C84.8237 145.145 85.0367 147.687 85.0296 150.037C84.9586 152.394 84.5326 154.56 83.9078 156.463C83.283 158.373 82.4594 160.006 81.6145 161.39V161.319C84.6604 166.8 86.1585 169.484 86.3928 169.903C86.1514 169.484 84.6178 166.822 81.4796 161.383L81.4583 161.347L81.4796 161.312C82.3103 159.935 83.1197 158.302 83.7303 156.406C84.3409 154.51 84.7598 152.359 84.8166 150.023C84.8166 147.694 84.5965 145.181 83.8084 142.646C83.0132 140.126 81.7352 137.598 79.9247 135.305C78.1213 133.018 75.7854 130.967 73.0235 129.433C70.2687 127.885 67.0595 126.934 63.7083 126.692C60.3571 126.451 56.8568 126.955 53.5695 128.254C53.1435 128.389 52.7601 128.609 52.3554 128.794C51.9578 128.986 51.5531 129.184 51.1555 129.376C50.7721 129.61 50.3887 129.838 50.0053 130.072C49.6219 130.299 49.2314 130.533 48.8835 130.817L47.7972 131.627C47.428 131.89 47.1156 132.223 46.7748 132.521C46.4482 132.834 46.0861 133.118 45.7808 133.459L44.8578 134.474C42.4651 137.165 40.8676 140.431 40.0085 143.775C39.1565 147.133 39.0997 150.598 39.7316 153.836C40.3706 157.08 41.7409 160.062 43.5443 162.583C45.3548 165.103 47.6126 167.162 50.055 168.682C52.4974 170.208 55.1173 171.188 57.6804 171.699C58.3265 171.799 58.9655 171.898 59.5974 171.997C60.2293 172.054 60.8612 172.068 61.4789 172.104C62.7143 172.168 63.9213 172.076 65.0715 171.934C67.379 171.635 69.4735 170.982 71.3053 170.18C73.13 169.363 74.692 168.384 75.9984 167.39L76.4244 167.063L76.0978 167.489L76.0907 167.496L76.0481 167.382C82.6369 168.994 85.9029 169.782 86.3928 169.903Z" fill="#263238"/>
<path d="M55.5929 149.356C55.5929 150.641 54.5492 151.678 53.2712 151.678C51.9861 151.678 50.9495 150.634 50.9495 149.356C50.9495 148.071 51.9932 147.035 53.2712 147.035C54.5563 147.035 55.5929 148.071 55.5929 149.356Z" fill="#263238"/>
<path d="M64.901 149.356C64.901 150.641 63.8573 151.677 62.5793 151.677C61.2942 151.677 60.2576 150.634 60.2576 149.356C60.2576 148.07 61.3013 147.034 62.5793 147.034C63.8573 147.034 64.901 148.07 64.901 149.356Z" fill="#263238"/>
<path d="M74.1735 148.198C74.8125 149.313 74.4362 150.733 73.3215 151.372C72.2068 152.011 70.7868 151.635 70.1478 150.52C69.5088 149.405 69.8851 147.985 70.9998 147.346C72.1145 146.7 73.5345 147.084 74.1735 148.198Z" fill="#263238"/>
<path d="M86.322 74.5784L86.5705 74.9973C86.8545 75.4659 87.2592 75.8422 87.7491 76.0836L88.1822 76.2966L87.7633 76.5451C87.2947 76.8291 86.9184 77.2338 86.677 77.7237L86.464 78.1568L86.2155 77.7379C85.9315 77.2693 85.5268 76.893 85.0369 76.6516L84.6038 76.4386L85.0227 76.1901C85.4913 75.9061 85.8676 75.5014 86.109 75.0115L86.322 74.5784Z" fill="#263238"/>
<path d="M331.883 68.5647L332.131 68.9836C332.415 69.4522 332.82 69.8285 333.31 70.0699L333.743 70.2829L333.324 70.5314C332.855 70.8154 332.479 71.2201 332.238 71.71L332.025 72.1431L331.776 71.7242C331.492 71.2556 331.087 70.8793 330.597 70.6379L330.164 70.4249L330.583 70.1764C331.052 69.8924 331.428 69.4877 331.67 68.9978L331.883 68.5647Z" fill="#263238"/>
<path d="M169.541 101.147L169.861 101.679C170.223 102.276 170.741 102.758 171.373 103.071L171.934 103.348L171.401 103.667C170.805 104.029 170.322 104.555 170.01 105.179L169.733 105.74L169.413 105.208C169.051 104.611 168.533 104.129 167.901 103.816L167.34 103.539L167.873 103.22C168.469 102.858 168.952 102.339 169.264 101.707L169.541 101.147Z" fill="#263238"/>
<path d="M135.362 27.1078L135.681 27.6403C136.043 28.2367 136.562 28.7195 137.193 29.0319L137.754 29.3088L137.222 29.6283C136.625 29.9904 136.143 30.5087 135.83 31.1406L135.553 31.7015L135.234 31.169C134.872 30.5726 134.353 30.0898 133.722 29.7774L133.161 29.5005L133.693 29.181C134.29 28.8189 134.772 28.3006 135.085 27.6687L135.362 27.1078Z" fill="#263238"/>
<path d="M270.68 20.5971L271 21.1296C271.362 21.726 271.88 22.2088 272.512 22.5212L273.073 22.7981L272.541 23.1176C271.944 23.4797 271.462 23.998 271.149 24.6299L270.872 25.1908L270.553 24.6583C270.191 24.0619 269.672 23.5791 269.04 23.2667L268.479 22.9898L269.012 22.6703C269.608 22.3082 270.091 21.7899 270.404 21.158L270.68 20.5971Z" fill="#263238"/>
<path d="M234.847 76.3747L235.095 78.8171C235.152 79.4064 235.393 79.9744 235.827 80.372C235.834 80.3791 235.848 80.3862 235.855 80.4004C236.274 80.7767 236.821 80.9684 237.381 80.9968L239.313 81.0962L237.325 81.4512C236.813 81.5435 236.324 81.7778 235.961 82.1541C235.919 82.1967 235.883 82.2393 235.848 82.2819C235.5 82.6795 235.308 83.1836 235.259 83.709L235.038 86.1514L234.797 83.8439C234.733 83.2617 234.499 82.7008 234.066 82.3032C234.037 82.2819 234.016 82.2535 233.988 82.2322C233.604 81.8985 233.107 81.6997 232.596 81.65L230.558 81.437L232.468 81.2027C233.036 81.1317 233.576 80.8974 233.966 80.4785C233.988 80.4501 234.016 80.4288 234.037 80.4004C234.385 80.0028 234.584 79.4916 234.627 78.9662L234.847 76.3747Z" fill="#263238"/>
<path d="M48.8126 30.1537L49.0611 32.5961C49.1179 33.1854 49.3593 33.7534 49.7924 34.151C49.7995 34.1581 49.8137 34.1652 49.8208 34.1794C50.2397 34.5557 50.7864 34.7474 51.3473 34.7758L53.2785 34.8752L51.2905 35.2302C50.7793 35.3225 50.2894 35.5568 49.9273 35.9331C49.8847 35.9757 49.8492 36.0183 49.8137 36.0609C49.4658 36.4585 49.2741 36.9626 49.2244 37.488L49.0043 39.9304L48.7629 37.6229C48.699 37.0407 48.4647 36.4798 48.0316 36.0822C48.0032 36.0609 47.9819 36.0325 47.9535 36.0112C47.5701 35.6775 47.0731 35.4787 46.5619 35.429L44.5242 35.216L46.4341 34.9817C47.0021 34.9107 47.5417 34.6764 47.9322 34.2575C47.9535 34.2291 47.9819 34.2078 48.0032 34.1794C48.3511 33.7818 48.5499 33.2706 48.5925 32.7452L48.8126 30.1537Z" fill="#263238"/>
<path d="M173.609 149.391L173.929 149.924C174.291 150.52 174.809 151.003 175.441 151.315L176.002 151.592L175.469 151.912C174.873 152.274 174.39 152.792 174.078 153.424L173.801 153.985L173.481 153.452C173.119 152.856 172.601 152.373 171.969 152.061L171.408 151.784L171.941 151.464C172.537 151.102 173.02 150.584 173.332 149.952L173.609 149.391Z" fill="#263238"/>
<path d="M285.498 113.756L285.818 114.289C286.18 114.885 286.698 115.368 287.33 115.68L287.891 115.957L287.358 116.277C286.762 116.639 286.279 117.164 285.967 117.789L285.69 118.35L285.37 117.817C285.008 117.221 284.49 116.738 283.858 116.426L283.297 116.149L283.83 115.829C284.426 115.467 284.909 114.949 285.221 114.317L285.498 113.756Z" fill="#263238"/>
</g>
</svg>
