<svg width="293" height="288" viewBox="0 0 293 288" fill="none" xmlns="http://www.w3.org/2000/svg">
<path d="M14.969 233.844C25.1472 247.738 52.8771 259.081 78.2712 263.882C131.194 273.884 169.571 268.502 218.208 266.104C287.251 262.697 271.032 240.167 254.804 228.82C233.629 214.017 227.654 206.299 128.697 210.01C23.4447 213.955 0.0697969 213.507 14.969 233.844Z" fill="#E6E7E8"/>
<path d="M180.324 234.033V235.654L129.434 235.744V234.033H180.324Z" fill="#BD9F62"/>
<path d="M154.877 242.961C140.825 242.961 129.434 239.618 129.434 235.494C129.434 231.369 140.825 228.026 154.877 228.026C168.929 228.026 180.32 231.369 180.32 235.494C180.32 239.618 168.929 242.961 154.877 242.961Z" fill="#BD9F62"/>
<path d="M154.877 241.249C140.825 241.249 129.434 237.906 129.434 233.782C129.434 229.658 140.825 226.315 154.877 226.315C168.929 226.315 180.32 229.658 180.32 233.782C180.32 237.906 168.929 241.249 154.877 241.249Z" fill="#CCA860"/>
<path d="M239.547 52.5601C239.547 52.5601 245.786 52.5354 245.572 57.201C245.42 60.4759 250.91 62.9198 249.224 69.371C247.542 75.8222 242.825 80.3027 237.088 79.4675C231.355 78.6364 232.622 76.3489 232.622 76.3489C232.622 76.3489 235.447 51.6714 239.547 52.5601Z" fill="#691E09"/>
<path d="M91.7146 75.2051C91.7146 75.2051 90.6372 87.6138 93.7502 87.6138C93.7502 87.6138 92.1505 93.74 84.7277 91.3208C77.3048 88.9016 73.8504 87.0708 73.8504 87.0708C76.4864 82.364 78.4316 79.8872 77.8147 71.7492C77.2554 64.4463 91.7146 75.2051 91.7146 75.2051Z" fill="#EBA27E"/>
<path d="M217.155 83.9521C217.155 83.9521 217.71 92.0902 215.893 94.3818C215.596 94.7562 212.228 95.2664 211.788 95.2664C211.788 95.2664 205.073 109.893 215.391 108.202C225.557 106.535 233.777 94.8797 233.777 94.8797C233.777 94.8797 227.535 92.5633 228.476 82.8084C229.18 75.5178 217.155 83.9521 217.155 83.9521Z" fill="#EBA27E"/>
<path d="M205.048 67.8817C205.052 73.7775 208.026 87.441 218.697 87.441C231.006 87.441 235.583 73.7734 235.579 67.8817L236.056 54.5473L205.241 53.1238L205.048 67.8817Z" fill="#FCB38B"/>
<path d="M207.68 68.4906C207.68 69.4821 208.486 70.2844 209.477 70.2844C210.468 70.2844 211.27 69.478 211.27 68.4865C211.27 67.4949 210.464 66.6926 209.473 66.6926C208.482 66.6967 207.68 67.5031 207.68 68.4906Z" fill="#261B15"/>
<path d="M223.635 70.2014C222.68 69.9383 222.119 68.9507 222.382 67.9955C222.645 67.0404 223.632 66.4794 224.587 66.7426C225.542 67.0057 226.102 67.9933 225.839 68.9484C225.576 69.9036 224.589 70.4645 223.635 70.2014Z" fill="#261B15"/>
<path d="M226.474 65.1745C224.01 63.7674 221.765 64.8701 221.74 64.8783C221.337 65.0058 220.906 64.977 220.782 64.5738C220.659 64.1665 220.655 63.7386 221.062 63.6152C221.202 63.5699 224.089 62.5496 227.099 64.3681C227.461 64.5862 227.662 64.8166 227.444 65.1786C227.296 65.4132 227.008 65.4831 226.474 65.1745Z" fill="#611C08"/>
<path d="M207.109 65.1951C209.572 63.7839 211.813 64.8824 211.842 64.8906C212.245 65.014 212.677 64.9894 212.8 64.582C212.923 64.1747 212.923 63.7468 212.52 63.6234C212.381 63.5782 209.494 62.5619 206.483 64.3887C206.122 64.6067 205.92 64.8371 206.142 65.1992C206.286 65.4378 206.574 65.5037 207.109 65.1951Z" fill="#611C08"/>
<path d="M222.933 67.8693C222.933 68.1038 223.126 68.2972 223.361 68.2972C223.595 68.2972 223.788 68.1038 223.788 67.8693C223.788 67.6348 223.595 67.4414 223.361 67.4414C223.126 67.4414 222.933 67.6307 222.933 67.8693Z" fill="white"/>
<path d="M208.305 67.8816C208.305 68.1161 208.499 68.3095 208.733 68.3095C208.967 68.3095 209.161 68.1161 209.161 67.8816C209.161 67.6471 208.967 67.4537 208.733 67.4537C208.494 67.4537 208.305 67.6471 208.305 67.8816Z" fill="white"/>
<path d="M216.966 81.9402C221.917 81.9402 222.83 77.7724 222.674 77.7724C222.674 77.7724 220.601 78.3443 217.019 78.3484C213.437 78.3525 211.805 77.3939 211.805 77.3939C211.636 77.3939 212.858 81.9402 216.966 81.9402Z" fill="#C94236"/>
<path d="M222.041 77.9123C221.292 78.6282 219.783 79.4634 216.962 79.4675C214.03 79.4716 212.516 78.2373 211.801 77.3939C212.652 77.6737 214.482 78.1427 217.015 78.1427C219.446 78.1386 221.177 78.0851 222.041 77.9123Z" fill="white"/>
<path d="M216.542 49.8199C216.542 49.8199 221.103 56.6867 210.551 57.5918C208.013 57.8099 206.117 59.1511 205.505 63.3024C205.069 66.2771 208.729 76.0691 198.83 78.5335C198.83 78.5335 204.448 74.8883 202.799 69.3751C199.986 59.9493 201.244 50.688 206.043 46.7136C210.53 43.0067 215.531 44.278 216.542 49.8199Z" fill="#691E09"/>
<path d="M214.885 55.9708C216.978 57.2174 218.253 58.3818 225.372 58.9207C232.716 59.4762 238.507 67.425 233.617 76.3488C233.617 76.3488 239.913 74.2752 241.229 64.7795C243.902 45.4876 222.686 34.1486 212.689 46.9194C212.693 46.9152 212.06 54.288 214.885 55.9708Z" fill="#691E09"/>
<path d="M214.836 55.9338C215.017 54.0124 219.33 50.7045 223.361 51.7413C227.391 52.7781 238.745 60.6323 238.289 66.454C237.446 77.143 240.9 71.3747 243.228 71.3747C247.521 71.3747 248.286 66.3471 246.291 64.3516C244.297 62.3562 245.687 56.8348 242.709 55.3126C239.732 53.7903 239.909 52.7987 239.975 52.5807C241.369 52.6712 245.749 53.276 245.568 57.2051C245.415 60.4801 250.905 62.924 249.219 69.3752C247.537 75.8264 242.804 80.4138 237.084 79.4716C235.64 79.233 232.581 78.6488 232.901 77.8712C233.017 77.5955 233.428 75.5425 233.428 75.5425C233.428 75.5425 233.675 71.7985 234.781 66.055C233.148 61.2083 229.25 59.217 225.372 58.9249C218.253 58.3859 216.978 57.2175 214.885 55.975C214.869 55.9626 214.852 55.942 214.836 55.9338Z" fill="#591A07"/>
<path d="M236.816 68.3589C237.01 70.2803 235.118 72.753 233.942 72.7571C232.766 72.7571 233.247 70.5272 233.247 68.972C233.247 67.4168 233.177 66.7585 234.082 66.1866C234.949 65.6353 236.603 66.2154 236.816 68.3589Z" fill="#FCB38B"/>
<path d="M216.563 68.9473C216.324 69.478 215.744 71.2554 215.198 72.4897C214.392 74.4316 215.901 75.3285 217.739 74.5591C213.746 73.8021 217.192 73.2467 216.563 68.9473Z" fill="#E8A17B"/>
<path d="M238.379 183.366C238.379 183.366 243.372 235.555 247.513 245.66C247.513 245.66 245.161 248.417 242.405 245.66C242.405 245.66 237.285 187.114 227.058 184.925L238.379 183.366Z" fill="#CCB977"/>
<path d="M201.54 183.366C201.54 183.366 196.548 235.555 192.407 245.66C192.407 245.66 194.759 248.417 197.514 245.66C197.514 245.66 202.634 187.114 212.862 184.925L201.54 183.366Z" fill="#CCB977"/>
<path d="M219.121 172.866C219.121 172.866 214.128 225.056 209.987 235.16C209.987 235.16 212.34 237.917 215.095 235.16C215.095 235.16 220.215 176.614 230.442 174.425L219.121 172.866Z" fill="#CCB977"/>
<path d="M71.4817 59.7765C71.4982 64.4257 74.8292 74.6126 82.8443 78.9491C85.3899 80.3274 87.1705 80.5454 91.5461 80.5454C100.001 80.5454 103.781 67.5155 103.781 59.6613L103.723 40.9207L72.2343 39.6659L71.4817 59.7765Z" fill="#FCB38B"/>
<path d="M83.0908 59.3034C83.0949 60.332 83.9339 61.1672 84.962 61.1631C85.9901 61.159 86.8249 60.3196 86.8208 59.2911C86.8167 58.2625 85.9777 57.4273 84.9496 57.4314C83.9174 57.4355 83.0867 58.2748 83.0908 59.3034Z" fill="#261B15"/>
<path d="M102.029 59.2376C102.033 60.2662 101.202 61.1055 100.17 61.1096C99.1416 61.1137 98.3027 60.2826 98.2986 59.2499C98.2945 58.2214 99.1252 57.3821 100.157 57.3779C101.186 57.3738 102.024 58.2049 102.029 59.2376Z" fill="#261B15"/>
<path d="M103.781 56.0367C100.343 54.8148 97.4351 55.5224 97.4063 55.5348C96.9992 55.6993 96.5509 55.7076 96.3864 55.2961C96.2219 54.8847 96.1027 53.9384 96.884 53.8767C97.0362 53.8644 101.284 52.8234 103.781 54.6502V56.0367Z" fill="#59372B"/>
<path d="M81.8529 55.9667C84.748 54.864 87.6514 55.584 87.6802 55.5923C88.0873 55.7568 88.5355 55.7651 88.7 55.3536C88.8645 54.9463 88.9879 53.9959 88.2024 53.9301C88.0503 53.9177 83.8022 52.8686 81.3059 54.6953C80.9481 54.9545 80.5739 55.3125 80.7713 55.7033C80.8988 55.9667 81.2525 56.1971 81.8529 55.9667Z" fill="#59372B"/>
<path d="M98.9359 58.6123C98.9359 58.855 99.1374 59.0566 99.38 59.0525C99.6226 59.0525 99.8241 58.8509 99.82 58.6081C99.82 58.3613 99.6185 58.1638 99.3759 58.1679C99.1332 58.172 98.9359 58.3695 98.9359 58.6123Z" fill="white"/>
<path d="M83.7366 58.6699C83.7366 58.9126 83.9381 59.1142 84.1808 59.1101C84.4275 59.1101 84.6249 58.9085 84.6208 58.6657C84.6208 58.423 84.4193 58.2214 84.1766 58.2255C83.934 58.2255 83.7366 58.423 83.7366 58.6699Z" fill="white"/>
<path d="M86.3889 31.8652C86.3355 32.1409 82.441 37.9667 82.2477 41.9823C72.5178 41.0113 78.5178 65.1004 72.5178 60.1468L73.1799 67.2769C73.1799 67.2769 66.5672 63.7633 66.4808 48.8243C66.4274 40.3119 73.953 29.6065 86.3889 31.8652Z" fill="#603913"/>
<path d="M93.45 72.7037C96.1231 72.609 97.2828 71.3048 97.1183 71.3048C97.1183 71.3048 97.0689 71.5434 93.3431 71.5558C89.6214 71.5681 85.8133 70.4285 85.8133 70.4285C85.6406 70.4285 87.2773 72.9176 93.45 72.7037Z" fill="#EB9C76"/>
<path d="M92.8868 59.7806C92.932 60.4924 93.2075 61.7596 93.6352 62.8252C94.1616 64.043 94.0012 63.4053 94.47 64.4051C94.7209 64.8947 94.8443 65.4131 94.7127 65.7505C94.5893 66.1002 94.1534 66.3553 93.7586 66.5075C93.3556 66.6597 92.9855 66.7502 92.7264 66.8202C92.4632 66.886 92.311 66.923 92.311 66.923C92.311 66.923 92.4632 66.9601 92.7346 67.0053C93.006 67.0382 93.3967 67.0876 93.8861 67.0218C94.1287 66.9971 94.4001 66.9354 94.6757 66.7996C94.9512 66.6721 95.2596 66.454 95.4365 66.1002C95.6215 65.7546 95.6626 65.3473 95.6009 64.9934C95.5434 64.6355 95.4282 64.3105 95.2802 64.0101C94.98 63.4259 94.6757 63.0926 94.3467 62.4878C94.0835 61.99 93.8408 61.5251 93.627 61.1301C93.2075 60.3155 92.8868 59.7806 92.8868 59.7806Z" fill="#E8A17B"/>
<path d="M69.7749 57.9416C69.5405 60.4472 71.9503 63.6646 73.439 63.6604C74.9319 63.6563 74.3068 60.7475 74.2986 58.7192C74.2903 56.6909 74.3726 55.831 73.2252 55.0904C72.1231 54.3786 70.034 55.148 69.7749 57.9416Z" fill="#FCB38B"/>
<path d="M242.911 179.432V182.279H197.518L197.971 179.432H242.911Z" fill="#E8D287"/>
<path d="M197.518 182.279C197.518 185.904 207.68 188.842 220.215 188.842C232.749 188.842 242.911 185.904 242.911 182.279C242.911 178.655 232.749 175.717 220.215 175.717C207.68 175.717 197.518 178.655 197.518 182.279Z" fill="#E8D287"/>
<path d="M197.518 179.432C197.518 183.057 207.68 185.995 220.215 185.995C232.749 185.995 242.911 183.057 242.911 179.432C242.911 175.808 232.749 172.87 220.215 172.87C207.68 172.866 197.518 175.808 197.518 179.432Z" fill="#FCE7A1"/>
<path d="M242.911 182.279C242.911 182.279 245.514 160.758 252.172 137.894C253.714 132.595 237.154 124.683 233.013 124.683C228.871 124.683 219.31 167.756 219.31 167.756C219.31 167.756 230.977 172.253 239.481 179.157C240.069 179.634 239.864 182.078 240.583 182.279C241.398 182.51 242.368 181.716 242.911 182.279Z" fill="#E8D287"/>
<path d="M240.583 182.279C240.583 182.279 243.187 160.758 249.845 137.894C251.387 132.595 234.826 125.329 230.685 125.329C226.544 125.329 216.982 167.756 216.982 167.756C216.982 167.756 232.248 173.644 240.583 182.279Z" fill="#E8AD68"/>
<path d="M59.897 183.366C59.897 183.366 54.9046 236.592 50.7634 246.697C50.7634 246.697 53.1157 249.453 55.871 246.697C55.871 246.697 60.991 187.114 71.2185 184.925L59.897 183.366Z" fill="#CCB977"/>
<path d="M96.7358 183.366C96.7358 183.366 101.728 236.592 105.869 246.697C105.869 246.697 103.517 249.453 100.762 246.697C100.762 246.697 95.6419 187.114 85.4143 184.925L96.7358 183.366Z" fill="#CCB977"/>
<path d="M79.1554 172.866C79.1554 172.866 84.1479 226.092 88.2891 236.197C88.2891 236.197 85.9368 238.954 83.1815 236.197C83.1815 236.197 78.0615 176.614 67.834 174.425L79.1554 172.866Z" fill="#CCB977"/>
<path d="M127.583 236.226C127.583 236.226 126.119 240.102 126.119 243.138C126.119 246.174 125.28 247.849 129.154 247.849C131.588 247.849 133.402 247.849 134.414 247.849C136.532 247.849 136.585 247.68 136.585 247.376C136.585 247.046 136.585 247.162 136.585 246.561C136.585 245.882 138.156 248.371 145.9 248.371C151.34 248.371 159.495 248.894 160.856 248.371C162.218 247.849 162.218 243.767 157.509 243.138C152.8 242.508 144.765 238.822 143.823 237.88C142.881 236.938 141.088 234.761 141.088 234.761L127.583 236.226Z" fill="#30292A"/>
<path d="M55.3652 179.432V182.279H100.758L100.305 179.432H55.3652Z" fill="#E8D287"/>
<path d="M100.758 182.279C100.758 185.904 90.5961 188.842 78.0615 188.842C65.5269 188.842 55.3652 185.904 55.3652 182.279C55.3652 178.655 65.5269 175.717 78.0615 175.717C90.5961 175.717 100.758 178.655 100.758 182.279Z" fill="#E8D287"/>
<path d="M100.758 179.432C100.758 183.057 90.5961 185.995 78.0615 185.995C65.5269 185.995 55.3652 183.057 55.3652 179.432C55.3652 175.808 65.5269 172.87 78.0615 172.87C90.5961 172.866 100.758 175.808 100.758 179.432Z" fill="#FCE7A1"/>
<path d="M55.365 182.279C55.365 182.279 52.766 160.758 46.1039 137.894C44.5617 132.595 61.1224 124.683 65.2635 124.683C69.4047 124.683 78.9661 167.756 78.9661 167.756C78.9661 167.756 67.2992 172.253 58.7948 179.157C58.2067 179.634 58.4123 182.078 57.6926 182.279C56.8784 182.51 55.9079 181.716 55.365 182.279Z" fill="#E8D287"/>
<path d="M57.6929 182.279C57.6929 182.279 55.0939 160.758 48.4318 137.894C46.8896 132.595 63.4503 125.329 67.5914 125.329C71.7326 125.329 81.2939 167.756 81.2939 167.756C81.2939 167.756 66.0287 173.644 57.6929 182.279Z" fill="#E8AD68"/>
<path d="M119.103 240.476C119.103 240.476 117.639 244.352 117.639 247.388C117.639 250.424 116.8 252.099 120.674 252.099C123.109 252.099 124.922 252.099 125.934 252.099C128.052 252.099 128.105 251.93 128.105 251.626C128.105 251.296 128.105 251.412 128.105 250.811C128.105 250.132 129.676 252.621 137.42 252.621C142.861 252.621 151.015 253.144 152.377 252.621C153.738 252.099 153.738 248.017 149.029 247.388C144.32 246.758 136.285 243.072 135.343 242.13C134.401 241.188 132.608 239.011 132.608 239.011L119.103 240.476Z" fill="#362E2F"/>
<path d="M191.979 162.21C191.979 162.21 178.614 174.096 178.297 180.597C177.861 189.553 184.568 223.245 183.734 235.798C183.413 240.624 176.825 247.219 175.702 249.112C174.579 251.009 192.353 245.142 194.208 242.007C196.063 238.871 193.048 237.263 192.366 229.623C190.429 207.891 199.18 195.861 192.057 183.473C190.449 180.675 207.919 168.172 207.919 168.172L191.979 162.21Z" fill="#EBA27E"/>
<path d="M196.215 163.794C196.215 163.794 179.634 171.352 177.067 177.33C173.531 185.571 176.241 213.252 169.92 229.561C168.172 234.07 162.641 242.175 160.926 243.558C160.239 244.113 160.499 246.236 163.098 245.927C166.963 245.467 175.867 238.571 177.561 237.201C180.394 234.913 176.886 234.514 178.918 227.117C184.692 206.076 192.324 195.1 189.092 182.555C188.286 179.432 207.993 171.883 207.993 171.883L196.215 163.794Z" fill="#FCB38B"/>
<path d="M209.317 95.9164C203.103 98.3726 194.632 126.428 188.512 126.843C184.12 127.14 167.506 127.749 167.506 127.749L166.819 136.644C166.819 136.644 180.02 138.713 191.259 137.948C198.123 137.483 204.875 126.646 208.98 118.586C211.439 113.756 209.317 95.9164 209.317 95.9164Z" fill="#73151A"/>
<path d="M175.653 178.05C179.934 160.737 208.893 157.153 208.893 141.437C208.893 138.985 208.075 133.163 206.726 125.585C205.829 120.545 200.389 119.825 200.389 113.892C200.389 109.531 203.81 106.922 205.048 104.219C207.063 99.8332 207.228 97.5704 208.178 96.62C209.716 95.0812 212.631 95.0442 212.631 95.0442C205.048 121.186 233.773 94.8796 233.773 94.8796C233.773 94.8796 239.029 97.1878 240.345 103.182C242.59 113.382 232.317 123.639 231.795 140.4C231.454 151.361 246.476 164.576 233.786 177.272C227.14 183.921 206.043 184.999 202.215 188.048C197.856 191.52 174.653 182.078 175.653 178.05Z" fill="#821620"/>
<path d="M212.747 140.602V143.975L95.3705 144.161V140.602H212.747Z" fill="#BD9F62"/>
<path d="M149.835 150.933H158.286V232.642H149.835V150.933Z" fill="#AD8F51"/>
<path d="M78.5508 150.571C78.5508 150.571 71.5597 176.133 95.716 178.741C119.872 181.345 119.806 182.514 121.427 186.702C123.327 191.611 129.051 238.505 129.051 238.505H149.247C149.247 238.505 142.63 187.352 141.923 182.283C140.414 171.5 134.545 166.608 122.928 164.098C113.868 162.14 78.5508 150.571 78.5508 150.571Z" fill="#323E57"/>
<path d="M65.8516 152.714C65.8516 152.714 58.8605 178.276 83.0168 180.885C107.173 183.489 107.107 184.657 108.727 188.846C110.627 193.754 116.352 240.649 116.352 240.649H136.548C136.548 240.649 129.931 189.496 129.224 184.427C127.714 173.643 121.846 168.756 110.228 166.242C101.165 164.283 65.8516 152.714 65.8516 152.714Z" fill="#384561"/>
<path d="M231.799 140.4C231.668 144.576 233.765 149.077 235.714 153.751V153.747C235.714 153.747 228.357 145.403 226.539 141.178C224.722 136.948 218.927 139.701 213.598 137.718C208.149 135.689 208.149 132.019 208.149 132.019C208.149 132.019 196.453 112.987 200.393 113.888C204.18 114.752 211.32 120.335 213.104 118.553C218.747 112.908 226.539 105.227 226.539 105.227C226.539 105.227 237.162 103.182 240.353 103.182C242.594 113.382 232.322 123.643 231.799 140.4Z" fill="#73151A"/>
<path d="M105.039 90.8147C105.039 90.8147 117.014 120.795 127.11 122.351C137.206 123.906 153.52 122.351 153.52 122.351L155.593 132.455C155.593 132.455 125.227 138.018 114.423 133.945C103.62 129.872 95.1938 106.638 95.1938 106.638L105.039 90.8147Z" fill="#3F4E6D"/>
<path d="M76.4328 82.2858C76.4328 82.2858 65.7036 87.334 63.8407 88.2433C60.1231 90.0577 55.4061 92.7895 55.4061 99.0062C55.4061 102.314 59.0785 151.706 60.1601 172.866C60.6412 182.329 84.2053 178.502 84.2053 178.502L95.1936 161.325C95.1936 161.325 100.758 158.445 105.869 159.252C105.869 159.252 106.326 128.67 106.548 113.077C106.663 104.853 105.273 92.6867 105.273 91.6129C105.273 88.5025 91.7145 83.4789 91.7145 83.4789C91.7145 83.4789 86.6316 91.2796 76.4328 82.2858Z" fill="#3F4E6D"/>
<path d="M154.059 159.696C121.646 159.696 95.3705 152.741 95.3705 144.161C95.3705 135.581 121.646 128.625 154.059 128.625C186.471 128.625 212.747 135.581 212.747 144.161C212.747 152.741 186.471 159.696 154.059 159.696Z" fill="#BD9F62"/>
<path d="M154.059 156.137C121.646 156.137 95.3705 149.182 95.3705 140.602C95.3705 132.022 121.646 125.066 154.059 125.066C186.471 125.066 212.747 132.022 212.747 140.602C212.747 149.182 186.471 156.137 154.059 156.137Z" fill="#CCA860"/>
<path d="M76.4328 82.2858C76.4328 82.2858 84.7481 84.5322 86.718 84.5322C88.6878 84.5322 91.7186 83.483 91.7186 83.483L95.1936 99.8167L90.6535 130.991C90.6535 130.991 81.4993 104.392 81.4993 103.577C81.4952 102.763 76.4328 82.2858 76.4328 82.2858Z" fill="#F1F2F2"/>
<path d="M87.8819 89.3253L92.7017 121.989L86.3274 123.972L85.871 89.3253H87.8819Z" fill="#C2C3C7"/>
<path d="M91.7148 83.483C91.7148 83.483 93.4708 97.0602 93.0143 102.536C92.5578 108.012 91.4598 121.664 91.4598 121.664L92.2041 120.298L98.4509 102.573L96.0533 97.9283L98.8662 94.6739L96.2631 86.0051L91.7148 83.483Z" fill="#394763"/>
<path d="M76.433 82.2858L72.8223 84.5322L74.0026 95.723L78.9662 99.8167L77.2102 105.223L91.1389 126.099L80.714 99.8167L76.433 82.2858Z" fill="#394763"/>
<path d="M184.98 100.854H187.18V115.554H184.98V100.854Z" fill="#FCF5DE"/>
<path d="M202.219 116.134C202.219 116.134 197.81 112.328 197.407 111.921C197 111.514 194.257 107.124 192.768 106.334C191.28 105.54 184.906 104.124 184.252 104.779C183.598 105.433 183.507 106.289 183.779 106.56C183.779 106.56 182.393 107.235 182.808 108.716C182.808 108.716 181.928 109.823 182.726 110.621C182.726 110.621 182.45 111.925 183.034 112.513C183.034 112.513 184.581 113.772 185.198 114.39C185.814 115.007 191.235 116.838 192.304 116.838C193.373 116.838 197.769 120.084 197.769 120.084L202.219 116.134Z" fill="#FCB38B"/>
<path d="M224.121 108.671C224.121 108.671 231.528 96.4883 236.833 99.2449C242.138 102.001 241.332 110.658 234.991 117.002C228.649 123.346 222.041 133.916 214.795 134.961C209.708 135.693 193.204 117.496 193.204 117.496L197.95 111.534C197.95 111.534 212.13 122.696 213.68 122.696C215.23 122.696 224.121 108.671 224.121 108.671Z" fill="#821620"/>
<path d="M79.287 42.6857C79.287 42.6857 91.6365 49.1575 103.735 44.8951C107.465 43.5826 108.855 35.8272 101.477 33.7577C98.9895 33.0583 97.6036 29.4994 93.228 29.6476C82.0176 30.0261 71.9628 32.2848 79.287 42.6857Z" fill="#603913"/>
<path d="M186.082 103.573C191 103.573 190.679 86.1902 190.679 86.1902H181.488C181.484 86.1902 181.163 103.573 186.082 103.573Z" fill="#FCF5DE"/>
<path d="M182.438 117.689C182.438 118.405 184.071 118.529 186.082 118.529C188.093 118.529 189.725 118.405 189.725 117.689C189.725 116.973 186.082 115.813 186.082 115.813C186.082 115.813 182.438 116.973 182.438 117.689Z" fill="#FCF5DE"/>
<path d="M132.621 114.719C132.621 115.435 130.988 115.558 128.977 115.558C126.966 115.558 125.333 115.435 125.333 114.719C125.333 114.003 128.977 112.843 128.977 112.843C128.977 112.843 132.621 114.003 132.621 114.719Z" fill="#FCF5DE"/>
<path d="M186.082 91.3948C187.645 91.3948 189.141 91.3413 190.548 91.2467C190.239 96.3772 189.248 103.573 186.082 103.573C182.915 103.573 181.924 96.3813 181.616 91.2467C183.022 91.3413 184.519 91.3948 186.082 91.3948Z" fill="#FCE7A1"/>
<path d="M130.077 111.544H127.877V96.8435H130.077V111.544Z" fill="#FCF5DE"/>
<path d="M115.328 110.098C115.328 110.098 120.111 106.609 120.543 106.145C120.97 105.68 124.264 101.997 125.839 101.088C127.414 100.179 131.395 98.5084 132.263 98.7265C133.217 98.961 134.068 100.36 133.784 100.673C133.784 100.673 135.211 102.277 134.771 103.976C134.771 103.976 135.598 105.449 134.985 107.037C134.985 107.037 135.713 108.477 135.088 109.152C135.088 109.152 133.653 110.6 132.999 111.312C132.345 112.024 128.619 114.139 126.275 113.793C125.153 113.628 120.485 117.525 120.485 117.525L115.328 110.098Z" fill="#FCB38B"/>
<path d="M128.977 98.5248C124.058 98.5248 124.379 81.142 124.379 81.142H133.57C133.575 81.142 133.899 98.5248 128.977 98.5248Z" fill="#FCF5DE"/>
<path d="M128.977 86.3506C127.414 86.3506 125.917 86.2971 124.511 86.2025C124.819 91.333 125.81 98.5289 128.977 98.5289C132.144 98.5289 133.135 91.3371 133.443 86.2025C132.037 86.2971 130.54 86.3506 128.977 86.3506Z" fill="#FCE7A1"/>
<path d="M86.7181 84.5322L89.7612 86.5894C89.7612 86.5894 88.4658 90.8147 87.0429 90.8147C85.62 90.8147 81.9847 86.9926 81.9847 86.9926L86.7181 84.5322Z" fill="#C2C3C7"/>
<path d="M67.4884 91.4031C63.0059 88.8276 53.9874 90.9341 55.5419 102.717C57.0964 114.501 78.2095 135.681 85.6282 136.109C93.7296 136.574 122.056 120.372 124.93 117.492L116.903 107.424C116.903 107.424 94.9223 120.096 90.0326 119.825C85.3938 119.561 71.971 93.9828 67.4884 91.4031Z" fill="#48597D"/>
<path d="M86.718 84.5322L77.3541 79.8912L76.4329 82.2858L77.3952 86.2314L82.3548 91.2343L86.718 84.5322Z" fill="#E6E7E8"/>
<path d="M86.7182 84.5322L90.1479 91.2344L92.1548 87.1942L91.7148 83.4831L91.5914 81.9443L86.7182 84.5322Z" fill="#E6E7E8"/>
<path d="M93.7502 74.1682C93.7502 74.1682 90.3411 74.341 88.4411 73.3906C88.4411 73.3947 90.703 76.6903 93.7502 74.1682Z" fill="#EB9C76"/>
<path d="M193.389 234.568C193.389 234.568 196.272 236.378 195.211 240.48C194.15 244.578 193.097 249.807 193.097 249.807H191.428L191.757 243.998C191.757 243.998 187.714 246.894 186.398 249.437C184.692 252.728 174.065 252.831 172.712 252.313C171.294 251.77 177.725 246.557 177.725 246.557C177.725 246.557 173.987 251.942 185.638 244.936C190.383 241.307 192.324 235.633 193.389 234.568Z" fill="#210D07"/>
<path d="M178.198 232.482C178.198 232.482 180.917 234.535 179.502 238.53C178.091 242.521 176.932 246.388 176.932 246.388L175.27 246.244L175.756 241.735C175.756 241.735 171.479 244.269 169.949 246.689C167.967 249.82 157.957 249.593 156.653 248.964C155.288 248.301 161.555 243.072 161.555 243.072C161.555 243.072 158.96 248.643 169.575 242.142C174.62 238.937 177.043 233.453 178.198 232.482Z" fill="#210D07"/>
<path d="M147.762 138.413H160.601L158.529 112.752H149.835L147.762 138.413Z" fill="#E0E4E6"/>
<path d="M147.762 138.413C147.762 139.367 150.637 140.141 154.182 140.141C157.727 140.141 160.601 139.367 160.601 138.413C160.601 137.458 157.727 136.685 154.182 136.685C150.637 136.685 147.762 137.458 147.762 138.413Z" fill="#D3D7D9"/>
<path d="M149.835 112.752C149.835 113.55 151.78 114.196 154.182 114.196C156.584 114.196 158.529 113.55 158.529 112.752C158.529 111.954 156.584 111.308 154.182 111.308C151.78 111.308 149.835 111.954 149.835 112.752Z" fill="#ECF0F2"/>
<path d="M149.835 112.752C149.835 113.55 151.78 114.196 154.182 114.196C156.584 114.196 158.529 113.55 158.529 112.752L160.601 138.413H147.762L149.835 112.752Z" fill="#E0E4E6"/>
<path d="M149.835 112.752C149.835 113.55 151.78 114.196 154.182 114.196C156.584 114.196 158.529 113.55 158.529 112.752L160.601 138.413H147.762L149.835 112.752Z" fill="#E0E4E6"/>
<path d="M149.835 112.752C149.835 113.55 151.78 114.196 154.182 114.196C156.584 114.196 158.529 113.55 158.529 112.752L160.601 138.413H147.762L149.835 112.752Z" fill="#E0E4E6"/>
<path d="M155.851 135.442C155.86 135.13 156.596 104.017 160.836 94.9907L160.367 94.7686C156.082 103.894 155.362 134.146 155.333 135.43L155.851 135.442Z" fill="#7BC269"/>
<path d="M154.441 136.693C154.449 136.352 155.469 102.442 155.852 90.4361L155.333 90.4197C154.951 102.429 153.931 136.335 153.923 136.677L154.441 136.693Z" fill="#7BC269"/>
<path d="M153.52 132.472C153.602 131.106 155.383 98.961 145.748 93.6166L145.497 94.0692C154.848 99.2532 153.022 132.11 153.002 132.439L153.52 132.472Z" fill="#7BC269"/>
<path d="M156.464 89.8478C156.464 89.8478 159.363 85.8281 156.444 85.3221C154.042 84.9024 155.276 89.3788 155.276 89.3788C155.276 89.3788 152.623 85.3426 150.871 87.9017C149.115 90.4608 154.667 90.4361 154.667 90.4361C154.667 90.4361 150.201 91.1232 151.632 93.0857C153.063 95.0524 155.428 91.7404 155.428 91.7404C155.428 91.7404 155.971 95.1881 158.249 94.1966C160.647 93.1516 157.065 91.0368 157.065 91.0368C157.065 91.0368 161.062 91.7445 160.626 89.3829C160.165 86.8937 156.464 89.8478 156.464 89.8478Z" fill="#E8521C"/>
<path d="M146.447 93.5424C146.447 93.5424 150.436 90.6048 147.812 89.2265C145.653 88.091 145.46 92.7319 145.46 92.7319C145.46 92.7319 144.168 88.0745 141.717 89.9753C139.266 91.8761 144.555 93.5506 144.555 93.5506C144.555 93.5506 140.093 92.8348 140.854 95.147C141.615 97.4551 144.88 95.0277 144.88 95.0277C144.88 95.0277 144.345 98.4754 146.817 98.2286C149.42 97.9694 146.656 94.8549 146.656 94.8549C146.656 94.8549 150.246 96.7516 150.555 94.3694C150.876 91.8638 146.447 93.5424 146.447 93.5424Z" fill="#F26522"/>
<path d="M159.725 96.9573C159.725 96.9573 160.478 101.857 162.913 100.171C164.919 98.7799 160.902 96.4595 160.902 96.4595C160.902 96.4595 165.623 97.4757 165.08 94.4229C164.537 91.3701 160.597 95.2828 160.597 95.2828C160.597 95.2828 163.299 91.6581 160.902 91.2632C158.504 90.8682 159.137 94.8878 159.137 94.8878C159.137 94.8878 156.333 92.8142 155.403 95.1182C154.425 97.5457 158.463 96.5377 158.463 96.5377C158.463 96.5377 155.12 98.8417 157.085 100.216C159.158 101.664 159.725 96.9573 159.725 96.9573Z" fill="#F26522"/>
<path d="M154.297 132.455C153.59 124.708 157.673 109.239 149.247 105.383C140.262 101.273 139.924 114.513 139.924 114.513C139.924 114.513 142.602 107.198 145.669 108.107C151.32 109.79 154.297 132.455 154.297 132.455Z" fill="#6AC253"/>
<path d="M154.182 130.123C154.182 130.123 152.225 102.569 162.843 102.569C162.843 102.573 156.135 109.14 154.182 130.123Z" fill="#6AC253"/>
<path d="M154.704 125.585C154.704 125.585 151.447 103.577 167.07 105.276C167.07 105.272 156.629 106.638 154.704 125.585Z" fill="#6AC253"/>
<path d="M149.774 113.489L149.831 112.756C149.831 113.554 151.776 114.2 154.178 114.2C154.264 114.2 154.347 114.192 154.433 114.192C155.19 120.252 153.865 127.769 154.293 132.46C154.297 132.455 152.751 120.693 149.774 113.489Z" fill="#6AB358"/>
<path d="M154.848 114.176C155.786 114.126 156.625 113.986 157.266 113.772C155.996 117.841 154.832 123.194 154.186 130.127C154.182 130.123 153.586 121.705 154.848 114.176Z" fill="#6AB358"/>
<path d="M154.704 125.585C154.704 125.585 153.828 119.631 155.181 114.155C156.324 114.065 157.287 113.826 157.883 113.501C156.435 116.401 155.243 120.31 154.704 125.585Z" fill="#6AB358"/>
<path d="M149.835 232.642C149.835 233.424 151.727 234.053 154.063 234.053C156.394 234.053 158.29 233.42 158.29 232.642C158.29 231.861 156.399 231.231 154.063 231.231C151.727 231.231 149.835 231.865 149.835 232.642Z" fill="#AD8F51"/>
<path d="M144.941 49.7377C146.241 49.1082 147.758 49.7418 148.63 51.1283C148.733 49.4949 149.757 48.2113 151.204 48.1413C153.109 48.0508 154.26 49.6718 154.001 51.6837C153.705 53.963 150.411 58.1143 150.411 58.1143C150.411 58.1143 145.57 56.0983 144.18 54.1893C142.988 52.5477 143.226 50.5687 144.941 49.7377Z" fill="#FFADAD"/>
<path d="M157.093 19.6787C157.797 18.9052 158.985 18.9217 159.943 19.617C159.573 18.4938 159.915 17.3541 160.864 16.918C162.119 16.342 163.328 17.1196 163.698 18.539C164.117 20.1477 163.023 23.8259 163.023 23.8259C163.023 23.8259 159.232 23.7765 157.784 22.8755C156.542 22.0938 156.168 20.7032 157.093 19.6787Z" fill="#FFADAD"/>
<path d="M151.941 69.9511C152.525 69.7619 153.125 70.1198 153.409 70.7534C153.549 70.0746 154.054 69.5932 154.667 69.6508C155.473 69.7248 155.86 70.4736 155.634 71.3047C155.375 72.2469 153.746 73.7939 153.746 73.7939C153.746 73.7939 151.834 72.6583 151.361 71.7779C150.954 71.0167 151.172 70.198 151.941 69.9511Z" fill="#FFADAD"/>
<path d="M161.699 56.2753C162.304 56.3699 162.682 56.9583 162.649 57.6495C163.077 57.1064 163.747 56.9048 164.266 57.2298C164.952 57.6577 164.965 58.5011 164.385 59.1388C163.731 59.863 161.584 60.5171 161.584 60.5171C161.584 60.5171 160.384 58.6451 160.359 57.6453C160.338 56.7855 160.902 56.1519 161.699 56.2753Z" fill="#FFADAD"/>
<path d="M150.695 31.9886C151.27 31.7747 151.883 32.0997 152.2 32.721C152.307 32.0339 152.792 31.5319 153.405 31.5607C154.211 31.5978 154.634 32.326 154.445 33.1653C154.231 34.1157 152.677 35.7409 152.677 35.7409C152.677 35.7409 150.711 34.6999 150.201 33.8401C149.757 33.0995 149.938 32.2725 150.695 31.9886Z" fill="#FFADAD"/>
<path d="M170.998 36.9176C172.342 37.1933 173.115 38.551 172.976 40.0979C173.996 38.9254 175.513 38.551 176.64 39.3327C178.128 40.3654 178.059 42.2538 176.701 43.6198C175.163 45.1667 170.282 46.3887 170.282 46.3887C170.282 46.3887 167.802 42.0687 167.856 39.8305C167.901 37.905 169.225 36.5514 170.998 36.9176Z" fill="#FFADAD"/>
<path d="M203.958 59.4557C203.958 56.0861 207.668 53.7574 210.518 53.1197C213.368 52.482 216.127 54.7901 216.127 54.7901C216.259 54.9218 216.333 55.218 216.365 55.6294C215.362 56.5716 213.581 57.3245 210.551 57.5837C208.013 57.8018 206.117 59.143 205.505 63.2943C205.069 66.269 208.729 76.061 198.83 78.5254C207.606 74.551 203.958 62.8253 203.958 59.4557Z" fill="#591A07"/>
</svg>
