<svg width="40" height="40" viewBox="0 0 40 40" fill="none" xmlns="http://www.w3.org/2000/svg">
<path d="M26.1268 33.8732C23.3829 35.085 20.3414 35.4559 17.3867 34.939C14.432 34.4221 11.697 33.0407 9.52745 30.9695C7.3579 28.8982 5.85127 26.2301 5.19809 23.3025C4.54491 20.375 4.77451 17.3195 5.85787 14.5224C6.94122 11.7254 8.82967 9.31242 11.2844 7.58864C13.7391 5.86485 16.6499 4.9077 19.6486 4.8382C22.6473 4.76871 25.5993 5.59 28.1313 7.19821C30.6632 8.80643 32.6614 11.1293 33.8732 13.8732C35.6327 17.8455 35.7918 22.3434 34.3174 26.4301" stroke="#5363DD" stroke-width="3" stroke-linecap="round" stroke-linejoin="round"/>
<path d="M38.1146 23.4778L34.3173 26.4301L31.3649 22.6327" stroke="#5363DD" stroke-width="3" stroke-linecap="round" stroke-linejoin="round"/>
<path d="M16.4578 27.0089L16.918 24.9101C17.0292 24.4073 16.9067 23.9141 16.5875 23.5738L15.2272 22.1235C16.6655 19.7469 18.7727 17.7598 21.2482 16.4759L22.6137 17.9318C22.9329 18.272 23.4172 18.4259 23.9261 18.347L26.0384 18.0224C26.8848 17.889 27.5899 17.1648 27.6784 16.3269L27.8282 14.9071C27.9265 13.9761 27.2306 13.2342 26.2891 13.3309C19.1867 14.0581 12.9461 19.9117 11.7664 26.9531C11.6096 27.8865 12.3055 28.6284 13.2409 28.5898L14.6674 28.5311C15.5027 28.5024 16.2706 27.8451 16.4578 27.0089Z" fill="#5363DD"/>
</svg>
