<svg width="348" height="243" viewBox="0 0 348 243" fill="none" xmlns="http://www.w3.org/2000/svg">
<g clip-path="url(#clip0_380_5389)">
<path d="M-0.000488281 243L348 243L348 0L-0.000488281 0L-0.000488281 243Z" fill="white"/>
<path d="M298.355 228.081C298.355 228.081 332.838 164.28 310.892 109.835C245.429 -52.5719 29.4367 33.5486 50.6151 131.588C60.8636 179.032 10.4141 191.339 40.539 228.182L298.355 228.081Z" fill="#EBF3FA"/>
<path d="M305.61 211.807C301.124 223.128 298.355 228.081 298.355 228.081L40.5373 228.182C26.4241 210.922 29.9961 199.047 36.7248 186.421C45.1417 184.353 63.5448 186.793 76.5686 192.344C117.603 209.835 129.74 210.156 145.614 207.533C169.722 203.55 200.926 202.471 227.951 211.951C252.686 220.626 280.601 216.032 305.61 211.807Z" fill="#C5DDFF"/>
<path d="M35.6146 188.562C75.8325 190.036 81.1815 214.828 98.2692 214.726C98.9469 214.722 99.6077 214.735 100.249 214.766C100.885 214.795 101.505 214.841 102.106 214.902C102.631 214.955 103.143 215.02 103.641 215.094C105.095 215.311 106.447 215.616 107.705 215.993C117.351 218.869 121.363 225.81 122.397 227.95L40.5081 228.144C27.2304 211.883 29.6535 200.401 35.6146 188.562Z" fill="#A8D29F"/>
<path d="M96.5263 218.921C96.5263 218.921 106.968 207.252 113.784 208.391C120.602 209.53 96.5263 218.921 96.5263 218.921Z" fill="#A8D29F"/>
<path d="M98.0798 216.727C98.0798 216.727 97.1336 206.782 100.678 207.578C104.222 208.374 98.0798 216.727 98.0798 216.727Z" fill="#A8D29F"/>
<path d="M64.6793 224.611C64.6793 224.611 61.4328 212.508 67.6526 210.425C73.8711 208.34 64.6793 224.611 64.6793 224.611Z" fill="#82B378"/>
<path d="M66.9274 223.295C66.9274 223.295 70.0817 216.413 74.8197 214.898C79.5589 213.383 74.165 219.707 66.9274 223.295Z" fill="#82B378"/>
<path d="M62.8064 220.71C62.8064 220.71 59.5368 217.021 60.2752 214.661C61.0149 212.303 63.1197 216.647 62.8064 220.71Z" fill="#82B378"/>
<path d="M31.1317 209.467C38.4531 208.511 48.9482 209.914 67.7873 222.197C69.9128 223.584 72.5994 224.367 75.3808 224.361C78.088 224.353 81.5605 223.876 85.1277 222.126C98.5146 215.556 108.332 227.537 108.332 227.537H40.0199C34.6576 220.82 31.9868 214.92 31.1317 209.467Z" fill="#82B378"/>
<path d="M125.915 228.082C125.915 228.082 128.534 223.514 140.508 223.351C152.482 223.188 154.28 228.19 163.046 226.103C171.813 224.017 179.195 227.836 179.195 227.836L125.915 228.082Z" fill="#A8D29F"/>
<path d="M187.723 58.2641C169.651 58.2641 178.211 40.9783 190.987 46.3632C193.858 38.2409 206.265 39.7378 207.763 45.8553C213.006 41.8872 221.346 44.0596 221.988 49.3618C226.48 46.1858 233.326 49.3618 232.644 53.0761C236.854 49.3618 243.058 52.8914 242.041 55.9763C248.245 53.0761 250.544 58.2653 246.867 58.2653C240.965 58.2641 203.355 58.2641 187.723 58.2641Z" fill="#89929C"/>
<path d="M47.3086 100.25C33.3459 100.25 39.9593 86.8956 49.83 91.0558C52.0478 84.7803 61.6332 85.937 62.7895 90.6633C66.8401 87.5979 73.2833 89.277 73.7789 93.3715C77.2489 90.9185 82.5383 93.3715 82.0124 96.2401C85.265 93.3715 90.0577 96.098 89.2731 98.4806C94.0658 96.2401 95.8427 100.248 93.0006 100.248C88.4411 100.25 59.385 100.25 47.3086 100.25Z" fill="#89929C"/>
<path d="M236.114 156.17C211.103 156.17 222.948 138.841 240.631 144.24C244.604 136.097 261.775 137.598 263.848 143.731C271.103 139.753 282.647 141.931 283.534 147.246C289.752 144.063 299.225 147.246 298.283 150.969C304.109 147.246 312.695 150.784 311.288 153.876C319.874 150.969 323.056 156.17 317.966 156.17C309.798 156.17 257.747 156.17 236.114 156.17Z" fill="#89929C"/>
<path d="M21.0314 228.636H321.897C322.129 228.636 322.318 228.447 322.318 228.215V227.843C322.318 227.611 322.129 227.421 321.897 227.421H21.0314C20.7995 227.421 20.61 227.611 20.61 227.843V228.215C20.6112 228.447 20.8007 228.636 21.0314 228.636Z" fill="#2E3552"/>
<path d="M172.446 69.3619C168.345 60.1486 153.944 65.0025 159.588 75.5438C162.146 80.3224 175.309 86.4327 175.309 86.4327C180.876 80.6408 191.286 70.0618 183.952 64.0852C178.332 59.5058 172.2 65.4277 172.446 69.3619Z" fill="#C65447"/>
<path d="M212.579 123.677C211.778 123.14 209.958 121.959 209.865 122.222C209.797 122.411 209.894 122.733 210.113 123.067C209.012 122.677 207.895 122.422 205.254 122.903C204.726 122.999 204.246 123.285 203.955 123.715C203.685 124.112 203.584 124.61 204.258 125.008C205.607 125.802 205.216 125.326 207.088 126.484C208.961 127.642 211.256 127.937 212.626 127.124L214.465 126.834L214.693 123.965C214.693 123.965 213.645 123.846 212.579 123.677Z" fill="#BC6E39"/>
<path d="M260.845 99.6166C260.845 99.6166 256.735 104.495 251.5 102.454C251.5 102.454 250.374 99.7296 250.359 97.7212C250.357 97.4746 250.354 97.234 250.35 97.0068C250.322 94.7457 250.246 93.476 250.246 93.476C250.246 93.476 250.247 93.476 250.25 93.4748C250.489 93.3752 258.252 90.187 258.246 90.4519C258.112 96.5682 260.845 99.6166 260.845 99.6166Z" fill="#BC6E39"/>
<path d="M257.466 91.9099C256.718 93.2987 254.149 96.0142 250.349 97.0056C250.321 94.7445 250.244 93.4748 250.244 93.4748C250.244 93.4748 250.246 93.4748 250.249 93.4736C250.465 93.4177 257.688 91.5017 257.466 91.9099Z" fill="#A05A2B"/>
<path d="M248.619 93.2416C248.619 93.2416 257.35 95.2949 258.545 89.8359C259.74 84.3769 261.671 80.9664 256.147 79.4246C250.623 77.8827 249.081 79.7271 248.239 81.4524C247.396 83.1765 246.379 92.566 248.619 93.2416Z" fill="#BC6E39"/>
<path d="M258.246 91.323C258.365 91.3996 260.244 91.9767 263.801 84.8872C264.36 83.7743 264.74 81.3661 263.438 79.2387C262.136 77.1112 257.52 75.4382 253.685 74.7104C249.85 73.9826 248.929 76.1416 248.027 78.3104C247.078 80.5885 244.34 82.4633 244.34 82.4633C247.648 84.3113 251.631 81.6687 253.011 82.1024C254.391 82.5374 254.879 84.7122 254.982 85.4096C255.086 86.1071 255.245 86.6866 256.98 86.0633C258.716 85.44 257.765 88.5237 257.487 89.113C257.487 89.1142 257.25 90.6852 258.246 91.323Z" fill="#2C3A64"/>
<path d="M280.737 227.452H286.024C287.132 227.452 288.364 226.341 288.672 224.31C288.981 222.276 291.258 221.168 291.751 219.504C292.244 217.841 289.718 215.498 289.718 215.498L289.295 214.955L288.856 214.389L284.668 215.375C284.668 215.375 284.564 216.372 284.5 217.643C284.455 218.56 284.431 219.621 284.483 220.55C284.606 222.769 283.862 225.158 281.892 225.589C279.921 226.02 280.737 227.452 280.737 227.452Z" fill="#2C3A64"/>
<path d="M243.933 227.452H257.947C258.081 227.426 258.183 227.396 258.245 227.365C259.18 226.896 258.887 223.313 258.774 222.207C258.753 222.001 258.738 221.881 258.738 221.881C258.738 221.881 253.81 217.938 253.133 220.957C253.111 221.052 253.087 221.145 253.06 221.236V221.237C252.205 224.062 248.38 225.345 246.172 225.702C244.484 225.975 244.046 226.96 243.933 227.452Z" fill="#2C3A64"/>
<path d="M246.759 146.612C246.759 146.612 247.507 155.951 248.386 167.179C249.581 182.431 251.019 201.165 251.161 204.714C251.407 210.877 252.394 220.735 252.394 220.735C252.394 220.735 254.734 223.076 259.416 222.09C259.416 222.09 263.588 208.018 264.779 193.128C264.797 192.884 264.817 192.638 264.835 192.392C265.944 177.234 267.667 145.316 267.667 145.316L246.759 146.612Z" fill="#2B478B"/>
<path d="M246.759 146.612C246.759 146.612 247.507 155.951 248.386 167.179L264.78 193.128C264.799 192.884 264.818 192.638 264.836 192.392C265.945 177.234 267.669 145.316 267.669 145.316L246.759 146.612Z" fill="#233862"/>
<path d="M250.175 147.721C250.175 147.721 263.664 181.548 272.534 197.445C281.404 213.342 284.176 217.778 284.176 217.778C284.176 217.778 289.258 215.745 289.719 214.358C289.719 214.358 286.328 183.668 280.388 176.187C277.032 171.96 273.089 159.274 272.905 154.837C272.72 150.401 271.703 141.62 271.703 141.62L250.175 147.721Z" fill="#2B478B"/>
<path d="M213.326 111.497L211.188 110.577C211.188 110.577 208.148 107.436 204.447 110.072C204.447 110.072 203.01 111.275 204.256 111.982C205.502 112.689 205.121 112.249 206.857 113.282C208.593 114.314 210.627 114.51 211.761 113.685L213.348 113.339L213.326 111.497Z" fill="#BC6E39"/>
<path d="M211.109 112.137C211.324 110.572 211.535 110.412 211.535 110.412C211.535 110.412 230.821 110.656 232.308 110.582C233.794 110.508 253.077 102.291 253.077 102.291L258.225 111.61C258.225 111.61 234.992 118.347 231.215 118.353C226.916 118.359 211.41 114.372 211.41 114.372C211.41 114.372 210.94 113.366 211.109 112.137Z" fill="#E58638"/>
<path d="M243.91 119.772C243.963 122.665 244.13 125.917 244.357 129.219C244.371 129.415 244.385 129.61 244.399 129.807C244.543 131.853 244.701 133.904 244.881 135.904C244.954 136.706 245.03 137.498 245.11 138.277L245.123 138.381C245.129 138.673 245.164 138.989 245.197 139.277C245.934 146.767 246.705 152.684 246.849 152.775C247.02 152.89 247.212 152.947 247.423 152.922C249.387 152.676 255.245 153.122 260.041 152.078C264.088 151.224 267.574 149.604 271.266 147.421C271.757 147.13 272.874 146.363 272.783 145.789C272.693 145.159 272.529 144.247 272.319 143.102C271.592 139.118 270.336 132.264 269.907 124.243C269.823 122.749 269.702 121.274 269.545 119.823C269.133 116.045 268.474 112.454 267.59 109.266C265.945 103.342 262.467 98.9047 259.434 97.1295C259.038 96.9072 257.968 98.1659 256.011 99.4222C254.203 100.581 252.489 100.053 250.638 99.8912L248.819 102.542C246.846 104.836 244.745 107.891 244.172 112.233C244.128 112.554 244.091 112.894 244.061 113.257C243.904 115.026 243.866 117.265 243.91 119.772Z" fill="#EE9849"/>
<path d="M243.911 119.772C243.963 122.665 244.13 125.917 244.358 129.219C244.371 129.415 244.385 129.61 244.399 129.807C255.615 122.784 257.342 109.933 257.342 109.933C251.825 110.175 247.441 111.445 244.062 113.259C243.905 115.026 243.866 117.265 243.911 119.772Z" fill="#E58638"/>
<path d="M213.017 125.304C212.895 123.641 213.804 123.364 213.804 123.364C213.804 123.364 231.642 120.298 233.158 119.845C234.674 119.393 247.64 106.6 247.64 106.6C247.64 106.6 252.611 101.285 256.681 102.459C260.217 103.479 261.6 106.095 262.07 108.587C262.631 111.556 261.187 114.545 258.474 116.122C252.387 119.663 240.2 126.641 237.33 127.438C230.941 129.214 213.778 127.58 213.778 127.58C213.778 127.58 213.113 126.612 213.017 125.304Z" fill="#EE9849"/>
<path d="M102.808 114.523C104.185 115.198 105.803 115.972 107.513 116.746C113.529 119.477 120.972 120.302 123.1 119.832C131.547 117.966 140.932 112.967 140.932 112.967L139.58 111.282C139.58 111.282 133.58 112.44 123.251 114.282C121.805 114.539 115.238 113.114 111.563 110.463C109.775 109.169 107.929 108.001 106.296 107.509C105.002 107.117 103.524 107.813 102.213 108.79C100.143 110.332 100.466 113.373 102.808 114.523Z" fill="#BC6E39"/>
<path d="M138.316 111.587C138.316 111.587 141.241 107.4 144.592 108.034C145.656 108.236 143.446 111.519 142.435 112.352C141.634 113.011 139.306 113.708 139.306 113.708L138.316 111.587Z" fill="#BC6E39"/>
<path d="M104.885 105.82C104.885 105.82 108.972 107.146 110.143 108.625C111.314 110.103 109.343 115.697 109.343 115.697L104.885 105.82Z" fill="#FFB93E"/>
<path d="M98.024 138.324C98.024 138.324 97.656 138.82 95.6168 138.96C95.6168 138.96 96.835 140.648 96.8605 140.76C96.886 140.872 96.6358 142.957 97.5504 143.789C98.4649 144.621 98.6508 145.183 100.309 144.487C101.965 143.792 102.056 142.25 101.795 141.9C101.534 141.551 99.0103 139.674 99.0103 139.674C99.0103 139.674 98.7236 139.689 98.024 138.324Z" fill="#EFA26F"/>
<path d="M102.937 171.999C105.637 178.355 107.769 183.874 108.381 185.077C108.381 185.079 108.381 185.079 108.382 185.082C108.471 185.257 108.467 185.454 108.433 185.646C107.318 191.648 107.707 199.066 109.411 204.278C112.836 214.757 117.604 223.085 117.604 223.085L121.42 224.436C121.42 224.436 118.391 217.377 116.988 203.785C116.55 199.538 116.27 194.654 116.294 189.148C116.318 183.018 116.126 167.134 113.966 155.91C113.744 154.747 109.923 147.324 109.313 144.725C108.981 143.315 108.195 142.289 108.195 142.289L102.635 141.883L93.2861 144.115C92.4723 147.271 102.769 171.608 102.937 171.999Z" fill="#BC6E39"/>
<path d="M107.356 85.0986C107.356 85.0986 99.4961 75.652 95.3362 81.6966C95.3362 81.6966 92.2318 82.9845 91.1095 88.2698C89.9642 93.6619 93.5484 97.7614 95.4018 96.748C96.5909 96.098 97.4909 98.1793 97.4909 98.1793L107.356 85.0986Z" fill="#2C3A64"/>
<path d="M104.885 105.82C104.915 105.834 101.996 107.35 99.801 106.75C97.735 106.186 95.1176 105.494 95.1468 105.488C96.0213 105.314 97.5419 102.126 97.5237 96.9582L97.9196 97.036L104.568 98.353C104.568 98.353 104.416 100.446 104.413 102.417C104.407 104.073 104.506 105.643 104.885 105.82Z" fill="#BC6E39"/>
<path d="M104.567 98.353C104.567 98.353 104.415 100.446 104.411 102.417C100.691 102.313 98.7249 98.9168 97.9184 97.036L104.567 98.353Z" fill="#A05A2B"/>
<path d="M97.2322 96.3118C97.2322 96.3118 95.2828 93.2306 94.8152 90.5953C94.4812 88.7144 95.4395 81.7404 102.444 82.7452C102.444 82.7452 104.478 82.9456 106.391 84.2372C107.912 85.2651 110.107 87.4836 107.653 93.5684L107.015 95.6241L97.2322 96.3118Z" fill="#2C3A64"/>
<path d="M105.809 100.22C105.809 100.22 97.0076 100.366 97.0015 94.8806C96.9954 89.3961 95.8549 85.7207 101.475 85.3963C107.094 85.0719 108.189 87.1629 108.636 88.9939C109.083 90.8237 108.099 100.041 105.809 100.22Z" fill="#BC6E39"/>
<path d="M105.483 85.2614C105.483 85.2614 103.073 91.6961 99.3746 92.6474C95.6763 93.5988 94.0718 92.6073 94.0718 92.6073C94.0718 92.6073 96.3139 90.0595 96.9018 86.1241C96.9018 86.1241 103.666 82.1984 105.483 85.2614Z" fill="#2C3A64"/>
<path d="M104.886 85.7839C104.886 85.7839 106.686 87.22 107.125 88.6173C107.563 90.0145 107.761 92.8892 108.599 92.792C108.599 92.792 110.415 88.418 108.375 85.9443C106.21 83.3199 104.886 85.7839 104.886 85.7839Z" fill="#2C3A64"/>
<path d="M109.364 144.966C108.452 142.05 107.226 139.145 106.969 137.03C106.641 134.349 106.737 132.207 107.008 130.34C106.998 130.407 107.018 130.271 107.008 130.34C107.588 126.567 110.762 124.021 110.516 120.236C110.269 116.463 109.748 113.053 108.239 110.187C106.881 107.611 104.886 105.82 104.886 105.82C104.886 105.82 98.924 105.208 95.403 105.447C95.3241 105.452 95.2451 105.457 95.1613 105.467C87.0893 108.524 91.0597 122.065 91.9002 126.241C92.0034 126.749 92.137 127.303 92.1419 127.319C92.6277 129.157 91.2018 131.899 91.3621 133.265C91.4921 134.364 91.5346 135.256 91.5225 135.85C91.4702 138.029 89.9921 139.986 86.9071 146.91C85.2006 150.739 105.302 144.739 109.364 144.966Z" fill="#BC6E39"/>
<path d="M55.2252 195.535L55.6333 198.276C55.6333 198.276 66.5316 194.892 78.7428 191.653C82.5942 190.63 87.5593 189.059 91.2905 187.88C95.0314 186.699 106.886 135.171 106.886 135.171C106.886 135.171 101.702 137.839 93.0917 135.984C90.2363 135.369 91.701 135.742 90.2217 138.324C80.9375 154.526 86.8063 178.307 84.212 180.794C83.0035 181.206 79.31 181.923 77.9351 182.446C68.5392 186.006 55.2252 195.535 55.2252 195.535Z" fill="#BC6E39"/>
<path d="M50.6973 195.163L51.0203 196.988C51.2244 197.582 51.4819 198.003 51.675 198.615C51.9689 199.546 51.6556 200.052 51.5815 200.156C51.5717 200.169 51.5657 200.176 51.5657 200.176L52.9381 207.93C53.2515 208.076 53.8636 207.775 54.3057 207.508C54.607 207.326 54.8037 207.014 54.8401 206.664C54.9325 205.8 54.8572 204.141 55.9381 202.419C56.5442 201.451 57.998 197.894 57.998 197.894L57.9992 197.877C57.9859 197.807 57.8231 197.491 56.3389 196.254C55.5725 195.614 56.4276 194.195 56.4276 194.195C56.4276 194.195 56.4142 193.789 56.2296 193.743C55.909 193.661 55.4912 193.616 55.0102 193.786C54.3325 194.026 52.9685 193.882 52.0381 193.74C51.4746 193.654 51.0701 193.568 51.0701 193.568C51.0701 193.568 50.6159 193.557 50.6973 195.163Z" fill="#2B478B"/>
<path d="M56.2296 193.741C56 194.231 55.5579 195.259 55.5859 195.882C55.6235 196.724 57.998 197.893 57.998 197.893L57.9992 197.876C57.9859 197.806 57.8231 197.49 56.3389 196.253C55.5725 195.613 56.9425 194.338 56.9425 194.338C56.9425 194.338 56.6328 193.854 56.2296 193.741Z" fill="#233862"/>
<path d="M50.6973 195.163L51.0203 196.988C51.2244 197.582 51.4819 198.003 51.675 198.615C51.9689 199.546 51.6556 200.052 51.5815 200.156C51.5718 200.169 51.5657 200.176 51.5657 200.176L52.9381 207.93C53.2515 208.076 53.8636 207.775 54.3057 207.508C54.4734 207.235 53.3438 207.367 53.1422 207.268C52.9406 207.17 51.958 200.954 52.1547 200.55C52.3515 200.147 52.6163 198.993 51.9944 197.56C51.4527 196.312 51.9106 194.253 52.0381 193.74C51.4746 193.654 51.0701 193.568 51.0701 193.568C51.0701 193.568 50.6159 193.557 50.6973 195.163Z" fill="white"/>
<path d="M105.22 86.0014C105.22 86.0014 103.503 92.7398 98.8365 94.8976C98.8365 94.8976 103.503 90.7581 103.9 86.3088C104.296 81.8619 105.22 86.0014 105.22 86.0014Z" fill="#2C3A64"/>
<path d="M91.248 131.044C80.1687 144.8 70.768 170.36 71.1384 171.254C72.1441 172.285 86.5415 178.503 102.775 179.123C110.519 179.418 121.095 176.009 122.177 174.837C118.319 163.307 108.071 138.005 107.167 132.201C107.245 131.333 111.713 121.726 111.649 120.75C111.572 119.594 111.366 118.424 111.07 117.274C110.402 114.674 108.194 108.337 104.888 105.819C108.276 111.501 101.352 110.372 98.7843 107.76C97.5868 106.542 96.3297 105.847 95.1625 105.467C85.5942 108.778 91.2613 126.016 91.248 131.044Z" fill="#FFB93E"/>
<path d="M94.7568 121.637C99.7778 124.833 109.329 126.381 109.117 125.653C109.957 124.972 105.412 122.264 102.822 119.018C97.9183 112.875 92.2087 112.914 92.2087 112.914C92.2087 112.914 89.1455 114.215 94.7568 121.637Z" fill="#E3A330"/>
<path d="M93.5156 117.412C94.8492 118.443 96.4185 119.635 98.0873 120.846C103.96 125.116 111.826 127.595 114.242 127.528C123.831 127.262 135.174 123.753 135.174 123.753L134.106 121.617C134.106 121.617 127.335 121.622 115.712 121.465C114.087 121.443 107.308 118.49 103.952 114.803C102.321 113.005 100.597 111.332 98.9435 110.446C97.633 109.741 95.8683 110.193 94.2189 110.99C91.6161 112.245 91.2505 115.655 93.5156 117.412Z" fill="#BC6E39"/>
<path d="M132.667 121.682C132.667 121.682 136.158 118.467 139.403 119.956C140.484 120.451 138.24 122.691 136.947 123.392C135.926 123.947 133.239 124.222 133.239 124.222L132.667 121.682Z" fill="#BC6E39"/>
<path d="M92.3483 116.657C93.5556 118.12 96.0406 120.185 96.6528 120.428C100.571 118.075 102.665 114.951 103.012 113.424C101.445 111.637 99.4317 109.945 97.8236 109.35C96.4791 108.852 94.2819 109.051 93.173 109.858C91.2941 111.225 90.5762 114.51 92.3483 116.657Z" fill="#FFB93E"/>
<path d="M116.409 227.433H118.262C118.883 227.335 119.342 227.156 119.979 227.073C120.945 226.946 121.391 227.342 121.479 227.433C121.491 227.446 121.496 227.452 121.496 227.452H129.367C129.565 227.169 129.374 226.514 129.189 226.031C129.064 225.703 128.79 225.455 128.451 225.357C127.617 225.115 125.971 224.9 124.464 223.534C123.616 222.768 120.37 220.716 120.37 220.716L120.353 220.712C120.281 220.713 119.942 220.818 118.465 222.066C117.701 222.709 116.46 221.408 116.46 221.408C116.46 221.408 116.156 221.537 115.974 221.735C115.827 222.033 115.72 222.441 115.805 222.944C115.923 223.654 115.544 224.972 115.242 225.864C115.058 226.404 114.904 226.787 114.904 226.787C114.904 226.787 114.814 227.233 116.409 227.433Z" fill="#2B478B"/>
<path d="M115.974 221.735C116.416 222.047 117.35 222.661 117.97 222.742C118.805 222.852 120.37 220.717 120.37 220.717L120.353 220.713C120.281 220.714 119.942 220.819 118.465 222.067C117.701 222.711 116.594 221.217 116.594 221.217C116.594 221.217 116.156 221.358 115.974 221.735Z" fill="#233862"/>
<path d="M116.409 227.433H118.262C118.883 227.335 119.342 227.156 119.979 227.073C120.945 226.946 121.391 227.342 121.479 227.433C121.491 227.446 121.496 227.452 121.496 227.452H129.367C129.565 227.169 129.374 226.514 129.189 226.031C128.949 225.819 128.883 226.955 128.75 227.136C128.618 227.317 122.329 227.201 121.966 226.938C121.602 226.673 120.513 226.211 118.994 226.574C117.672 226.89 115.723 226.08 115.242 225.865C115.058 226.406 114.904 226.788 114.904 226.788C114.904 226.788 114.814 227.233 116.409 227.433Z" fill="white"/>
<path d="M96.7414 81.6577C96.7414 81.6577 94.0159 77.9556 89.7746 78.6008C82.6961 79.6761 84.2374 89.6524 80.0132 90.6803C75.7889 91.7082 74.8755 94.8976 74.8755 94.8976C74.8755 94.8976 80.1844 103.356 87.4912 96.9582C91.3815 93.5514 87.6625 81.4293 96.2252 82.6467L96.7414 81.6577Z" fill="#2C3A64"/>
</g>
<defs>
<clipPath id="clip0_380_5389">
<rect width="348" height="243" fill="white"/>
</clipPath>
</defs>
</svg>
