<svg width="64" height="64" viewBox="0 0 64 64" fill="none" xmlns="http://www.w3.org/2000/svg">
<path d="M30.8365 21.0928C29.7268 21.0928 28.6421 21.4103 27.7195 22.0051C26.7969 22.6 26.0778 23.4454 25.6531 24.4346C25.2285 25.4238 25.1174 26.5123 25.3339 27.5624C25.5504 28.6126 26.0847 29.5772 26.8693 30.3343C27.6539 31.0913 28.6536 31.6069 29.7419 31.8158C30.8302 32.0247 31.9583 31.9175 32.9835 31.5078C34.0086 31.098 34.8849 30.4042 35.5013 29.5139C36.1178 28.6237 36.4469 27.577 36.4469 26.5063C36.4469 25.0705 35.8558 23.6936 34.8036 22.6784C33.7515 21.6631 32.3244 21.0928 30.8365 21.0928ZM30.8365 29.7544C30.1707 29.7544 29.5199 29.5639 28.9663 29.207C28.4127 28.8501 27.9813 28.3428 27.7265 27.7493C27.4717 27.1558 27.405 26.5027 27.5349 25.8726C27.6648 25.2426 27.9854 24.6638 28.4562 24.2095C28.927 23.7553 29.5268 23.4459 30.1797 23.3206C30.8327 23.1953 31.5096 23.2596 32.1247 23.5054C32.7398 23.7513 33.2655 24.1676 33.6354 24.7017C34.0053 25.2359 34.2027 25.8639 34.2027 26.5063C34.2018 27.3675 33.8469 28.1932 33.2158 28.8021C32.5847 29.4111 31.729 29.7536 30.8365 29.7544Z" fill="#5363DD"/>
<path d="M30.8363 14.5964C27.7293 14.5964 24.6921 15.4854 22.1088 17.151C19.5254 18.8166 17.512 21.1839 16.323 23.9537C15.134 26.7234 14.8229 29.7711 15.4291 32.7115C16.0352 35.6518 17.5313 38.3527 19.7283 40.4726C21.9252 42.5924 24.7243 44.0361 27.7716 44.621C30.8189 45.2058 33.9774 44.9057 36.8479 43.7584C39.7184 42.6111 42.1718 40.6683 43.8979 38.1756C45.6241 35.6829 46.5454 32.7523 46.5454 29.7543C46.5406 25.7356 44.884 21.8828 41.939 19.0411C38.994 16.1995 35.0011 14.601 30.8363 14.5964ZM24.1038 40.9896V39.4987C24.1047 38.6375 24.4597 37.8118 25.0908 37.2029C25.7219 36.5939 26.5776 36.2514 27.4701 36.2506H34.2025C35.095 36.2514 35.9507 36.5939 36.5818 37.2029C37.2129 37.8118 37.5679 38.6375 37.5688 39.4987V40.9896C35.5256 42.1407 33.2022 42.7473 30.8363 42.7473C28.4704 42.7473 26.1469 42.1407 24.1038 40.9896ZM39.8039 39.4186C39.7816 37.9984 39.1819 36.6436 38.1342 35.646C37.0864 34.6484 35.6745 34.0878 34.2025 34.0852H27.4701C25.9981 34.0878 24.5861 34.6484 23.5384 35.646C22.4907 36.6436 21.891 37.9984 21.8686 39.4186C19.8338 37.6654 18.3989 35.3572 17.7538 32.7996C17.1087 30.242 17.2839 27.5557 18.2563 25.0964C19.2286 22.637 20.9522 20.5206 23.1987 19.0275C25.4453 17.5343 28.1089 16.7348 30.8369 16.7348C33.5648 16.7348 36.2284 17.5343 38.475 19.0275C40.7215 20.5206 42.4451 22.637 43.4174 25.0964C44.3898 27.5557 44.565 30.242 43.9199 32.7996C43.2748 35.3572 41.8388 37.6654 39.8039 39.4186Z" fill="#5363DD"/>
<path d="M63 8.98246C63 13.3577 59.3139 16.9649 54.6909 16.9649C50.068 16.9649 46.3818 13.3577 46.3818 8.98246C46.3818 4.60723 50.068 1 54.6909 1C59.3139 1 63 4.60723 63 8.98246Z" stroke="#5363DD" stroke-width="2"/>
<path d="M60.6727 47.1579C60.6727 50.913 57.5076 54.0175 53.5273 54.0175C49.547 54.0175 46.3818 50.913 46.3818 47.1579C46.3818 43.4028 49.547 40.2982 53.5273 40.2982C57.5076 40.2982 60.6727 43.4028 60.6727 47.1579Z" stroke="#5363DD" stroke-width="2"/>
<path d="M36.2365 58.386C36.2365 60.9009 34.1133 63 31.4183 63C28.7233 63 26.6001 60.9009 26.6001 58.386C26.6001 55.8711 28.7233 53.772 31.4183 53.772C34.1133 53.772 36.2365 55.8711 36.2365 58.386Z" stroke="#5363DD" stroke-width="2"/>
<path d="M11.8 10.6666C11.8 13.4916 9.4163 15.8421 6.4 15.8421C3.3837 15.8421 1 13.4916 1 10.6666C1 7.8417 3.3837 5.49121 6.4 5.49121C9.4163 5.49121 11.8 7.8417 11.8 10.6666Z" stroke="#5363DD" stroke-width="2"/>
<path d="M8.30903 40.9824C8.30903 42.5672 6.96729 43.9123 5.2363 43.9123C3.50531 43.9123 2.16357 42.5672 2.16357 40.9824C2.16357 39.3977 3.50531 38.0526 5.2363 38.0526C6.96729 38.0526 8.30903 39.3977 8.30903 40.9824Z" stroke="#5363DD" stroke-width="2"/>
<path d="M15.1905 15.5167C14.7685 15.1604 14.1376 15.2137 13.7813 15.6356C13.425 16.0576 13.4783 16.6886 13.9003 17.0448L15.1905 15.5167ZM19.8451 19.4465L15.1905 15.5167L13.9003 17.0448L18.5548 20.9747L19.8451 19.4465Z" fill="#5363DD"/>
<path d="M7.75434 38.977C7.23862 39.1959 6.99568 39.7782 7.21171 40.2777C7.42775 40.7772 8.02096 41.0046 8.53668 40.7857L7.75434 38.977ZM17.0634 35.0255L7.75434 38.977L8.53668 40.7857L17.8458 36.8342L17.0634 35.0255Z" fill="#5363DD"/>
<path d="M29.698 50.2234C29.698 50.7661 30.1534 51.2089 30.7151 51.2125C31.2768 51.216 31.7322 50.779 31.7322 50.2363L29.698 50.2234ZM29.698 42.6602L29.698 50.2234L31.7322 50.2363L31.7322 42.6732L29.698 42.6602Z" fill="#5363DD"/>
<path d="M46.6947 44.188C47.0916 44.5698 47.7249 44.5561 48.1093 44.1574C48.4937 43.7587 48.4835 43.126 48.0866 42.7442L46.6947 44.188ZM41.1949 38.8974L46.6947 44.188L48.0866 42.7442L42.5869 37.4536L41.1949 38.8974Z" fill="#5363DD"/>
<path d="M48.2323 15.8886C48.644 15.5172 48.6788 14.8853 48.31 14.4772C47.9412 14.0691 47.3084 14.0394 46.8967 14.4107L48.2323 15.8886ZM42.5587 21.0054L48.2323 15.8886L46.8967 14.4107L41.2231 19.5276L42.5587 21.0054Z" fill="#5363DD"/>
</svg>
