<svg width="42" height="43" viewBox="0 0 42 43" fill="none" xmlns="http://www.w3.org/2000/svg">
<path d="M20.4116 23.6475C17.9155 23.6475 15.5216 24.6391 13.7566 26.4041C11.9916 28.1692 11 30.563 11 33.0592C11 35.5553 11.9916 37.9492 13.7566 39.7142C15.5216 41.4792 17.9155 42.4708 20.4116 42.4708C22.9078 42.4708 25.3016 41.4792 27.0667 39.7142C28.8317 37.9492 29.8233 35.5553 29.8233 33.0592C29.8233 30.563 28.8317 28.1692 27.0667 26.4041C25.3016 24.6391 22.9078 23.6475 20.4116 23.6475Z" fill="#5363DD"/>
<path d="M10.5105 23.0601L6.7309 23.2992C4.95623 23.4128 3.43399 22.3406 3.0312 20.7494L2.95963 20.4024L2.68673 18.5032C2.41695 16.6187 3.21905 14.6821 4.7972 13.4044C8.55086 10.3717 14.2563 8.98058 21.9134 9.23916C29.5607 9.49448 34.9431 11.2478 38.0705 14.5025C39.2856 15.7667 39.7356 17.5461 39.2956 19.2677L39.152 19.733L38.4948 21.6023C38.2045 22.3946 37.6677 23.0785 36.9624 23.5546C36.2571 24.0308 35.42 24.2745 34.5724 24.2504L34.1755 24.2181L30.4536 23.7252C29.7574 23.6451 29.1045 23.3601 28.5792 22.9068C28.054 22.4536 27.6805 21.853 27.5071 21.1826L27.4358 20.811L26.9081 16.7719C25.1628 15.9194 23.2621 15.424 21.1925 15.3006C19.4208 15.1932 17.7646 15.3624 16.2271 15.8229L15.4654 16.0761L14.0997 20.324C13.8676 21.0153 13.4476 21.6325 12.8862 22.1072C12.3247 22.5819 11.6437 22.8956 10.9184 23.0137L10.5121 23.0634L10.5105 23.0601Z" fill="#5363DD"/>
</svg>
