<svg width="21" height="21" viewBox="0 0 21 21" fill="none" xmlns="http://www.w3.org/2000/svg">
<path fill-rule="evenodd" clip-rule="evenodd" d="M8.26381 1.86163C8.10654 2.00394 7.94126 2.13716 7.7688 2.26063C7.4708 2.46063 7.13579 2.59863 6.78378 2.66863C6.63077 2.69863 6.47077 2.71163 6.15176 2.73663C5.35074 2.80063 4.94973 2.83263 4.61572 2.95063C4.23381 3.08547 3.88694 3.3041 3.60055 3.59048C3.31416 3.87686 3.09552 4.22373 2.96068 4.60563C2.84268 4.93963 2.81068 5.34063 2.74668 6.14163C2.73577 6.35339 2.71307 6.56439 2.67868 6.77363C2.60867 7.12563 2.47067 7.46063 2.27066 7.75863C2.18366 7.88863 2.07966 8.01063 1.87165 8.25363C1.35064 8.86563 1.08964 9.17163 0.936632 9.49163C0.583623 10.2316 0.583623 11.0916 0.936632 11.8316C1.08964 12.1516 1.35064 12.4576 1.87165 13.0696C2.07966 13.3126 2.18366 13.4346 2.27066 13.5646C2.47067 13.8626 2.60867 14.1976 2.67868 14.5496C2.70868 14.7026 2.72168 14.8626 2.74668 15.1816C2.81068 15.9826 2.84268 16.3836 2.96068 16.7176C3.09552 17.0995 3.31416 17.4464 3.60055 17.7328C3.88694 18.0192 4.23381 18.2378 4.61572 18.3726C4.94973 18.4906 5.35074 18.5226 6.15176 18.5866C6.47077 18.6116 6.63077 18.6246 6.78378 18.6546C7.13579 18.7246 7.4708 18.8636 7.7688 19.0626C7.89881 19.1496 8.02081 19.2536 8.26381 19.4616C8.87583 19.9826 9.18184 20.2436 9.50185 20.3966C10.2419 20.7496 11.1019 20.7496 11.8419 20.3966C12.1619 20.2436 12.4679 19.9826 13.0799 19.4616C13.3229 19.2536 13.4449 19.1496 13.5749 19.0626C13.873 18.8626 14.208 18.7246 14.56 18.6546C14.713 18.6246 14.873 18.6116 15.192 18.5866C15.993 18.5226 16.394 18.4906 16.728 18.3726C17.1099 18.2378 17.4568 18.0192 17.7432 17.7328C18.0296 17.4464 18.2482 17.0995 18.3831 16.7176C18.5011 16.3836 18.5331 15.9826 18.5971 15.1816C18.6221 14.8626 18.6351 14.7026 18.6651 14.5496C18.7351 14.1976 18.8741 13.8626 19.0731 13.5646C19.1601 13.4346 19.2641 13.3126 19.4721 13.0696C19.9931 12.4576 20.2541 12.1516 20.4071 11.8316C20.7601 11.0916 20.7601 10.2316 20.4071 9.49163C20.2541 9.17163 19.9931 8.86563 19.4721 8.25363C19.3298 8.09635 19.1966 7.93109 19.0731 7.75863C18.8733 7.46051 18.7346 7.12572 18.6651 6.77363C18.6307 6.56439 18.608 6.35339 18.5971 6.14163C18.5331 5.34063 18.5011 4.93963 18.3831 4.60563C18.2482 4.22373 18.0296 3.87686 17.7432 3.59048C17.4568 3.3041 17.1099 3.08547 16.728 2.95063C16.394 2.83263 15.993 2.80063 15.192 2.73663C14.9802 2.72572 14.7692 2.70302 14.56 2.66863C14.2079 2.59912 13.8731 2.46044 13.5749 2.26063C13.4027 2.13689 13.2374 2.00369 13.0799 1.86163C12.4679 1.34063 12.1619 1.07963 11.8419 0.926629C11.4766 0.75201 11.0768 0.661377 10.6719 0.661377C10.267 0.661377 9.86718 0.75201 9.50185 0.926629C9.18184 1.07963 8.87583 1.34063 8.26381 1.86163ZM15.045 8.52463C15.1863 8.36994 15.2626 8.1667 15.2578 7.95722C15.2531 7.74774 15.1678 7.54815 15.0196 7.39999C14.8715 7.25182 14.6719 7.1665 14.4624 7.16178C14.2529 7.15705 14.0497 7.23329 13.895 7.37463L9.04484 12.2246L7.44879 10.6296C7.2941 10.4883 7.09086 10.4121 6.88137 10.4168C6.67189 10.4215 6.47229 10.5068 6.32412 10.655C6.17596 10.8031 6.09063 11.0027 6.08591 11.2122C6.08119 11.4217 6.15743 11.6249 6.29877 11.7796L8.46882 13.9496C8.62143 14.1019 8.82823 14.1875 9.04383 14.1875C9.25944 14.1875 9.46624 14.1019 9.61885 13.9496L15.046 8.52463H15.045Z" fill="#5363DD"/>
</svg>
