<svg width="18" height="29" viewBox="0 0 18 29" fill="none" xmlns="http://www.w3.org/2000/svg">
<path d="M1.62489 10.9818C2.41187 10.9818 3.04984 10.3438 3.04984 9.55684C3.04984 8.76987 2.41187 8.1319 1.62489 8.1319C0.83792 8.1319 0.199951 8.76987 0.199951 9.55684C0.199951 10.3438 0.83792 10.9818 1.62489 10.9818Z" fill="#F8F8F8"/>
<path d="M13.8478 5.75425C15.4368 5.75425 16.725 4.46612 16.725 2.87713C16.725 1.28813 15.4368 0 13.8478 0C12.2588 0 10.9707 1.28813 10.9707 2.87713C10.9707 4.46612 12.2588 5.75425 13.8478 5.75425Z" fill="#F8F8F8"/>
<path d="M7.9137 5.59021C8.90494 5.59021 9.70849 4.78665 9.70849 3.79541C9.70849 2.80417 8.90494 2.00061 7.9137 2.00061C6.92246 2.00061 6.1189 2.80417 6.1189 3.79541C6.1189 4.78665 6.92246 5.59021 7.9137 5.59021Z" fill="#F8F8F8"/>
<path d="M16.1809 22.0794C15.7387 21.3696 15.4905 20.5561 15.4611 19.7203C15.4317 18.8845 15.6222 18.0557 16.0135 17.3166L16.0024 17.2998C16.7391 16.1967 17.1316 14.8996 17.13 13.5731C17.13 9.85613 14.1167 6.84314 10.4001 6.84314C6.68316 6.84314 3.67017 9.85613 3.67017 13.5731C3.67017 14.299 3.78831 14.9967 4.0013 15.6521C4.14225 16.2317 4.37113 16.7862 4.67997 17.2966L4.64846 17.3146L9.5232 25.7583C10.0378 27.281 11.4749 28.3784 13.1709 28.3784C15.2988 28.3784 17.0247 26.6535 17.0247 24.5253C17.0247 23.6021 16.6991 22.7551 16.1573 22.0915L16.1809 22.0794Z" fill="#F8F8F8"/>
<path d="M4.12294 7.96518C4.90992 7.96518 5.54788 7.32721 5.54788 6.54024C5.54788 5.75326 4.90992 5.1153 4.12294 5.1153C3.33597 5.1153 2.698 5.75326 2.698 6.54024C2.698 7.32721 3.33597 7.96518 4.12294 7.96518Z" fill="#F8F8F8"/>
</svg>
